<?xml version="1.0" encoding="UTF-8"?>
<svg width="24px" height="24px" viewBox="0 0 24 24" version="1.1" xmlns="http://www.w3.org/2000/svg" xmlns:xlink="http://www.w3.org/1999/xlink">
    <title>地图</title>
    <g id="CIM一张图" stroke="currentColor" stroke-width="1" fill="none" fill-rule="evenodd">
        <g id="数据演示-按键交互" transform="translate(-1375.000000, -270.000000)" fill-rule="nonzero">
            <g id="地图" transform="translate(1375.000000, 270.000000)">
                <rect id="矩形" fill="#000000" opacity="0" x="0" y="0" width="24" height="24"></rect>
                <path d="M19.2419643,16.2655749 L19.2419643,5.92404985 L15.6209822,8.18586015 L15.6209822,18.5298185 L19.2419643,16.2654591 L19.2419643,16.2655749 Z M14.1730528,8.18586015 L9.82787419,5.46531487 L9.82787419,15.8141398 L14.1730528,18.5298185 L14.1730528,8.18597603 L14.1730528,8.18586015 Z M8.37948131,15.8141398 L8.37948131,5.47736549 L4.75838327,7.74172497 L4.75838327,18.076066 L8.37936545,15.8141398 L8.37948131,15.8141398 Z M14.8970175,6.93062496 L20.6903572,3.30964279 L20.6903572,17.069375 L14.8970175,20.6903572 L9.10344601,17.069375 L3.30964279,20.6903572 L3.30964279,6.93062496 L9.10344601,3.30964279 L14.8970175,6.93062496 L14.8970175,6.93062496 Z" id="形状" fill="#FFFFFF"></path>
            </g>
        </g>
    </g>
</svg>