<?xml version="1.0" encoding="UTF-8"?>
<svg width="64px" height="64px" viewBox="0 0 64 64" version="1.1" xmlns="http://www.w3.org/2000/svg" xmlns:xlink="http://www.w3.org/1999/xlink">
    <title>约束性</title>
    <g id="应用" stroke="none" stroke-width="1" fill="none" fill-rule="evenodd">
        <g id="智慧社区" transform="translate(-388.000000, -1797.000000)">
            <g id="约束性" transform="translate(388.000000, 1797.000000)">
                <rect id="矩形" x="0" y="0" width="64" height="64" rx="8"></rect>
                <g id="编组-2" transform="translate(11.000000, 7.000000)" stroke="#000000" stroke-width="4">
                    <path d="M34,22.801253 L34,33.1282051 C34,33.6096841 33.6096841,34 33.1282051,34 L0.871794872,34 C0.390315859,34 0,33.6096841 0,33.1282051 L0,0.871794872 C0,0.390315859 0.390315859,0 0.871794872,0 L33.1282051,0 C33.6096841,0 34,0.390315859 34,0.871794872 L34,10.5044629 L34,10.5044629" id="路径"></path>
                    <path d="M43,39.801253 L43,50.1282051 C43,50.6096841 42.6096841,51 42.1282051,51 L9.87179487,51 C9.39031586,51 9,50.6096841 9,50.1282051 L9,17.8717949 C9,17.3903159 9.39031586,17 9.87179487,17 L42.1282051,17 C42.6096841,17 43,17.3903159 43,17.8717949 L43,27.5044629 L43,27.5044629" id="路径备份" transform="translate(26.000000, 34.000000) rotate(-180.000000) translate(-26.000000, -34.000000) "></path>
                </g>
            </g>
        </g>
    </g>
</svg>