<?xml version="1.0" encoding="UTF-8"?>
<svg width="24px" height="24px" viewBox="0 0 24 24" version="1.1" xmlns="http://www.w3.org/2000/svg" xmlns:xlink="http://www.w3.org/1999/xlink">
    <title>按键-3-0</title>
    <g id="CIM一张图" stroke="none" stroke-width="1" fill="none" fill-rule="evenodd">
        <g id="数据演示-按键交互" transform="translate(-1528.000000, -119.000000)" fill-rule="nonzero">
            <g id="按键-3-0" transform="translate(1528.000000, 119.000000)">
                <rect id="矩形" fill="#000000" opacity="0" x="0" y="0" width="24" height="24"></rect>
                <g id="编组-14" fill="#FFFFFF">
                    <path d="M11.9954784,10.358385 L11.994574,10.358385 C11.681676,10.358385 11.3827951,10.2272547 11.1702777,9.99709855 L8.40167301,7.00054638 C8.20962102,6.79315101 8.10302632,6.52084486 8.10324395,6.23818226 L8.10324395,1.12365054 C8.10324395,0.503268835 8.60605147,-5.95650382e-13 9.22687366,-5.95650382e-13 L14.7731263,-5.95650382e-13 C15.3939485,-5.95650382e-13 15.8967557,0.503268836 15.8967557,1.12365054 L15.8967557,6.23818226 C15.8967557,6.52124272 15.7895927,6.79435537 15.5969705,7.0019029 L12.8193225,9.99845507 C12.6068403,10.227965 12.3082426,10.358385 11.9954784,10.358385 L11.9954784,10.358385 Z M10.350503,5.79821768 L11.9968348,7.58023249 L13.649497,5.79731334 L13.649497,2.24684892 L10.350503,2.24684892 L10.350503,5.79821768 L10.350503,5.79821768 Z M14.8364801,6.32107115 L14.8827818,6.32107115 L14.8364801,6.32107115 Z M14.7731263,24 L9.22687366,24 C8.60605147,24 8.10324428,23.4967312 8.10324428,22.8763495 L8.10324428,17.7618177 C8.10324428,17.4792095 8.209503,17.206549 8.40167301,16.9994536 L11.1702777,14.0029014 C11.3827951,13.7722931 11.6812239,13.641615 11.994574,13.641615 L11.9954784,13.641615 C12.3083764,13.641615 12.6068051,13.7718409 12.8197747,14.0015449 L15.5969705,16.9980971 C15.7896188,17.2057641 15.8967557,17.4785504 15.8967557,17.7618177 L15.8967557,22.8763495 C15.8967557,23.496279 15.3939485,24 14.7731263,24 L14.7731263,24 Z M10.350503,21.7522467 L13.649497,21.7522467 L13.649497,18.2017823 L11.9968348,16.4188632 L10.350503,18.200878 L10.350503,21.7522467 L10.350503,21.7522467 Z" id="形状"></path>
                    <path d="M22.8763706,15.8970552 L17.7623874,15.8970552 C17.4788801,15.8970552 17.2062248,15.7903423 16.9986812,15.5972644 L14.0021855,12.819564 C13.7724909,12.6070232 13.6420134,12.308198 13.642262,11.9952522 C13.6427145,11.6823483 13.7733901,11.3830096 14.0030898,11.1709403 L16.9995855,8.4018313 C17.2071291,8.21010984 17.4793323,8.10339695 17.7623874,8.10339695 L22.8763706,8.10339695 C23.4971928,8.10339695 24,8.60666579 24,9.2270475 L24,14.7734047 C24,15.3937864 23.4967406,15.8970552 22.8763706,15.8970552 Z M18.2027959,13.6497541 L21.7522891,13.6497541 L21.7522891,10.3502459 L18.2018916,10.3502459 L16.4203625,11.9970609 L18.2027959,13.6497541 L18.2027959,13.6497541 Z M6.23806473,15.8970555 L1.12362938,15.8970555 C0.50280719,15.8970555 0,15.3937864 0,14.7734047 L0,9.22659532 C0,8.60621361 0.502807189,8.10294478 1.12362938,8.10294478 L6.23806473,8.10294478 C6.5206677,8.10294478 6.79287087,8.20965767 7.00086665,8.40137913 L9.99736237,11.1704882 C10.2274555,11.3828242 10.358191,11.6817003 10.358191,11.9948 C10.358642,12.3077039 10.2279664,12.6065904 9.9982667,12.8191119 L7.00177098,15.5968122 C6.79438163,15.7899538 6.52145947,15.8972503 6.23806473,15.8970555 L6.23806473,15.8970555 Z M2.24725875,13.6497541 L5.79720411,13.6497541 L7.58008968,11.9970609 L5.79856061,10.3502459 L2.24771092,10.3502459 L2.24771092,13.6497541 L2.24725875,13.6497541 Z" id="形状"></path>
                </g>
            </g>
        </g>
    </g>
</svg>