<?xml version="1.0" encoding="UTF-8"?>
<svg width="24px" height="24px" viewBox="0 0 24 24" version="1.1" xmlns="http://www.w3.org/2000/svg" xmlns:xlink="http://www.w3.org/1999/xlink">
    <title>热力图</title>
    <g id="页面-2" stroke="none" stroke-width="1" fill="none" fill-rule="evenodd">
        <g id="资源库" transform="translate(-254.000000, -665.000000)" fill-rule="nonzero">
            <g id="热力图" transform="translate(254.000000, 665.000000)">
                <rect id="矩形" fill="#000000" opacity="0" x="0" y="0" width="24" height="24"></rect>
                <path d="M18.3277005,23.766411 C15.2174477,22.1600871 10.1088895,23.217637 6.99863674,22.8032566 C3.88838395,22.3888763 1.88047898,19.5170122 0.822929039,16.5539524 C-1.88254289,8.97671109 2.65164248,6.92080842 6.33946793,7.08720054 C10.0288933,7.25839245 8.48656631,3.47297161 13.6575215,0.645905438 C18.8284768,-2.18116076 20.2236108,5.08889513 19.6492379,6.74001696 C19.0732652,8.39113882 18.676484,9.96866414 22.5786993,14.1060683 C26.4809146,18.2450724 21.4379533,25.3759349 18.3277005,23.766411 Z M20.8923791,14.2132632 C17.4765408,10.752627 17.4237433,9.28229665 18.0093156,7.72717024 C18.5132917,6.38003402 18.231705,0.309921328 13.815914,2.65381038 C9.40012305,4.99929938 10.7280602,8.78312027 7.59860834,8.68712482 C4.46755655,8.59112934 0.17815957,10.3190476 2.39725453,16.4355581 C3.26441348,18.8258449 5.2963173,20.7377544 7.93299251,21.0385402 C10.5696677,21.3409259 14.8654644,20.5953611 17.4893402,21.8641011 C20.113216,23.134441 24.1642242,17.5283063 20.8923791,14.2132632 Z" id="形状" fill="#FFFFFF"></path>
                <path d="M15.2366468,18.5746568 C13.6175234,17.9682855 13.2591404,15.9219824 13.7407176,14.2356622 C14.2238947,12.5461421 12.7487646,10.2134526 12.063997,8.90311458 C11.3808293,7.58797683 12.9775537,4.63291671 14.6734735,4.18013815 C17.4269431,3.44417297 16.0398088,7.77516797 16.1550033,10.6662311 C16.2733977,13.5572943 20.3980025,15.4404052 20.3548045,17.2099214 C20.3116066,18.9794376 16.8541702,19.182628 15.2366468,18.5746568 Z" id="路径" fill="#FFFFFF"></path>
                <path d="M11.0624444,16.2435671 C9.64171163,17.5315062 7.83059735,18.2082741 5.99868405,17.5923033 C4.16997063,16.9747325 2.95082834,13.9716747 4.37156107,12.7029347 C7.26742402,10.1142573 7.57140961,12.824529 9.93289784,11.6741834 C12.2927861,10.5254378 12.4815772,14.9556281 11.0624444,16.2435671 Z" id="路径" fill="#FFFFFF" opacity="0.698731546"></path>
            </g>
        </g>
    </g>
</svg>