<?xml version="1.0" encoding="UTF-8"?>
<svg width="89px" height="49px" viewBox="0 0 89 49" version="1.1" xmlns="http://www.w3.org/2000/svg" xmlns:xlink="http://www.w3.org/1999/xlink">
    <title>公园</title>
    <defs>
        <ellipse id="path-1" cx="4.57892108" cy="35.7929688" rx="4.57892108" ry="4.59375"></ellipse>
        <mask id="mask-2" maskContentUnits="userSpaceOnUse" maskUnits="objectBoundingBox" x="0" y="0" width="9.15784216" height="9.1875" fill="white">
            <use xlink:href="#path-1"></use>
        </mask>
        <polyline id="path-3" points="4.61707875 35.8306345 14.9378215 0 26.7485306 0.0340277784"></polyline>
    </defs>
    <g id="页面-2" stroke="none" stroke-width="1" fill="none" fill-rule="evenodd">
        <g id="标签" transform="translate(-552.000000, -317.000000)">
            <g id="编组" transform="translate(552.000000, 317.000000)">
                <g id="编组-3备份-2" transform="translate(26.901161, 0.382812)">
                    <rect id="矩形" stroke-opacity="0.501823372" stroke="#FFFFFF" fill-opacity="0.499781469" fill="#000000" x="0" y="0" width="61.0522811" height="16.84375" rx="8.421875"></rect>
                    <ellipse id="椭圆形" fill="#ED7B2F" cx="8.39468864" cy="8.421875" rx="5.34207459" ry="5.359375"></ellipse>
                    <g id="2_8体育运动" transform="translate(3.815768, 3.828125)" fill-rule="nonzero">
                        <rect id="矩形" fill="#000000" opacity="0" x="0" y="0" width="9.15784216" height="9.1875"></rect>
                        <path d="M1.70437618,7.47760416 C0.118712768,5.88680556 0.118712768,3.30069444 1.70437618,1.70138889 C3.29003959,0.110590278 5.86780257,0.110590278 7.46194546,1.70138889 C9.04760887,3.29218751 9.04760887,5.87829862 7.46194546,7.47760416 C5.86780256,9.07690972 3.29003959,9.07690972 1.70437618,7.47760416 Z M1.04297647,4.19392361 C1.78917101,4.22795139 2.52688608,3.98125 3.11197043,3.47934028 L1.89092482,2.25434028 C1.39911477,2.82430555 1.11929182,3.49635417 1.04297647,4.19392361 L1.04297647,4.19392361 Z M3.46810875,3.11354166 C3.94295982,2.5265625 4.14646743,1.79496528 4.10407001,1.05486111 C3.43419081,1.1484375 2.78975007,1.42065972 2.2555426,1.88854167 L3.46810875,3.11354166 Z M6.91077904,1.89704861 C6.25785881,1.32708333 5.44382839,1.03784722 4.6213185,1.02934028 C4.68067488,1.9140625 4.42629038,2.79878472 3.8496855,3.50486111 L4.57892108,4.23645834 L6.91077904,1.89704861 Z M4.22278277,4.59375 L3.49354719,3.86215278 C2.79822955,4.47465278 1.91636326,4.76388889 1.0260175,4.71284722 C1.05145595,5.50399306 1.33975839,6.28663194 1.89092482,6.92465278 L4.22278277,4.59375 Z M6.91077904,7.29045139 L5.67277445,6.0484375 C5.16400544,6.65243056 4.9265799,7.40104167 4.95201836,8.14114584 C5.65581548,8.06458334 6.34265364,7.78385417 6.91077904,7.29045139 Z M2.24706312,7.29045139 C2.8745449,7.84340278 3.65465738,8.12413195 4.44324935,8.15815972 C4.40933141,7.28194445 4.69763385,6.39722222 5.30815666,5.69114583 L4.57892108,4.95104166 L2.24706312,7.29045139 L2.24706312,7.29045139 Z M7.26691734,2.25434028 L4.93505938,4.59375 L5.66429496,5.32534722 C6.36809209,4.71284722 7.24995838,4.42361111 8.13182466,4.45763889 C8.09790672,3.66649306 7.81808377,2.89236112 7.26691734,2.25434028 Z M8.11486569,4.96805556 C7.37715063,4.94253473 6.63095608,5.18072917 6.02891275,5.68263889 L7.26691734,6.92465278 C7.75872739,6.36319445 8.03855033,5.67413195 8.11486569,4.96805556 L8.11486569,4.96805556 Z" id="形状" fill-opacity="0.9" fill="#FFFFFF"></path>
                    </g>
                </g>
                <g id="编组-3" transform="translate(0.000000, 8.421875)">
                    <use id="椭圆形" stroke="#FFFFFF" mask="url(#mask-2)" stroke-width="2" fill-opacity="0.446565641" fill="#000000" stroke-dasharray="3" xlink:href="#path-1"></use>
                    <path id="路径-22" d="M14.939262,-0.499997925 L26.7499712,-0.465970146 C27.0261124,-0.465174557 27.2493242,-0.240672909 27.2485286,0.0354683201 C27.2478214,0.28092719 27.0703588,0.484565232 26.8369886,0.526229006 L26.7470901,0.534025703 L15.314,0.5 L6.33601652,31.6714478 C8.42891165,32.5333917 9.58233322,34.8505885 8.94126722,37.0761842 C8.25336911,39.4643676 5.75971238,40.8427211 3.37152903,40.154823 C0.983345689,39.4669249 -0.395007827,36.9732681 0.292890288,34.5850848 C0.933995222,32.3593538 3.1435466,31.0107412 5.37440873,31.3944168 L14.4573561,-0.138394413 C14.519184,-0.353042799 14.7158875,-0.500641488 14.939262,-0.499997925 Z" fill-rule="nonzero"></path>
                </g>
            </g>
        </g>
    </g>
</svg>