<?xml version="1.0" encoding="UTF-8"?>
<svg width="24px" height="24px" viewBox="0 0 24 24" version="1.1" xmlns="http://www.w3.org/2000/svg" xmlns:xlink="http://www.w3.org/1999/xlink">
    <title>面积</title>
    <g id="页面-2" stroke="none" stroke-width="1" fill="none" fill-rule="evenodd">
        <g id="测量-面积" transform="translate(-106.000000, -288.000000)">
            <g id="面积" transform="translate(106.000000, 288.000000)">
                <rect id="矩形" x="0" y="0" width="24" height="24"></rect>
                <g id="编组-2" transform="translate(1.000000, 1.000000)" fill="#FFFFFF" fill-rule="nonzero">
                    <path d="M18.3718716,9.29289322 L19.7860851,10.7071068 L10.7071068,19.7860851 L9.29289322,18.3718716 L18.3718716,9.29289322 Z M16.3248821,4.37071141 L17.7390957,5.78492497 L5.75167447,17.7723462 L4.33746091,16.3581326 L16.3248821,4.37071141 Z M11.3718716,2.29289322 L12.7860851,3.70710678 L3.70710678,12.7860851 L2.29289322,11.3718716 L11.3718716,2.29289322 Z" id="形状结合" opacity="0.704008215"></path>
                    <path d="M6,16 L6,18 L16,18 L16,16 L18,16 L18,6 L16,6 L16,4 L6,4 L6,6 L4,6 L4,16 L6,16 Z M20,18 L18,18 L18,20 L20,20 L20,18 Z M4,18 L2,18 L2,20 L4,20 L4,18 Z M20,2 L18,2 L18,4 L20,4 L20,2 Z M4,2 L2,2 L2,4 L4,4 L4,2 Z M6,22 L0,22 L0,16 L2,16 L2,6 L0,6 L0,0 L6,0 L6,2 L16,2 L16,0 L22,0 L22,6 L20,6 L20,16 L22,16 L22,22 L16,22 L16,20 L6,20 L6,22 Z" id="形状结合"></path>
                </g>
            </g>
        </g>
    </g>
</svg>