<?xml version="1.0" encoding="UTF-8"?>
<svg width="32px" height="32px" viewBox="0 0 32 32" version="1.1" xmlns="http://www.w3.org/2000/svg" xmlns:xlink="http://www.w3.org/1999/xlink">
    <title>剖切-icon</title>
    <defs>
        <linearGradient x1="0.25781251%" y1="49.7500002%" x2="101.257813%" y2="49.7500002%" id="linearGradient-1">
            <stop stop-color="#3023AE" offset="0%"></stop>
            <stop stop-color="#53A0FD" offset="47.5247532%"></stop>
            <stop stop-color="#B4EC51" offset="100%"></stop>
        </linearGradient>
    </defs>
    <g id="页面-2" stroke="none" stroke-width="1" fill="none" fill-rule="evenodd">
        <g id="拉面" transform="translate(-21.000000, -97.000000)">
            <g id="剖切-icon" transform="translate(21.000000, 97.000000)">
                <rect id="矩形备份-2" x="0" y="0" width="32" height="32" rx="1"></rect>
                <g id="模型纵剖" transform="translate(4.000000, 4.000000)">
                    <g id="编组-6">
                        <path d="M15,4 L22.7142857,4 C23.4243661,4 24,4.59695367 24,5.33333333 L24,18.6666667 C24,19.4030463 23.4243661,20 22.7142857,20 L15,20" id="路径" stroke="#FFFFFF" stroke-width="2"></path>
                        <path d="M12,20 L1,20 C0.44771525,20 0,19.4030463 0,18.6666667 L0,5.33333333 C0,4.59695367 0.44771525,4 1,4 L12,4" id="路径" stroke="#FFFFFF" stroke-width="2" stroke-dasharray="2,2"></path>
                        <rect id="矩形" fill="#FFFFFF" x="11" y="0" width="2" height="24"></rect>
                    </g>
                    <rect id="矩形" stroke="#FFFFFF" fill="url(#linearGradient-1)" x="15.5" y="7.5" width="5" height="9"></rect>
                </g>
            </g>
        </g>
    </g>
</svg>