<?xml version="1.0" encoding="UTF-8"?>
<svg width="24px" height="24px" viewBox="0 0 24 24" version="1.1" xmlns="http://www.w3.org/2000/svg" xmlns:xlink="http://www.w3.org/1999/xlink">
    <title>拉面</title>
    <g id="页面-2" stroke="none" stroke-width="1" fill="none" fill-rule="evenodd">
        <g id="拉面" transform="translate(-254.000000, -478.000000)">
            <g transform="translate(254.000000, 478.000000)" id="编组-5">
                <rect id="矩形" x="0" y="0" width="24" height="24" rx="1"></rect>
                <path d="M4.58032254,16 L19.4196775,16 C19.7785343,16 20.1098778,16.1922861 20.2879206,16.5038611 L23.1450635,21.5038611 C23.4190734,21.9833785 23.2524767,22.5942332 22.7729593,22.8682431 C22.6218616,22.9545847 22.4508473,23 22.2768203,23 L1.72317968,23 C1.17089493,23 0.723179678,22.5522847 0.723179678,22 C0.723179678,21.8259731 0.768594996,21.6549588 0.854936536,21.5038611 L3.71207939,16.5038611 C3.89012225,16.1922861 4.22146569,16 4.58032254,16 Z" id="矩形" fill="#FFFFFF" opacity="0.446549719"></path>
                <path d="M4.58032254,10 L19.4196775,10 C19.7785343,10 20.1098778,10.1922861 20.2879206,10.5038611 L23.1450635,15.5038611 C23.4190734,15.9833785 23.2524767,16.5942332 22.7729593,16.8682431 C22.6218616,16.9545847 22.4508473,17 22.2768203,17 L1.72317968,17 C1.17089493,17 0.723179678,16.5522847 0.723179678,16 C0.723179678,15.8259731 0.768594996,15.6549588 0.854936536,15.5038611 L3.71207939,10.5038611 C3.89012225,10.1922861 4.22146569,10 4.58032254,10 Z" id="矩形备份-5" fill="#FFFFFF"></path>
                <rect id="矩形" fill="#FFFFFF" x="11" y="3" width="2" height="17" rx="1"></rect>
                <polyline id="路径-5" stroke="#FFFFFF" stroke-width="2" points="7.99205162 6.04631504 12 2.03836666 16.0079484 6.04631504"></polyline>
            </g>
        </g>
    </g>
</svg>