<?xml version="1.0" encoding="UTF-8"?>
<svg width="16px" height="16px" viewBox="0 0 16 16" version="1.1" xmlns="http://www.w3.org/2000/svg" xmlns:xlink="http://www.w3.org/1999/xlink">
    <title>坐标</title>
    <g id="页面-2" stroke="none" stroke-width="1" fill="none" fill-rule="evenodd">
        <g id="标签" transform="translate(-1499.000000, -651.000000)">
            <g id="坐标" transform="translate(1499.000000, 651.000000)">
                <rect id="矩形" x="0" y="2" width="16" height="16"></rect>
                <path d="M5.63604245,14.7954914 C4.64401333,15.0640877 4,15.497404 4,15.9862219 C4,16.8013589 5.790861,17.4621581 8,17.4621581 C10.209139,17.4621581 12,16.8013589 12,15.9862219 C12,15.5155324 11.4028689,15.0963042 10.4728782,14.8260491" id="路径" stroke="#D2D2D2"></path>
                <circle id="椭圆形" stroke="#FFFFFF" fill-opacity="0.3" fill="#FFFFFF" cx="8" cy="7.33333333" r="2"></circle>
                <path d="M8,14.6666667 C11.1111111,11.495997 12.6666667,9.05155255 12.6666667,7.33333333 C12.6666667,4.7560045 10.5773288,2.66666667 8,2.66666667 C5.42267117,2.66666667 3.33333333,4.7560045 3.33333333,7.33333333 C3.33333333,9.05155255 4.88888889,11.495997 8,14.6666667 Z" id="椭圆形" stroke="#D2D2D2" stroke-linejoin="round"></path>
            </g>
        </g>
    </g>
</svg>