<?xml version="1.0" encoding="UTF-8"?>
<svg width="16px" height="16px" viewBox="0 0 16 16" version="1.1" xmlns="http://www.w3.org/2000/svg" xmlns:xlink="http://www.w3.org/1999/xlink">
    <title>删 除 (1)</title>
    <g id="页面-2" stroke="none" stroke-width="1" fill="none" fill-rule="evenodd">
        <g id="标签" transform="translate(-1607.000000, -250.000000)" fill-rule="nonzero">
            <g id="删-除-(1)" transform="translate(1607.000000, 250.000000)">
                <rect id="矩形" fill="#000000" opacity="0" x="0" y="0" width="16" height="16"></rect>
                <path d="M12.4703125,13.634375 C12.4703125,14.1703125 12.034375,14.60625 11.5,14.60625 L4.5015625,14.60625 C3.965625,14.6046875 3.53125,14.1703125 3.5296875,13.634375 L3.5296875,3.325 L12.4703125,3.325 L12.4703125,13.634375 L12.4703125,13.634375 Z M5.471875,1.58125 C5.471875,1.46875 5.559375,1.38125 5.671875,1.38125 L10.340625,1.38125 C10.453125,1.38125 10.5390625,1.46875 10.5390625,1.58125 L10.5390625,2.1671875 L5.471875,2.1671875 L5.471875,1.58125 L5.471875,1.58125 Z M15.3828125,2.1671875 L11.6984375,2.1671875 L11.6984375,1.58125 C11.6984375,0.834375 11.0890625,0.2234375 10.340625,0.2234375 L5.671875,0.2234375 C4.9234375,0.225 4.315625,0.83125 4.3140625,1.58125 L4.3140625,2.1671875 L0.6171875,2.1671875 C0.2921875,2.1671875 0.03125,2.428125 0.03125,2.7515625 C0.03125,3.075 0.2921875,3.3375 0.6171875,3.3375 L2.359375,3.3375 L2.359375,13.634375 C2.359375,14.8171875 3.31875,15.7765625 4.5015625,15.7765625 L11.4984375,15.7765625 C12.68125,15.7765625 13.640625,14.8171875 13.640625,13.634375 L13.640625,3.325 L15.384375,3.325 C15.7078125,3.325 15.9703125,3.0640625 15.9703125,2.7390625 C15.9703125,2.4140625 15.7078125,2.1671875 15.3828125,2.1671875 Z M8,12.85 C8.3234375,12.85 8.5859375,12.5890625 8.5859375,12.2640625 L8.5859375,6.0390625 C8.5859375,5.715625 8.325,5.453125 8,5.453125 C7.6765625,5.453125 7.4140625,5.7140625 7.4140625,6.0390625 L7.4140625,12.2640625 C7.4140625,12.5875 7.6765625,12.85 8,12.85 M5.2734375,12.85 C5.596875,12.85 5.859375,12.5890625 5.859375,12.2640625 L5.859375,6.0390625 C5.859375,5.715625 5.5984375,5.453125 5.2734375,5.453125 C4.95,5.453125 4.6875,5.7140625 4.6875,6.0390625 L4.6875,12.2640625 C4.7,12.5875 4.9625,12.85 5.2734375,12.85 M10.7265625,12.85 C11.05,12.85 11.3125,12.5890625 11.3125,12.2640625 L11.3125,6.0390625 C11.3125,5.715625 11.0515625,5.453125 10.7265625,5.453125 C10.403125,5.453125 10.140625,5.7140625 10.140625,6.0390625 L10.140625,12.2640625 C10.1421875,12.5875 10.403125,12.85 10.7265625,12.85" id="形状" fill="#FFFFFF"></path>
            </g>
        </g>
    </g>
</svg>