<?xml version="1.0" encoding="UTF-8"?>
<svg width="24px" height="24px" viewBox="0 0 24 24" version="1.1" xmlns="http://www.w3.org/2000/svg" xmlns:xlink="http://www.w3.org/1999/xlink">
    <title>光流</title>
    <defs>
        <polygon id="path-1" points="0 0.212 6.27667058 0.212 6.27667058 5.52946544 0 5.52946544"></polygon>
        <linearGradient x1="60.5767682%" y1="17.1865805%" x2="87.386671%" y2="100%" id="linearGradient-3">
            <stop stop-color="#FFFFFF" offset="0%"></stop>
            <stop stop-color="#FFFFFF" stop-opacity="0.248109617" offset="100%"></stop>
        </linearGradient>
    </defs>
    <g id="页面-2" stroke="none" stroke-width="1" fill="none" fill-rule="evenodd">
        <g id="画线" transform="translate(-1312.000000, -312.000000)">
            <g id="3.0-相机" transform="translate(1286.000000, 297.000000)">
                <g id="光流" transform="translate(26.000000, 15.000000)">
                    <rect id="矩形" x="0" y="0" width="24" height="24" rx="8"></rect>
                    <g id="编组">
                        <g transform="translate(0.000000, 0.788100)">
                            <mask id="mask-2" fill="white">
                                <use xlink:href="#path-1"></use>
                            </mask>
                            <g id="Clip-2"></g>
                            <path d="M2.7868,0.2143 L3.7868,0.2613 C5.2268,0.3283 6.3408,1.5503 6.2738,2.9903 C6.2108,4.3443 5.1128,5.4093 3.7868,5.4783 L2.7868,5.5263 C1.3198,5.5973 0.0738,4.4653 0.0028,2.9983 C-0.0672,1.5313 1.0638,0.2853 2.5308,0.2153 C2.6148,0.2103 2.7048,0.2113 2.7868,0.2143" id="Fill-1" fill="#FFFFFF" mask="url(#mask-2)"></path>
                        </g>
                        <path d="M4.2864,21.037 C4.7634,21.472 4.9690688,21.7819803 4.5340688,22.2599803 C4.79095627,22.1033268 4.91773333,22.2343333 4.9144,22.653 C4.9094,23.274 4.4054,23.776 3.7864,23.781 L2.7864,23.7890265 C2.1574,23.792 1.6424,23.287 1.6384,22.657 C1.6354,22.359 1.7484,22.086 1.9334,21.882 L1.9604,21.853 L2.6344,21.114 C3.0694,20.636 3.8084,20.602 4.2864,21.037 Z M8.0368,21.5395 L10.1618,21.5565 C10.7628,21.5605 11.2458,22.0515 11.2418247,22.6515 C11.2368,23.2475 10.7548,23.7275 10.1618,23.7315 L8.0368,23.7485 C7.4268,23.7525 6.9288,23.2625 6.92476215,22.6525 C6.9198,22.0425 7.4108,21.5445 8.0198,21.5395 L8.0368,21.5395 Z M14.4118,21.5884 L16.5368,21.6054 C17.1108,21.6094 17.5728,22.0774 17.5678402,22.6514 C17.5638,23.2204 17.1028,23.6794 16.5368,23.6834 L14.4118,23.6994 C13.8288,23.7034 13.3528,23.2344 13.3487604,22.6514 C13.3438,22.0684 13.8128,21.5934 14.3958,21.5884 L14.4118,21.5884 Z M20.7868,21.6372 L21.7868,21.6452 C22.3388,21.6492 22.7828,22.1002 22.7788268,22.6522 C22.7738,23.1992 22.3308,23.6392 21.7868,23.6432 L20.7868,23.6512 C20.2308,23.6552 19.7768,23.2072 19.7717734,22.6522 C19.7678,22.0952 20.2158,21.6412 20.7718,21.6372 L20.7868,21.6372 Z M8.985,16.1241 C9.53,16.6201 9.569,17.4641 9.073,18.0081 C9.059,18.0231 9.042,18.0411 9.027,18.0561 L7.459,19.6141 C6.958,20.1121 6.149,20.1091 5.651,19.6081 C5.169,19.1231 5.158,18.3461 5.613,17.8461 L7.102,16.2121 C7.598,15.6671 8.442,15.6291 8.985,16.1241 Z M13.6856,11.2133 C14.2956,11.7703 14.3396,12.7163 13.7826,13.3273 C13.7676,13.3453 13.7476,13.3643 13.7316,13.3813 L12.1636,14.9393 C11.5986,15.5013 10.6856,15.4973 10.1236,14.9333 C9.5796,14.3863 9.5676,13.5093 10.0806,12.9443 L11.5696,11.3113 C12.1276,10.6993 13.0736,10.6553 13.6856,11.2133 Z M18.3842,6.3015 C19.0622,6.9195 19.1112,7.9695 18.4932,8.6475 C18.4762,8.6665 18.4542,8.6885 18.4362,8.7065 L16.8682,10.2655 C16.2392,10.8905 15.2222,10.8875 14.5962,10.2575 C13.9912,9.6475 13.9782,8.6725 14.5492,8.0435 L16.0382,6.4095 C16.6562,5.7315 17.7072,5.6835 18.3842,6.3015 Z M19.9865,1.8032 L20.9865,1.8492 L21.1145,1.8552 C22.0925,1.9012 22.8495,2.7312 22.8035,3.7092 C22.7825,4.1702 22.5845,4.5832 22.2825,4.8852 L21.5725,5.5902 C20.8795,6.2802 19.7585,6.2762 19.0695,5.5822 C18.4025,4.9102 18.1055,4.7502 18.0555,3.7342 C18.0075,2.7162 18.7925,1.8522 19.8095,1.8032 C19.8665,1.8002 19.9295,1.8002 19.9865,1.8032 Z M7.8366,1.2378 L9.8616,1.3318 C10.7769849,1.37464173 11.5440072,1.94108615 11.8859977,2.72825335 C12.2138835,2.04545815 12.8967651,1.5592619 13.7068,1.52 C13.7728,1.517 13.8468,1.517 13.9118,1.52 L15.9368,1.615 C17.0598,1.666 17.9278,2.62 17.8758,3.743 C17.8268,4.798 16.9698,5.628 15.9368,5.681 L13.9118,5.779 C13.0285315,5.8210604 12.2451121,5.31987407 11.8856706,4.5694873 C11.5417289,5.36697825 10.7605757,5.92808937 9.8616,5.9738 L7.8366,6.0718 C6.5026,6.1348 5.3676,5.1058 5.3036,3.7708 C5.2396,2.4358 6.2696,1.3018 7.6046,1.2378 C7.6796,1.2338 7.7626,1.2348 7.8366,1.2378 Z" id="形状结合" fill="url(#linearGradient-3)"></path>
                    </g>
                </g>
            </g>
        </g>
    </g>
</svg>