<?xml version="1.0" encoding="UTF-8"?>
<svg width="24px" height="24px" viewBox="0 0 24 24" version="1.1" xmlns="http://www.w3.org/2000/svg" xmlns:xlink="http://www.w3.org/1999/xlink">
    <title>水纹</title>
    <g id="崂山" stroke="none" stroke-width="1" fill="none" fill-rule="evenodd">
        <g id="点" transform="translate(-180.000000, -553.000000)" fill-rule="nonzero">
            <g id="水纹" transform="translate(180.000000, 553.000000)">
                <rect id="矩形" fill="#000000" opacity="0" x="0" y="0" width="24" height="24"></rect>
                <path d="M2.36015625,13.8426563 C2.09554688,13.8426563 1.83421875,13.723125 1.66195313,13.49625 C1.37015625,13.1109375 1.44609375,12.5617969 1.83117188,12.2704688 L3.65742188,10.8869531 C5.44195313,9.54117188 7.93265625,9.54164063 9.71554688,10.8857813 L11.1255469,11.9428125 C11.285625,12.06375 11.506875,12.0623438 11.6650781,11.9439844 L13.0783594,10.884375 C14.8598438,9.54070313 17.3500781,9.54117188 19.1332031,10.8855469 L20.5432031,11.9425781 C20.7030469,12.0639844 20.9240625,12.0625781 21.0825,11.94375 C21.4682813,11.6524219 22.0169531,11.7304688 22.3078125,12.11625 C22.5984375,12.5025 22.5213281,13.0511719 22.1353125,13.3415625 C21.3569531,13.9282031 20.2699219,13.9282031 19.4920313,13.3415625 L18.0815625,12.2840625 C16.9171875,11.4060938 15.2927344,11.4060938 14.13,12.2824219 L12.71625,13.3425 C11.9397656,13.9282031 10.8525,13.9277344 10.0741406,13.3415625 L8.66367187,12.2840625 C7.49929687,11.4060938 5.87507812,11.4060938 4.71234375,12.2824219 L2.8875,13.6645313 C2.73,13.785 2.54414062,13.8426563 2.36015625,13.8426563 L2.36015625,13.8426563 Z M2.36015625,7.42640663 C2.09578125,7.42640663 1.83421875,7.306875 1.66195313,7.08 C1.37015625,6.6946875 1.44585938,6.14601563 1.8309375,5.85421875 L3.6571875,4.47046875 C5.44171875,3.1246875 7.9321875,3.12515625 9.71554687,4.46929688 L11.1257812,5.52726563 C11.2853906,5.64726563 11.506875,5.64679688 11.6650781,5.52820313 L13.078125,4.468125 C14.8591406,3.125625 17.3496094,3.12445313 19.1332031,4.46929688 L20.5434375,5.52726563 C20.7028125,5.64726562 20.9240625,5.64726562 21.0827344,5.52820313 C21.4685156,5.236875 22.0171875,5.31492187 22.3080469,5.70070313 C22.5986719,6.08695312 22.5215625,6.635625 22.1355469,6.92601562 C21.3571875,7.51265625 20.2701562,7.5121875 19.4922656,6.92601562 L18.0815625,5.8678125 C16.9171875,4.9903125 15.2925,4.99078125 14.1302344,5.86664062 L12.7167187,6.92695312 C11.9397656,7.51265625 10.8527344,7.5121875 10.074375,6.92601562 L8.66367187,5.8678125 C7.49976562,4.99078125 5.87578125,4.9903125 4.71257812,5.86664062 L2.88796875,7.24921875 C2.73610959,7.36435069 2.55072523,7.42658452 2.36015625,7.42640663 L2.36015625,7.42640663 Z M2.36015625,20.25961 C2.09554688,20.25961 1.83421875,20.1400781 1.66195313,19.9132031 C1.37015625,19.5278906 1.44609375,18.97875 1.83117188,18.6874219 L3.65742188,17.3039063 C5.44195313,15.958125 7.93265625,15.9585938 9.71554688,17.3027344 L11.1255469,18.3597656 C11.285625,18.4807031 11.506875,18.4792969 11.6650781,18.3609375 L13.0783594,17.3013281 C14.8598438,15.958125 17.3500781,15.9585938 19.1332031,17.3025 L20.5432031,18.3595312 C20.7030469,18.4809375 20.9240625,18.4795312 21.0825,18.3607031 C21.4682813,18.069375 22.0169531,18.1474219 22.3078125,18.5332031 C22.5984375,18.9194531 22.5213281,19.468125 22.1353125,19.7585156 C21.3569531,20.3451562 20.2699219,20.3446875 19.4920313,19.7585156 L18.0815625,18.7010156 C16.9171875,17.8230469 15.2927344,17.8230469 14.13,18.699375 L12.71625,19.7594531 C11.9397656,20.345625 10.8525,20.3446875 10.0741406,19.7585156 L8.66367187,18.7010156 C7.49929687,17.8230469 5.87507812,17.8230469 4.71234375,18.699375 L2.8875,20.0814844 C2.73609133,20.1972379 2.55074326,20.2598444 2.36015625,20.25961 L2.36015625,20.25961 Z" id="形状" fill="#FFFFFF"></path>
            </g>
        </g>
    </g>
</svg>