<?xml version="1.0" encoding="UTF-8"?>
<svg width="24px" height="24px" viewBox="0 0 24 24" version="1.1" xmlns="http://www.w3.org/2000/svg" xmlns:xlink="http://www.w3.org/1999/xlink">
    <title>测量</title>
    <g id="页面-2" stroke="none" stroke-width="1" fill="none" fill-rule="evenodd">
        <g id="测量-坐标" transform="translate(-254.000000, -212.000000)">
            <g id="测量备份-2" transform="translate(266.000000, 223.500000) rotate(-360.000000) translate(-266.000000, -223.500000) translate(254.000000, 210.000000)">
                <g id="编组-11" transform="translate(1.600000, 0.600000)">
                    <g id="编组" transform="translate(0.900000, 0.900000)">
                        <rect id="矩形" stroke="#FFFFFF" stroke-width="2" stroke-linejoin="round" transform="translate(5.000000, 12.500000) rotate(-90.000000) translate(-5.000000, -12.500000) " x="-6" y="8" width="22" height="9"></rect>
                        <rect id="矩形" fill="#FFFFFF" transform="translate(7.500000, 14.900000) rotate(-90.000000) translate(-7.500000, -14.900000) " x="6.6" y="12.2" width="1.8" height="5.4"></rect>
                        <rect id="矩形备份-12" fill="#FFFFFF" transform="translate(8.100000, 10.700000) rotate(-90.000000) translate(-8.100000, -10.700000) " x="7.2" y="8.6" width="1.8" height="4.2"></rect>
                        <rect id="矩形备份-16" fill="#FFFFFF" transform="translate(7.500000, 6.500000) rotate(-90.000000) translate(-7.500000, -6.500000) " x="6.6" y="3.8" width="1.8" height="5.4"></rect>
                        <rect id="矩形备份-14" fill="#FFFFFF" transform="translate(16.000000, 1.500000) rotate(-90.000000) translate(-16.000000, -1.500000) " x="15" y="-1" width="2" height="5"></rect>
                        <rect id="矩形备份-13" fill="#FFFFFF" transform="translate(8.100000, 19.100000) rotate(-90.000000) translate(-8.100000, -19.100000) " x="7.2" y="17" width="1.8" height="4.2"></rect>
                        <rect id="矩形备份-15" fill="#FFFFFF" transform="translate(16.000000, 23.500000) rotate(-90.000000) translate(-16.000000, -23.500000) " x="15" y="21" width="2" height="5"></rect>
                    </g>
                    <rect id="矩形" fill="#FFFFFF" transform="translate(17.400000, 13.400000) rotate(-90.000000) translate(-17.400000, -13.400000) " x="6.4" y="12.4" width="22" height="2"></rect>
                </g>
            </g>
        </g>
    </g>
</svg>