<?xml version="1.0" encoding="UTF-8"?><svg version="1.1" width="24px" height="24px" viewBox="0 0 24.0 24.0" xmlns="http://www.w3.org/2000/svg" xmlns:xlink="http://www.w3.org/1999/xlink"><defs><clipPath id="i0"><path d="M3039,0 L3039,1019 L0,1019 L0,0 L3039,0 Z"></path></clipPath><clipPath id="i1"><path d="M8.76412842,17.5268977 L8.76412842,18.8757885 L4.71901509,18.8757885 L4.71901509,17.5268977 L8.76412842,17.5268977 Z M10.1123956,15.5051205 L10.1123956,16.8527401 L3.3707479,16.8527401 L3.3707479,15.5051205 L10.1123956,15.5051205 Z M6.74105611,0 C10.4586961,0 13.4830635,3.02309627 13.4830635,6.74135986 C13.4830635,8.3746972 12.8892753,9.95006597 11.8108966,11.1785586 C11.5963145,11.4221369 11.3961706,11.6347763 11.2125035,11.8309629 C10.4343287,12.6578247 10.1123956,12.9994963 10.1123956,14.1562058 L10.1123956,14.8303394 L3.3707479,14.8303394 L3.3707479,14.1562058 C3.37074792,12.9402566 3.07574852,12.6360954 2.19955233,11.7348603 L1.86111846,11.3846025 C0.667594055,10.1331095 0.00662751643,8.49252907 3.98569434e-05,6.76507973 C-0.0124634992,3.14486149 2.91841549,0.111236344 6.53371709,0.00263819531 Z M6.74103211,1.34761962 L6.57446538,1.35025781 C3.68277572,1.43712675 1.33844187,3.86442019 1.34824437,6.7604269 C1.35357558,8.14097613 1.88222409,9.45302794 2.83679899,10.4536995 L3.16597516,10.7953711 C3.97110766,11.6229284 4.54127196,12.2094736 4.68407086,13.4820482 L8.80300599,13.4820482 C8.95503858,12.2627893 9.52985571,11.6518767 10.230947,10.9066315 C10.4047568,10.7216693 10.5943239,10.5195587 10.7984011,10.2884758 C11.660064,9.30775486 12.1351464,8.04683925 12.1348684,6.74135986 C12.1348684,3.76699845 9.71541752,1.34761962 6.74103211,1.34761962 Z M6.74172764,2.69588679 L6.74172764,4.04482552 C5.25421116,4.04482549 4.04485751,5.25353159 4.04485751,6.74135986 L2.69656636,6.74135986 C2.69656636,4.51092457 4.51095656,2.69588679 6.74172764,2.69588679 Z"></path></clipPath></defs><g transform="translate(-1385.0 -212.0)"><g clip-path="url(#i0)"><g transform="translate(1385.0 212.0)"><g transform="translate(5.258440241383369 2.5621057734374997)"><g clip-path="url(#i1)"><polygon points="1.77635684e-15,0 13.4830635,0 13.4830635,18.8757885 1.77635684e-15,18.8757885 1.77635684e-15,0" stroke="none" fill="#FFFFFF"></polygon></g></g></g></g></g></svg>