<?xml version="1.0" encoding="UTF-8"?>
<svg width="24px" height="32px" viewBox="0 0 24 32" version="1.1" xmlns="http://www.w3.org/2000/svg" xmlns:xlink="http://www.w3.org/1999/xlink">
    <title>颜色 </title>
    <g id="页面-2" stroke="none" stroke-width="1" fill="none" fill-rule="evenodd">
        <g id="标签" transform="translate(-992.000000, -517.000000)">
            <g id="编组-12备份-9" transform="translate(806.000000, 469.000000)">
                <g id="颜色-" transform="translate(186.000000, 48.000000)">
                    <rect id="矩形" x="0" y="0" width="24" height="32" rx="8"></rect>
                    <g id="y" transform="translate(6.000000, 10.000000)" fill="#D8D8D8">
                        <path d="M5,0 C5.55228475,-1.01453063e-16 6,0.44771525 6,1 L6,10 C6,11.6568542 4.65685425,13 3,13 C1.34314575,13 2.02906125e-16,11.6568542 0,10 L0,1 C-6.76353751e-17,0.44771525 0.44771525,1.01453063e-16 1,0 L5,0 Z M3,9 C2.44771525,9 2,9.44771525 2,10 C2,10.5522847 2.44771525,11 3,11 C3.55228475,11 4,10.5522847 4,10 C4,9.44771525 3.55228475,9 3,9 Z" id="形状结合"></path>
                        <path d="M8.83969708,1.19219078 L11.6681242,4.02061791 C12.0586485,4.4111422 12.0586485,5.04430718 11.6681242,5.43483147 L7,10.1032976 L7,1.61629756 L7.42548352,1.19219078 C7.81600781,0.801666492 8.44917279,0.801666492 8.83969708,1.19219078 Z" id="形状结合" opacity="0.498006035"></path>
                    </g>
                </g>
            </g>
        </g>
    </g>
</svg>