<?xml version="1.0" encoding="UTF-8"?>
<svg width="24px" height="24px" viewBox="0 0 24 24" version="1.1" xmlns="http://www.w3.org/2000/svg" xmlns:xlink="http://www.w3.org/1999/xlink">
    <title>爆管</title>
    <g id="崂山" stroke="none" stroke-width="1" fill="none" fill-rule="evenodd">
        <g id="爆管" transform="translate(-254.000000, -665.000000)" fill-rule="nonzero">
            <g transform="translate(254.000000, 665.000000)">
                <rect id="矩形" fill="#000000" opacity="0" x="0" y="0" width="24" height="24"></rect>
                <path d="M15,9 C15,10.65 12,18 12,18 C12,18 9,10.65 9,9 C9,7.34314575 10.3431458,6 12,6 C13.6568542,6 15,7.34314575 15,9 Z M10.5,19.5 C8.28174476,18.8665542 6.02776118,18.365669 3.75,18 C2.50735931,18 1.5,16.9926407 1.5,15.75 C1.5,14.5073593 2.50735931,13.5 3.75,13.5 C4.992,13.5 10.5,18.258 10.5,19.5 Z M13.5,19.5 C15.7182561,18.8665577 17.9722395,18.3656725 20.25,18 C21.4926407,18 22.5,16.9926407 22.5,15.75 C22.5,14.5073593 21.4926407,13.5 20.25,13.5 C19.008,13.5 13.5,18.258 13.5,19.5 Z" id="形状" fill="#FFFFFF"></path>
            </g>
        </g>
    </g>
</svg>