<?xml version="1.0" encoding="UTF-8"?>
<svg width="24px" height="24px" viewBox="0 0 24 24" version="1.1" xmlns="http://www.w3.org/2000/svg" xmlns:xlink="http://www.w3.org/1999/xlink">
    <title>高亮区</title>
    <g id="页面-2" stroke="none" stroke-width="1" fill="none" fill-rule="evenodd">
        <g id="资源库" transform="translate(-106.000000, -739.000000)" fill-rule="nonzero">
            <g id="高亮区" transform="translate(106.000000, 739.000000)">
                <rect id="矩形" fill="#000000" opacity="0" x="0" y="0" width="24" height="24"></rect>
                <path d="M21,18 L21,16.2885 L21.009,16.284 L21,16.263 L21,9.246 L21,9.2355 L21,8.856 L21,8.8035 L21,7.359 L21,5.97 L21,5.9595 L21,5.127 L21,4.5 L20.748,4.5 L20.616,4.5 L19.9215,4.5 L15.8325,4.5 L14.1945,4.5 L12.5565,4.5 L10.9185,4.5 L7.641,4.5 L6.003,4.5 L3,4.5 L3,12.2385 L3,13.8765 L3,15.5145 L3,16.311 L3,18 L11.934,18 L21,18 Z M19.5,12.9015 L18.393,10.3815 L19.5,9.8955 L19.5,12.9015 Z M17.2005,6 L16.6065,6.261 L16.4925,6 L17.2005,6 Z M11.577,6 L12.486,8.0715 L9.7395,9.2775 L8.301,6 L11.577,6 Z M4.5,8.538 L5.6205,11.088 L4.5,11.5785 L4.5,8.538 Z M9.636,16.5 L8.2005,13.23 L6.8265,13.8345 L7.998,16.5 L4.5,16.5 L4.5,16.494 L7.4295,15.207 L6.8265,13.8345 L4.5,14.856 L4.5,13.218 L7.596,11.8575 L5.0235,6 L6.6615,6 L8.97,11.2545 L10.344,10.6515 L14.4645,8.841 L13.86,7.467 L13.215,6 L14.853,6 L15.825,8.238 L19.5,6.618 L19.5,8.256 L16.428,9.6105 L19.4655,16.5 L17.8275,16.5 L15.066,10.215 L10.947,12.024 L9.573,12.627 L11.274,16.5 L9.636,16.5 Z M14.2965,12.1905 L16.1895,16.5 L12.912,16.5 L11.55,13.398 L14.2965,12.1905 Z" id="形状" fill="#FFFFFF"></path>
                <path d="M24,1.5 L24,21 L0,21 L0,1.5 L24,1.5 Z M22.5,3 L1.5,3 L1.5,19.5 L22.5,19.5 L22.5,3 Z" id="形状结合" fill="#FFFFFF" opacity="0.596785332"></path>
            </g>
        </g>
    </g>
</svg>