<?xml version="1.0" encoding="UTF-8"?>
<svg width="24px" height="24px" viewBox="0 0 24 24" version="1.1" xmlns="http://www.w3.org/2000/svg" xmlns:xlink="http://www.w3.org/1999/xlink">
    <title>景深</title>
    <g id="CIM一张图" stroke="none" stroke-width="1" fill="none" fill-rule="evenodd">
        <g id="渲染环境" transform="translate(-1490.000000, -470.000000)">
            <g id="景深" transform="translate(1490.000000, 470.000000)">
                <rect id="矩形" opacity="0.647577195" fill-rule="nonzero" x="0" y="0" width="24" height="24"></rect>
                <circle id="椭圆形" fill="#D8D8D8" cx="4.5" cy="4.5" r="1.5"></circle>
                <circle id="椭圆形备份-6" fill="#D8D8D8" cx="4.5" cy="9.5" r="1.5"></circle>
                <circle id="椭圆形备份-10" fill="#D8D8D8" cx="4.5" cy="14.5" r="1.5"></circle>
                <circle id="椭圆形备份-19" fill="#D8D8D8" cx="4.5" cy="1.5" r="1"></circle>
                <circle id="椭圆形备份-27" fill="#D8D8D8" cx="4.5" cy="22.5" r="1"></circle>
                <circle id="椭圆形备份-20" fill="#D8D8D8" cx="9.5" cy="1.5" r="1"></circle>
                <circle id="椭圆形备份-28" fill="#D8D8D8" cx="9.5" cy="22.5" r="1"></circle>
                <circle id="椭圆形备份-21" fill="#D8D8D8" cx="14.5" cy="1.5" r="1"></circle>
                <circle id="椭圆形备份-29" fill="#D8D8D8" cx="14.5" cy="22.5" r="1"></circle>
                <circle id="椭圆形备份-22" fill="#D8D8D8" cx="19.5" cy="1.5" r="1"></circle>
                <circle id="椭圆形备份-30" fill="#D8D8D8" cx="19.5" cy="22.5" r="1"></circle>
                <circle id="椭圆形备份-23" fill="#D8D8D8" cx="22.5" cy="4.5" r="1"></circle>
                <circle id="椭圆形备份-31" fill="#D8D8D8" cx="1.5" cy="4.5" r="1"></circle>
                <circle id="椭圆形备份-24" fill="#D8D8D8" cx="22.5" cy="9.5" r="1"></circle>
                <circle id="椭圆形备份-32" fill="#D8D8D8" cx="1.5" cy="9.5" r="1"></circle>
                <circle id="椭圆形备份-25" fill="#D8D8D8" cx="22.5" cy="14.5" r="1"></circle>
                <circle id="椭圆形备份-33" fill="#D8D8D8" cx="1.5" cy="14.5" r="1"></circle>
                <circle id="椭圆形备份-26" fill="#D8D8D8" cx="22.5" cy="19.5" r="1"></circle>
                <circle id="椭圆形备份-34" fill="#D8D8D8" cx="1.5" cy="19.5" r="1"></circle>
                <circle id="椭圆形备份-14" fill="#D8D8D8" cx="4.5" cy="19.5" r="1.5"></circle>
                <circle id="椭圆形备份-3" fill="#D8D8D8" cx="9.5" cy="4.5" r="1.5"></circle>
                <circle id="椭圆形备份-7" stroke="#FFFFFF" stroke-width="2" cx="12" cy="12" r="3"></circle>
                <circle id="椭圆形备份-15" fill="#D8D8D8" cx="9.5" cy="19.5" r="1.5"></circle>
                <circle id="椭圆形备份-4" fill="#D8D8D8" cx="14.5" cy="4.5" r="1.5"></circle>
                <circle id="椭圆形备份-16" fill="#D8D8D8" cx="14.5" cy="19.5" r="1.5"></circle>
                <circle id="椭圆形备份-5" fill="#D8D8D8" cx="19.5" cy="4.5" r="1.5"></circle>
                <circle id="椭圆形备份-9" fill="#D8D8D8" cx="19.5" cy="9.5" r="1.5"></circle>
                <circle id="椭圆形备份-13" fill="#D8D8D8" cx="19.5" cy="14.5" r="1.5"></circle>
                <circle id="椭圆形备份-17" fill="#D8D8D8" cx="19.5" cy="19.5" r="1.5"></circle>
            </g>
        </g>
    </g>
</svg>