<?xml version="1.0" encoding="UTF-8"?>
<svg width="106px" height="122px" viewBox="0 0 106 122" version="1.1" xmlns="http://www.w3.org/2000/svg" xmlns:xlink="http://www.w3.org/1999/xlink">
    <title>开发中心-开放API</title>
    <defs>
        <polygon id="path-1" points="52.4500109 0 0.461581023 30 52.4500109 60 104.438441 30"></polygon>
    </defs>
    <g id="基础数据-电子地图" stroke="none" stroke-width="1" fill="none" fill-rule="evenodd">
        <g id="基础平台-平台概览" transform="translate(-1309.000000, -4351.000000)">
            <g id="开发中心" transform="translate(1.000000, 3780.000000)">
                <g id="开发中心-开放API" transform="translate(1308.000000, 571.000000)">
                    <g id="编组-2" transform="translate(0.000000, 1.000000)">
                        <g id="路径-7" transform="translate(0.538419, 60.000000)">
                            <mask id="mask-2" fill="white">
                                <use xlink:href="#path-1"></use>
                            </mask>
                            <use id="蒙版" fill="#FFFFFF" xlink:href="#path-1"></use>
                            <polygon fill="#69B3FE" mask="url(#mask-2)" points="75.526181 26.7059 50.0162273 26.7059 38.448981 48.1119 22.2800047 48.1119 -9 30 26.455796 6.8499 44.108581 13.7134 47.461581 20.5639 71.6286757 9.225"></polygon>
                        </g>
                        <path d="M53.4884299,60.2887498 L53.4884299,-0.865801321 L0.5,29.7112502 L0.5,90.8658013 L53.4884299,60.2887498 Z M52.488,0.866 L52.488,59.71 L1.5,89.133 L1.5,30.288 L52.488,0.866 Z" id="路径-13" fill="#0B83FF" fill-rule="nonzero"></path>
                        <path d="M52.4884299,-0.865801321 L52.4884299,60.2887498 L105.47686,90.8658013 L105.47686,29.7112502 L52.4884299,-0.865801321 Z M53.488,0.866 L104.476,30.289 L104.476,89.133 L53.488,59.71 L53.488,0.866 Z" id="路径-15" fill="#0B83FF" fill-rule="nonzero"></path>
                        <g id="编组" transform="translate(25.000000, 22.000000)">
                            <polygon id="Fill-1" fill="#0A83FF" points="46.8406 52.4219 38.3566 57.3199 51.0646 64.7059"></polygon>
                            <path d="M46.5906092,51.988882 L38.1066092,56.886882 C37.7738234,57.0790065 37.7731249,57.5590965 38.1053501,57.7521887 L50.8133501,65.1381887 C51.2137305,65.3708932 51.6880133,64.9812393 51.537427,64.5433128 L47.313427,52.2593128 C47.2111594,51.9619037 46.8629783,51.8316373 46.5906092,51.988882 Z M46.564,53.158 L50.154,63.598 L39.353,57.321 L46.564,53.158 Z" id="Stroke-2" fill="#0A83FF" fill-rule="nonzero"></path>
                            <path d="M33.3323059,37.8644258 L29.8793059,51.5914258 C29.7715262,52.0198915 30.2317302,52.3673504 30.6143007,52.1463546 L44.195194,44.3044162 C44.5279979,44.1122779 44.5286686,43.6321511 44.1964026,43.4390839 L34.0684026,37.5540839 C33.7808852,37.3870183 33.4134264,37.5419407 33.3323059,37.8644258 Z M34.14,38.752 L42.947,43.87 L31.137,50.689 L34.14,38.752 Z" id="Stroke-3" fill="#0A83FF" fill-rule="nonzero"></path>
                            <polygon id="Fill-4" fill="#0A83FF" points="43.9451 43.8711 37.0861 24.9971 33.8171 37.9861"></polygon>
                            <path d="M36.6012204,24.8750682 L33.3322204,37.8640682 C33.2778045,38.0802834 33.373121,38.306401 33.5658974,38.4184161 L43.6938974,44.3034161 C44.0980029,44.5382267 44.5746644,44.1395882 44.4150309,43.7003224 L37.5560309,24.8263224 C37.3876901,24.3630969 36.721511,24.3971072 36.6012204,24.8750682 Z M37.173,26.698 L43.004,42.745 L34.393,37.742 L37.173,26.698 Z" id="Stroke-5" fill="#0A83FF" fill-rule="nonzero"></path>
                            <path d="M33.1344,12.8584 L30.9014,21.4034 L28.4914,30.6234 L26.4764,38.3324 L23.9524,47.9864 L13.9874,86.1124 L23.1224,80.8384 L27.5274,63.5734 L38.3564,57.3204 L46.8404,52.4214 L51.0644,64.7064 L60.4634,59.2794 L40.9634,8.3374 L33.1344,12.8584 Z M33.8174,37.9864 L37.0854,24.9964 L43.9454,43.8714 L38.0164,47.2944 L34.9034,49.0914 L30.3644,51.7134 L33.8174,37.9864 Z" id="Fill-6" fill="#FFFFFF"></path>
                            <path d="M40.7134031,7.9049855 C40.9530956,7.76660128 41.2530233,7.85063062 41.3907577,8.07819001 L41.4303569,8.15925087 L60.9303569,59.1002509 C61.0072342,59.3010819 60.9464309,59.524744 60.7874481,59.659848 L60.7134168,59.712003 L51.3144168,65.139003 C51.0692835,65.2805434 50.7627267,65.189185 50.6293106,64.9526783 L50.591573,64.8685872 L46.564,53.158 L27.959,63.9 L23.6068796,80.9616103 C23.586901,81.0399146 23.5484746,81.1113958 23.495735,81.1705982 L23.4383775,81.2255055 L23.3723966,81.2710146 L14.2373966,86.5450146 C13.8785337,86.7522005 13.4525673,86.4594639 13.4886554,86.0702769 L13.5036537,85.9855504 L32.6506449,12.731584 C32.6776844,12.6281123 32.7369711,12.5367503 32.8188801,12.4701219 L32.8844031,12.4249855 L40.7134031,7.9049855 Z M40.706,9.064 L33.565,13.186 L14.774,85.079 L22.689,80.51 L27.0429204,63.4493897 C27.0628972,63.3710922 27.1013187,63.2996166 27.1540514,63.2404171 L27.2114014,63.1855116 L27.2773738,63.1400024 L46.5904092,51.988982 C46.8355414,51.8474618 47.1420813,51.9388255 47.2754911,52.1753247 L47.313227,52.2594128 L51.339,63.969 L59.843,59.058 L40.706,9.064 Z M37.5153215,24.7401702 L37.5553229,24.8262004 L44.4153229,43.7002004 C44.4878253,43.8996773 44.4258995,44.1195114 44.2685554,44.252601 L44.195394,44.3040162 L30.6144291,52.1459959 C30.2573613,52.3521811 29.8327406,52.0632544 29.8653325,51.6754873 L29.8795059,51.5910258 L36.6005116,24.8750033 C36.7047348,24.4607573 37.2190132,24.3799487 37.4639004,24.6673057 L37.5153215,24.7401702 Z M43.332,43.647 L37.172,26.7 L31.137,50.689 L43.332,43.647 Z" id="Stroke-7" fill="#0A83FF" fill-rule="nonzero"></path>
                            <polygon id="Fill-9" fill="#0A83FF" points="0.4995 78.2749 13.9865 86.1119 23.9525 47.9859 26.4765 38.3319 28.4915 30.6239 30.9015 21.4029 33.1345 12.8579 19.6475 5.0199"></polygon>
                            <path d="M19.1635515,4.89405868 L0.0165515183,78.1480587 C-0.0402544112,78.365391 0.0548504737,78.5939291 0.249068327,78.7067993 L13.7360683,86.5447993 C14.0219257,86.7109259 14.3874317,86.5588262 14.4710463,86.2389496 L33.6180551,12.984916 C33.6748472,12.7675902 33.5797411,12.539066 33.3855317,12.4262007 L19.8985317,4.58820074 C19.6126713,4.42207234 19.2471616,4.57417719 19.1635515,4.89405868 Z M19.965,5.782 L32.554,13.099 L13.669,85.35 L1.08,78.033 L19.965,5.782 Z" id="Stroke-10" fill="#0A83FF" fill-rule="nonzero"></path>
                            <polygon id="Fill-12" fill="#FFFFFF" points="19.647 5.0203 33.134 12.8583 40.963 8.3373 27.476 0.4993"></polygon>
                            <path d="M27.2266616,0.0669094457 L19.3976616,4.58790945 C19.06491,4.780063 19.0642479,5.26012864 19.3964683,5.45319926 L32.8834683,13.2911993 C33.0383674,13.3812192 33.2295916,13.3814829 33.3847384,13.2918906 L41.2137384,8.77089055 C41.54649,8.578737 41.5471521,8.09867136 41.2149317,7.90560074 L27.7279317,0.0676007441 C27.5730326,-0.0224192063 27.3818084,-0.0226829223 27.2266616,0.0669094457 Z M27.475,1.077 L39.965,8.336 L33.134,12.28 L20.644,5.022 L27.475,1.077 Z" id="Stroke-13" fill="#0A83FF" fill-rule="nonzero"></path>
                        </g>
                        <path d="M104.726957,29.5669313 L52.7385269,59.5669313 C52.5837717,59.656233 52.4884299,59.8213272 52.4884299,60 L52.4884299,120 C52.4884299,120.38485 52.9049995,120.625419 53.2383328,120.433069 L105.226763,90.4330687 C105.381518,90.343767 105.47686,90.1786728 105.47686,90 L105.47686,30 C105.47686,29.6151496 105.06029,29.3745808 104.726957,29.5669313 Z M104.476,30.866 L104.476,89.71 L53.488,119.133 L53.488,60.289 L104.476,30.866 Z" id="路径-11" fill="#0B83FF" fill-rule="nonzero"></path>
                        <path d="M52.7385269,-0.433068723 L0.750097056,29.5669313 C0.416634315,29.7593564 0.416634315,30.2406436 0.750097056,30.4330687 L52.7385269,60.4330687 C52.8931781,60.5223104 53.0836816,60.5223104 53.2383328,60.4330687 L105.226763,30.4330687 C105.560225,30.2406436 105.560225,29.7593564 105.226763,29.5669313 L53.2383328,-0.433068723 C53.0836816,-0.522310426 52.8931781,-0.522310426 52.7385269,-0.433068723 Z M52.988,0.577 L103.975,30 L52.988,59.422 L2,30 L52.988,0.577 Z" id="路径-12" fill="#0B83FF" fill-rule="nonzero"></path>
                        <path d="M0.5,30 L0.5,90 C0.5,90.1786728 0.595341826,90.343767 0.750097056,90.4330687 L52.7385269,120.433069 C53.0718602,120.625419 53.4884299,120.38485 53.4884299,120 L53.4884299,60 C53.4884299,59.8213272 53.393088,59.656233 53.2383328,59.5669313 L1.24990294,29.5669313 C0.916569623,29.3745808 0.5,29.6151496 0.5,30 Z M1.5,30.866 L52.488,60.289 L52.488,119.133 L1.5,89.711 L1.5,30.866 Z" id="路径-14" fill="#0B83FF" fill-rule="nonzero"></path>
                    </g>
                </g>
            </g>
        </g>
    </g>
</svg>