<?xml version="1.0" encoding="UTF-8"?>
<svg width="106px" height="122px" viewBox="0 0 106 122" version="1.1" xmlns="http://www.w3.org/2000/svg" xmlns:xlink="http://www.w3.org/1999/xlink">
    <title>开发中心-BIM+</title>
    <defs>
        <polygon id="path-1" points="52.9004311 0 0.912001223 30 52.9004311 60 104.888861 30"></polygon>
    </defs>
    <g id="基础数据-电子地图" stroke="none" stroke-width="1" fill="none" fill-rule="evenodd">
        <g id="基础平台-平台概览" transform="translate(-908.000000, -4351.000000)">
            <g id="开发中心" transform="translate(1.000000, 3780.000000)">
                <g id="开发中心-BIM+" transform="translate(907.000000, 571.000000)">
                    <g id="编组-2" transform="translate(0.000000, 1.000000)">
                        <g id="路径-6" transform="translate(0.087999, 60.000000)">
                            <mask id="mask-2" fill="white">
                                <use xlink:href="#path-1"></use>
                            </mask>
                            <use id="蒙版" fill="#FFFFFF" xlink:href="#path-1"></use>
                            <polygon fill="#69B3FE" mask="url(#mask-2)" points="44.0685012 45.6626 14.8184127 45.6626 -10 25.7746 29.9120012 3.2064 35.0899234 10.9495"></polygon>
                        </g>
                        <path d="M53.4884299,60.2887498 L53.4884299,-0.865801321 L0.5,29.7112502 L0.5,90.8658013 L53.4884299,60.2887498 Z M52.488,0.866 L52.488,59.71 L1.5,89.133 L1.5,30.288 L52.488,0.866 Z" id="路径-13" fill="#0B83FF" fill-rule="nonzero"></path>
                        <path d="M52.4884299,-0.865801321 L52.4884299,60.2887498 L105.47686,90.8658013 L105.47686,29.7112502 L52.4884299,-0.865801321 Z M53.488,0.866 L104.476,30.289 L104.476,89.133 L53.488,59.71 L53.488,0.866 Z" id="路径-15" fill="#0B83FF" fill-rule="nonzero"></path>
                        <g id="编组" transform="translate(30.000000, 21.000000)">
                            <path d="M25.967,51.581 C25.58,52.037 25.153,52.477 24.703,52.908 C24.324,53.271 23.906,53.62 23.484,53.966 C23.394,54.04 23.303,54.115 23.216,54.19 L23.261,70.099 L34.223,63.769 C34.851,63.386 35.43,62.983 35.989,62.574 C36.109,62.487 36.234,62.402 36.349,62.314 C36.513,62.189 36.654,62.056 36.811,61.929 C37.292,61.542 37.759,61.15 38.184,60.742 C38.633,60.31 39.06,59.871 39.446,59.415 C39.487,59.369 39.524,59.321 39.563,59.274 C39.99,58.76 40.385,58.231 40.734,57.686 C40.734,57.685 40.734,57.685 40.735,57.685 C40.735,57.684 40.736,57.684 40.737,57.683 C41.097,57.118 41.413,56.536 41.691,55.938 C41.695,55.931 41.698,55.922 41.702,55.914 C41.71,55.897 41.717,55.881 41.725,55.864 C41.988,55.288 42.212,54.695 42.398,54.088 L42.409,54.05 C42.419,54.019 42.429,53.988 42.438,53.958 C42.604,53.397 42.73,52.821 42.83,52.235 C42.85,52.121 42.871,52.008 42.888,51.893 C42.983,51.259 43.047,50.613 43.067,49.949 C43.046,49.372 42.988,48.854 42.905,48.371 C42.894,48.305 42.886,48.233 42.873,48.169 C42.787,47.722 42.669,47.322 42.528,46.959 C42.501,46.893 42.475,46.826 42.446,46.763 C42.294,46.418 42.117,46.111 41.909,45.85 C41.876,45.807 41.838,45.769 41.802,45.728 C41.578,45.472 41.331,45.249 41.046,45.082 C39.444,44.14 36.892,44.623 33.384,46.533 L26.97,50.236 C26.689,50.644 26.406,51.051 26.082,51.441 C26.043,51.487 26.006,51.534 25.967,51.581" id="Fill-1" fill="#0A83FF"></path>
                            <path d="M40.6828,22.6074 C40.6618,22.5274 40.6418,22.4454 40.6188,22.3694 C40.5098,22.0144 40.3768,21.6974 40.2138,21.4244 C40.1848,21.3774 40.1508,21.3374 40.1208,21.2924 C39.9818,21.0864 39.8188,20.9174 39.6448,20.7624 C39.5608,20.6874 39.4778,20.6114 39.3848,20.5484 C38.0508,19.6434 35.8648,19.9954 32.7958,21.6484 L23.1388,27.2244 L23.1818,42.2064 L28.9388,38.8824 L29.6638,38.4634 L32.8378,36.6304 C33.5208,36.2114 34.1548,35.7714 34.7498,35.3164 C34.9488,35.1654 35.1198,35.0024 35.3078,34.8464 C35.6868,34.5344 36.0648,34.2204 36.4048,33.8924 C36.8248,33.4884 37.2198,33.0734 37.5798,32.6444 C37.6198,32.5974 37.6578,32.5504 37.6958,32.5034 C38.0818,32.0334 38.4378,31.5494 38.7538,31.0494 C38.7618,31.0384 38.7688,31.0264 38.7768,31.0144 C39.0998,30.5014 39.3848,29.9714 39.6348,29.4274 C39.6458,29.4034 39.6578,29.3784 39.6678,29.3544 C39.9098,28.8214 40.1138,28.2734 40.2838,27.7114 C40.2958,27.6704 40.3088,27.6314 40.3208,27.5914 C40.4718,27.0744 40.5868,26.5414 40.6808,25.9984 C40.6998,25.8874 40.7198,25.7784 40.7368,25.6684 C40.8238,25.0804 40.8848,24.4814 40.9038,23.8664 C40.8628,23.3984 40.7818,22.9894 40.6828,22.6074" id="Fill-3" fill="#0A83FF"></path>
                            <path d="M27.2482,14.9374 L28.5212,14.2024 L34.0732,10.9974 C34.6702,10.6874 35.2432,10.4154 35.8062,10.1604 C35.9332,10.1024 36.0572,10.0474 36.1822,9.9944 C36.2062,9.9834 36.2292,9.9724 36.2542,9.9614 C36.3542,9.9174 36.4482,9.8844 36.5472,9.8424 C36.8692,9.7084 37.1902,9.5744 37.5022,9.4574 C37.6142,9.4144 37.7272,9.3704 37.8402,9.3274 C37.8802,9.3124 37.9212,9.2954 37.9592,9.2824 C38.1112,9.2274 38.2522,9.1924 38.4012,9.1424 C38.7342,9.0324 39.0692,8.9184 39.3892,8.8324 C39.4202,8.8234 39.4552,8.8094 39.4862,8.8004 C39.6312,8.7614 39.7642,8.7434 39.9032,8.7104 C40.1872,8.6464 40.4752,8.5784 40.7492,8.5294 C40.8072,8.5184 40.8652,8.5054 40.9242,8.4924 C40.9802,8.4794 41.0382,8.4644 41.0922,8.4574 C41.1242,8.4524 41.1542,8.4524 41.1862,8.4474 C41.3132,8.4284 41.4292,8.4284 41.5532,8.4144 C41.8192,8.3834 42.0862,8.3544 42.3402,8.3444 C42.3722,8.3434 42.4072,8.3364 42.4392,8.3354 C42.5422,8.3334 42.6412,8.3364 42.7422,8.3374 C42.8072,8.3374 42.8662,8.3464 42.9312,8.3484 C43.1702,8.3544 43.4082,8.3634 43.6372,8.3884 C43.6582,8.3904 43.6822,8.3894 43.7032,8.3914 C43.7812,8.4014 43.8612,8.4074 43.9372,8.4184 C44.0222,8.4314 44.0992,8.4594 44.1822,8.4754 C44.3982,8.5164 44.6112,8.5634 44.8152,8.6244 C44.8642,8.6384 44.9202,8.6434 44.9682,8.6594 C45.0282,8.6784 45.0872,8.7014 45.1462,8.7224 C45.2042,8.7424 45.2552,8.7744 45.3112,8.7964 C45.5052,8.8724 45.6942,8.9574 45.8762,9.0514 C45.9532,9.0904 46.0392,9.1154 46.1132,9.1584 L32.6332,1.3244 C32.6112,1.3124 32.5912,1.3004 32.5692,1.2884 C32.3762,1.1794 32.1762,1.0814 31.9682,0.9944 C31.8702,0.9544 31.7672,0.9234 31.6662,0.8874 C31.6062,0.8674 31.5482,0.8444 31.4872,0.8254 C31.4322,0.8074 31.3802,0.7844 31.3232,0.7674 C31.0912,0.7004 30.8512,0.6444 30.6022,0.6014 C30.5562,0.5934 30.5052,0.5924 30.4572,0.5844 C30.3812,0.5734 30.3012,0.5674 30.2232,0.5574 C30.0762,0.5404 29.9332,0.5164 29.7802,0.5064 C29.6132,0.4964 29.4352,0.5034 29.2622,0.5034 C29.1602,0.5024 29.0612,0.4984 28.9592,0.5014 C28.9072,0.5024 28.8602,0.4984 28.8092,0.5004 C28.4542,0.5164 28.0852,0.5574 27.7062,0.6134 C27.6742,0.6184 27.6442,0.6184 27.6112,0.6234 C27.6072,0.6234 27.6032,0.6234 27.6002,0.6244 C27.4942,0.6404 27.3762,0.6754 27.2692,0.6954 C26.8582,0.7684 26.4432,0.8494 26.0062,0.9664 C25.9922,0.9704 25.9792,0.9714 25.9652,0.9754 C25.4872,1.1044 24.9892,1.2664 24.4782,1.4484 C24.3292,1.5004 24.1732,1.5654 24.0212,1.6234 C23.7672,1.7184 23.5182,1.8054 23.2562,1.9154 C23.0992,1.9794 22.9342,2.0584 22.7732,2.1274 C22.6252,2.1924 22.4762,2.2574 22.3252,2.3264 C21.7632,2.5814 21.1892,2.8534 20.5932,3.1634 L0.5002,14.7634 L13.9802,22.5974 L27.2482,14.9374 Z" id="Fill-5" fill="#FFFFFF"></path>
                            <path d="M45.8619667,9.59069831 L45.9400137,9.62910383 C46.4547236,9.83721336 46.8710712,9.12348987 46.4396776,8.77747719 L46.355,8.721 L32.8143306,0.852612231 C32.6041442,0.733905068 32.3864173,0.627352064 32.1611374,0.533124415 L32.0247763,0.481708605 L31.6726915,0.359861795 C31.6605032,0.355807119 31.6486268,0.351987594 31.6358918,0.348020968 L31.4899107,0.296011058 C31.2076109,0.213585806 30.9497569,0.154019106 30.687286,0.108692809 L29.8845154,0.0128919139 L29.678126,0.00198557245 L28.7896072,0.000784024634 C28.5223604,0.0128225425 28.2430674,0.0380618714 27.9419159,0.0762606375 L27.630368,0.119010404 L27.552,0.127 L27.4420861,0.150058351 L27.4039593,0.152775433 L27.1773331,0.203911985 L26.8833474,0.257698103 C26.6024018,0.310840443 26.3571518,0.362930607 26.1167776,0.421880996 L25.8278394,0.494638026 C25.4615084,0.593456634 25.0683074,0.715567235 24.6391718,0.862502869 L24.0819933,1.06282498 L23.6376481,1.23213559 L23.3673579,1.33283508 L23.0156813,1.47377428 L22.1173913,1.87163023 C21.4745519,2.1633081 20.9155691,2.43213371 20.3624768,2.71981597 L0.250211297,14.3303808 C-0.0825837037,14.5225085 -0.0832742482,15.0026141 0.248966696,15.1956983 L13.7289667,23.0296983 C13.8838499,23.1197098 14.0750525,23.1199838 14.2301931,23.0304167 L34.3231738,11.4304279 C34.6365884,11.2680194 34.9591986,11.1081973 35.3008573,10.9457606 L36.0124918,10.6158599 L36.5366084,10.3852482 L37.5159154,9.98723921 L38.1210438,9.75548199 L39.3556574,9.36096108 L39.5802224,9.29618411 L39.6256051,9.28057311 L40.6635506,9.05465617 L40.9548163,8.9976066 L41.156477,8.95325125 L41.3555616,8.93153425 L41.6092952,8.91124336 L41.9112776,8.87783789 L42.2579732,8.84898021 L42.4252377,8.83913085 L42.4548174,8.83515604 L42.7683879,8.83848711 L42.9158227,8.84816348 L43.2239825,8.85870846 L43.4713908,8.87461385 L43.8390787,8.90966282 L44.0875569,8.96636098 C44.3174689,9.01000375 44.5039884,9.05321631 44.671957,9.10344221 L44.8100861,9.13374165 L44.9963242,9.20128877 L45.0772645,9.24018198 L45.3934783,9.3733219 L45.691968,9.51761175 L45.8619667,9.59069831 Z M27.6161133,1.12992612 L27.7833884,1.10740602 C28.0736435,1.06453179 28.3402428,1.03351332 28.588868,1.01466833 L28.8536909,0.999999627 L29.6497218,1.0016596 L29.8008449,1.00941136 L30.5165294,1.09400588 C30.7430793,1.1331293 30.9651367,1.18442664 31.1844726,1.24776936 L31.7792515,1.45732382 C31.9025921,1.50892686 32.0247591,1.56579449 32.1448511,1.62753913 L32.3880694,1.76018777 L42.853,7.842 L42.5632247,7.83494638 L42.3900993,7.83784742 L42.3245826,7.84464396 C42.1656963,7.85088836 42.0121587,7.86241667 41.8194137,7.88199959 L41.4241979,7.92416234 L41.223992,7.93912873 L41.039307,7.96020554 L40.9529513,7.97373356 L40.6560332,8.03815674 L40.3674009,8.09467237 L39.4169862,8.30191805 L39.2497949,8.35222689 L38.9853119,8.42768581 L38.0692244,8.72215534 L37.8494186,8.79098032 L37.1540606,9.05497393 L35.9738726,9.53986759 L35.5984894,9.70558541 C34.9655305,9.99226928 34.4018471,10.2633555 33.8427811,10.5536578 L13.98,22.019 L1.497,14.765 L20.8431887,3.59641922 C21.1530429,3.43557995 21.4725828,3.27717727 21.8144709,3.1145571 L22.7985435,2.66241406 L23.4449421,2.37840801 L23.7277465,2.26567788 L24.6429518,1.92047717 C25.0746329,1.76673636 25.4654159,1.63859591 25.8283211,1.53307545 L26.1435606,1.44716197 C26.4320041,1.36999341 26.7202483,1.30619526 27.0760563,1.23899509 L27.4086793,1.17741416 L27.6161133,1.12992612 Z" id="Stroke-7" fill="#0A83FF" fill-rule="nonzero"></path>
                            <polygon id="Fill-9" fill="#0A83FF" points="9.7805 62.2646 14.0865 59.7786 14.0205 36.8826 9.7015 34.3716 14.0075 31.8866 13.9805 22.5976 0.5005 14.7636 0.6765 76.8286 14.1565 84.6626 14.0995 64.7746"></polygon>
                            <path d="M0.000499865552,14.7650179 L0.17650201,76.8300179 C0.177005685,77.0076346 0.27169927,77.1716515 0.425266696,77.2608983 L13.9052667,85.0948983 C14.2391493,85.2889366 14.6576047,85.047337 14.6565001,84.661167 L14.5994979,64.773167 L14.5915582,64.6857777 C14.5657891,64.5429619 14.4787015,64.4166708 14.3507319,64.3423009 L10.777,62.266 L14.3364947,60.2116158 C14.4916443,60.1220427 14.5870143,59.956308 14.5864979,59.7771587 L14.5204979,36.8811587 L14.5125596,36.7937857 C14.4867976,36.6509956 14.3997391,36.5247223 14.2718067,36.4503444 L10.698,34.373 L14.2574193,32.3196593 C14.4126151,32.2300955 14.5080187,32.0643314 14.5074979,31.8851467 L14.4804979,22.5961467 C14.4799817,22.4185427 14.3852898,22.2545422 14.2317333,22.1653017 L0.751733304,14.3313017 C0.417856495,14.1372668 -0.000593047063,14.3788546 0.000499865552,14.7650179 Z M1.002,15.633 L13.481,22.885 L13.506,31.598 L9.45158073,33.9385407 L9.37529307,33.9922269 C9.1209408,34.2086382 9.14567081,34.626811 9.45019325,34.8038556 L13.521,37.17 L13.585,59.49 L9.5305053,61.8315842 L9.45422703,61.8852837 C9.19991259,62.1017391 9.22471519,62.5199073 9.52926806,62.6968991 L13.6,65.062 L13.654,83.792 L1.175,76.54 L1.002,15.633 Z" id="Stroke-11" fill="#0A83FF" fill-rule="nonzero"></path>
                            <polygon id="Fill-13" fill="#0A83FF" points="14.0207 36.8828 14.0067 31.8868 9.7017 34.3718"></polygon>
                            <polygon id="Fill-15" fill="#0A83FF" points="9.7805 62.2646 14.0995 64.7746 14.0865 59.7786"></polygon>
                            <path d="M37.9592,32.1826 C38.1052,31.9956 38.2452,31.8056 38.3802,31.6136 C38.4982,31.4446 38.6122,31.2736 38.7232,31.1016 C38.7332,31.0836 38.7432,31.0676 38.7542,31.0496 C38.4382,31.5496 38.0822,32.0336 37.6952,32.5036 C37.7832,32.3966 37.8752,32.2906 37.9592,32.1826" id="Fill-17" fill="#0865C5"></path>
                            <path d="M38.7766,31.0136 C38.8596,30.8826 38.9406,30.7506 39.0186,30.6176 C39.1106,30.4596 39.1996,30.3006 39.2856,30.1396 C39.3696,29.9816 39.4506,29.8216 39.5286,29.6596 C39.5656,29.5836 39.5986,29.5056 39.6336,29.4276 L39.6346,29.4276 C39.3846,29.9716 39.0996,30.5006 38.7766,31.0146 L38.7766,31.0136 Z" id="Fill-19" fill="#0865C5"></path>
                            <path d="M34.7512,35.3164 C34.9482,35.1654 35.1172,35.0034 35.3062,34.8484 C35.3062,34.8474 35.3072,34.8464 35.3082,34.8464 C35.1192,35.0024 34.9482,35.1654 34.7502,35.3164 L34.7512,35.3164 Z" id="Fill-21" fill="#0865C5"></path>
                            <path d="M36.5392,33.7753 C36.8472,33.4723 37.1392,33.1633 37.4142,32.8463 C37.4722,32.7803 37.5232,32.7123 37.5792,32.6443 L37.5802,32.6443 C37.2202,33.0733 36.8242,33.4883 36.4042,33.8923 C36.4462,33.8523 36.4982,33.8163 36.5392,33.7753" id="Fill-23" fill="#0865C5"></path>
                            <path d="M39.7541,29.166 C39.8301,28.991 39.9021,28.814 39.9711,28.636 C40.0451,28.443 40.1141,28.25 40.1791,28.054 C40.2171,27.941 40.2491,27.826 40.2831,27.712 L40.2831,27.711 C40.1131,28.273 39.9091,28.821 39.6681,29.354 C39.6961,29.292 39.7271,29.229 39.7541,29.166" id="Fill-25" fill="#0865C5"></path>
                            <path d="M39.8869,20.9609 C39.8159,20.8809 39.7229,20.8319 39.6449,20.7629 C39.8189,20.9169 39.9819,21.0859 40.1199,21.2919 C40.0439,21.1789 39.9729,21.0589 39.8869,20.9609" id="Fill-27" fill="#0865C5"></path>
                            <path d="M40.3205,27.5908 C40.3415,27.5228 40.3635,27.4538 40.3825,27.3848 C40.4585,27.1118 40.5265,26.8348 40.5855,26.5548 C40.6245,26.3718 40.6485,26.1848 40.6795,25.9988 C40.6795,25.9988 40.6795,25.9978 40.6805,25.9978 C40.5875,26.5408 40.4715,27.0738 40.3205,27.5918 L40.3205,27.5908 Z" id="Fill-29" fill="#0865C5"></path>
                            <path d="M40.7365,25.6669 C40.7505,25.5779 40.7695,25.4919 40.7815,25.4019 C40.8465,24.8999 40.8865,24.3879 40.9035,23.8659 C40.8845,24.4809 40.8235,25.0799 40.7365,25.6679 L40.7365,25.6669 Z" id="Fill-31" fill="#0865C5"></path>
                            <path d="M36.3498,62.3144 C36.5138,62.1894 36.6608,62.0574 36.8108,61.9284 C36.6538,62.0554 36.5128,62.1894 36.3488,62.3144 L36.3498,62.3144 Z" id="Fill-33" fill="#0865C5"></path>
                            <path d="M39.5627,59.2744 C39.6787,59.1344 39.7967,58.9974 39.9077,58.8554 C40.0657,58.6524 40.2167,58.4464 40.3637,58.2384 C40.4917,58.0564 40.6147,57.8724 40.7337,57.6864 C40.3847,58.2314 39.9907,58.7594 39.5627,59.2744" id="Fill-35" fill="#0865C5"></path>
                            <path d="M38.1838,60.7421 C38.2408,60.6881 38.3098,60.6391 38.3648,60.5851 C38.6988,60.2571 39.0138,59.9221 39.3118,59.5791 C39.3588,59.5251 39.4008,59.4701 39.4468,59.4151 C39.0598,59.8711 38.6328,60.3101 38.1838,60.7421" id="Fill-37" fill="#0865C5"></path>
                            <path d="M42.9367,51.6064 L42.9367,51.6064 C42.9237,51.7034 42.9027,51.7954 42.8877,51.8924 C42.8717,52.0074 42.8497,52.1214 42.8307,52.2354 C42.7957,52.4314 42.7707,52.6294 42.7297,52.8234 C42.6667,53.1204 42.5947,53.4144 42.5147,53.7034 C42.4917,53.7894 42.4627,53.8734 42.4377,53.9584 C42.4287,53.9894 42.4187,54.0194 42.4097,54.0494 L42.3977,54.0874 C42.3647,54.1974 42.3337,54.3074 42.2977,54.4164 C42.2287,54.6254 42.1547,54.8324 42.0757,55.0374 C42.0017,55.2274 41.9247,55.4174 41.8437,55.6044 C41.8057,55.6914 41.7647,55.7774 41.7247,55.8644 C41.7177,55.8804 41.7097,55.8974 41.7027,55.9144 C41.6987,55.9214 41.6947,55.9304 41.6907,55.9384 C41.6617,56.0024 41.6327,56.0684 41.6027,56.1314 C41.5187,56.3054 41.4317,56.4774 41.3407,56.6474 L41.3407,56.6484 C41.2497,56.8204 41.1547,56.9914 41.0547,57.1614 C40.9537,57.3354 40.8477,57.5074 40.7387,57.6784 C40.7377,57.6794 40.7377,57.6804 40.7367,57.6814 L40.7367,57.6824 C40.7357,57.6834 40.7347,57.6844 40.7337,57.6864 C40.6147,57.8724 40.4917,58.0564 40.3637,58.2384 C40.2167,58.4464 40.0657,58.6524 39.9077,58.8554 C39.7967,58.9974 39.6787,59.1344 39.5627,59.2744 C39.5237,59.3214 39.4867,59.3684 39.4467,59.4154 C39.4007,59.4694 39.3587,59.5254 39.3117,59.5794 C39.0137,59.9214 38.6987,60.2564 38.3647,60.5854 C38.3097,60.6394 38.2407,60.6884 38.1837,60.7424 C37.8047,61.1064 37.3867,61.4544 36.9637,61.8004 C36.9127,61.8424 36.8617,61.8854 36.8107,61.9284 C36.6607,62.0574 36.5137,62.1894 36.3497,62.3144 L36.3487,62.3144 C36.2337,62.4024 36.1087,62.4874 35.9897,62.5744 C35.4297,62.9834 34.8507,63.3854 34.2227,63.7684 L23.2607,70.0984 L23.2157,54.1904 L23.2107,52.4064 L26.9697,50.2364 L33.3837,46.5334 C36.8917,44.6234 39.4437,44.1394 41.0457,45.0824 C41.3317,45.2494 41.5787,45.4714 41.8017,45.7284 C41.8377,45.7694 41.8757,45.8064 41.9097,45.8494 C42.1177,46.1114 42.2937,46.4184 42.4467,46.7624 C42.4747,46.8264 42.5007,46.8924 42.5277,46.9594 C42.6687,47.3224 42.7877,47.7214 42.8737,48.1684 C42.8857,48.2334 42.8937,48.3044 42.9057,48.3714 C42.9877,48.8544 43.0457,49.3724 43.0667,49.9494 C43.0497,50.5124 43.0067,51.0644 42.9367,51.6064 L42.9367,51.6064 Z M23.1387,27.2244 L32.7957,21.6484 C35.8647,19.9954 38.0507,19.6434 39.3847,20.5484 C39.4777,20.6114 39.5607,20.6874 39.6447,20.7624 C39.7227,20.8324 39.8157,20.8804 39.8867,20.9604 C39.9727,21.0584 40.0437,21.1784 40.1207,21.2924 C40.1507,21.3374 40.1847,21.3774 40.2137,21.4244 C40.3767,21.6974 40.5097,22.0144 40.6187,22.3694 C40.6417,22.4454 40.6617,22.5274 40.6827,22.6074 C40.7817,22.9894 40.8627,23.3984 40.9037,23.8664 C40.8867,24.3874 40.8467,24.9004 40.7817,25.4024 C40.7697,25.4924 40.7497,25.5784 40.7367,25.6674 L40.7367,25.6684 C40.7197,25.7784 40.6997,25.8874 40.6807,25.9984 C40.6797,25.9984 40.6797,25.9994 40.6797,25.9994 C40.6487,26.1844 40.6237,26.3724 40.5847,26.5544 C40.5267,26.8354 40.4577,27.1114 40.3827,27.3844 C40.3637,27.4544 40.3407,27.5224 40.3207,27.5904 L40.3207,27.5914 C40.3087,27.6314 40.2957,27.6704 40.2837,27.7104 L40.2837,27.7114 C40.2487,27.8264 40.2167,27.9414 40.1787,28.0534 C40.1147,28.2504 40.0447,28.4434 39.9707,28.6354 C39.9027,28.8144 39.8307,28.9914 39.7537,29.1664 C39.7267,29.2294 39.6967,29.2924 39.6677,29.3544 C39.6567,29.3784 39.6457,29.4034 39.6347,29.4274 L39.6337,29.4274 C39.5987,29.5054 39.5657,29.5844 39.5287,29.6604 C39.4507,29.8214 39.3697,29.9814 39.2857,30.1394 C39.1997,30.3004 39.1107,30.4604 39.0187,30.6184 C38.9407,30.7514 38.8597,30.8824 38.7767,31.0134 L38.7767,31.0144 C38.7687,31.0264 38.7617,31.0384 38.7537,31.0494 C38.7437,31.0674 38.7337,31.0844 38.7227,31.1014 C38.6127,31.2734 38.4987,31.4444 38.3797,31.6134 C38.2457,31.8054 38.1047,31.9954 37.9587,32.1824 C37.8747,32.2914 37.7837,32.3964 37.6957,32.5034 C37.6577,32.5504 37.6197,32.5974 37.5807,32.6444 L37.5797,32.6444 C37.5237,32.7114 37.4717,32.7804 37.4147,32.8464 C37.1387,33.1634 36.8467,33.4724 36.5397,33.7754 C36.4987,33.8164 36.4467,33.8524 36.4047,33.8924 C36.0647,34.2204 35.6867,34.5344 35.3077,34.8464 C35.3067,34.8464 35.3057,34.8474 35.3057,34.8484 C35.1177,35.0024 34.9487,35.1654 34.7507,35.3164 L34.7497,35.3164 C34.1547,35.7714 33.5207,36.2114 32.8377,36.6304 L29.6647,38.4634 L28.9387,38.8824 L23.1817,42.2064 L23.1387,27.2244 Z M44.8457,33.9044 C48.3237,29.0964 50.0487,23.8944 50.0337,18.3024 C49.7647,13.4244 48.3717,10.3524 45.8757,9.0514 C45.6947,8.9574 45.5047,8.8724 45.3117,8.7964 C45.1497,8.7334 44.9857,8.6734 44.8157,8.6244 C44.6117,8.5634 44.3987,8.5164 44.1817,8.4754 C44.0027,8.4424 43.8237,8.4094 43.6367,8.3884 C43.4087,8.3634 43.1697,8.3544 42.9307,8.3484 C42.7357,8.3434 42.5417,8.3364 42.3397,8.3444 C42.0857,8.3544 41.8197,8.3834 41.5527,8.4144 C41.3447,8.4384 41.1397,8.4564 40.9237,8.4924 C40.5957,8.5464 40.2497,8.6274 39.9037,8.7104 C39.7317,8.7524 39.5657,8.7834 39.3887,8.8324 C39.0697,8.9184 38.7347,9.0324 38.4017,9.1424 C38.2137,9.2054 38.0327,9.2574 37.8397,9.3274 C37.4217,9.4784 36.9867,9.6574 36.5467,9.8424 C36.4237,9.8954 36.3067,9.9394 36.1817,9.9944 C35.5007,10.2924 34.8037,10.6184 34.0737,10.9974 L28.5217,14.2024 L27.2487,14.9374 L13.9807,22.5974 L14.0067,31.8864 L14.0207,36.8824 L14.0857,59.7784 L14.0997,64.7744 L14.1567,84.6634 L35.5457,72.3144 C46.6767,65.8874 52.2307,56.6694 52.1968552,44.6774 C52.0087,38.1794 49.5527,34.5924 44.8457,33.9044 L44.8457,33.9044 Z" id="Fill-39" fill="#FFFFFF"></path>
                            <path d="M42.9367,51.6064 L42.9367,51.6064 C42.9237,51.7034 42.9027,51.7954 42.8877,51.8924 C42.8717,52.0074 42.8497,52.1214 42.8307,52.2354 C42.7957,52.4314 42.7707,52.6294 42.7297,52.8234 C42.6667,53.1204 42.5947,53.4144 42.5147,53.7034 C42.4917,53.7894 42.4627,53.8734 42.4377,53.9584 C42.4287,53.9894 42.4187,54.0194 42.4097,54.0494 L42.3977,54.0874 C42.3647,54.1974 42.3337,54.3074 42.2977,54.4164 C42.2287,54.6254 42.1547,54.8324 42.0757,55.0374 C42.0017,55.2274 41.9247,55.4174 41.8437,55.6044 C41.8057,55.6914 41.7647,55.7774 41.7247,55.8644 C41.7177,55.8804 41.7097,55.8974 41.7027,55.9144 C41.6987,55.9214 41.6947,55.9304 41.6907,55.9384 C41.6617,56.0024 41.6327,56.0684 41.6027,56.1314 C41.5187,56.3054 41.4317,56.4774 41.3407,56.6474 L41.3407,56.6484 C41.2497,56.8204 41.1547,56.9914 41.0547,57.1614 C40.9537,57.3354 40.8477,57.5074 40.7387,57.6784 C40.7377,57.6794 40.7377,57.6804 40.7367,57.6814 L40.7367,57.6824 C40.7357,57.6834 40.7347,57.6844 40.7337,57.6864 C40.6147,57.8724 40.4917,58.0564 40.3637,58.2384 C40.2167,58.4464 40.0657,58.6524 39.9077,58.8554 C39.7967,58.9974 39.6787,59.1344 39.5627,59.2744 C39.5237,59.3214 39.4867,59.3684 39.4467,59.4154 C39.4007,59.4694 39.3587,59.5254 39.3117,59.5794 C39.0137,59.9214 38.6987,60.2564 38.3647,60.5854 C38.3097,60.6394 38.2407,60.6884 38.1837,60.7424 C37.8047,61.1064 37.3867,61.4544 36.9637,61.8004 C36.9127,61.8424 36.8617,61.8854 36.8107,61.9284 C36.6607,62.0574 36.5137,62.1894 36.3497,62.3144 L36.3487,62.3144 C36.2337,62.4024 36.1087,62.4874 35.9897,62.5744 C35.4297,62.9834 34.8507,63.3854 34.2227,63.7684 L23.2607,70.0984 L23.2157,54.1904 L23.2107,52.4064 L26.9697,50.2364 L33.3837,46.5334 C36.8917,44.6234 39.4437,44.1394 41.0457,45.0824 C41.3317,45.2494 41.5787,45.4714 41.8017,45.7284 C41.8377,45.7694 41.8757,45.8064 41.9097,45.8494 C42.1177,46.1114 42.2937,46.4184 42.4467,46.7624 C42.4747,46.8264 42.5007,46.8924 42.5277,46.9594 C42.6687,47.3224 42.7877,47.7214 42.8737,48.1684 C42.8857,48.2334 42.8937,48.3044 42.9057,48.3714 C42.9877,48.8544 43.0457,49.3724 43.0667,49.9494 C43.0497,50.5124 43.0067,51.0644 42.9367,51.6064 Z M23.1387,27.2244 L32.7957,21.6484 C35.8647,19.9954 38.0507,19.6434 39.3847,20.5484 C39.4777,20.6114 39.5607,20.6874 39.6447,20.7624 C39.7227,20.8324 39.8157,20.8804 39.8867,20.9604 C39.9727,21.0584 40.0437,21.1784 40.1207,21.2924 C40.1507,21.3374 40.1847,21.3774 40.2137,21.4244 C40.3767,21.6974 40.5097,22.0144 40.6187,22.3694 C40.6417,22.4454 40.6617,22.5274 40.6827,22.6074 C40.7817,22.9894 40.8627,23.3984 40.9037,23.8664 C40.8867,24.3874 40.8467,24.9004 40.7817,25.4024 C40.7697,25.4924 40.7497,25.5784 40.7367,25.6674 L40.7367,25.6684 C40.7197,25.7784 40.6997,25.8874 40.6807,25.9984 C40.6797,25.9984 40.6797,25.9994 40.6797,25.9994 C40.6487,26.1844 40.6237,26.3724 40.5847,26.5544 C40.5267,26.8354 40.4577,27.1114 40.3827,27.3844 C40.3637,27.4544 40.3407,27.5224 40.3207,27.5904 L40.3207,27.5914 C40.3087,27.6314 40.2957,27.6704 40.2837,27.7104 L40.2837,27.7114 C40.2487,27.8264 40.2167,27.9414 40.1787,28.0534 C40.1147,28.2504 40.0447,28.4434 39.9707,28.6354 C39.9027,28.8144 39.8307,28.9914 39.7537,29.1664 C39.7267,29.2294 39.6967,29.2924 39.6677,29.3544 C39.6567,29.3784 39.6457,29.4034 39.6347,29.4274 L39.6337,29.4274 C39.5987,29.5054 39.5657,29.5844 39.5287,29.6604 C39.4507,29.8214 39.3697,29.9814 39.2857,30.1394 C39.1997,30.3004 39.1107,30.4604 39.0187,30.6184 C38.9407,30.7514 38.8597,30.8824 38.7767,31.0134 L38.7767,31.0144 C38.7687,31.0264 38.7617,31.0384 38.7537,31.0494 C38.7437,31.0674 38.7337,31.0844 38.7227,31.1014 C38.6127,31.2734 38.4987,31.4444 38.3797,31.6134 C38.2457,31.8054 38.1047,31.9954 37.9587,32.1824 C37.8747,32.2914 37.7837,32.3964 37.6957,32.5034 C37.6577,32.5504 37.6197,32.5974 37.5807,32.6444 L37.5797,32.6444 C37.5237,32.7114 37.4717,32.7804 37.4147,32.8464 C37.1387,33.1634 36.8467,33.4724 36.5397,33.7754 C36.4987,33.8164 36.4467,33.8524 36.4047,33.8924 C36.0647,34.2204 35.6867,34.5344 35.3077,34.8464 C35.3067,34.8464 35.3057,34.8474 35.3057,34.8484 C35.1177,35.0024 34.9487,35.1654 34.7507,35.3164 L34.7497,35.3164 C34.1547,35.7714 33.5207,36.2114 32.8377,36.6304 L29.6647,38.4634 L28.9387,38.8824 L23.1817,42.2064 L23.1387,27.2244 Z M44.8457,33.9044 C48.3237,29.0964 50.0487,23.8944 50.0337,18.3024 C49.7647,13.4244 48.3717,10.3524 45.8757,9.0514 C45.6947,8.9574 45.5047,8.8724 45.3117,8.7964 C45.1497,8.7334 44.9857,8.6734 44.8157,8.6244 C44.6117,8.5634 44.3987,8.5164 44.1817,8.4754 C44.0027,8.4424 43.8237,8.4094 43.6367,8.3884 C43.4087,8.3634 43.1697,8.3544 42.9307,8.3484 C42.7357,8.3434 42.5417,8.3364 42.3397,8.3444 C42.0857,8.3544 41.8197,8.3834 41.5527,8.4144 C41.3447,8.4384 41.1397,8.4564 40.9237,8.4924 C40.5957,8.5464 40.2497,8.6274 39.9037,8.7104 C39.7317,8.7524 39.5657,8.7834 39.3887,8.8324 C39.0697,8.9184 38.7347,9.0324 38.4017,9.1424 C38.2137,9.2054 38.0327,9.2574 37.8397,9.3274 C37.4217,9.4784 36.9867,9.6574 36.5467,9.8424 C36.4237,9.8954 36.3067,9.9394 36.1817,9.9944 C35.5007,10.2924 34.8037,10.6184 34.0737,10.9974 L28.5217,14.2024 L27.2487,14.9374 L13.9807,22.5974 L14.0067,31.8864 L14.0207,36.8824 L14.0857,59.7784 L14.0997,64.7744 L14.1567,84.6634 L35.5457,72.3144 C46.6767,65.8874 52.2307,56.6694 52.1968552,44.6774 C52.0087,38.1794 49.5527,34.5924 44.8457,33.9044 Z" id="Stroke-41" stroke="#0A83FF" stroke-linejoin="round"></path>
                            <path d="M39.6682,29.3544 L39.6682,29.3544 C39.6572,29.3784 39.6462,29.4034 39.6352,29.4274 C39.6462,29.4034 39.6562,29.3784 39.6682,29.3544" id="Fill-43" fill="#0865C5"></path>
                            <path d="M42.4377,53.958 L42.4377,53.958 C42.4287,53.988 42.4187,54.02 42.4097,54.05 C42.4187,54.02 42.4287,53.989 42.4377,53.958" id="Fill-45" fill="#0865C5"></path>
                            <path d="M36.9641,61.8007 C37.3871,61.4537 37.8051,61.1067 38.1841,60.7417 C37.7591,61.1507 37.2921,61.5417 36.8111,61.9287 C36.8611,61.8857 36.9121,61.8427 36.9641,61.8007" id="Fill-47" fill="#0865C5"></path>
                            <path d="M41.6906,55.9384 C41.6946,55.9304 41.6986,55.9214 41.7026,55.9144 C41.6986,55.9214 41.6946,55.9304 41.6906,55.9384" id="Fill-49" fill="#0865C5"></path>
                            <path d="M39.4465,59.415 C39.4865,59.368 39.5235,59.321 39.5625,59.274 C39.5235,59.321 39.4865,59.369 39.4465,59.415" id="Fill-51" fill="#0865C5"></path>
                            <path d="M41.8019,45.7285 C41.5779,45.4715 41.3309,45.2495 41.0459,45.0825 C41.3309,45.2495 41.5779,45.4715 41.8019,45.7285" id="Fill-53" fill="#0865C5"></path>
                            <path d="M42.5148,53.7031 C42.5948,53.4141 42.6668,53.1201 42.7298,52.8231 C42.7708,52.6301 42.7958,52.4321 42.8298,52.2351 C42.7298,52.8211 42.6038,53.3971 42.4378,53.9581 C42.4628,53.8731 42.4918,53.7891 42.5148,53.7031" id="Fill-55" fill="#0865C5"></path>
                            <path d="M42.8879,51.8925 C42.9029,51.7955 42.9239,51.7035 42.9369,51.6065 C43.0069,51.0645 43.0499,50.5125 43.0669,49.9495 C43.0469,50.6135 42.9829,51.2585 42.8879,51.8925" id="Fill-57" fill="#0865C5"></path>
                            <path d="M41.8439,55.6044 C41.9249,55.4174 42.0019,55.2274 42.0749,55.0374 C42.1549,54.8324 42.2289,54.6254 42.2979,54.4164 C42.3339,54.3074 42.3649,54.1974 42.3979,54.0874 C42.2119,54.6954 41.9889,55.2884 41.7249,55.8644 C41.7649,55.7774 41.8059,55.6914 41.8439,55.6044" id="Fill-59" fill="#0865C5"></path>
                            <path d="M40.7365,57.6816 C40.7375,57.6806 40.7375,57.6796 40.7385,57.6786 C40.8475,57.5076 40.9535,57.3346 41.0545,57.1606 C41.1545,56.9916 41.2495,56.8206 41.3405,56.6486 L41.3405,56.6476 C41.4315,56.4776 41.5185,56.3056 41.6025,56.1316 C41.6325,56.0686 41.6615,56.0026 41.6905,55.9386 C41.4135,56.5356 41.0965,57.1186 40.7365,57.6826 L40.7365,57.6816 Z" id="Fill-61" fill="#0865C5"></path>
                            <path d="M39.9035,8.7109 C40.2505,8.6279 40.5955,8.5469 40.9245,8.4919 C40.8655,8.5059 40.8065,8.5189 40.7495,8.5289 C40.4745,8.5779 40.1875,8.6469 39.9035,8.7109" id="Fill-63" fill="#0865C5"></path>
                            <path d="M34.0734,10.997 C34.8034,10.618 35.5014,10.292 36.1814,9.994 C36.0564,10.048 35.9324,10.102 35.8054,10.16 C35.2434,10.415 34.6704,10.687 34.0734,10.997" id="Fill-65" fill="#0865C5"></path>
                            <path d="M36.5471,9.8427 C36.9861,9.6567 37.4221,9.4787 37.8401,9.3267 C37.7281,9.3697 37.6141,9.4137 37.5021,9.4567 C37.1911,9.5737 36.8691,9.7077 36.5471,9.8427" id="Fill-67" fill="#0865C5"></path>
                        </g>
                        <path d="M104.726957,29.5669313 L52.7385269,59.5669313 C52.5837717,59.656233 52.4884299,59.8213272 52.4884299,60 L52.4884299,120 C52.4884299,120.38485 52.9049995,120.625419 53.2383328,120.433069 L105.226763,90.4330687 C105.381518,90.343767 105.47686,90.1786728 105.47686,90 L105.47686,30 C105.47686,29.6151496 105.06029,29.3745808 104.726957,29.5669313 Z M104.476,30.866 L104.476,89.71 L53.488,119.133 L53.488,60.289 L104.476,30.866 Z" id="路径-11" fill="#0B83FF" fill-rule="nonzero"></path>
                        <path d="M52.7385269,-0.433068723 L0.750097056,29.5669313 C0.416634315,29.7593564 0.416634315,30.2406436 0.750097056,30.4330687 L52.7385269,60.4330687 C52.8931781,60.5223104 53.0836816,60.5223104 53.2383328,60.4330687 L105.226763,30.4330687 C105.560225,30.2406436 105.560225,29.7593564 105.226763,29.5669313 L53.2383328,-0.433068723 C53.0836816,-0.522310426 52.8931781,-0.522310426 52.7385269,-0.433068723 Z M52.988,0.577 L103.975,30 L52.988,59.422 L2,30 L52.988,0.577 Z" id="路径-12" fill="#0B83FF" fill-rule="nonzero"></path>
                        <path d="M0.5,30 L0.5,90 C0.5,90.1786728 0.595341826,90.343767 0.750097056,90.4330687 L52.7385269,120.433069 C53.0718602,120.625419 53.4884299,120.38485 53.4884299,120 L53.4884299,60 C53.4884299,59.8213272 53.393088,59.656233 53.2383328,59.5669313 L1.24990294,29.5669313 C0.916569623,29.3745808 0.5,29.6151496 0.5,30 Z M1.5,30.866 L52.488,60.289 L52.488,119.133 L1.5,89.711 L1.5,30.866 Z" id="路径-14" fill="#0B83FF" fill-rule="nonzero"></path>
                    </g>
                </g>
            </g>
        </g>
    </g>
</svg>