<?xml version="1.0" encoding="UTF-8"?>
<svg width="106px" height="122px" viewBox="0 0 106 122" version="1.1" xmlns="http://www.w3.org/2000/svg" xmlns:xlink="http://www.w3.org/1999/xlink">
    <title>开发中心-跨平台</title>
    <defs>
        <polygon id="path-1" points="52.3856465 0 0.397216594 30 52.3856465 60 104.374076 30"></polygon>
    </defs>
    <g id="基础数据-电子地图" stroke="none" stroke-width="1" fill="none" fill-rule="evenodd">
        <g id="基础平台-平台概览" transform="translate(-1309.000000, -3940.000000)">
            <g id="开发中心" transform="translate(1.000000, 3780.000000)">
                <g id="开发中心-跨平台" transform="translate(1308.000000, 160.000000)">
                    <g id="编组-2" transform="translate(0.000000, 1.000000)">
                        <g id="路径-4" transform="translate(0.602783, 60.000000)">
                            <mask id="mask-2" fill="white">
                                <use xlink:href="#path-1"></use>
                            </mask>
                            <use id="蒙版" fill="#FFFFFF" xlink:href="#path-1"></use>
                            <polygon fill="#69B3FE" mask="url(#mask-2)" points="43.3972166 43 22.9201042 43 -2 31.6213789 9.16302037 12 30.0184875 1.5 61.3972166 6 69.3972166 27 48.3972166 27"></polygon>
                        </g>
                        <path d="M53.4884299,60.2887498 L53.4884299,-0.865801321 L0.5,29.7112502 L0.5,90.8658013 L53.4884299,60.2887498 Z M52.488,0.866 L52.488,59.71 L1.5,89.133 L1.5,30.288 L52.488,0.866 Z" id="路径-13" fill="#0B83FF" fill-rule="nonzero"></path>
                        <path d="M52.4884299,-0.865801321 L52.4884299,60.2887498 L105.47686,90.8658013 L105.47686,29.7112502 L52.4884299,-0.865801321 Z M53.488,0.866 L104.476,30.289 L104.476,89.133 L53.488,59.71 L53.488,0.866 Z" id="路径-15" fill="#0B83FF" fill-rule="nonzero"></path>
                        <g id="编组" transform="translate(32.000000, 20.000000)">
                            <polygon id="Fill-1" fill="#0A83FF" points="22 55.0487212 26.0276024 60.2041298 38 67 24.72148 50"></polygon>
                            <path d="M24.2813514,49.7627516 L21.5598714,54.8114728 C21.4656818,54.9862075 21.4837788,55.2001134 21.6059856,55.3565404 L25.633588,60.511949 L25.7807797,60.6389615 L37.7531773,67.4348316 C38.229298,67.7050911 38.7310508,67.1236761 38.3940429,66.6922173 L25.1155228,49.6922173 C24.8934468,49.4079015 24.4525344,49.4451833 24.2813514,49.7627516 Z M24.798,50.91 L36.053,65.32 L26.36,59.818 L22.595,54.997 L24.798,50.91 Z" id="Stroke-2" fill="#0A83FF" fill-rule="nonzero"></path>
                            <polygon id="Fill-3" fill="#0A83FF" points="19.8549226 46 37 12.9291062 24.8127802 6 17 21.069022 19.7867775 22.6541881"></polygon>
                            <path d="M16.5561133,20.8388817 L16.5226126,20.9201059 C16.453597,21.1405644 16.5452681,21.3855916 16.7527867,21.5036317 L19.287,22.945 L19.3549247,46.0014595 C19.3564509,46.5243269 20.0581602,46.694325 20.2988152,46.230129 L37.4438926,13.1592353 C37.5675259,12.9207608 37.480641,12.627213 37.2471274,12.4944477 L25.0599076,5.56534143 C24.8132623,5.42511002 24.4994857,5.51797795 24.3688935,5.76985968 L16.5561133,20.8388817 Z M25.017,6.691 L36.334,13.126 L20.348,43.961 L20.2867753,22.6527286 L20.2786894,22.5645559 C20.2524543,22.4205119 20.1638369,22.2934371 20.0339908,22.2195784 L17.665,20.872 L25.017,6.691 Z" id="Stroke-4" fill="#0A83FF" fill-rule="nonzero"></path>
                            <polygon id="Fill-5" fill="#FFFFFF" points="46 7.03948812 34.1231926 0 24 5.96051188 35.8768074 13"></polygon>
                            <path d="M33.8566329,-0.423019998 L24.334864,5.57698 C24.0251659,5.77213164 24.0232573,6.22298136 24.3312921,6.42074804 L35.81975,13.7966486 C35.9708069,13.8936312 36.1622608,13.9021943 36.3213726,13.8190844 L46.6134045,8.44318386 C46.9521378,8.26625116 46.9752101,7.79013175 46.6551716,7.58127571 L34.3964507,-0.41872429 C34.2328097,-0.525515876 34.0219527,-0.527193813 33.8566329,-0.423019998 Z M34.118,0.594 L45.393,7.951 L36.115,12.798 L25.532,6.004 L34.118,0.594 Z" id="Stroke-6" fill="#0A83FF" fill-rule="nonzero"></path>
                            <polygon id="Fill-8" fill="#FFFFFF" points="36.133945 13.8552529 19.2179554 46.8540856 19.1519004 23.5579767 14.1163827 26.4354086 11 28.2167315 11.0117955 32.4937743 11.0389253 42.1509728 11.1557012 83 19.3087811 78.3435798 19.2557012 59.8206226 21.3883355 55.8120623 24.121363 50.6747082 37.4562254 67.9743191 47 62.5217899 29.2217562 40.8715953 46.3819135 8"></polygon>
                            <path d="M35.8867657,13.4199259 L35.808096,13.4755552 C35.7595779,13.517427 35.7193287,13.5684386 35.6898208,13.6260032 L19.713,44.792 L19.6521654,23.5565335 C19.6510592,23.1732674 19.236877,22.9337024 18.9041046,23.1238513 L10.7520033,27.7814011 C10.5957467,27.8706558 10.4995056,28.0369924 10.5,28.2169432 L10.5389285,42.1512101 L10.656888,83.0014438 C10.6579946,83.3846967 11.0721515,83.6242628 11.4049235,83.4341398 L19.557091,78.7765522 L19.6300441,78.7257876 C19.7427292,78.6314541 19.8094811,78.4909405 19.8090513,78.3409796 L19.755,59.944 L24.2,51.593 L37.0610762,68.2783914 C37.2134813,68.4761209 37.4883816,68.531135 37.7051425,68.4072843 L47.2480502,62.9547551 L47.3225574,62.9028496 C47.5274673,62.7306344 47.5632602,62.4186839 47.3864195,62.2033215 L29.818,40.808 L46.8263048,8.23139885 C47.0573342,7.7888745 46.5685366,7.31823348 46.1350701,7.56584032 L35.8867657,13.4199259 Z M45.15,9.28 L28.7791213,40.6390292 L28.7463721,40.7172582 C28.6948551,40.8772415 28.7268666,41.0549035 28.8359338,41.1877291 L46.237,62.38 L37.588,67.323 L24.5189887,50.3683012 C24.2971903,50.0805412 23.8522432,50.1179277 23.6815734,50.4386647 L18.8145863,59.5845533 L18.7821317,59.6598441 C18.7647125,59.7115571 18.7558163,59.7659517 18.7559737,59.8208881 L18.808,78.052 L11.654,82.139 L11.5,28.505 L18.654,24.418 L18.7194064,46.8543614 L18.7276412,46.9484027 C18.8071452,47.3971134 19.4402101,47.5182612 19.664352,47.0810007 L36.511,14.214 L45.15,9.28 Z" id="Stroke-9" fill="#0A83FF" fill-rule="nonzero"></path>
                            <polygon id="Fill-11" fill="#0A83FF" points="0.154576271 76.0510264 12 83 11.8849395 41.9501466 8.09840194 39.7284457 11.8582082 32.2457478 11.846586 27.9478006 0 21"></polygon>
                            <path d="M-0.500000133,21.0014038 L-0.345436728,76.0525617 C-0.344940081,76.2294556 -0.251011727,76.3929213 -0.0984329514,76.482428 L11.7470057,83.4312701 C12.0808656,83.627121 12.5010829,83.3856629 12.4999999,82.9985986 L12.3849486,41.9495219 L12.377079,41.8624918 C12.3515279,41.7202391 12.2651431,41.5943073 12.1380367,41.519707 L8.754,39.533 L12.3038247,32.4712102 C12.3390141,32.4011824 12.3572491,32.3238631 12.3570584,32.2454913 L12.3465993,27.9476254 C12.3461687,27.7706568 12.2522234,27.607099 12.0995766,27.5175612 L0.252975788,20.5687191 C-0.0808851191,20.3728868 -0.501084725,20.614348 -0.500000133,21.0014038 Z M0.501,21.873 L11.347,28.236 L11.357,32.128 L7.65085285,39.5035893 L7.61885029,39.5836991 C7.55312202,39.8009041 7.64251789,40.0407434 7.8445316,40.1593077 L11.385,42.237 L11.498,82.125 L0.653,75.763 L0.501,21.873 Z" id="Stroke-12" fill="#0A83FF" fill-rule="nonzero"></path>
                            <polygon id="Fill-14" fill="#0A83FF" points="8 39.7094162 12 42 11.9705431 32"></polygon>
                            <polygon id="Fill-15" fill="#FFFFFF" points="0 20.8302572 11.9181526 28 15.0084771 26.1531014 20 23.1697428 17.2733119 21.5310136 8.08067816 16"></polygon>
                            <path d="M7.82465121,15.5708053 L-0.256499393,20.4003393 C-0.58061379,20.5940397 -0.58130031,21.0633286 -0.257754027,21.2579764 L11.6610954,28.4284424 C11.8192415,28.5235842 12.0169384,28.5238709 12.1753598,28.4291881 L20.2565692,23.5984085 C20.5806668,23.4046466 20.5812587,22.93533 20.2576509,22.7407512 L8.33889378,15.5715511 C8.18075308,15.476418 7.98306717,15.4761313 7.82465121,15.5708053 Z M0.971,20.831 L8.08,16.583 L19.028,23.168 L11.919,27.416 L0.971,20.831 Z" id="Stroke-16" fill="#0A83FF" fill-rule="nonzero"></path>
                        </g>
                        <path d="M104.726957,29.5669313 L52.7385269,59.5669313 C52.5837717,59.656233 52.4884299,59.8213272 52.4884299,60 L52.4884299,120 C52.4884299,120.38485 52.9049995,120.625419 53.2383328,120.433069 L105.226763,90.4330687 C105.381518,90.343767 105.47686,90.1786728 105.47686,90 L105.47686,30 C105.47686,29.6151496 105.06029,29.3745808 104.726957,29.5669313 Z M104.476,30.866 L104.476,89.71 L53.488,119.133 L53.488,60.289 L104.476,30.866 Z" id="路径-11" fill="#0B83FF" fill-rule="nonzero"></path>
                        <path d="M52.7385269,-0.433068723 L0.750097056,29.5669313 C0.416634315,29.7593564 0.416634315,30.2406436 0.750097056,30.4330687 L52.7385269,60.4330687 C52.8931781,60.5223104 53.0836816,60.5223104 53.2383328,60.4330687 L105.226763,30.4330687 C105.560225,30.2406436 105.560225,29.7593564 105.226763,29.5669313 L53.2383328,-0.433068723 C53.0836816,-0.522310426 52.8931781,-0.522310426 52.7385269,-0.433068723 Z M52.988,0.577 L103.975,30 L52.988,59.422 L2,30 L52.988,0.577 Z" id="路径-12" fill="#0B83FF" fill-rule="nonzero"></path>
                        <path d="M0.5,30 L0.5,90 C0.5,90.1786728 0.595341826,90.343767 0.750097056,90.4330687 L52.7385269,120.433069 C53.0718602,120.625419 53.4884299,120.38485 53.4884299,120 L53.4884299,60 C53.4884299,59.8213272 53.393088,59.656233 53.2383328,59.5669313 L1.24990294,29.5669313 C0.916569623,29.3745808 0.5,29.6151496 0.5,30 Z M1.5,30.866 L52.488,60.289 L52.488,119.133 L1.5,89.711 L1.5,30.866 Z" id="路径-14" fill="#0B83FF" fill-rule="nonzero"></path>
                    </g>
                </g>
            </g>
        </g>
    </g>
</svg>