<?xml version="1.0" encoding="UTF-8"?>
<svg width="106px" height="122px" viewBox="0 0 106 122" version="1.1" xmlns="http://www.w3.org/2000/svg" xmlns:xlink="http://www.w3.org/1999/xlink">
    <title>开发中心-微服务</title>
    <defs>
        <polygon id="path-1" points="52.2762988 0 0.28786895 30 52.2762988 60 104.264729 30"></polygon>
    </defs>
    <g id="基础数据-电子地图" stroke="none" stroke-width="1" fill="none" fill-rule="evenodd">
        <g id="基础平台-平台概览" transform="translate(-507.000000, -4351.000000)">
            <g id="开发中心" transform="translate(1.000000, 3780.000000)">
                <g id="编组-2" transform="translate(506.000000, 571.000000)">
                    <g id="路径-5" transform="translate(0.712131, 61.000000)">
                        <mask id="mask-2" fill="white">
                            <use xlink:href="#path-1"></use>
                        </mask>
                        <use id="蒙版" fill="#FFFFFF" xlink:href="#path-1"></use>
                        <polygon fill="#69B3FE" mask="url(#mask-2)" points="66.6981689 30.37 49.6199856 30.37 42.4149689 44.4186 19.2878689 44.4186 -9 30 26.2820839 6.2215 58.7201689 10.979"></polygon>
                    </g>
                    <path d="M53.4884299,61.2887498 L53.4884299,0.134198679 L0.5,30.7112502 L0.5,91.8658013 L53.4884299,61.2887498 Z M52.488,1.866 L52.488,60.71 L1.5,90.133 L1.5,31.288 L52.488,1.866 Z" id="路径-13" fill="#0B83FF" fill-rule="nonzero"></path>
                    <path d="M52.4884299,0.134198679 L52.4884299,61.2887498 L105.47686,91.8658013 L105.47686,30.7112502 L52.4884299,0.134198679 Z M53.488,1.866 L104.476,31.289 L104.476,90.133 L53.488,60.71 L53.488,1.866 Z" id="路径-15" fill="#0B83FF" fill-rule="nonzero"></path>
                    <g id="编组" transform="translate(20.000000, 22.000000)">
                        <polygon id="Fill-1" fill="#0A83FF" points="58.1052 11.4135 46.9042 4.8905 43.4602 25.6675 50.6332 56.5025"></polygon>
                        <path d="M42.9669307,25.5857356 L42.9732032,25.7807878 L50.1462032,56.6157878 C50.2701616,57.1486551 51.0370297,57.123978 51.1264727,56.5842435 L58.5984727,11.4952435 C58.632417,11.2904107 58.5362405,11.0859138 58.3568213,10.9814274 L47.1558213,4.45842739 C46.8533541,4.28228302 46.4681689,4.46342848 46.4109307,4.80873558 L42.9669307,25.5857356 Z M47.279,5.687 L57.555,11.671 L50.55,53.939 L43.969,25.65 L47.279,5.687 Z" id="Stroke-2" fill="#0A83FF" fill-rule="nonzero"></path>
                        <polygon id="Fill-3" fill="#FFFFFF" points="46.9044 4.8904 58.1054 11.4134 65.6914 7.0244 54.4904 0.4994"></polygon>
                        <path d="M54.2406876,0.0671256866 L46.6536876,4.45712569 C46.3214541,4.64936303 46.3207681,5.1287684 46.6524499,5.32195584 L57.8534499,11.8459558 C58.0085448,11.9362905 58.2001597,11.9365647 58.3555124,11.8466743 L65.9425124,7.45667431 C66.2747459,7.26443697 66.2754319,6.7850316 65.9437501,6.59184416 L54.7427501,0.0678441605 C54.5876552,-0.0224905205 54.3960403,-0.02276473 54.2406876,0.0671256866 Z M54.49,1.077 L64.696,7.022 L58.106,10.835 L47.9,4.891 L54.49,1.077 Z" id="Stroke-4" fill="#0A83FF" fill-rule="nonzero"></path>
                        <polygon id="Fill-6" fill="#0A83FF" points="39.4323 49.979 40.4683 43.721 38.6313 36.932 34.5003 56.537 36.2073 62.846 47.4103 69.37 42.6723 51.867"></polygon>
                        <polygon id="Fill-7" fill="#0A83FF" points="39.4323 49.979 42.6723 51.867 40.4683 43.721"></polygon>
                        <polygon id="Fill-8" fill="#0A83FF" points="23.9167 18.1899 20.1797 38.3739 26.5627 70.9239 31.3687 44.9629 33.4177 33.8959 35.1177 24.7129"></polygon>
                        <path d="M19.6880556,38.2828737 L19.689045,38.4701166 L26.072045,71.0201166 C26.1781908,71.5614057 26.9539384,71.5572982 27.0543464,71.0149155 L35.6093463,24.8039159 C35.6477685,24.5963686 35.5517197,24.3870487 35.3693213,24.2808274 L24.1683213,17.7578274 C23.869301,17.5836903 23.4880513,17.7586261 23.4250556,18.0988737 L19.6880556,38.2828737 Z M24.279,18.978 L34.562,24.967 L26.548,68.254 L20.688,38.37 L24.279,18.978 Z" id="Stroke-9" fill="#0A83FF" fill-rule="nonzero"></path>
                        <polygon id="Fill-10" fill="#FFFFFF" points="42.2751 20.5717 31.0741 14.0487 23.9171 18.1897 35.1181 24.7137"></polygon>
                        <path d="M30.8236963,13.6159206 L23.6666963,17.7569206 C23.3344551,17.9491535 23.3337642,18.4285661 23.6654499,18.6217558 L34.8664499,25.1457558 C35.0215578,25.2360981 35.2131908,25.2363643 35.368549,25.1464532 L42.525549,21.0044532 C42.8577628,20.8121897 42.8584126,20.3327907 42.5267213,20.1396274 L31.3257213,13.6166274 C31.1706338,13.5263109 30.9790374,13.5260411 30.8236963,13.6159206 Z M31.073,14.626 L41.279,20.569 L35.118,24.135 L24.913,18.191 L31.073,14.626 Z" id="Stroke-11" fill="#0A83FF" fill-rule="nonzero"></path>
                        <polygon id="Fill-12" fill="#0A83FF" points="11.9259 76.8958 23.1269 83.4188 18.8249 66.4178 15.3609 64.4008 16.6099 57.6588 11.7009 38.2628 0.4999 31.7378"></polygon>
                        <path d="M0.0153735532,31.8614388 L11.4403736,77.0184388 C11.4733338,77.1487133 11.5573453,77.2602369 11.6734667,77.3278656 L22.8754667,83.8518656 C23.2582786,84.0748137 23.7204958,83.7266097 23.6118221,83.297144 L19.3098221,66.296144 L19.2840751,66.2204465 C19.2419849,66.1230516 19.1696585,66.0408692 19.0767873,65.9867659 L15.916,64.145 L17.1007454,57.7508211 L17.0938253,57.5371568 L12.1858253,38.1391568 C12.1528631,38.0088795 12.0688474,37.8973545 11.9527213,37.8297274 L0.751721254,31.3067274 C0.368916361,31.0837976 -0.0932811629,31.431984 0.0153735532,31.8614388 Z M1.276,32.768 L11.267,38.587 L16.097,57.676 L14.8694546,64.3097789 L14.8610798,64.3985197 C14.8602308,64.5749962 14.9531044,64.7417747 15.1094127,64.8328341 L18.391,66.744 L22.35,82.388 L12.357,76.569 L1.276,32.768 Z" id="Stroke-13" fill="#0A83FF" fill-rule="nonzero"></path>
                        <polygon id="Fill-15" fill="#0A83FF" points="15.3611 64.4008 18.8251 66.4188 16.6091 57.6598"></polygon>
                        <polygon id="Fill-16" fill="#FFFFFF" points="19.2956 33.8676 8.6896 27.3446 1.0946 31.7386 12.2966 38.2626"></polygon>
                        <path d="M8.4392144,26.9118102 L0.844214405,31.3058102 C0.511949674,31.4980381 0.511258006,31.9774798 0.842966717,32.1706656 L12.0449667,38.6946656 C12.2056588,38.788252 12.4050131,38.7849284 12.5624962,38.6860374 L19.5614962,34.2910374 C19.8753541,34.0939513 19.8732197,33.6358562 19.5575389,33.4417033 L8.95153892,26.9187033 C8.79500692,26.8224315 8.59827988,26.8197846 8.4392144,26.9118102 Z M8.681,27.926 L18.348,33.872 L12.287,37.678 L2.09,31.739 L8.681,27.926 Z" id="Stroke-17" fill="#0A83FF" fill-rule="nonzero"></path>
                        <polygon id="Fill-19" fill="#FFFFFF" points="58.1049 11.4136 50.6329 56.5026 43.4609 25.6676 42.2749 20.5716 35.1179 24.7136 33.4179 33.8956 31.3689 44.9636 26.5629 70.9246 20.1799 38.3736 19.2959 33.8676 11.7009 38.2626 16.6099 57.6596 18.8249 66.4176 23.1259 83.4186 29.6289 79.6576 34.5009 56.5366 38.6319 36.9326 40.4689 43.7206 42.6729 51.8666 47.4099 69.3696 53.9119 65.6076 65.6919 7.0246"></polygon>
                        <path d="M57.8547876,10.9807257 L57.7822082,11.0318188 C57.6923969,11.107819 57.6314716,11.2138183 57.6119273,11.3317565 L50.55,53.939 L42.7622065,20.4582538 C42.6861245,20.1310694 42.3154865,19.9704883 42.024751,20.1387468 L34.867751,24.2807468 C34.7412807,24.3539395 34.6531572,24.4787935 34.6265554,24.6224745 L26.547,68.255 L19.7858472,33.7712434 C19.7197747,33.434453 19.3417962,33.262833 19.044747,33.4347491 L11.450747,37.8297491 C11.2572945,37.9417091 11.1616484,38.1684631 11.2164762,38.3851491 L22.6414711,83.5421292 C22.7228639,83.8638589 23.0893531,84.01848 23.3766027,83.85228 L29.8786027,80.09028 C30.0013752,80.0192449 30.0881997,79.8994077 30.1174518,79.7606151 L38.691,39.07 L46.9275701,69.5001462 C47.0133853,69.8171623 47.3763306,69.9667573 47.6606027,69.80228 L54.1626027,66.04028 C54.2867765,65.9684341 54.3741076,65.846712 54.4023884,65.7060665 L66.1823884,7.12206649 C66.2672659,6.69995556 65.8144581,6.37509057 65.4417876,6.59072569 L57.8547876,10.9807257 Z M64.984,8.011 L53.467,65.287 L47.722,68.61 L39.1138434,36.801904 C38.9766181,36.2947605 38.2502448,36.3153302 38.1419394,36.8294268 L29.184,79.336 L23.448,82.655 L12.278,38.506 L18.939,34.651 L26.0715444,71.0207138 C26.1776854,71.5619948 26.9534164,71.5579041 27.053843,71.0155338 L35.567,25.031 L41.941,21.342 L50.1462032,56.6157878 L50.1766572,56.709177 C50.3633739,57.1435585 51.0426199,57.0902446 51.1264727,56.5842435 L58.559,11.728 L64.984,8.011 Z" id="Stroke-20" fill="#0A83FF" fill-rule="nonzero"></path>
                    </g>
                    <path d="M104.726957,30.5669313 L52.7385269,60.5669313 C52.5837717,60.656233 52.4884299,60.8213272 52.4884299,61 L52.4884299,121 C52.4884299,121.38485 52.9049995,121.625419 53.2383328,121.433069 L105.226763,91.4330687 C105.381518,91.343767 105.47686,91.1786728 105.47686,91 L105.47686,31 C105.47686,30.6151496 105.06029,30.3745808 104.726957,30.5669313 Z M104.476,31.866 L104.476,90.71 L53.488,120.133 L53.488,61.289 L104.476,31.866 Z" id="路径-11" fill="#0B83FF" fill-rule="nonzero"></path>
                    <path d="M52.7385269,0.566931277 L0.750097056,30.5669313 C0.416634315,30.7593564 0.416634315,31.2406436 0.750097056,31.4330687 L52.7385269,61.4330687 C52.8931781,61.5223104 53.0836816,61.5223104 53.2383328,61.4330687 L105.226763,31.4330687 C105.560225,31.2406436 105.560225,30.7593564 105.226763,30.5669313 L53.2383328,0.566931277 C53.0836816,0.477689574 52.8931781,0.477689574 52.7385269,0.566931277 Z M52.988,1.577 L103.975,31 L52.988,60.422 L2,31 L52.988,1.577 Z" id="路径-12" fill="#0B83FF" fill-rule="nonzero"></path>
                    <path d="M0.5,31 L0.5,91 C0.5,91.1786728 0.595341826,91.343767 0.750097056,91.4330687 L52.7385269,121.433069 C53.0718602,121.625419 53.4884299,121.38485 53.4884299,121 L53.4884299,61 C53.4884299,60.8213272 53.393088,60.656233 53.2383328,60.5669313 L1.24990294,30.5669313 C0.916569623,30.3745808 0.5,30.6151496 0.5,31 Z M1.5,31.866 L52.488,61.289 L52.488,120.133 L1.5,90.711 L1.5,31.866 Z" id="路径-14" fill="#0B83FF" fill-rule="nonzero"></path>
                </g>
            </g>
        </g>
    </g>
</svg>