<?xml version="1.0" encoding="UTF-8"?>
<svg width="106px" height="122px" viewBox="0 0 106 122" version="1.1" xmlns="http://www.w3.org/2000/svg" xmlns:xlink="http://www.w3.org/1999/xlink">
    <title>开发中心-一键发布</title>
    <defs>
        <polygon id="path-1" points="52.7086145 0 0.720184624 30 52.7086145 60 104.697044 30"></polygon>
    </defs>
    <g id="基础数据-电子地图" stroke="none" stroke-width="1" fill="none" fill-rule="evenodd">
        <g id="基础平台-平台概览" transform="translate(-910.000000, -3940.000000)">
            <g id="开发中心" transform="translate(1.000000, 3780.000000)">
                <g id="开发中心-一键发布" transform="translate(909.000000, 160.000000)">
                    <g id="编组-2" transform="translate(0.000000, 1.000000)">
                        <g id="路径-3" transform="translate(0.279815, 60.000000)">
                            <mask id="mask-2" fill="white">
                                <use xlink:href="#path-1"></use>
                            </mask>
                            <use id="蒙版" fill="#FFFFFF" xlink:href="#path-1"></use>
                            <polygon fill="#69B3FE" mask="url(#mask-2)" points="48.7201846 43 21.6605283 43 -4 30 22.3600923 10 38.2239605 7"></polygon>
                        </g>
                        <path d="M53.4884299,60.2887498 L53.4884299,-0.865801321 L0.5,29.7112502 L0.5,90.8658013 L53.4884299,60.2887498 Z M52.488,0.866 L52.488,59.71 L1.5,89.133 L1.5,30.288 L52.488,0.866 Z" id="路径-13" fill="#0B83FF" fill-rule="nonzero"></path>
                        <path d="M52.4884299,-0.865801321 L52.4884299,60.2887498 L105.47686,90.8658013 L105.47686,29.7112502 L52.4884299,-0.865801321 Z M53.488,0.866 L104.476,30.289 L104.476,89.133 L53.488,59.71 L53.488,0.866 Z" id="路径-15" fill="#0B83FF" fill-rule="nonzero"></path>
                        <g id="编组" transform="translate(19.000000, 23.000000)">
                            <polygon id="Fill-1" fill="#0A83FF" points="15.0717587 71.5815243 30 80 29.9294576 55.4196559 15 47"></polygon>
                            <polygon id="Fill-2" fill="#0A83FF" points="45 13.2061062 30.5934916 5 23 26.1623894 33.9512937 44"></polygon>
                            <path d="M30.1228712,4.83113192 L22.5293796,25.9935213 C22.4781356,26.1363338 22.494512,26.2946893 22.5738971,26.4239927 L33.5251908,44.2616033 C33.7446633,44.619083 34.2802543,44.5636886 34.4219178,44.1688578 L45.4706241,13.3749639 C45.5526492,13.1463515 45.4585198,12.8918589 45.247474,12.7716449 L30.8409656,4.56553868 C30.5710657,4.41180074 30.2277769,4.53876899 30.1228712,4.83113192 Z M30.863,5.728 L44.387,13.432 L33.832,42.85 L23.551,26.104 L30.863,5.728 Z" id="Stroke-3" fill="#0A83FF" fill-rule="nonzero"></path>
                            <polygon id="Fill-4" fill="#FFFFFF" points="53 8.66001908 38.8111178 0 30 5.34240874 44.1911942 14"></polygon>
                            <path d="M38.551884,-0.427548636 L29.7407662,4.9148601 C29.4202571,5.10919304 29.4196223,5.57403998 29.7395993,5.76924767 L43.9307935,14.4268389 C44.0902583,14.5241233 44.2906534,14.5244055 44.4503916,14.4275707 L53.2591974,9.08758979 C53.579702,8.89329688 53.5804024,8.42848945 53.2604848,8.23323148 L39.0716027,-0.426787592 C38.9121137,-0.524129813 38.7116574,-0.524423349 38.551884,-0.427548636 Z M38.81,0.585 L52.038,8.658 L44.191,13.414 L30.962,5.343 L38.81,0.585 Z" id="Stroke-5" fill="#0A83FF" fill-rule="nonzero"></path>
                            <polygon id="Fill-7" fill="#FFFFFF" points="45.2529801 13.2044488 34.4466225 44.8640568 23.7355408 26.5254719 23.5105519 26.1386867 15 31.201196 30.4530684 55.365215 30.5196468 80 38.7914349 75.0806131 38.7237086 50.1714117 54 8"></polygon>
                            <path d="M44.996133,12.7474024 L44.9320901,12.7982415 C44.8726167,12.853963 44.8273483,12.9236859 44.8007539,13.0015959 L34.339,43.646 L23.9465939,25.853359 C23.806277,25.6141165 23.4980409,25.5348007 23.2596738,25.6765996 L14.7443728,30.7421516 L14.6697435,30.7963283 C14.4877351,30.9559797 14.4434928,31.2297264 14.5787783,31.4412587 L29.962,55.495 L30.0304038,80.0013747 C30.0314683,80.3885533 30.453243,80.6276583 30.7860071,80.4297278 L39.0635275,75.5062007 L39.1344277,75.4551609 C39.2438651,75.3608176 39.3083279,75.2224287 39.3079204,75.0750902 L39.238,50.235 L53.4736296,8.16023424 C53.6266483,7.70793259 53.1191841,7.31898114 52.7221876,7.58428345 L44.996133,12.7474024 Z M52.055,9.232 L38.2653709,49.9932495 L38.2390024,50.1548664 L38.306,74.792 L31.028,79.122 L30.9626268,55.3478505 L30.9534627,55.2539248 C30.9414971,55.1922989 30.9179769,55.1331929 30.8838505,55.0798328 L15.699,31.337 L23.338,26.793 L34.0283518,45.095118 L34.0794855,45.1678829 C34.3208994,45.455248 34.8048263,45.3808062 34.9332907,45.004462 L45.693,13.483 L52.055,9.232 Z" id="Stroke-8" fill="#0A83FF" fill-rule="nonzero"></path>
                            <polygon id="Fill-10" fill="#0A83FF" points="15.6912496 46.7181525 30 55 14.3087504 31.2818475 0 23"></polygon>
                            <path d="M-0.417004819,23.2758749 L15.2742448,46.9943279 C15.3168886,47.0587871 15.373895,47.1124828 15.4407873,47.1511984 L29.7495377,55.4327455 C30.206651,55.6973112 30.7084179,55.1645954 30.4169986,54.7241157 L14.725749,31.0068237 C14.6831115,30.9423773 14.6261167,30.8886904 14.559239,30.8499778 L0.250488569,22.5672697 C-0.206617645,22.302671 -0.708419957,22.83538 -0.417004819,23.2758749 Z M1.59,24.497 L13.956,31.656 L28.41,53.502 L16.043,46.344 L1.59,24.497 Z" id="Stroke-11" fill="#0A83FF" fill-rule="nonzero"></path>
                            <polygon id="Fill-13" fill="#FFFFFF" points="0 22.2493866 14.3399533 31 23 25.7493866 8.66121495 17"></polygon>
                            <path d="M8.40207473,16.5723946 L-0.259140224,21.8213213 C-0.579706841,22.0155932 -0.580424862,22.4804682 -0.260459896,22.6757295 L14.0794934,31.4268028 C14.2389705,31.524125 14.4394021,31.5244182 14.5991634,31.427563 L23.2592101,26.1774097 C23.5797192,25.983101 23.5803931,25.5182742 23.2604488,25.3230371 L8.92166371,16.5731904 C8.76221309,16.4758901 8.56182263,16.4755832 8.40207473,16.5723946 Z M8.66,17.585 L22.037,25.748 L14.34,30.414 L0.962,22.25 L8.66,17.585 Z" id="Stroke-14" fill="#0A83FF" fill-rule="nonzero"></path>
                        </g>
                        <path d="M104.726957,29.5669313 L52.7385269,59.5669313 C52.5837717,59.656233 52.4884299,59.8213272 52.4884299,60 L52.4884299,120 C52.4884299,120.38485 52.9049995,120.625419 53.2383328,120.433069 L105.226763,90.4330687 C105.381518,90.343767 105.47686,90.1786728 105.47686,90 L105.47686,30 C105.47686,29.6151496 105.06029,29.3745808 104.726957,29.5669313 Z M104.476,30.866 L104.476,89.71 L53.488,119.133 L53.488,60.289 L104.476,30.866 Z" id="路径-11" fill="#0B83FF" fill-rule="nonzero"></path>
                        <path d="M52.7385269,-0.433068723 L0.750097056,29.5669313 C0.416634315,29.7593564 0.416634315,30.2406436 0.750097056,30.4330687 L52.7385269,60.4330687 C52.8931781,60.5223104 53.0836816,60.5223104 53.2383328,60.4330687 L105.226763,30.4330687 C105.560225,30.2406436 105.560225,29.7593564 105.226763,29.5669313 L53.2383328,-0.433068723 C53.0836816,-0.522310426 52.8931781,-0.522310426 52.7385269,-0.433068723 Z M52.988,0.577 L103.975,30 L52.988,59.422 L2,30 L52.988,0.577 Z" id="路径-12" fill="#0B83FF" fill-rule="nonzero"></path>
                        <path d="M0.5,30 L0.5,90 C0.5,90.1786728 0.595341826,90.343767 0.750097056,90.4330687 L52.7385269,120.433069 C53.0718602,120.625419 53.4884299,120.38485 53.4884299,120 L53.4884299,60 C53.4884299,59.8213272 53.393088,59.656233 53.2383328,59.5669313 L1.24990294,29.5669313 C0.916569623,29.3745808 0.5,29.6151496 0.5,30 Z M1.5,30.866 L52.488,60.289 L52.488,119.133 L1.5,89.711 L1.5,30.866 Z" id="路径-14" fill="#0B83FF" fill-rule="nonzero"></path>
                    </g>
                </g>
            </g>
        </g>
    </g>
</svg>