<?xml version="1.0" encoding="UTF-8"?>
<svg width="106px" height="122px" viewBox="0 0 106 122" version="1.1" xmlns="http://www.w3.org/2000/svg" xmlns:xlink="http://www.w3.org/1999/xlink">
    <title>开发中心-多元数据</title>
    <defs>
        <polygon id="path-1" points="52.8476357 0 0.859205788 30 52.8476357 60 104.836066 30"></polygon>
    </defs>
    <g id="基础数据-电子地图" stroke="none" stroke-width="1" fill="none" fill-rule="evenodd">
        <g id="基础平台-平台概览" transform="translate(-507.000000, -3940.000000)">
            <g id="开发中心" transform="translate(1.000000, 3780.000000)">
                <g id="开发中心-多元数据" transform="translate(506.000000, 160.000000)">
                    <g id="编组-2" transform="translate(0.000000, 1.000000)">
                        <g id="路径-2" transform="translate(0.140794, 60.000000)">
                            <mask id="mask-2" fill="white">
                                <use xlink:href="#path-1"></use>
                            </mask>
                            <use id="蒙版" fill="#FFFFFF" xlink:href="#path-1"></use>
                            <polygon fill="#69B3FE" mask="url(#mask-2)" points="47.8592058 43 21.9296029 45.9956486 -4 30 31.8559933 7.5 40.8592058 16.5"></polygon>
                        </g>
                        <path d="M53.4884299,60.2887498 L53.4884299,-0.865801321 L0.5,29.7112502 L0.5,90.8658013 L53.4884299,60.2887498 Z M52.488,0.866 L52.488,59.71 L1.5,89.133 L1.5,30.288 L52.488,0.866 Z" id="路径-13" fill="#0B83FF" fill-rule="nonzero"></path>
                        <path d="M52.4884299,-0.865801321 L52.4884299,60.2887498 L105.47686,90.8658013 L105.47686,29.7112502 L52.4884299,-0.865801321 Z M53.488,0.866 L104.476,30.289 L104.476,89.133 L53.488,59.71 L53.488,0.866 Z" id="路径-15" fill="#0B83FF" fill-rule="nonzero"></path>
                        <g id="编组" transform="translate(33.000000, 17.000000)">
                            <path d="M31.4645551,12.6421691 C34.4600302,11.0220909 37.1915535,9.88110777 39.6651584,9.19710753 C39.7119155,9.18236615 39.760181,9.16762476 39.8054299,9.15435752 C39.8159879,9.15140924 39.826546,9.1499351 39.8355958,9.14846096 C40.6214178,8.93618502 41.3800905,8.77697807 42.1146305,8.66052113 C42.1447964,8.65462458 42.1779789,8.64430561 42.2081448,8.6398832 C42.2262443,8.63693492 42.2413273,8.63840906 42.2579186,8.63546078 C42.9351433,8.53374523 43.5882353,8.47625383 44.2202112,8.45709003 C44.2277526,8.45709003 44.2352941,8.45414175 44.2428356,8.45414175 C44.2533937,8.45414175 44.26546,8.45561589 44.2775264,8.45414175 C45.0527903,8.43497795 45.7918552,8.47477969 46.4977376,8.57796938 C46.5113122,8.57944352 46.5248869,8.58091766 46.5399698,8.5823918 C46.5429864,8.5823918 46.546003,8.58386593 46.5505279,8.58534007 C47.4826546,8.72685736 48.3529412,8.9774609 49.1628959,9.33715068 C49.2262443,9.36368518 49.2880845,9.39316794 49.3514329,9.42117658 C49.5128205,9.49635764 49.6726998,9.57596111 49.8310709,9.66146114 C49.8853695,9.68946977 49.9441931,9.71453013 50,9.7440129 L35.1176471,1.291303 C35.0829563,1.2721392 35.0497738,1.2529754 35.0165913,1.23528574 C34.6983409,1.05986327 34.3695324,0.902130452 34.0301659,0.763561437 C33.8838612,0.703121761 33.7285068,0.660371746 33.5776772,0.6087769 C33.4811463,0.573397577 33.3831071,0.538018254 33.2835596,0.507061347 C33.1870287,0.476104439 33.0935143,0.436302701 32.9954751,0.406819932 C32.627451,0.30363024 32.2488688,0.21813021 31.8597285,0.151793979 C31.7948718,0.14147501 31.7239819,0.140000872 31.6576169,0.129681902 C31.5490196,0.113466379 31.4343891,0.104621549 31.3242836,0.0913543026 C31.0829563,0.063345672 30.8476621,0.0250180722 30.5987934,0.0102766877 C30.331825,-0.00593883531 30.0512821,0.00438013386 29.775264,0.00438013386 C29.6365008,0.00438013386 29.5007541,-0.00151641995 29.3604827,0.00290599541 C29.2895928,0.00438013386 29.2217195,-0.00299055841 29.1493213,0.00143185695 C28.5791855,0.0250180722 27.9894419,0.0825094719 27.3831071,0.175380194 C27.3634992,0.178328471 27.3438914,0.184225025 27.3257919,0.187173302 C26.9834087,0.240242286 26.6168929,0.337535424 26.26546,0.409768209 C25.8476621,0.496742377 25.4464555,0.558656192 25.015083,0.673638992 C24.984917,0.682483823 24.9547511,0.69427693 24.9245852,0.700173484 C24.8325792,0.726707976 24.7330317,0.760613161 24.6395173,0.787147653 C23.9803922,0.972889098 23.3016591,1.19695814 22.6063348,1.44756168 C22.3936652,1.52569102 22.1809955,1.60382036 21.9653092,1.68637211 C21.775264,1.76007903 21.5927602,1.81904457 21.4012066,1.89717391 C20.9924585,2.06227742 20.561086,2.26570852 20.1402715,2.45292411 C19.8642534,2.5752776 19.5912519,2.68731212 19.3076923,2.81998458 C18.4238311,3.23421749 17.5188537,3.68382971 16.5822021,4.1894592 L0,13.545816 L14.8823529,22 L31.4645551,12.6421691 Z" id="Fill-1" fill="#FFFFFF"></path>
                            <path d="M24.702528,-0.2763664 L24.7327451,-0.281252707 L24.3665456,-0.174874406 C23.8452875,-0.0279852303 23.2982147,0.145817383 22.7132699,0.348930235 L21.9279739,0.631876819 L21.0995924,0.940781052 L20.7022026,1.10574352 L18.9533462,1.88194014 L18.883903,1.91422378 C17.9237146,2.36422816 17.0116469,2.82123003 16.1071713,3.30949004 L-0.491412586,12.6748891 C-1.16840143,13.0568739 -1.16981344,14.0313701 -0.493934397,14.4153151 L14.3884185,22.8694992 C14.6938445,23.0430018 15.0679084,23.0435312 15.3738243,22.8708938 L31.9560264,13.5130629 C34.6597579,12.0509436 37.1623442,10.9792446 39.4457389,10.3003921 L40.063,10.12 L40.0963807,10.1138579 C40.8264989,9.91662937 41.5493792,9.76262847 42.2712187,9.64818511 L42.3734835,9.6286694 L42.885063,9.55921526 C43.1877366,9.52302434 43.4923629,9.49560053 43.7960518,9.47726871 L44.277,9.454 L44.7203251,9.44989672 C45.155236,9.45237162 45.5672086,9.47501146 45.9627644,9.5178626 L46.388,9.571 L46.400426,9.57401061 C46.8474349,9.64187636 47.2704668,9.77583645 47.8936302,10.0379743 L48.7476055,10.413933 C49.9002044,10.9257864 50.7469445,9.27346263 49.658311,8.63678732 L35.4870206,0.352848078 C35.1448193,0.164111838 34.7809786,-0.010018532 34.4081847,-0.1622365 L34.2796507,-0.212162999 L33.9013383,-0.337396194 L33.348511,-0.530395178 C33.3274853,-0.537307841 33.3066135,-0.543852189 33.2834592,-0.550815254 C32.8605803,-0.669568194 32.4479068,-0.762365783 32.027773,-0.833985428 L31.9339421,-0.846992864 L31.8112588,-0.858444687 L31.6612727,-0.878015163 L30.8575286,-0.972542685 C30.823924,-0.975795344 30.7914824,-0.97861887 30.7587122,-0.981146334 L30.6579233,-0.987973608 C30.5626839,-0.993758964 30.4783613,-0.996904032 30.3774395,-0.998181467 L29.3036291,-0.997895801 L29.1577644,-0.999747125 L29.0883503,-0.996707683 C28.4966735,-0.972423802 27.8700709,-0.910868896 27.2317054,-0.813092121 L27.1650186,-0.79981806 L26.9662992,-0.765707069 L26.7429884,-0.720274685 L26.0019655,-0.556948126 L25.4527133,-0.450016953 L25.148199,-0.387213621 L24.88706,-0.326146874 L24.702528,-0.2763664 Z M29.1493213,0.00126129548 L29.3604827,0.00290599541 C29.5007541,-0.00151641995 29.6365008,0.00438013386 29.775264,0.00438013386 L30.3279705,0.0015410524 C30.4193062,0.00241461592 30.5098039,0.00487151335 30.5987934,0.0102766877 L30.8438635,0.0316243964 L31.3242836,0.0913543026 L31.8597285,0.151793979 C32.2488688,0.21813021 32.627451,0.30363024 32.9954751,0.406819932 L33.2835596,0.507061347 C33.3831071,0.538018254 33.4811463,0.573397577 33.5776772,0.6087769 C33.7285068,0.660371746 33.8838612,0.703121761 34.0301659,0.763561437 C34.2564103,0.855940781 34.4779621,0.956837368 34.6948215,1.06581442 L35.0665535,1.26274157 L49.1534705,9.5 L48.5361414,9.22524113 C48.0132162,8.99635666 47.4684174,8.77827749 46.8967746,8.65051991 L46.5399698,8.5823918 L46.4977376,8.57796938 C45.9330317,8.49541763 45.347089,8.45343416 44.738365,8.44975471 L44.2428356,8.45414175 C44.2352941,8.45414175 44.2277526,8.45709003 44.2202112,8.45709003 C43.7462293,8.47146288 43.2603695,8.507395 42.7613594,8.56737401 L42.2081448,8.6398832 L42.1146305,8.66052113 C41.3800905,8.77697807 40.6214178,8.93618502 39.8355958,9.14846096 L39.8054299,9.15435752 L39.6651584,9.19710753 C37.3564605,9.83550776 34.823087,10.8719909 32.0601325,12.3245348 L31.4645551,12.6421691 L14.8823529,22 L3.55271368e-15,13.545816 L16.5822021,4.1894592 C17.5188537,3.68382971 18.4238311,3.23421749 19.3076923,2.81998458 L19.8647562,2.57298449 C19.9565946,2.53334655 20.0482655,2.4937086 20.1402715,2.45292411 L20.986146,2.07303317 C21.1261941,2.01150154 21.2649573,1.95220841 21.4012066,1.89717391 L22.6063348,1.44756168 C23.3016591,1.19695814 23.9803922,0.972889098 24.6395173,0.787147653 L25.015083,0.673638992 L25.4381319,0.573452175 L26.26546,0.409768209 L26.9768169,0.252417578 L27.3831071,0.175380194 C27.9894419,0.0825094719 28.5791855,0.0250180722 29.1493213,0.00126129548 Z" id="Stroke-3" fill="#0A83FF" fill-rule="nonzero"></path>
                            <path d="M31.7685434,22.1869701 C31.908475,23.5397561 31.9830038,25.0172991 31.9875668,26.6286176 C32.0042978,27.8175662 31.9769199,28.9659313 31.925206,30.0962592 C31.911517,30.392369 31.8947861,30.6839695 31.8765341,30.9770732 C31.8141733,31.981141 31.7289975,32.9671718 31.6103598,33.9246437 C31.5966708,34.040382 31.5875448,34.1606297 31.5723349,34.274865 C31.4369662,35.3044854 31.2605306,36.2995347 31.0597591,37.2720376 C30.9867513,37.6252651 30.9076595,37.9754863 30.8255257,38.3211983 C30.7388289,38.6894568 30.6521321,39.0562121 30.5547884,39.4154519 C30.4270247,39.8919332 30.290135,40.3608991 30.1471614,40.8238525 C30.0924055,40.9937023 30.0452546,41.1650552 29.9904988,41.3318988 C29.7851643,41.9511742 29.5646198,42.5569218 29.3288654,43.1491414 C29.2817145,43.2618736 29.2345636,43.3761089 29.1889337,43.488841 C28.9425323,44.0840669 28.685484,44.6732804 28.4056207,45.2429536 C28.3995367,45.2579846 28.3919317,45.2700093 28.3843267,45.2835372 C28.0922954,45.8817693 27.7789702,46.4619642 27.450435,47.0286312 C27.4276201,47.0707179 27.4048051,47.1128046 27.3789482,47.1533881 C27.064102,47.6929995 26.7294828,48.2115675 26.3811747,48.72262 C26.3248978,48.8067933 26.2686209,48.8924698 26.2108231,48.97514 C25.8670779,49.4666523 25.5081228,49.9446367 25.1354787,50.4105963 C25.03053,50.5398626 24.9210183,50.6661226 24.8160695,50.7938857 C24.5468532,51.1155482 24.2669899,51.4311982 23.9840846,51.7408359 C23.7513721,51.993356 23.5140967,52.2428699 23.2722583,52.4863714 C23.1825195,52.5780602 23.0897388,52.6637366 23,52.7524193 L23.0532349,71 L31.1418929,66.3824903 C31.4247982,66.2336838 31.7061825,66.0773619 31.9830038,65.9210399 C32.5822764,65.576831 33.1617759,65.2175912 33.7260655,64.8448235 C33.9085851,64.7230727 34.0819787,64.5938065 34.2629772,64.4705527 C34.6371423,64.2105171 35.0082654,63.9474754 35.3656995,63.6754151 C35.569513,63.5205962 35.7642005,63.359765 35.96193,63.2004369 C36.0455848,63.1343007 36.1216346,63.0636552 36.2037684,62.997519 C36.4380019,62.8036196 36.6767983,62.6112234 36.9049477,62.4113117 C37.1011562,62.2369526 37.2943227,62.0595873 37.4844473,61.882222 L37.4859683,61.882222 C37.7582266,61.6281989 38.019838,61.3681633 38.2799283,61.1051216 L38.2814493,61.1051216 C38.5217667,60.860117 38.7590421,60.6136093 38.9902336,60.3610893 C39.2761809,60.0499485 39.5545232,59.7327953 39.8252605,59.4111328 C39.9302092,59.2833697 40.0382,59.1586128 40.1416277,59.0308497 C40.5157928,58.5633869 40.8747479,58.0869056 41.2184931,57.5953933 L41.2184931,57.5938903 C41.2762909,57.51122 41.3310468,57.4270466 41.3873236,57.3443764 C41.7371528,56.8333239 42.071772,56.3117497 42.3866182,55.7736415 C42.4124751,55.7315548 42.4352901,55.6894681 42.458105,55.6488845 L42.458105,55.6473814 C42.7866402,55.0807144 43.0984444,54.5005195 43.3919967,53.9067967 L43.3919967,53.9052936 C43.3980807,53.8902627 43.4072067,53.8767348 43.4148116,53.8602008 C43.693154,53.2905275 43.9502023,52.7043202 44.1966037,52.1060882 C44.2422336,51.993356 44.2893845,51.8821269 44.3365354,51.7693948 C44.5722898,51.175672 44.7928342,50.5699245 44.9981687,49.9506491 C45.0529246,49.7838055 45.1015965,49.6109495 45.1548314,49.4426028 C45.1548314,49.4410997 45.1548314,49.4395966 45.1563524,49.4395966 C45.299326,48.9781462 45.4346947,48.5106835 45.5624583,48.0342022 C45.6598021,47.6734592 45.7464989,47.3052008 45.8347167,46.9369424 L45.8347167,46.9354393 C45.9153295,46.5912304 45.9959423,46.2455184 46.0674291,45.8922909 C46.2682006,44.918285 46.4446362,43.9247388 46.5800048,42.8936152 C46.5952148,42.7793799 46.6028198,42.6606354 46.6180297,42.544897 L46.6180297,42.5433939 C46.7366675,41.585922 46.8218432,40.6013944 46.8842041,39.5958234 C46.902456,39.3042229 46.919187,39.0096161 46.932876,38.7135063 C46.9830688,37.5831784 47.0119678,36.4348133 46.9952368,35.2473678 C46.9921948,34.3049269 46.9632959,33.4090819 46.916145,32.5523174 C46.8994141,32.2697354 46.8705151,32.0157122 46.8492212,31.7421488 C46.8066333,31.1875066 46.7625244,30.6328643 46.7001635,30.1157994 C46.6636596,29.8136772 46.6134668,29.5401138 46.5678369,29.2500163 C46.500913,28.8035969 46.4339892,28.3571775 46.3488134,27.9438262 C46.2910156,27.6582381 46.2195287,27.3951963 46.1526049,27.123136 C46.0598241,26.7488652 45.9670434,26.3776006 45.8605736,26.0333917 C45.7799608,25.7748593 45.688701,25.5373702 45.6004833,25.2938687 C45.4848875,24.9797217 45.3647288,24.670084 45.2354442,24.3844958 C45.1320164,24.1590315 45.0240257,23.9501012 44.912993,23.7441771 C44.7715403,23.4811354 44.6255247,23.2301184 44.471904,22.9956355 C44.3487033,22.8092516 44.2209397,22.6333894 44.088613,22.4650427 C43.9228244,22.2516032 43.7494308,22.0546976 43.5699533,21.8698169 C43.4269796,21.7225135 43.280964,21.5812225 43.1303853,21.4519563 C42.9372188,21.2866158 42.7349263,21.1438217 42.5280708,21.00704 C40.010822,19.3461193 36.4243129,19.7399304 31.7685434,22.1869701" id="Fill-5" fill="#0A83FF"></path>
                            <path d="M28.5374545,46.0904629 L28.8690938,45.4305507 L28.9931727,45.1746551 L29.2470083,44.6230041 L29.5123958,44.0111871 L29.7901432,43.3420735 C29.9519167,42.9358299 30.1053486,42.5271085 30.2514085,42.1135413 L30.4834714,41.4324487 L30.6230438,40.9772666 C30.7255456,40.6454481 30.8205118,40.3252217 30.9092139,40.011437 L31.0682531,39.4310605 L31.2674944,38.6252229 L31.3122202,38.4357778 C31.4010701,38.0618012 31.4794044,37.7119424 31.5494096,37.3732424 C31.7233868,36.5305266 31.8680472,35.7254114 31.9852684,34.9326707 L32.0790811,34.2494401 L32.1068988,33.9833719 C32.1984601,33.2444716 32.2730634,32.4664754 32.3331712,31.6385462 L32.3901605,30.7680956 L32.4246726,30.1193492 C32.4699123,29.1305288 32.4931138,28.2047348 32.492485,27.2983823 L32.4813163,25.9391259 C32.4638817,24.8132013 32.4109721,23.744832 32.3229289,22.7346479 L32.297,22.475 L32.7231379,22.2625032 C36.8781473,20.2233304 40.0450724,19.9677502 42.2527033,21.42438 C42.4792642,21.5741921 42.6498509,21.698794 42.8052514,21.8318088 C42.9330218,21.9414957 43.0656804,22.0681664 43.2111662,22.218058 C43.3849899,22.3971147 43.5449649,22.5802237 43.6937397,22.7717594 C43.8229115,22.9361059 43.942125,23.1009002 44.0547922,23.2713486 C44.1919319,23.4806831 44.3299229,23.7156158 44.472628,23.9809866 L44.6401702,24.3009839 L44.7809804,24.592973 L44.9140112,24.9028441 L45.0551674,25.262582 L45.3061948,25.9492204 L45.3832398,26.1822288 L45.4762861,26.5006755 L45.6211094,27.0579623 L45.817452,27.8517072 L45.9021946,28.2633583 L45.9771911,28.698495 L46.1790544,29.9886731 L46.2364688,30.4638068 L46.2981546,31.1218343 L46.4170191,32.5818694 C46.4657441,33.467316 46.4923435,34.3517953 46.4952394,35.2489817 C46.5105805,36.3398773 46.4887351,37.4444811 46.4333682,38.6913254 L46.3851807,39.5645884 C46.3332219,40.4024249 46.2677136,41.1868232 46.186097,41.9310578 L46.0843787,42.8276246 C45.9836338,43.5950091 45.8565807,44.3679019 45.7003824,45.1771314 L45.5330712,46.0063574 L45.3153094,46.9580815 L45.1381416,47.6822963 L45.0797247,47.9039401 L44.8859135,48.5997422 L44.6812471,49.2807304 C44.6364684,49.3256417 44.6298436,49.3553096 44.6385265,49.3926482 L44.642,49.406 L44.5230987,49.7947374 C44.3890143,50.1991223 44.2478158,50.5991388 44.0995422,50.9947536 L43.7331306,51.9184911 L43.5773491,52.2913694 C43.4227193,52.6560451 43.2711062,52.9969329 43.1185649,53.3214144 L42.9285236,53.7176965 C42.7258792,54.1262982 42.5031295,54.549264 42.2665301,54.9730457 L41.9605969,55.5119053 C41.7589579,55.8563764 41.5474211,56.1975791 41.3225256,56.5420265 L40.8087111,57.3073964 C40.4803321,57.7783721 40.1300063,58.2452325 39.7512727,58.7184029 L39.4388981,59.0937623 C39.1728529,59.4097943 38.8993009,59.72112 38.6220899,60.0227547 L38.4643002,60.193238 L38.1190763,60.5554464 L37.770269,60.9095831 L37.377954,61.2955067 L37.0133048,61.6381149 L36.5728174,62.0375612 L36.3247898,62.2491894 L35.4992248,62.9316282 L35.2093414,63.1642664 L34.9054335,63.3961909 L34.5697414,63.6420846 L34.1902296,63.9115604 L33.4943975,64.398071 L33.4486034,64.4288731 C32.8820261,64.803146 32.3116967,65.1556374 31.733971,65.4874703 L31.3214239,65.7177932 L30.9091312,65.9399725 L23.55,70.139 L23.5,52.964 L23.6295912,52.8361044 C23.8643932,52.5997067 24.104749,52.3477149 24.3517641,52.0796748 L24.5811887,51.8263986 L25.0033422,51.346111 L25.5236534,50.7257478 C25.7815491,50.4032857 26.0296071,50.0795569 26.2686517,49.7532511 L26.6724205,49.1864082 L26.7968318,49.0005212 C27.0825235,48.5813686 27.3404106,48.1843995 27.5787217,47.7940654 L27.8560335,47.3289683 L27.8895326,47.2677825 C28.1175048,46.874806 28.3337072,46.4824058 28.5374545,46.0904629 Z M28.1070023,44.7104894 L27.9484778,45.0385153 C27.7555898,45.4323721 27.5560501,45.8158036 27.3446122,46.1998756 L26.9572635,46.884721 C26.7329625,47.2685792 26.497357,47.6458597 26.2370485,48.0401682 L25.8010411,48.6886462 C25.5791246,49.0059588 25.34877,49.3203531 25.1098393,49.632261 L24.6413372,50.2235852 L24.4297071,50.4765152 C24.1867144,50.7668124 23.919558,51.0701917 23.6149562,51.403576 L23.3793191,51.6563977 L22.9174955,52.1340315 L22.6485456,52.3967793 C22.5531345,52.4910675 22.4996108,52.6197386 22.4999128,52.753878 L22.553237,71.0014587 C22.5543548,71.3846265 22.9683535,71.6241907 23.3011189,71.4342275 L31.389777,66.8167177 L31.860182,66.5626535 L32.2288629,66.3564172 C32.628359,66.1269657 33.022865,65.8889606 33.4149728,65.6411767 L34.1062924,65.1910627 L34.9671336,64.5872305 L35.5043213,64.1970303 L35.9111,63.8840172 L36.3554726,63.5242097 L37.1505261,62.8602974 L37.5669494,62.4873201 L37.8255854,62.2491828 L38.1968777,61.8941687 L38.6359653,61.4577098 L38.8375209,61.2510121 L39.195196,60.8757336 C39.2510438,60.8160178 39.3054372,60.7572491 39.3590181,60.6987251 L39.7861851,60.2233593 L40.5302495,59.3454496 C40.7928401,59.0173904 41.0419352,58.6927285 41.2798547,58.3678324 L41.6821549,57.8019612 L41.8006448,57.6257402 C42.0787637,57.2194488 42.3380574,56.8202218 42.5808278,56.4229519 L42.8405895,55.9886717 L42.8976723,55.8856683 C43.1183338,55.5053377 43.3325678,55.1162986 43.5394967,54.7193868 L43.869064,54.0691381 C44.0779626,53.6418418 44.284985,53.1841207 44.4979569,52.6818175 L44.7978132,51.9623269 C44.9601879,51.553552 45.1137463,51.1440204 45.2596057,50.7308516 L45.493033,50.0453995 L45.629,49.599 L45.6511266,49.575388 C45.6753117,49.5441032 45.6781091,49.5197988 45.6711451,49.4908833 L45.666,49.476 L45.8465906,48.8774168 L46.0761094,48.0486005 L46.3210666,47.0514727 L46.5112387,46.2142459 L46.5574937,45.9914711 C46.7318822,45.1454703 46.8762723,44.3417409 46.9931819,43.5503733 L47.082448,42.9051479 L47.1138745,42.6077208 C47.2291956,41.6770824 47.3171118,40.693178 47.3832454,39.6267716 L47.4183081,39.0207513 C47.42336,38.9243688 47.4280307,38.8298658 47.4323425,38.7365963 C47.4885596,37.4706247 47.5107806,36.3470317 47.4951872,35.2403236 C47.4922815,34.3309844 47.4651642,33.4292827 47.4153895,32.5248421 L47.3961967,32.2576598 L47.3477133,31.7033466 L47.2780247,30.8454339 L47.2140288,30.2049818 L47.1694548,29.8503197 L46.9511999,28.4574141 L46.8621944,27.9601612 L46.7931011,27.6321745 L46.5083904,26.4896259 L46.4054483,26.110874 L46.3382444,25.8856399 L46.218157,25.5286349 L46.0705831,25.1235569 C45.9314284,24.7453668 45.8132799,24.4485306 45.6909442,24.1782927 C45.5914304,23.9613456 45.4862863,23.7538993 45.3530941,23.5068778 C45.1977355,23.2179763 45.0453669,22.9585654 44.8901396,22.72163 C44.7610407,22.5263155 44.6257913,22.3393539 44.4817106,22.1560536 C44.3116254,21.937069 44.1275179,21.7263376 43.9287102,21.5215448 C43.7635354,21.3513679 43.6095472,21.2043304 43.4560697,21.0725756 C43.2641573,20.9083079 43.0623739,20.7609189 42.8038529,20.5899737 C40.1032104,18.8080467 36.3364487,19.2212555 31.5359207,21.7443792 C31.3549969,21.8394714 31.250167,22.0351084 31.271197,22.2384154 C31.3906427,23.3931541 31.4610006,24.6327401 31.4814859,25.9594233 L31.4875688,26.6300335 C31.5000232,27.516873 31.488605,28.4097031 31.4550337,29.354422 L31.4158122,30.2771754 L31.3775007,30.9459977 C31.3254441,31.7841574 31.2598886,32.5691657 31.1783469,33.3129065 L31.0767087,34.2088743 C30.9504219,35.1694128 30.7828463,36.1403678 30.5700854,37.1709453 L30.4993469,37.503817 L30.2210348,38.7014555 L30.1300861,39.0660555 L30.072192,39.2846821 C29.9914639,39.5857445 29.9052954,39.8904103 29.8128664,40.2023914 L29.5154287,41.1759871 C29.3136335,41.7845808 29.0964361,42.3811355 28.8643211,42.9642128 L28.7254606,43.301244 L28.4094805,44.044323 C28.3071109,44.2778184 28.2069916,44.4984949 28.1070023,44.7104894 Z" id="Stroke-7" fill="#0A83FF" fill-rule="nonzero"></path>
                            <path d="M44,8.45975 C44.1168478,8.45875 44.2282609,8.46175 44.34375,8.46175 C44.8220109,8.46175 45.2880435,8.48075 45.7377717,8.52175 C45.8247283,8.52875 45.9130435,8.53475 46,8.54375 C45.3641304,8.47375 44.6983696,8.44575 44,8.45975" id="Fill-9" fill="#0865C5"></path>
                            <path d="M46.4355,26.227 C46.4795,26.408 46.5265,26.582 46.5645,26.773 C46.5265,26.582 46.4795,26.408 46.4355,26.227" id="Fill-11" fill="#0865C5"></path>
                            <path d="M46.4145,25.2545 C46.4735,25.4155 46.5325,25.5735 46.5855,25.7455 C46.5325,25.5735 46.4735,25.4155 46.4145,25.2545" id="Fill-13" fill="#0865C5"></path>
                            <path d="M33.9928269,11.4082157 C34.3023726,11.254172 34.6003311,11.1258023 34.9065661,10.9837398 C35.5852492,10.6636714 36.257311,10.3590073 36.9095089,10.0937099 C37.144565,9.9978605 37.3779658,9.90714591 37.6113666,9.81814292 C38.3744712,9.5237484 39.1226779,9.26529739 39.8460548,9.04963629 C39.8957145,9.03423192 39.9486849,9.01711596 40,9 C37.2852676,9.79418057 34.28913,11.1189559 31,13 C32.0279566,12.4129226 33.0211514,11.8891742 33.9928269,11.4082157" id="Fill-15" fill="#0865C5"></path>
                            <path d="M43,8.4395 C42.3558801,8.4525 41.6902383,8.4915 41,8.5605 C41.6902383,8.4915 42.3558801,8.4525 43,8.4395" id="Fill-17" fill="#0865C5"></path>
                            <path d="M47.2367206,8.499 C47.312933,8.52 47.3879908,8.545 47.4630485,8.568 C47.6454965,8.625 47.8244804,8.688 48,8.755 C47.3799076,8.511 46.7136259,8.341 46,8.245 C46.4284065,8.302 46.8406467,8.388 47.2367206,8.499" id="Fill-19" fill="#0865C5"></path>
                            <path d="M49.6585,9.581 C49.5545,9.523 49.4475,9.47 49.3415,9.419 C49.4485,9.469 49.5545,9.523 49.6585,9.581" id="Fill-21" fill="#0865C5"></path>
                            <path d="M45.394,23.287 C45.467,23.424 45.539,23.563 45.606,23.713 C45.539,23.563 45.466,23.425 45.394,23.287" id="Fill-23" fill="#0865C5"></path>
                            <path d="M44.374,21.323 C44.461,21.435 44.546,21.552 44.626,21.677 C44.546,21.552 44.461,21.435 44.374,21.323" id="Fill-25" fill="#0865C5"></path>
                            <path d="M44.3555,20.361 C44.4555,20.447 44.5505,20.542 44.6445,20.639 C44.5505,20.542 44.4555,20.447 44.3555,20.361" id="Fill-27" fill="#0865C5"></path>
                            <path d="M40.1449371,8.4735 C40.4295169,8.4285 40.7220384,8.3715 41,8.3345 C40.3553938,8.4135 39.6896095,8.5225 39,8.6655 C39.3944408,8.5845 39.7663799,8.5345 40.1449371,8.4735" id="Fill-29" fill="#0865C5"></path>
                            <path d="M46.5405,45.3645 C46.5555,45.2965 46.5615,45.2215 46.5765,45.1535 C46.5285,45.3875 46.4765,45.6185 46.4235,45.8465 C46.4605,45.6845 46.5065,45.5285 46.5405,45.3645" id="Fill-31" fill="#0865C5"></path>
                            <path d="M40.4445,59.584 C40.5585,59.453 40.6645,59.317 40.7745,59.184 C40.5965,59.398 40.4135,59.609 40.2255,59.816 C40.2975,59.737 40.3755,59.664 40.4445,59.584" id="Fill-33" fill="#0865C5"></path>
                            <path d="M42.4855,54.5474957 C42.5965,54.3678756 42.7035,54.1848014 42.8065,54 C42.6145,54.3419689 42.4095,54.6744387 42.1935,55 C42.2935,54.851468 42.3915,54.701209 42.4855,54.5474957" id="Fill-35" fill="#0865C5"></path>
                            <path d="M42.1725,56 C42.2525,55.8851675 42.3355,55.7712919 42.4135,55.6545455 C42.5475,55.4545455 42.6775,55.2516746 42.8025,55.045933 C42.8125,55.030622 42.8195,55.015311 42.8285,55 C42.6215,55.3425837 42.4015,55.6746411 42.1715,56 L42.1725,56 Z" id="Fill-37" fill="#0865C5"></path>
                            <path d="M41.25,57.8505 C41.427,57.6225 41.599,57.3905 41.765,57.1545 C41.795,57.1115 41.823,57.0655 41.854,57.0225 C41.628,57.3495 41.392,57.6665 41.146,57.9775 C41.18,57.9345 41.217,57.8935 41.25,57.8505" id="Fill-39" fill="#0865C5"></path>
                            <path d="M46.4565,29.212 C46.4855,29.404 46.5185,29.587 46.5435,29.788 C46.5185,29.587 46.4855,29.404 46.4565,29.212" id="Fill-41" fill="#0865C5"></path>
                            <path d="M37.5095,60.51 C37.5975,60.423 37.6765,60.329 37.7615,60.241 C37.5905,60.417 37.4175,60.59 37.2385,60.759 C37.3275,60.675 37.4225,60.595 37.5095,60.51" id="Fill-43" fill="#0865C5"></path>
                            <path d="M36.7295,61.3045 L36.7305,61.3045 C36.5805,61.4375 36.4235,61.5665 36.2695,61.6955 C36.4245,61.5665 36.5805,61.4385 36.7295,61.3045" id="Fill-45" fill="#0865C5"></path>
                            <path d="M46.485,39.7935 C46.497,39.5995 46.507,39.4035 46.516,39.2075 L46.516,39.2065 C46.507,39.4035 46.497,39.5995 46.484,39.7935 L46.485,39.7935 Z" id="Fill-47" fill="#0865C5"></path>
                            <path d="M46.9118394,38.9681529 L46.9118394,38.9696517 C46.8983804,39.2634228 46.8819305,39.5571938 46.8654805,39.8479672 L46.8639851,39.8479672 C46.8026717,40.8506858 46.7189265,41.8339195 46.6022815,42.7886755 C46.5918134,42.8786054 46.5888225,42.9775283 46.5768589,43.0659594 C46.573868,43.0914395 46.5693816,43.113922 46.5663907,43.1364045 C46.4332958,44.1646032 46.2583283,45.1568299 46.0624245,46.1265742 C46.0399927,46.2299936 46.0295246,46.3409071 46.0085883,46.4428277 C45.9562476,46.6886361 45.8874569,46.9239528 45.8321253,47.1667635 C45.7468847,47.5354762 45.6601487,47.90269 45.5659354,48.2624097 L45.5659354,48.2639085 C45.5315401,48.3913092 45.5061175,48.5277029 45.4702267,48.6551036 C45.3760134,48.9968373 45.2668457,49.3280792 45.1651551,49.6638175 C45.1128144,49.8316867 45.06496,50.0055512 45.0111239,50.1734204 C45.0111239,50.1734204 45.0096284,50.1734204 45.0096284,50.1749192 C44.9916831,50.2273783 44.9767286,50.2843339 44.9587832,50.3382919 C44.8032565,50.8089251 44.6372617,51.273563 44.4622941,51.7292079 C44.4308897,51.8161402 44.392008,51.9000748 44.3591082,51.987007 C44.3142447,52.0994194 44.2663903,52.210333 44.2215269,52.3227454 L44.2215269,52.3242442 C44.1377817,52.5325818 44.055532,52.7439171 43.9658051,52.9492571 C43.8057921,53.3224663 43.6383018,53.6896801 43.4618388,54.0523974 C43.4588479,54.0598916 43.455857,54.0658869 43.4528661,54.0718822 C43.4468843,54.0883694 43.4379116,54.1018589 43.4304344,54.1168472 C43.2749077,54.4375972 43.1163901,54.7553496 42.9503953,55.0671066 C42.8098231,55.3338987 42.6617737,55.5946955 42.5137242,55.8539934 C42.489797,55.8944619 42.4673653,55.937928 42.4434381,55.9798953 C42.4299791,56.0023778 42.4180155,56.0278579 42.403061,56.0503404 C42.2161299,56.3725892 42.0217215,56.6903416 41.8228268,57.0035975 C41.7061818,57.186455 41.5820596,57.364816 41.4609282,57.5461746 L41.4594327,57.5461746 C41.4041011,57.6286104 41.350265,57.712545 41.2934379,57.7964796 C41.2485744,57.8594305 41.2067019,57.9283768 41.160343,57.9928266 C40.9120984,58.3480497 40.6548812,58.6957787 40.3916822,59.0375124 C40.340837,59.1019622 40.2855054,59.1634143 40.2346601,59.2278641 C40.134465,59.3552648 40.0267927,59.4796678 39.9236067,59.6070685 C39.7591073,59.8064132 39.6005898,60.0102543 39.4301086,60.2066013 C39.3269226,60.3265079 39.2102776,60.4359226 39.1026053,60.5543303 C38.875297,60.8061341 38.6435025,61.0519425 38.4057261,61.2947533 C38.2786129,61.4266505 38.158977,61.5675407 38.028873,61.6979391 C37.8987689,61.8253398 37.7567013,61.9452464 37.6236063,62.0711482 C37.4351797,62.2480104 37.2452577,62.4233737 37.0523448,62.5987371 L37.0508494,62.5987371 C36.8280275,62.7980817 36.5962329,62.9899322 36.3629429,63.1832815 C35.0903159,64.248951 33.7159983,65.2291871 32.2130722,66.0985096 C31.9409005,66.2543882 31.6657379,66.4102667 31.3860889,66.558651 L23.4332917,71.1615639 L23.3824464,52.9672431 L23.3091694,27.4736108 L31.0047495,23.0205811 C31.3487027,22.8227353 31.6717197,22.665358 32.0022139,22.4884958 C36.579783,20.0483974 40.1060515,19.6557035 42.5810194,21.3119127 C42.7844005,21.4483065 42.9832952,21.5906955 43.1732172,21.755567 C43.3227621,21.8844665 43.4648297,22.0253567 43.6054019,22.1722423 C43.7818649,22.3565986 43.9523461,22.5529456 44.11535,22.7642809 C44.2454541,22.9336489 44.3725672,23.1090122 44.4922031,23.2948674 C44.6432435,23.5286852 44.7868066,23.7789901 44.9258833,24.0412857 C45.0335556,24.2481245 45.1412279,24.4549633 45.2429185,24.6797881 C45.3715271,24.9645662 45.4881721,25.2733255 45.6018262,25.5865814 C45.6900577,25.8278933 45.7782892,26.0662076 45.857548,26.3225079 C45.9622294,26.6672392 46.0549472,27.0374507 46.1446742,27.4106599 C46.2104739,27.6819484 46.28076,27.944244 46.3375871,28.2290221 C46.4213322,28.6412009 46.487132,29.086354 46.5544272,29.531507 C46.5977952,29.8192828 46.647145,30.093569 46.6845312,30.3948342 C46.7458446,30.9104324 46.7877172,31.4635014 46.8295898,32.0165704 C46.850526,32.2893578 46.880435,32.5426604 46.8953895,32.822942 C46.9432439,33.678775 46.970162,34.57058 46.9731528,35.5118464 C46.9910982,36.6959237 46.9611893,37.8410313 46.9118394,38.9681529 M48.6510465,10.2265518 C48.4955198,10.1411184 48.3370022,10.0586826 48.1769892,9.98374102 C48.1141804,9.95376438 48.052867,9.92528658 47.9900581,9.89680877 C47.7612544,9.79788586 47.5309553,9.70345945 47.2946744,9.61802603 C47.1959747,9.5835529 47.100266,9.5460821 47.0015664,9.51460663 C46.4886274,9.34673745 45.9532567,9.2178379 45.3984452,9.13390332 C45.3819952,9.13090565 45.3625544,9.12790799 45.3461044,9.12640916 C45.2518912,9.11291967 45.1531915,9.10392668 45.0589783,9.09193602 C44.5639847,9.03048391 44.0510457,9.00350494 43.5231522,9.00350494 C43.3960391,9.00350494 43.2734123,8.99900844 43.1448037,9.00020139 C43.1268583,9.00200611 43.1074174,9.00200611 43.0879766,9.00350494 C42.4613835,9.02298975 41.8153496,9.0814442 41.143893,9.1848636 C41.0945432,9.19235776 41.0466888,9.20284959 41.0003299,9.21034374 C40.6862857,9.26580053 40.3557915,9.34973511 40.0342699,9.41718255 C39.6065716,9.5086113 39.1863504,9.58505173 38.7407066,9.70645711 C38.685375,9.7199466 38.6270525,9.73943142 38.5717209,9.75591857 C38.525362,9.77090689 38.4775076,9.78589521 38.4326442,9.79938469 C37.779133,9.98823752 37.1031901,10.2145611 36.4122927,10.4723602 C36.2029299,10.5502995 35.9920716,10.6297376 35.7797178,10.7136722 C35.1905109,10.9459911 34.5833587,11.2127832 33.9702246,11.4930648 C33.6935666,11.6174678 33.4243858,11.7298802 33.1447368,11.8647751 C32.2669083,12.2859469 31.369639,12.7445894 30.4409652,13.2586888 L14,22.771775 L14.1046814,59.4272087 L14.1211314,65.73879 L14.1794539,86 L30.8881045,76.3310352 C31.2051396,76.1556719 31.5191839,75.9773109 31.8302373,75.7974511 C48.1754938,66.3398216 56.2254952,51.1716424 55.9951961,30.2914148 C55.7753651,19.5073191 53.3243243,12.8225287 48.6510465,10.2265518" id="Fill-49" fill="#FFFFFF"></path>
                            <path d="M46.9118394,38.9681529 L46.9118394,38.9696517 C46.8983804,39.2634228 46.8819305,39.5571938 46.8654805,39.8479672 L46.8639851,39.8479672 C46.8026717,40.8506858 46.7189265,41.8339195 46.6022815,42.7886755 C46.5918134,42.8786054 46.5888225,42.9775283 46.5768589,43.0659594 C46.573868,43.0914395 46.5693816,43.113922 46.5663907,43.1364045 C46.4332958,44.1646032 46.2583283,45.1568299 46.0624245,46.1265742 C46.0399927,46.2299936 46.0295246,46.3409071 46.0085883,46.4428277 C45.9562476,46.6886361 45.8874569,46.9239528 45.8321253,47.1667635 C45.7468847,47.5354762 45.6601487,47.90269 45.5659354,48.2624097 L45.5659354,48.2639085 C45.5315401,48.3913092 45.5061175,48.5277029 45.4702267,48.6551036 C45.3760134,48.9968373 45.2668457,49.3280792 45.1651551,49.6638175 C45.1128144,49.8316867 45.06496,50.0055512 45.0111239,50.1734204 C45.0111239,50.1734204 45.0096284,50.1734204 45.0096284,50.1749192 C44.9916831,50.2273783 44.9767286,50.2843339 44.9587832,50.3382919 C44.8032565,50.8089251 44.6372617,51.273563 44.4622941,51.7292079 C44.4308897,51.8161402 44.392008,51.9000748 44.3591082,51.987007 C44.3142447,52.0994194 44.2663903,52.210333 44.2215269,52.3227454 L44.2215269,52.3242442 C44.1377817,52.5325818 44.055532,52.7439171 43.9658051,52.9492571 C43.8057921,53.3224663 43.6383018,53.6896801 43.4618388,54.0523974 C43.4588479,54.0598916 43.455857,54.0658869 43.4528661,54.0718822 C43.4468843,54.0883694 43.4379116,54.1018589 43.4304344,54.1168472 C43.2749077,54.4375972 43.1163901,54.7553496 42.9503953,55.0671066 C42.8098231,55.3338987 42.6617737,55.5946955 42.5137242,55.8539934 C42.489797,55.8944619 42.4673653,55.937928 42.4434381,55.9798953 C42.4299791,56.0023778 42.4180155,56.0278579 42.403061,56.0503404 C42.2161299,56.3725892 42.0217215,56.6903416 41.8228268,57.0035975 C41.7061818,57.186455 41.5820596,57.364816 41.4609282,57.5461746 L41.4594327,57.5461746 C41.4041011,57.6286104 41.350265,57.712545 41.2934379,57.7964796 C41.2485744,57.8594305 41.2067019,57.9283768 41.160343,57.9928266 C40.9120984,58.3480497 40.6548812,58.6957787 40.3916822,59.0375124 C40.340837,59.1019622 40.2855054,59.1634143 40.2346601,59.2278641 C40.134465,59.3552648 40.0267927,59.4796678 39.9236067,59.6070685 C39.7591073,59.8064132 39.6005898,60.0102543 39.4301086,60.2066013 C39.3269226,60.3265079 39.2102776,60.4359226 39.1026053,60.5543303 C38.875297,60.8061341 38.6435025,61.0519425 38.4057261,61.2947533 C38.2786129,61.4266505 38.158977,61.5675407 38.028873,61.6979391 C37.8987689,61.8253398 37.7567013,61.9452464 37.6236063,62.0711482 C37.4351797,62.2480104 37.2452577,62.4233737 37.0523448,62.5987371 L37.0508494,62.5987371 C36.8280275,62.7980817 36.5962329,62.9899322 36.3629429,63.1832815 C35.0903159,64.248951 33.7159983,65.2291871 32.2130722,66.0985096 C31.9409005,66.2543882 31.6657379,66.4102667 31.3860889,66.558651 L23.4332917,71.1615639 L23.3824464,52.9672431 L23.3091694,27.4736108 L31.0047495,23.0205811 C31.3487027,22.8227353 31.6717197,22.665358 32.0022139,22.4884958 C36.579783,20.0483974 40.1060515,19.6557035 42.5810194,21.3119127 C42.7844005,21.4483065 42.9832952,21.5906955 43.1732172,21.755567 C43.3227621,21.8844665 43.4648297,22.0253567 43.6054019,22.1722423 C43.7818649,22.3565986 43.9523461,22.5529456 44.11535,22.7642809 C44.2454541,22.9336489 44.3725672,23.1090122 44.4922031,23.2948674 C44.6432435,23.5286852 44.7868066,23.7789901 44.9258833,24.0412857 C45.0335556,24.2481245 45.1412279,24.4549633 45.2429185,24.6797881 C45.3715271,24.9645662 45.4881721,25.2733255 45.6018262,25.5865814 C45.6900577,25.8278933 45.7782892,26.0662076 45.857548,26.3225079 C45.9622294,26.6672392 46.0549472,27.0374507 46.1446742,27.4106599 C46.2104739,27.6819484 46.28076,27.944244 46.3375871,28.2290221 C46.4213322,28.6412009 46.487132,29.086354 46.5544272,29.531507 C46.5977952,29.8192828 46.647145,30.093569 46.6845312,30.3948342 C46.7458446,30.9104324 46.7877172,31.4635014 46.8295898,32.0165704 C46.850526,32.2893578 46.880435,32.5426604 46.8953895,32.822942 C46.9432439,33.678775 46.970162,34.57058 46.9731528,35.5118464 C46.9910982,36.6959237 46.9611893,37.8410313 46.9118394,38.9681529 Z M48.6510465,10.2265518 C48.4955198,10.1411184 48.3370022,10.0586826 48.1769892,9.98374102 C48.1141804,9.95376438 48.052867,9.92528658 47.9900581,9.89680877 C47.7612544,9.79788586 47.5309553,9.70345945 47.2946744,9.61802603 C47.1959747,9.5835529 47.100266,9.5460821 47.0015664,9.51460663 C46.4886274,9.34673745 45.9532567,9.2178379 45.3984452,9.13390332 C45.3819952,9.13090565 45.3625544,9.12790799 45.3461044,9.12640916 C45.2518912,9.11291967 45.1531915,9.10392668 45.0589783,9.09193602 C44.5639847,9.03048391 44.0510457,9.00350494 43.5231522,9.00350494 C43.3960391,9.00350494 43.2734123,8.99900844 43.1448037,9.00020139 C43.1268583,9.00200611 43.1074174,9.00200611 43.0879766,9.00350494 C42.4613835,9.02298975 41.8153496,9.0814442 41.143893,9.1848636 C41.0945432,9.19235776 41.0466888,9.20284959 41.0003299,9.21034374 C40.6862857,9.26580053 40.3557915,9.34973511 40.0342699,9.41718255 C39.6065716,9.5086113 39.1863504,9.58505173 38.7407066,9.70645711 C38.685375,9.7199466 38.6270525,9.73943142 38.5717209,9.75591857 C38.525362,9.77090689 38.4775076,9.78589521 38.4326442,9.79938469 C37.779133,9.98823752 37.1031901,10.2145611 36.4122927,10.4723602 C36.2029299,10.5502995 35.9920716,10.6297376 35.7797178,10.7136722 C35.1905109,10.9459911 34.5833587,11.2127832 33.9702246,11.4930648 C33.6935666,11.6174678 33.4243858,11.7298802 33.1447368,11.8647751 C32.2669083,12.2859469 31.369639,12.7445894 30.4409652,13.2586888 L14,22.771775 L14.1046814,59.4272087 L14.1211314,65.73879 L14.1794539,86 L30.8881045,76.3310352 C31.2051396,76.1556719 31.5191839,75.9773109 31.8302373,75.7974511 C48.1754938,66.3398216 56.2254952,51.1716424 55.9951961,30.2914148 C55.7753651,19.5073191 53.3243243,12.8225287 48.6510465,10.2265518 Z" id="Stroke-51" stroke="#0A83FF" stroke-linejoin="round"></path>
                            <path d="M46.478,31.231 C46.492,31.413 46.511,31.582 46.522,31.769 C46.511,31.582 46.492,31.413 46.478,31.231" id="Fill-53" fill="#0865C5"></path>
                            <path d="M46.4955,41.5695 C46.5035,41.5095 46.5055,41.4445 46.5125,41.3835 C46.5025,41.4615 46.4975,41.5405 46.4875,41.6165 C46.4895,41.6005 46.4935,41.5865 46.4955,41.5695" id="Fill-55" fill="#0865C5"></path>
                            <path d="M44.249,52.9888603 C44.366,52.781491 44.478,52.571551 44.586,52.3581834 C44.645,52.2407883 44.7,52.1191088 44.757,52.0008569 L44.757,52 C44.595,52.3401885 44.426,52.6752356 44.243,53 C44.245,52.9965724 44.247,52.9931448 44.249,52.9888603" id="Fill-57" fill="#0865C5"></path>
                            <path d="M45.3515,50.8578512 C45.4685,50.6066116 45.5795,50.3512397 45.6835,50.0909091 C45.6955,50.061157 45.7055,50.0297521 45.7165,50.0008264 C45.7165,50 45.7175,50 45.7175,50 C45.5825,50.3404959 45.4375,50.6735537 45.2825,51 C45.3045,50.9520661 45.3305,50.9066116 45.3515,50.8578512" id="Fill-59" fill="#0865C5"></path>
                            <path d="M45.5705,47.2945 C45.5935,47.2095 45.6115,47.1185 45.6335,47.0335 L45.6335,47.0325 C45.5495,47.3495 45.4615,47.6605 45.3665,47.9675 C45.4345,47.7435 45.5075,47.5235 45.5705,47.2945" id="Fill-61" fill="#0865C5"></path>
                            <polygon id="Fill-63" fill="#0A83FF" points="14.9414239 65.6887247 14.9234004 59.3615476 14.8197657 22.6155387 0 14 0.180234305 77.3829587 15 86"></polygon>
                            <path d="M-0.500000135,14.0014218 L-0.319763674,77.3843805 C-0.319258724,77.561956 -0.224607344,77.7259406 -0.0710955077,77.8152009 L14.7486702,86.4322422 C15.0825559,86.626382 15.5011118,86.3847817 15.4999999,85.998558 L15.3197637,22.6141286 C15.3192628,22.4365354 15.2245966,22.2725351 15.0710628,22.1832775 L0.251297059,13.5677388 C-0.0825810191,13.3736372 -0.501096162,13.6152239 -0.500000135,14.0014218 Z M0.501,14.869 L14.32,22.903 L14.497,85.129 L0.679,77.094 L0.501,14.869 Z" id="Stroke-65" fill="#0A83FF" fill-rule="nonzero"></path>
                        </g>
                        <path d="M104.726957,29.5669313 L52.7385269,59.5669313 C52.5837717,59.656233 52.4884299,59.8213272 52.4884299,60 L52.4884299,120 C52.4884299,120.38485 52.9049995,120.625419 53.2383328,120.433069 L105.226763,90.4330687 C105.381518,90.343767 105.47686,90.1786728 105.47686,90 L105.47686,30 C105.47686,29.6151496 105.06029,29.3745808 104.726957,29.5669313 Z M104.476,30.866 L104.476,89.71 L53.488,119.133 L53.488,60.289 L104.476,30.866 Z" id="路径-11" fill="#0B83FF" fill-rule="nonzero"></path>
                        <path d="M52.7385269,-0.433068723 L0.750097056,29.5669313 C0.416634315,29.7593564 0.416634315,30.2406436 0.750097056,30.4330687 L52.7385269,60.4330687 C52.8931781,60.5223104 53.0836816,60.5223104 53.2383328,60.4330687 L105.226763,30.4330687 C105.560225,30.2406436 105.560225,29.7593564 105.226763,29.5669313 L53.2383328,-0.433068723 C53.0836816,-0.522310426 52.8931781,-0.522310426 52.7385269,-0.433068723 Z M52.988,0.577 L103.975,30 L52.988,59.422 L2,30 L52.988,0.577 Z" id="路径-12" fill="#0B83FF" fill-rule="nonzero"></path>
                        <path d="M0.5,30 L0.5,90 C0.5,90.1786728 0.595341826,90.343767 0.750097056,90.4330687 L52.7385269,120.433069 C53.0718602,120.625419 53.4884299,120.38485 53.4884299,120 L53.4884299,60 C53.4884299,59.8213272 53.393088,59.656233 53.2383328,59.5669313 L1.24990294,29.5669313 C0.916569623,29.3745808 0.5,29.6151496 0.5,30 Z M1.5,30.866 L52.488,60.289 L52.488,119.133 L1.5,89.711 L1.5,30.866 Z" id="路径-14" fill="#0B83FF" fill-rule="nonzero"></path>
                    </g>
                </g>
            </g>
        </g>
    </g>
</svg>