<?xml version="1.0" encoding="UTF-8"?>
<svg width="64px" height="64px" viewBox="0 0 64 64" version="1.1" xmlns="http://www.w3.org/2000/svg" xmlns:xlink="http://www.w3.org/1999/xlink">
    <title>引导</title>
    <g id="应用" stroke="none" stroke-width="1" fill="none" fill-rule="evenodd">
        <g id="智慧社区" transform="translate(-998.000000, -1797.000000)" fill="#000000" fill-rule="nonzero">
            <g id="引导" transform="translate(998.000000, 1797.000000)">
                <rect id="矩形" opacity="0" x="0" y="0" width="64" height="64"></rect>
                <path d="M49.4044643,24.2857143 L14.6901786,24.2857143 C14.1116071,24.2857143 13.5330357,23.9964286 13.1473214,23.5142857 L7.36160714,15.8 C6.87946429,15.125 6.87946429,14.1607143 7.36160714,13.4857143 L13.1473214,5.77142857 C13.5330357,5.28928571 14.1116071,5 14.6901786,5 L49.4044643,5 C50.4651786,5 51.3330357,5.86785714 51.3330357,6.92857143 L51.3330357,22.3571429 C51.3330357,23.4178571 50.4651786,24.2857143 49.4044643,24.2857143 Z M15.6544643,20.4285714 L47.4758929,20.4285714 L47.4758929,8.85714286 L15.6544643,8.85714286 L11.3151786,14.6428571 L15.6544643,20.4285714 Z M49.4044643,49.3571429 L14.6901786,49.3571429 C13.6294643,49.3571429 12.7616071,48.4892857 12.7616071,47.4285714 L12.7616071,32 C12.7616071,30.9392857 13.6294643,30.0714286 14.6901786,30.0714286 L49.4044643,30.0714286 C49.9830357,30.0714286 50.5616071,30.3607143 50.9473214,30.8428571 L56.7330357,38.5571429 C57.2151786,39.2321429 57.2151786,40.1964286 56.7330357,40.8714286 L50.9473214,48.5857143 C50.5616071,49.0678571 49.9830357,49.3571429 49.4044643,49.3571429 L49.4044643,49.3571429 Z M16.61875,45.5 L48.4401786,45.5 L52.7794643,39.7142857 L48.4401786,33.9285714 L16.61875,33.9285714 L16.61875,45.5 Z M32.0473214,33.9285714 C30.9866071,33.9285714 30.11875,33.0607143 30.11875,32 L30.11875,22.3571429 C30.11875,21.2964286 30.9866071,20.4285714 32.0473214,20.4285714 C33.1080357,20.4285714 33.9758929,21.2964286 33.9758929,22.3571429 L33.9758929,32 C33.9758929,33.0607143 33.1080357,33.9285714 32.0473214,33.9285714 Z M32.0473214,59 C30.9866071,59 30.11875,58.1321429 30.11875,57.0714286 L30.11875,47.4285714 C30.11875,46.3678571 30.9866071,45.5 32.0473214,45.5 C33.1080357,45.5 33.9758929,46.3678571 33.9758929,47.4285714 L33.9758929,57.0714286 C33.9758929,58.1321429 33.1080357,59 32.0473214,59 Z" id="形状"></path>
            </g>
        </g>
    </g>
</svg>