<?xml version="1.0" encoding="UTF-8"?>
<svg width="54px" height="54px" viewBox="0 0 54 54" version="1.1" xmlns="http://www.w3.org/2000/svg" xmlns:xlink="http://www.w3.org/1999/xlink">
    <title>系统模块</title>
    <g id="应用" stroke="none" stroke-width="1" fill="none" fill-rule="evenodd">
        <g id="报建平台" transform="translate(-395.000000, -1656.000000)" fill-rule="nonzero">
            <g id="系统模块" transform="translate(395.000000, 1656.000000)">
                <rect id="矩形" fill="#000000" opacity="0" x="0" y="0" width="54" height="54"></rect>
                <path d="M12.6190476,28.9047619 L23.4761904,28.9047619 L23.4761904,18.047619 L12.6190476,18.047619 L12.6190476,28.9047619 Z M12.6190476,32.5238095 L12.6190476,43.3809524 L23.4761904,43.3809524 L23.4761904,32.5238095 L12.6190476,32.5238095 L12.6190476,32.5238095 Z M27.0952381,28.9047619 L37.8311429,28.9047619 C39.8342857,28.9047619 41.5714286,30.3541904 41.5714286,32.3229524 L41.5714286,43.5818095 C41.5714286,45.5523809 39.8324762,47 37.8311429,47 L10.8095238,47 C10.3296082,47 9.86934877,46.8093543 9.52999723,46.4700027 C9.19064569,46.1306512 9,45.6703917 9,45.1904762 L9,16.2380952 C9,15.2387228 9.8101514,14.4285714 10.8095238,14.4285714 L25.2857143,14.4285714 C26.2850867,14.4285714 27.0952381,15.2387228 27.0952381,16.2380952 L27.0952381,28.9047619 Z M27.0952381,32.5238095 L27.0952381,43.3809524 L37.8311429,43.3809524 C37.9342857,43.3809524 37.9505714,43.3863809 37.9523809,43.4786666 L37.9523809,32.4260952 C37.9505714,32.5165714 37.9342857,32.5238095 37.8311429,32.5238095 L27.0952381,32.5238095 L27.0952381,32.5238095 Z M34.3333333,12.6190476 L34.3333333,21.6666666 L43.3809524,21.6666666 L43.3809524,12.6190476 L34.3333333,12.6190476 Z M32.5238095,9 L45.1904762,9 C45.6703917,9 46.1306512,9.19064569 46.4700027,9.52999723 C46.8093543,9.86934877 47,10.3296082 47,10.8095238 L47,23.4761904 C47,23.956106 46.8093543,24.4163655 46.4700028,24.755717 C46.1306512,25.0950686 45.6703917,25.2857143 45.1904762,25.2857143 L32.5238095,25.2857143 C32.0438939,25.2857143 31.5836345,25.0950686 31.2442829,24.755717 C30.9049314,24.4163655 30.7142857,23.956106 30.7142857,23.4761904 L30.7142857,10.8095238 C30.7142857,9.8101514 31.5244371,9 32.5238095,9 L32.5238095,9 Z" id="形状" fill="#6B768F"></path>
            </g>
        </g>
    </g>
</svg>