<?xml version="1.0" encoding="UTF-8"?>
<svg width="54px" height="54px" viewBox="0 0 54 54" version="1.1" xmlns="http://www.w3.org/2000/svg" xmlns:xlink="http://www.w3.org/1999/xlink">
    <title>三维商用</title>
    <g id="应用" stroke="none" stroke-width="1" fill="none" fill-rule="evenodd">
        <g id="报建平台" transform="translate(-1007.000000, -2233.000000)" fill-rule="nonzero">
            <g id="三维商用" transform="translate(1007.000000, 2233.000000)">
                <rect id="矩形" fill="#000000" opacity="0" x="0" y="0" width="54" height="54"></rect>
                <path d="M18.5939935,15.9046294 C19.1912832,15.6050301 19.8988218,15.6253362 20.4779929,15.9586996 L33.1939884,23.310235 L40.7849858,16.3662281 C41.167927,16.0087126 41.6816466,15.8259725 42.2040205,15.8614498 C42.7263944,15.8969271 43.2107649,16.1474529 43.5419848,16.553471 C44.2519846,17.4005698 44.1739846,18.6862374 43.3559849,19.4342075 L35.0429878,27.0390715 C34.8294959,27.2360392 34.5745587,27.3824935 34.296988,27.4676274 C33.6885009,27.8001378 32.9511716,27.7921747 32.3499887,27.4466001 L19.6859931,20.126105 L14.160995,26.2800871 C13.8169212,26.6731843 13.3242691,26.9041848 12.8024027,26.91712 C12.2805363,26.9300552 11.7770729,26.7237448 11.413996,26.3481754 C10.6339963,25.5661611 10.5979963,24.265474 11.331996,23.4474129 L17.5669939,16.5034061 C17.8365316,16.1989347 18.196498,15.9890617 18.5939935,15.9046294 L18.5939935,15.9046294 Z M25.0599912,39.0506514 L24.9999948,39.0506514 L24.9999948,37.0480539 L6.00299791,37.0480539 C5.20633028,37.0499188 4.44172661,36.7339953 3.87820837,36.1701208 C3.31469012,35.6062463 2.99866723,34.84086 2.99999476,34.0431563 L2.99999476,7.00909126 C2.99866626,6.21147921 3.31472091,5.44619504 3.87826827,4.88247929 C4.44181563,4.31876354 5.20642242,4.00306336 6.00299791,4.005195 L24.9999948,4.005195 L24.9999948,2.00059491 C24.9999948,0.895161086 25.887991,0 26.9999948,0 C28.1049902,0 28.9999948,0.899166265 28.9999948,2.00059491 L28.9999948,4.005195 L47.9969833,4.005195 C48.7936509,4.00333009 49.5582546,4.31925355 50.1217728,4.88312808 C50.6852911,5.44700261 51.001314,6.21238894 50.9999948,7.01009259 L50.9999948,34.0441576 C51.0013149,34.8417697 50.6852603,35.6070538 50.1217129,36.1707696 C49.5581655,36.7344853 48.7935587,37.0501855 47.9969833,37.0480539 L28.9999948,37.0480539 L28.9999948,38.7682852 C29.0689899,38.8143449 29.1359898,38.8654111 29.1999898,38.9214839 L37.7379868,44.4816958 C38.5749865,45.20964 38.6639865,46.476283 37.9399868,47.3103648 C37.2099871,48.1514558 35.9499875,48.2315597 35.1139878,47.5046168 L27.2299905,42.3709581 L19.1169933,47.4605597 C18.7110776,47.8042423 18.1851159,47.9717889 17.6554942,47.9261244 C17.1258725,47.8804598 16.6362582,47.6253493 16.2949943,47.2172441 C15.9539139,46.8095364 15.7886245,46.2828206 15.8355126,45.7530475 C15.8824007,45.2232743 16.1376227,44.7338731 16.5449942,44.3925802 L25.0619913,39.0506514 L25.0599912,39.0506514 Z M6.99999128,10.0169928 L6.99999128,31.0362562 C6.99999128,32.151703 7.89399723,33.0428589 8.99699686,33.0428589 L45.0029843,33.0428589 C45.5336727,33.0423289 46.042371,32.8305254 46.4169674,32.4541275 C46.7915638,32.0777297 47.0013113,31.5676326 46.9999913,31.0362562 L46.9999913,10.0169928 C47.0021117,9.485373 46.792622,8.97481065 46.4178521,8.59823859 C46.0430823,8.22166653 45.5339185,8.01011942 45.0029843,8.01038979 L8.99699686,8.01038979 C8.46630849,8.01092002 7.95761021,8.22272356 7.58301378,8.59912139 C7.20841734,8.97551923 6.99866989,9.48561635 6.99999128,10.0169928 Z" id="形状" fill="#778198"></path>
            </g>
        </g>
    </g>
</svg>