<?xml version="1.0" encoding="UTF-8"?><svg version="1.1" width="24px" height="24px" viewBox="0 0 24.0 24.0" xmlns="http://www.w3.org/2000/svg" xmlns:xlink="http://www.w3.org/1999/xlink"><defs><clipPath id="i0"><path d="M1920,0 L1920,1080 L0,1080 L0,0 L1920,0 Z"></path></clipPath><clipPath id="i1"><path d="M10.3758581,5.51124181 L14.5593422,9.69607396 C15.1468859,10.2829299 15.1468859,11.2440299 14.5593422,11.8315461 L11.8310991,14.5604496 C11.2442156,15.1479933 10.2831431,15.1479933 9.69559938,14.5604496 L5.51148254,10.3763327 L10.3758581,5.51124181 Z M5.30456569,0.440637157 L9.42579037,4.56186184 L4.56072697,9.42626495 L0.440162577,5.30440749 C-0.146720859,4.71815683 -0.146720859,3.75708431 0.440162577,3.16954059 L3.16906601,0.440637157 C3.75658222,-0.146879052 4.71831503,-0.146879052 5.30456569,0.440637157 Z M4.44336129,1.00220966 L1.00242288,4.4432031 L4.44333378,7.88477428 L7.88495999,4.4432031 L4.44336129,1.00220966 Z"></path></clipPath><clipPath id="i2"><path d="M5.10972656,0 L6.3466875,4.695375 L10.2918047,6.11685938 L6.36379688,7.58475 L5.18264063,12.2933437 L3.94514063,7.59855469 L0,6.17763281 L3.92800781,4.71028125 L5.10972656,0 Z"></path></clipPath><linearGradient id="i3" x1="0.02653356px" y1="6.11593854px" x2="10.4212563px" y2="6.11593854px" gradientUnits="userSpaceOnUse"><stop stop-color="#3022AD" offset="0%"></stop><stop stop-color="#52A0FD" offset="47.5247532%"></stop><stop stop-color="#B4EC50" offset="100%"></stop></linearGradient><clipPath id="i4"><path d="M3.08296242,1.30801387 C3.24556722,1.31513403 3.39142189,1.41015448 3.46364062,1.55601563 L4.11750248,2.87662919 C4.19047534,3.02401346 4.33125909,3.12608809 4.49402618,3.14962602 L5.85381223,3.34626622 C6.12711172,3.38578837 6.3166257,3.63938042 6.27710355,3.91267991 C6.25608155,4.05804905 6.17220413,4.18682193 6.04773881,4.2648123 L4.88313155,4.99455898 C4.74377195,5.08188215 4.65626489,5.23215162 4.64909475,5.39645324 L4.58485249,6.86854475 C4.57410269,7.11487314 4.36569964,7.30584733 4.11937124,7.29509753 C3.95680444,7.28800309 3.81097314,7.19302036 3.73876172,7.04719922 L3.08489177,5.72679786 C3.01192872,5.57945893 2.87119339,5.47740687 2.70847519,5.45384517 L1.3483024,5.25689129 C1.07501025,5.21731841 0.88554334,4.9636912 0.925116216,4.69039905 C0.946162032,4.54505565 1.03004156,4.41631401 1.15449281,4.33834275 L2.31873563,3.60892066 C2.45808717,3.52161405 2.54560062,3.37136938 2.55279435,3.20708443 L2.61727022,1.73463342 C2.62805983,1.48822833 2.83655733,1.29722426 3.08296242,1.30801387 Z"></path></clipPath><linearGradient id="i5" x1="0.0185687245px" y1="4.27995365px" x2="7.29300696px" y2="4.27995365px" gradientUnits="userSpaceOnUse"><stop stop-color="#3022AD" offset="0%"></stop><stop stop-color="#52A0FD" offset="47.5247532%"></stop><stop stop-color="#B4EC50" offset="100%"></stop></linearGradient><clipPath id="i6"><path d="M1.98002344,0 L2.67227344,1.97172656 L4.41417188,2.44464844 L2.77942969,3.21035156 L2.43414844,5.27214844 L1.74192188,3.29985937 L0,2.82583594 L1.63474219,2.06067187 L1.98002344,0 Z"></path></clipPath><linearGradient id="i7" x1="0.0113802873px" y1="2.62289386px" x2="4.4696939px" y2="2.62289386px" gradientUnits="userSpaceOnUse"><stop stop-color="#3022AD" offset="0%"></stop><stop stop-color="#52A0FD" offset="47.5247532%"></stop><stop stop-color="#B4EC50" offset="100%"></stop></linearGradient></defs><g transform="translate(-596.0 -342.0)"><g clip-path="url(#i0)"><g transform="translate(596.0 342.0000000000001)"><g transform="translate(9.0 9.000000000000002)"><g clip-path="url(#i1)"><polygon points="8.32667268e-16,0 15,0 15,15.0011074 8.32667268e-16,15.0011074 8.32667268e-16,0" stroke="none" fill="#FFFFFF"></polygon></g></g><g transform="translate(0.6850078124999968 0.8662499999999795)"><g clip-path="url(#i2)"><polygon points="0,0 10.2918047,0 10.2918047,12.2933437 0,12.2933437 0,0" stroke="none" fill="url(#i3)"></polygon></g><polygon points="5.10972656,0 6.3466875,4.695375 10.2918047,6.11685938 6.36379688,7.58475 5.18264063,12.2933437 3.94514063,7.59855469 0,6.17763281 3.92800781,4.71028125 5.10972656,0 5.10972656,0" stroke="#FFFFFF" stroke-width="1" fill="none" stroke-linejoin="round"></polygon></g><g transform="translate(12.082054687500008 1.4780625000000178)"><g clip-path="url(#i4)"><polygon points="0.919890551,1.30757836 6.28231581,1.30757836 6.28231581,7.29552998 0.919890551,7.29552998 0.919890551,1.30757836" stroke="none" fill="url(#i5)"></polygon><path d="M3.46364062,1.55601563 L4.11750248,2.87662919 C4.19047534,3.02401346 4.33125909,3.12608809 4.49402618,3.14962602 L5.85381223,3.34626622 C6.12711172,3.38578837 6.3166257,3.63938042 6.27710355,3.91267991 C6.25608155,4.05804905 6.17220413,4.18682193 6.04773881,4.2648123 L4.88313155,4.99455898 C4.74377195,5.08188215 4.65626489,5.23215162 4.64909475,5.39645324 L4.58485249,6.86854475 C4.57410269,7.11487314 4.36569964,7.30584733 4.11937124,7.29509753 C3.95680444,7.28800309 3.81097314,7.19302036 3.73876172,7.04719922 L3.08489177,5.72679786 C3.01192872,5.57945893 2.87119339,5.47740687 2.70847519,5.45384517 L1.3483024,5.25689129 C1.07501025,5.21731841 0.88554334,4.9636912 0.925116216,4.69039905 C0.946162032,4.54505565 1.03004156,4.41631401 1.15449281,4.33834275 L2.31873563,3.60892066 C2.45808717,3.52161405 2.54560062,3.37136938 2.55279435,3.20708443 L2.61727022,1.73463342 C2.62805983,1.48822833 2.83655733,1.29722426 3.08296242,1.30801387 C3.24556722,1.31513403 3.39142189,1.41015448 3.46364062,1.55601563 Z" stroke="#FFFFFF" stroke-width="2" fill="none" stroke-linejoin="round"></path></g></g><g transform="translate(4.270476562500008 14.158218749999888)"><g clip-path="url(#i6)"><polygon points="0,0 4.41417188,0 4.41417188,5.27214844 0,5.27214844 0,0" stroke="none" fill="url(#i7)"></polygon><polygon points="1.98002344,0 2.67227344,1.97172656 4.41417188,2.44464844 2.77942969,3.21035156 2.43414844,5.27214844 1.74192188,3.29985937 0,2.82583594 1.63474219,2.06067187 1.98002344,0 1.98002344,0" stroke="#FFFFFF" stroke-width="2" fill="none" stroke-linejoin="round"></polygon></g></g></g></g></g></svg>