<?xml version="1.0" encoding="UTF-8"?>
<svg width="54px" height="54px" viewBox="0 0 54 54" version="1.1" xmlns="http://www.w3.org/2000/svg" xmlns:xlink="http://www.w3.org/1999/xlink">
    <title>管理</title>
    <g id="应用" stroke="none" stroke-width="1" fill="none" fill-rule="evenodd">
        <g id="智慧市政" transform="translate(-369.000000, -738.000000)" fill-rule="nonzero">
            <g id="管理" transform="translate(369.000000, 738.000000)">
                <rect id="矩形" fill="#000000" opacity="0" x="0" y="0" width="54" height="54"></rect>
                <path d="M49.5849707,18.6012837 L46.2961529,15.3122437 C45.7459789,14.7620325 44.8595875,14.7620325 44.3094135,15.3122437 L36.1301604,23.4920495 L30.5061597,17.8676688 L38.6854129,9.68786305 C39.2355868,9.1376519 39.2355868,8.2512006 38.6854129,7.70098945 L35.3965951,4.41194947 C34.968682,3.98400746 34.3084732,3.87396523 33.7644123,4.15518426 L15.889871,13.2642355 C15.3458101,13.5393411 15.0462709,14.1323465 15.1379666,14.7375787 L17.412019,29.0980897 L4.40957396,42.0952998 C4.14671306,42.3581785 4,42.7188724 4,43.0917933 C4,43.4647142 4.14671306,43.8254082 4.40957396,44.0882869 L9.91131375,49.5903984 C10.1741747,49.853277 10.5348443,50 10.90774,50 C11.2806357,50 11.6413053,49.853277 11.9041662,49.5903984 L24.9066112,36.5870748 L39.2661521,38.8612809 C39.8652304,38.9590962 40.4643087,38.6534234 40.7393957,38.1093257 L49.8478316,20.2335768 C50.1229186,19.6894791 50.0189968,19.0292257 49.5849707,18.6012837 Z M38.1979348,35.5039788 L24.6202232,33.3542237 C24.189091,33.2833526 23.7520529,33.4250947 23.444945,33.7381085 L11.3496195,45.8275281 L7.95371515,42.4316237 L20.0490406,30.3362982 C20.3561485,30.0291904 20.4978906,29.5921522 20.4329255,29.16102 L18.2831704,15.5833085 L33.792118,7.68118663 L35.3099396,9.19900823 L27.4019118,17.1011301 C26.870379,17.6326629 26.870379,18.4890214 27.4019118,19.0205543 L34.754783,26.3734255 C35.0087376,26.6273801 35.357187,26.7691222 35.7174481,26.7691222 C36.0777093,26.7691222 36.4261586,26.6273801 36.6801132,26.3734255 L44.582235,18.4772096 L46.1000566,19.9950312 L38.1979348,35.5039788 L38.1979348,35.5039788 Z" id="形状" fill="#1890FF"></path>
                <path d="M25.6123591,25.0544673 C25.1219867,24.5640617 24.3319422,24.5640617 23.8415697,25.0544673 C23.3511972,25.5448729 23.3511972,26.3349708 23.8415697,26.8253764 L28.1731931,31.1572924 C28.4183793,31.4024952 28.7398457,31.5223722 29.0613121,31.5223722 C29.3827785,31.5223722 29.7042449,31.4024952 29.9494311,31.1572924 C30.4398036,30.6668869 30.4398036,29.876789 29.9494311,29.3863834 L25.6123591,25.0544673 L25.6123591,25.0544673 Z" id="路径" fill="#00D929"></path>
            </g>
        </g>
    </g>
</svg>