<?xml version="1.0" encoding="UTF-8"?>
<svg width="48px" height="48px" viewBox="0 0 48 48" version="1.1" xmlns="http://www.w3.org/2000/svg" xmlns:xlink="http://www.w3.org/1999/xlink">
    <title>数据资源整合</title>
    <g id="应用" stroke="none" stroke-width="1" fill="none" fill-rule="evenodd">
        <g id="报建平台" transform="translate(-1005.000000, -1659.000000)" fill-rule="nonzero">
            <g id="数据资源整合" transform="translate(1005.000000, 1659.000000)">
                <rect id="矩形" fill="#000000" opacity="0" x="0" y="0" width="48" height="48"></rect>
                <path d="M33.0909091,18.5454545 L37.6363636,18.5454545 C38.1384407,18.5454545 38.5454545,18.9524684 38.5454545,19.4545454 L38.5454545,21.2727273 C38.5454545,21.7748043 38.1384407,22.1818182 37.6363636,22.1818182 L33.0909091,22.1818182 L33.0909091,18.5454545 Z M33.0909091,25.8181818 L37.6363636,25.8181818 C38.1384407,25.8181818 38.5454545,26.2251957 38.5454545,26.7272727 L38.5454545,28.5454546 C38.5454545,28.7865605 38.4496756,29.0177913 38.279188,29.1882789 C38.1087004,29.3587665 37.8774695,29.4545455 37.6363636,29.4545455 L33.0909091,29.4545455 L33.0909091,25.8181818 Z M18.5454545,7.63818182 L18.5454545,40.3654546 L29.4545455,40.3654546 L29.4545455,7.63818182 L18.5454545,7.63818182 Z M20.3636364,14 C20.3636364,13.4979229 20.7706502,13.0909091 21.2727273,13.0909091 L26.7272727,13.0909091 C27.2293498,13.0909091 27.6363636,13.4979229 27.6363636,14 L27.6363636,15.8181818 C27.6363636,16.3202589 27.2293498,16.7272727 26.7272727,16.7272727 L21.2727273,16.7272727 C20.7706502,16.7272727 20.3636364,16.3202589 20.3636364,15.8181818 L20.3636364,14 L20.3636364,14 Z M20.3636364,21.2727273 C20.3636364,20.7706502 20.7706502,20.3636364 21.2727273,20.3636364 L26.7272727,20.3636364 C27.2293498,20.3636364 27.6363636,20.7706502 27.6363636,21.2727273 L27.6363636,23.0909091 C27.6363636,23.5929861 27.2293498,24 26.7272727,24 L21.2727273,24 C20.7706502,24 20.3636364,23.5929861 20.3636364,23.0909091 L20.3636364,21.2727273 L20.3636364,21.2727273 Z M22.1818182,34.9090909 C22.1818182,33.9049368 22.9958459,33.0909091 24,33.0909091 C25.0041541,33.0909091 25.8181818,33.9049368 25.8181818,34.9090909 C25.8181818,35.913245 25.0041541,36.7272728 24,36.7272728 C22.9958459,36.7272728 22.1818182,35.913245 22.1818182,34.9090909 Z M9.45454546,26.7272727 C9.45454546,26.2251957 9.86155932,25.8181818 10.3636364,25.8181818 L14.9090909,25.8181818 L14.9090909,29.4545455 L10.3636364,29.4545455 C10.1225305,29.4545455 9.89129963,29.3587665 9.72081202,29.1882789 C9.5503244,29.0177913 9.45454546,28.7865605 9.45454546,28.5454546 L9.45454546,26.7272727 L9.45454546,26.7272727 Z M9.45454546,19.4545454 C9.45454546,18.9524684 9.86155932,18.5454545 10.3636364,18.5454545 L14.9090909,18.5454545 L14.9090909,22.1818182 L10.3636364,22.1818182 C9.86155932,22.1818182 9.45454546,21.7748043 9.45454546,21.2727273 L9.45454546,19.4545454 L9.45454546,19.4545454 Z M33.0909091,40.3654546 L40.3636364,40.3654546 L40.3636364,11.2745454 L33.0909091,11.2745454 L33.0909091,40.3654546 Z M33.0909091,7.63818182 L42.1818182,7.63636362 C43.1859723,7.63636365 44,8.45039138 44,9.45454546 L44,42.1818182 C44,43.1859723 43.1859723,44 42.1818182,44 L5.81818179,44 C4.81402773,44 4,43.1859723 4,42.1818182 L4,9.45454546 C4,8.45039138 4.81402771,7.63636365 5.81818179,7.63636362 L14.9090909,7.63818182 L14.9090909,5.81818179 C14.9090909,4.81402773 15.7231186,4 16.7272727,4 L31.2727273,4 C32.2768814,4 33.0909091,4.81402773 33.0909091,5.81818179 L33.0909091,7.63818182 Z M7.63636362,11.2745454 L7.63636362,40.3654546 L14.9090909,40.3654546 L14.9090909,11.2745454 L7.63636362,11.2745454 Z" id="形状" fill="#6B768F"></path>
            </g>
        </g>
    </g>
</svg>