<?xml version="1.0" encoding="UTF-8"?><svg version="1.1" width="24px" height="24px" viewBox="0 0 24.0 24.0" xmlns="http://www.w3.org/2000/svg" xmlns:xlink="http://www.w3.org/1999/xlink"><defs><clipPath id="i0"><path d="M1920,0 L1920,1080 L0,1080 L0,0 L1920,0 Z"></path></clipPath><clipPath id="i1"><path d="M14.9667187,0 L21.0063281,2.4628125 L21.0063281,17.8553906 L15.7549219,16.8051562 L10.5030469,17.8553906 L5.25164062,16.8051562 L0,18.9053906 L0,3.0646875 L5.25164063,0 L10.5030469,2.10070313 L14.9667187,0 Z M14.7044531,2.10070312 L9.97828125,4.30992187 L5.251875,2.10070312 L2.1009375,4.20117187 L2.1009375,15.7546875 L5.251875,14.7044531 L10.5032812,15.7546875 L15.7551563,14.7044531 L18.905,15.754 L18.9058594,3.1509375 L14.7044531,2.10070312 Z M10.5035156,6.301875 L10.5035156,13.6542188 L9.45328125,13.6542188 L9.45328125,6.301875 L10.5035156,6.301875 Z M6.30210937,5.25164063 L6.30210937,12.60375 L5.25164062,12.60375 L5.25164062,5.25164063 L6.30210937,5.25164063 Z M15.7549219,5.25164063 L15.7549219,12.60375 L14.7044531,12.60375 L14.7044531,5.25164063 L15.7549219,5.25164063 Z"></path></clipPath></defs><g transform="translate(-816.0 -342.0)"><g clip-path="url(#i0)"><g transform="translate(799.0 334.0)"><g transform="translate(17.0 8.0)"><g transform="translate(1.4967187499999994 2.6245312499999986)"><g clip-path="url(#i1)"><polygon points="0,0 21.0063281,0 21.0063281,18.9053906 0,18.9053906 0,0" stroke="none" fill="#E9EBED"></polygon></g></g></g></g></g></g></svg>