<?xml version="1.0" encoding="UTF-8"?><svg version="1.1" width="24px" height="24px" viewBox="0 0 24.0 24.0" xmlns="http://www.w3.org/2000/svg" xmlns:xlink="http://www.w3.org/1999/xlink"><defs><clipPath id="i0"><path d="M1920,0 L1920,1080 L0,1080 L0,0 L1920,0 Z"></path></clipPath><clipPath id="i1"><path d="M6,0 L6,6 L0,6 L0,0 L6,0 Z"></path></clipPath></defs><g transform="translate(-670.0 -342.0)"><g clip-path="url(#i0)"><g transform="translate(670.0 342.0)"><g transform="translate(0.0 6.0)"><g clip-path="url(#i1)"><polygon points="0,0 6,0 6,6 0,6 0,0" stroke="none" fill="#FFFFFF"></polygon></g></g><g transform="translate(0.0 12.0)"><g clip-path="url(#i1)"><polygon points="0,0 6,0 6,6 0,6 0,0" stroke="none" fill="#FFFFFF"></polygon></g></g><g transform="translate(6.0 12.0)"><g clip-path="url(#i1)"><polygon points="0,0 6,0 6,6 0,6 0,0" stroke="none" fill="#FFFFFF"></polygon></g></g><g transform="translate(0.0 18.0)"><g clip-path="url(#i1)"><polygon points="0,0 6,0 6,6 0,6 0,0" stroke="none" fill="#FFFFFF"></polygon></g></g><g transform="translate(6.0 18.0)"><g clip-path="url(#i1)"><polygon points="0,0 6,0 6,6 0,6 0,0" stroke="none" fill="#FFFFFF"></polygon></g></g><g transform="translate(12.0 18.0)"><g clip-path="url(#i1)"><polygon points="0,0 6,0 6,6 0,6 0,0" stroke="none" fill="#FFFFFF"></polygon></g></g><g transform="translate(12.0 6.0)"><g clip-path="url(#i1)"><polygon points="0,0 6,0 6,6 0,6 0,0 0,0" stroke="#FFFFFF" stroke-width="2" fill="none" stroke-miterlimit="5"></polygon></g></g><g transform="translate(6.0 0.0)"><g clip-path="url(#i1)"><polygon points="0,0 6,0 6,6 0,6 0,0 0,0" stroke="#FFFFFF" stroke-width="2" fill="none" stroke-miterlimit="5"></polygon></g></g><g transform="translate(18.0 12.0)"><g clip-path="url(#i1)"><polygon points="0,0 6,0 6,6 0,6 0,0 0,0" stroke="#FFFFFF" stroke-width="2" fill="none" stroke-miterlimit="5"></polygon></g></g><g transform="translate(18.0 0.0)"><g clip-path="url(#i1)"><polygon points="0,0 6,0 6,6 0,6 0,0 0,0" stroke="#FFFFFF" stroke-width="2" fill="none" stroke-miterlimit="5"></polygon></g></g></g></g></g></svg>