<?xml version="1.0" encoding="UTF-8"?>
<svg width="54px" height="54px" viewBox="0 0 54 54" version="1.1" xmlns="http://www.w3.org/2000/svg" xmlns:xlink="http://www.w3.org/1999/xlink">
    <title>感知系统</title>
    <g id="应用" stroke="none" stroke-width="1" fill="none" fill-rule="evenodd">
        <g id="智慧市政" transform="translate(-972.000000, -737.000000)" fill-rule="nonzero">
            <g id="感知系统" transform="translate(972.000000, 737.000000)">
                <rect id="矩形" fill="#000000" opacity="0" x="0" y="0" width="54" height="54"></rect>
                <path d="M43.46875,27.5094421 L41.226875,27.5094421 L38.549375,20.5566162 C38.2394977,19.7465786 37.4478664,19.2090739 36.5625,19.2075603 C35.6959404,19.2168772 34.9149254,19.7200079 34.565,20.494352 L29.65625,32.22076 C29.6275872,32.305932 29.5461693,32.3635005 29.454375,32.3635005 C29.3625807,32.3635005 29.2811628,32.305932 29.2525,32.22076 L23.716875,14.4754877 C23.3986642,13.4468675 22.3292174,12.8255582 21.251875,13.0434132 C20.5459816,13.2080621 19.9645551,13.6948118 19.69,14.3509595 L13.91,27.5301968 L10.53125,27.5301968 C10.3903538,27.5301968 10.2552282,27.5848631 10.1555995,27.6821696 C10.0559708,27.7794762 10,27.9114522 10,28.0490645 L10,31.1622701 C10,31.2998824 10.0559708,31.4318584 10.1555995,31.5291649 C10.2552282,31.6264715 10.3903538,31.6811377 10.53125,31.6811377 L15.3125,31.6811377 C16.1781989,31.6718099 16.9515533,31.1504687 17.2675,30.363214 L21.124375,21.583974 C21.145745,21.4948011 21.2271689,21.4317396 21.3209375,21.4317396 C21.4147061,21.4317396 21.49613,21.4948011 21.5175,21.583974 L27.095625,39.4849066 C27.3511407,40.3749854 28.1785663,40.9927259 29.125,41 C29.9854621,40.9940878 30.75734,40.4819363 31.08,39.702831 L36.265,27.4056686 C36.2977439,27.3278142 36.3753869,27.2769826 36.4615625,27.2769826 C36.547738,27.2769826 36.6253811,27.3278142 36.658125,27.4056686 L37.720625,30.2698178 C38.0215084,31.1106212 38.8381201,31.6701786 39.75,31.660383 L43.46875,31.660383 C43.6096462,31.660383 43.7447718,31.6057168 43.8444005,31.5084102 C43.9440292,31.4111037 44,31.2791277 44,31.1415154 L44,28.0283098 C44,27.8906975 43.9440292,27.7587215 43.8444005,27.6614149 C43.7447718,27.5641083 43.6096462,27.5094421 43.46875,27.5094421 L43.46875,27.5094421 Z" id="路径" fill="#00D929"></path>
                <path d="M27,3 C13.745166,3 3,13.745166 3,27 C3,40.254834 13.745166,51 27,51 C40.254834,51 51,40.254834 51,27 C50.988856,13.7497847 40.2502153,3.01114401 27,3 Z M27,47 C15.954305,47 7,38.045695 7,27 C7,15.954305 15.954305,7 27,7 C38.045695,7 47,15.954305 47,27 C46.9888361,38.0410675 38.0410675,46.9888361 27,47 Z" id="形状" fill="#1890FF"></path>
            </g>
        </g>
    </g>
</svg>