<?xml version="1.0" encoding="UTF-8"?>
<svg width="54px" height="54px" viewBox="0 0 54 54" version="1.1" xmlns="http://www.w3.org/2000/svg" xmlns:xlink="http://www.w3.org/1999/xlink">
    <title>建设与完善</title>
    <g id="应用" stroke="none" stroke-width="1" fill="none" fill-rule="evenodd">
        <g id="智慧市政" transform="translate(-973.000000, -928.000000)" fill-rule="nonzero">
            <g id="建设与完善" transform="translate(973.000000, 928.000000)">
                <rect id="矩形" fill="#000000" opacity="0" x="0" y="0" width="54" height="54"></rect>
                <path d="M32.5211944,11.1208713 L32.5211944,44.0544286 L34.922296,44.0544286 L34.922296,44.0078431 L40.4616191,44.0078431 L40.4616191,24.6539335 L34.922296,22.6787121 L34.922296,18.9763364 L42.7155268,21.7539916 C43.4043486,22.2070348 43.8401807,22.9570599 43.9034281,23.7781278 L43.9114778,23.9854329 L43.9103278,44.0532639 L46.5471698,44.0532639 L46.5471698,47.5471698 L10.6226415,47.5471698 L10.6226415,44.0532639 L13.2445341,44.0532639 L13.2456841,17.3307067 C13.2456841,16.4129741 13.7125649,15.560461 14.4807335,15.0724789 L28.4986592,8.86147875 C30.2500375,7.75391057 32.5211944,9.02802161 32.5211944,11.118542 L32.5211944,11.1208713 Z M29.0713357,12.4229335 L16.6955428,17.9060366 L16.6955428,44.0066785 L29.0724857,44.0066785 L29.0724857,29.4242798 L29.0494866,29.4347615 L29.0494866,27.8182477 L29.0724857,27.8729855 L29.0724857,21.1483813 L29.0494866,21.158863 L29.0494866,19.5470077 L29.0724857,19.600581 L29.0724857,12.4229335 L29.0713357,12.4229335 Z" id="形状" fill="#1890FF"></path>
                <polygon id="路径" fill="#00D929" points="26.7323316 26.6244965 26.7323316 30.4037381 19.0368468 33.6227901 19.0368468 29.8423839 26.7323316 26.6244965"></polygon>
                <polygon id="路径" fill="#00D929" points="26.7323316 18.361409 26.7323316 22.1569554 19.0368468 25.4738368 19.0368468 21.6771257"></polygon>
            </g>
        </g>
    </g>
</svg>