<?xml version="1.0" encoding="UTF-8"?><svg version="1.1" width="24px" height="24px" viewBox="0 0 24.0 24.0" xmlns="http://www.w3.org/2000/svg" xmlns:xlink="http://www.w3.org/1999/xlink"><defs><clipPath id="i0"><path d="M1920,0 L1920,1080 L0,1080 L0,0 L1920,0 Z"></path></clipPath><clipPath id="i1"><path d="M12.3114904,12.0000218 L15.8434982,18.1170218 C14.1431023,19.3443479 12.0985513,20.0033544 10.0014904,20.0000498 C9.25547478,20.0000498 8.52849041,19.9180296 7.8284826,19.7630374 L12.3114904,12.0000218 Z M9.42445916,13.0000296 L5.89149041,19.1190218 C3.29299766,17.9451968 1.31760046,15.7195989 0.459498221,13.0000296 L9.42445916,13.0000296 Z M19.9514826,9.00002176 C20.2409634,11.8374844 19.3005951,14.6629664 17.3684826,16.7610452 L12.8894826,9.00002176 L19.9514826,9.00002176 Z M2.63449822,3.23901395 L7.11349822,11.0000374 L0.0514982209,11.0000374 C-0.237982561,8.16257474 0.702385689,5.33709273 2.63449822,3.23901395 Z M10.0014904,1.08432168e-05 C10.747506,1.08432168e-05 11.4744904,0.0820295754 12.1744982,0.237021763 L7.69149041,8.00003739 L4.16049041,1.88303739 C5.86060731,0.655913364 7.90477363,-0.00308289061 10.0014904,1.08432168e-05 Z M14.1114904,0.880029575 C16.7099832,2.05486231 18.6853804,4.28046029 19.5434826,7.00002958 L10.5785217,7.00002958 L14.1114904,0.881037388 Z"></path></clipPath></defs><g transform="translate(-743.0 -342.0)"><g clip-path="url(#i0)"><g transform="translate(743.0 342.0)"><g transform="translate(1.9985095915842415 1.999970424562008)"><g clip-path="url(#i1)"><polygon points="0,1.55431223e-15 20.0029808,1.55431223e-15 20.0029808,20.0000622 0,20.0000622 0,1.55431223e-15" stroke="none" fill="#FFFFFF"></polygon></g></g></g></g></g></svg>