<?xml version="1.0" encoding="UTF-8"?>
<svg width="54px" height="54px" viewBox="0 0 54 54" version="1.1" xmlns="http://www.w3.org/2000/svg" xmlns:xlink="http://www.w3.org/1999/xlink">
    <title>微观</title>
    <g id="应用" stroke="none" stroke-width="1" fill="none" fill-rule="evenodd">
        <g id="报建平台" transform="translate(-1002.000000, -1945.000000)" fill-rule="nonzero">
            <g id="微观" transform="translate(1002.000000, 1945.000000)">
                <rect id="矩形" fill="#000000" opacity="0" x="0" y="0" width="54" height="54"></rect>
                <path d="M9.37229268,36.2669268 L4.3832195,41.2612683 C3.07668291,42.6837073 3.07668291,43.9902439 4.3832195,45.4179512 L8.18165855,49.1004878 C9.48819514,50.5281951 10.9159025,50.5281951 12.222439,49.1004878 L24.4659512,36.8569756 C25.5354146,35.7875122 25.7724878,34.723317 25.1771707,33.6485854 C27.9061463,35.550439 30.8827317,36.3828293 34.3229268,36.504 C38.8378536,36.3828293 42.6468293,34.8392195 45.8499512,31.6308293 C49.0636098,28.422439 50.6019512,24.6187317 50.6019512,20.1038049 C50.6019512,15.588878 49.0530732,11.7799024 45.8499512,8.5767805 C42.6362927,5.36312196 38.8378537,3.8247805 34.3229268,3.8247805 C29.808,3.70360978 25.9990244,5.37365855 22.7959025,8.46087804 L22.6747317,8.58204877 C19.5822439,11.790439 17.9227317,15.5941463 17.9227317,20.1090732 C17.9227317,23.3227317 18.755122,26.1676098 20.304,28.6700488 C19.1133659,27.6005854 17.9227317,27.7164878 16.6214634,29.0282927 L9.37229268,36.2669268 Z M7.94458536,43.7531707 C7.94458536,43.1578536 8.18165855,42.7996098 8.53990246,42.4466341 L17.2167805,33.7697561 C17.4538537,33.4115122 17.928,33.2956098 18.4074146,33.2956098 C18.8868293,33.2956098 19.3609756,33.4167805 19.5980488,33.7697561 C19.9562927,34.128 20.1933659,34.4809756 20.1933659,35.0762927 C20.1933659,35.550439 19.9562927,35.9086829 19.5980488,36.2669268 L11.0370732,44.9438049 C10.5629268,45.3020488 10.204683,45.4179512 9.73053659,45.4179512 C9.25639022,45.4179512 8.77697564,45.2967805 8.53990246,44.9438049 C8.18165855,44.5908293 7.94458536,44.2325854 7.94458536,43.7531707 L7.94458536,43.7531707 Z M25.5354146,11.3110244 C27.9166829,8.92975614 30.8827317,7.74965855 34.3334634,7.74965855 C37.7841951,7.62848782 40.6343415,8.81912196 43.0103415,11.3110244 C45.5075122,13.6922927 46.692878,16.6583415 46.692878,20.1090732 C46.692878,23.5598049 45.5022439,26.4099512 43.0103415,28.907122 C40.6290732,31.2883902 37.6630244,32.5896585 34.3334634,32.5896585 C30.888,32.5896585 27.9166829,31.283122 25.5354146,28.907122 C23.0382439,26.4099512 21.8528606,23.5598049 21.8528606,20.1090732 C21.8476098,16.6583415 23.0382439,13.8081951 25.5354146,11.3110244 Z" id="形状" fill="#778198"></path>
            </g>
        </g>
    </g>
</svg>