<?xml version="1.0" encoding="UTF-8"?>
<svg width="24px" height="24px" viewBox="0 0 24 24" version="1.1" xmlns="http://www.w3.org/2000/svg" xmlns:xlink="http://www.w3.org/1999/xlink">
    <title>黑暗模式</title>
    <g id="页面-2" stroke="none" stroke-width="1" fill="none" fill-rule="evenodd">
        <g id="环境选择-雾" transform="translate(-105.000000, -678.000000)" fill="#FFFFFF" fill-rule="nonzero">
            <g id="ODLine" transform="translate(105.000000, 677.135368)">
                <path d="M20.4722222,3.86463195 L20.3033333,3.89629861 L14.6666667,6.08129861 L8.33333333,3.86463195 L2.38,5.8701875 C2.15833333,5.94407639 2,6.13407639 2,6.37685417 L2,22.3368542 C2,22.6324097 2.23222222,22.8646319 2.52777778,22.8646319 L2.69666667,22.8329653 L8.33333333,20.6479653 L14.6666667,22.8646319 L20.62,20.8590764 C20.8416667,20.7851875 21,20.5951875 21,20.3524097 L21,4.39240973 C21,4.09685417 20.7677778,3.86463195 20.4722222,3.86463195 Z M14.6666667,20.7535208 L8.33333333,18.5262986 L8.33333333,5.97574306 L14.6666667,8.20296528 L14.6666667,20.7535208 Z" id="形状"></path>
            </g>
        </g>
    </g>
</svg>