<?xml version="1.0" encoding="UTF-8"?>
<svg width="54px" height="54px" viewBox="0 0 54 54" version="1.1" xmlns="http://www.w3.org/2000/svg" xmlns:xlink="http://www.w3.org/1999/xlink">
    <title>宏观</title>
    <g id="应用" stroke="none" stroke-width="1" fill="none" fill-rule="evenodd">
        <g id="报建平台" transform="translate(-395.000000, -2233.000000)" fill-rule="nonzero">
            <g id="宏观" transform="translate(395.000000, 2233.000000)">
                <rect id="矩形" fill="#000000" opacity="0" x="0" y="0" width="54" height="54"></rect>
                <path d="M27.6624,49.9176 C15.005359,49.9176 4.74480002,39.657041 4.74480002,27 C4.74480002,14.342959 15.005359,4.0824 27.6624,4.0824 C40.319441,4.0824 50.58,14.342959 50.58,27 C50.5641324,39.6504626 40.3128626,49.9017324 27.6624,49.9176 Z M27.6624,6.9552 C16.5968765,6.9552 7.6261263,15.9248774 7.62480138,26.9904009 C7.62347647,38.0559243 16.5920785,47.027749 27.6576017,47.0304 C38.7231249,47.03305 47.6960239,38.0655228 47.7,27 C47.6880952,15.938474 38.723926,6.9743048 27.6624,6.96239998 L27.6624,6.9552 Z" id="形状" fill="#778198"></path>
                <path d="M17.7264,23.7600031 L13.3416,23.7600031 C12.9613054,23.7564729 12.585996,23.6730708 12.24,23.5152 L6.84000002,21.0312 L8.04960002,18.4176 L13.3848,20.88 L17.7048,20.88 L18.864,20.1096 L18.864,18.0936 C18.8637668,17.6209845 18.9879254,17.1566316 19.224,16.7472 L21.1032,13.5 C21.8194076,12.2669275 23.3727262,11.8059834 24.6456,12.4488 L26.496,13.3848 C26.64,12.0384 27.0432,10.08 28.6632,10.08 L32.9832,10.08 L37.0008,6.96239998 L38.7648,9.23760002 L34.6896,12.3912 C34.2168738,12.7549233 33.63726,12.9523463 33.0408,12.9528 L29.4768,12.9528 C29.4192,13.1976 29.3472,13.5504 29.2752,14.0472 C29.1507315,14.90506 28.6208984,15.6505451 27.8516575,16.0501507 C27.0824167,16.4497564 26.1678416,16.4546132 25.3944,16.0632 L23.472,15.12 L21.708,18.144 L21.708,20.2104 C21.7097106,21.1098522 21.2610362,21.9504409 20.5128,22.4496 L19.224,23.3064 C18.7808925,23.6029036 18.2595586,23.7608076 17.7264,23.7600031 Z" id="路径" fill="#778198"></path>
                <path d="M28.1808,43.8624006 C27.9682873,43.8624006 27.7562073,43.8432395 27.5472,43.8048 C26.4062626,43.5868778 25.5347364,42.660155 25.3872,41.508 L24.408,34.1496 L20.232,28.3896 C19.6786049,27.6356902 19.5585209,26.6477266 19.9152,25.7832 L21.3552,22.2408 C21.6396546,21.5835019 22.1729832,21.0657071 22.8384,20.8008 L26.5608,19.296 C27.2945603,18.999398 28.1217889,19.0415498 28.8216,19.4112 L31.68,20.88 C32.0774593,21.0883921 32.4165333,21.3928162 32.6664,21.7656 L34.596,24.6456 L36.2592,25.1136 C37.0888439,25.3481658 37.7560062,25.9658107 38.0537315,26.7749397 C38.3514567,27.5840686 38.2437417,28.4868357 37.764,29.2032 L31.68,38.3688 L31.68,40.464 C31.6486098,42.3473656 30.1148236,43.8587374 28.2312,43.8624006 L28.1808,43.8624006 Z M22.6296,26.7984 L26.7696,32.4864 C27.0336357,32.8518483 27.201955,33.2775972 27.2592,33.7248 L28.2024,40.9752 C28.3262052,40.9695309 28.4448801,40.9240809 28.5408,40.8456 C28.6715077,40.7400759 28.7481135,40.581581 28.7496,40.4136 L28.7496,38.2536 C28.7599939,37.7401009 28.9174151,37.2403509 29.2032,36.8136 L35.28,27.8496 L33.7968,27.432 C33.1781637,27.2597076 32.6417436,26.8714416 32.2848,26.3376 L30.348,23.4576 L27.6192,22.0176 L24.0192,23.4576 L22.6296,26.7984 Z" id="形状" fill="#778198"></path>
            </g>
        </g>
    </g>
</svg>