<?xml version="1.0" encoding="UTF-8"?>
<svg width="54px" height="54px" viewBox="0 0 54 54" version="1.1" xmlns="http://www.w3.org/2000/svg" xmlns:xlink="http://www.w3.org/1999/xlink">
    <title>成果管理</title>
    <g id="应用" stroke="none" stroke-width="1" fill="none" fill-rule="evenodd">
        <g id="报建平台" transform="translate(-395.000000, -1953.000000)" fill-rule="nonzero">
            <g id="成果管理" transform="translate(395.000000, 1953.000000)">
                <rect id="矩形" fill="#000000" opacity="0" x="0" y="0" width="54" height="54"></rect>
                <path d="M43.3898437,32.0097656 L42.1347656,32.0097656 L42.1347656,9.59765625 C42.1347656,7.99980469 40.8322266,6.69726562 39.234375,6.69726562 L14.765625,6.69726562 C13.1677734,6.69726562 11.8652344,7.99980469 11.8652344,9.59765625 L11.8652344,32.0097656 L10.6101562,32.0097656 C9.06503906,32.0097656 7.8046875,33.2542969 7.8046875,34.7783203 L7.8046875,43.5322266 C7.8046875,45.0615234 9.06503906,46.3007812 10.6101562,46.3007812 L43.3845703,46.3007812 C44.9296875,46.3007812 46.1900556,45.05625 46.1900556,43.5322266 L46.1900556,34.7783203 C46.1953125,33.2542969 44.9349609,32.0097656 43.3898437,32.0097656 Z M14.2910156,9.59765625 C14.2910156,9.33398438 14.5019531,9.12304688 14.765625,9.12304688 L39.234375,9.12304688 C39.4980469,9.12304688 39.7089844,9.33398438 39.7089844,9.59765625 L39.7089844,32.0097656 L32.3103516,32.0097656 C31.640625,32.0097656 31.0974609,32.5529297 31.0974609,33.2226562 C31.0974609,34.6992188 29.8529297,35.9015625 28.3236328,35.9015625 L25.6710938,35.9015625 C24.1417969,35.9015625 22.8972656,34.6992188 22.8972656,33.2226562 C22.8972656,32.5529297 22.3541016,32.0097656 21.684375,32.0097656 L14.2910156,32.0097656 L14.2910156,9.59765625 Z M43.7695312,43.5322266 C43.7695312,43.7220703 43.6007812,43.875 43.3898437,43.875 L10.6101562,43.875 C10.3992187,43.875 10.2304688,43.7220703 10.2304688,43.5322266 L10.2304688,34.7783203 C10.2304688,34.5884766 10.3992187,34.4355469 10.6101562,34.4355469 L20.6244141,34.4355469 C21.178125,36.6662109 23.2347656,38.3273437 25.6763672,38.3273437 L28.3289062,38.3273437 C30.7705078,38.3273437 32.821875,36.6662109 33.3808594,34.4355469 L43.3951172,34.4355469 C43.6060547,34.4355469 43.7748047,34.5884766 43.7748047,34.7783203 L43.7748047,43.5322266 L43.7695312,43.5322266 Z M19.9335938,18.0878906 L34.1191406,18.0878906 C34.7888672,18.0878906 35.3320313,17.5447266 35.3320313,16.875 C35.3320313,16.2052734 34.7888672,15.6621094 34.1191406,15.6621094 L19.9335938,15.6621094 C19.2638672,15.6621094 18.7207031,16.2052734 18.7207031,16.875 C18.7207031,17.5447266 19.2638672,18.0878906 19.9335938,18.0878906 Z M28.2128906,23.7832031 C28.2128906,23.1134766 27.6697266,22.5703125 27,22.5703125 L19.9335938,22.5703125 C19.2638672,22.5703125 18.7207031,23.1134766 18.7207031,23.7832031 C18.7207031,24.4529297 19.2638672,24.9960938 19.9335938,24.9960938 L27,24.9960938 C27.6697266,24.9960938 28.2128906,24.4529297 28.2128906,23.7832031 Z" id="形状" fill="#6B768F"></path>
            </g>
        </g>
    </g>
</svg>