<?xml version="1.0" encoding="UTF-8"?>
<svg width="54px" height="54px" viewBox="0 0 54 54" version="1.1" xmlns="http://www.w3.org/2000/svg" xmlns:xlink="http://www.w3.org/1999/xlink">
    <title>智能</title>
    <g id="应用" stroke="none" stroke-width="1" fill="none" fill-rule="evenodd">
        <g id="智慧市政" transform="translate(-368.000000, -927.000000)">
            <g id="智能" transform="translate(368.000000, 927.000000)">
                <rect id="矩形" x="0" y="0" width="54" height="54" rx="5"></rect>
                <g transform="translate(2.000000, 8.000000)" fill-rule="nonzero">
                    <rect id="矩形" fill="#000000" opacity="0" x="0" y="0" width="37.254902" height="38"></rect>
                    <path d="M13.9679398,35.3456622 L11.2097868,35.3456622 C6.57459309,35.3456622 2.81702613,31.4838936 2.81702613,26.7201607 C2.81702613,21.9564278 6.57459309,18.0946593 11.2097868,18.0946593 L12.6771731,18.0946593 C12.7360463,18.0946593 13.2053655,18.155165 13.6769064,17.6123253 C14.1484472,17.0694856 13.9701615,16.5848683 13.9701615,15.983806 C13.9701615,8.80587724 19.663087,2.95508047 26.5884614,2.95508047 C29.8731405,2.95565128 32.8662308,4.22398984 35.0961914,6.3359848 C35.3311287,6.57743719 35.2722556,6.57743719 35.5655106,6.81831876 C35.8593211,7.23786369 36.268101,7.47760367 36.798515,7.47760367 C37.572041,7.46685306 38.1965675,6.82500765 38.2070281,6.03003092 C38.2070281,5.54769693 37.9720908,5.12529796 37.6199625,4.76340477 C37.3850252,4.52195239 37.4438984,4.58245818 37.1506433,4.34100579 C34.3919349,1.62851934 30.694588,0 26.5862398,0 C18.31067,0 11.5619151,6.69502391 11.1509137,15.079073 C4.9924341,15.079073 0,20.2099529 0,26.5392141 C0,32.8684753 4.9924341,37.9993553 11.1509137,37.9993553 L13.8507489,37.9993553 C14.6242748,37.9886046 15.2488014,37.3467592 15.259262,36.5517825 C15.3181351,35.9484369 14.7310695,35.3456621 13.9679398,35.3456622 Z M40.1759472,35.4706694 C40.1759472,36.4936583 40.775553,37.415917 41.6951695,37.8073979 C42.6147859,38.1988787 43.6733102,37.9824863 44.3771541,37.2591239 C45.0809981,36.5357616 45.2915516,35.4478832 44.910634,34.5027648 C44.5297164,33.5576464 43.6323429,32.9414128 42.6369572,32.9414128 C41.2777789,32.9414128 40.1759472,34.0737996 40.1759472,35.4706694 L40.1759472,35.4706694 Z" id="形状" fill="#1890FF"></path>
                    <path d="M23.901238,16.0628786 C24.7992666,16.0732035 25.6312415,15.5912328 26.0705302,14.8061878 L32.2141981,14.8061878 L38.2381731,20.8405886 L38.2484325,20.8514418 L41.9378251,20.8514418 C42.3962617,21.557095 43.1826152,21.9791462 44.0227623,21.9704679 C45.4539479,21.9704679 46.5482834,20.8737195 46.5482834,19.4393783 C46.5482834,18.0050371 45.4539479,16.9082888 44.0227623,16.9082888 C43.1269135,16.8983002 42.2967781,17.3782131 41.8568899,18.1604098 L39.4567613,18.1604098 L34.5254119,13.2878768 L33.3484313,12.1117285 L25.9810454,12.1117285 C25.5218558,11.4104553 24.73814,10.9915807 23.901238,11.0001283 C22.4700523,11.0001283 21.3757168,12.0968767 21.3757168,13.5312179 C21.3757168,14.9655591 22.4700523,16.0628786 23.901238,16.0628786 Z M47.4744788,25.3515374 C46.3978123,25.3515374 45.5115145,25.9724568 45.1376165,26.8938397 L35.8591333,26.8938397 L28.5937715,34.1712219 L24.3304227,34.1712219 C24.0461404,33.6783511 23.5956111,33.3033989 23.0599676,33.113888 C21.796922,32.6077843 20.2819513,33.2852549 19.7763911,34.5482291 C19.2708309,35.8112034 19.947381,37.3323705 21.2075768,37.8390454 C22.3418099,38.245185 23.5541285,37.8693202 24.2437878,36.8628251 L29.7006463,36.8628251 L29.7006463,36.8593978 L29.705206,36.8639676 L36.9699979,29.5825868 L45.3832721,29.5825868 L45.3832721,29.5705911 L45.622088,29.5705911 C46.0851919,30.1118365 46.7630825,30.420591 47.4744788,30.4142876 C48.9056645,30.4142876 50,29.3175393 50,27.8831981 C49.9962435,26.4867857 48.8678183,25.3556172 47.4744788,25.3515374 Z M22.2175572,26.0204396 C23.1005821,26.0298325 23.9206284,25.5632862 24.3651907,24.7985934 L28.4888977,24.7985934 C28.93346,25.5632862 29.7535063,26.0298325 30.6365311,26.0204396 C32.0677167,26.0204396 33.1620523,24.9236913 33.1620523,23.4893501 C33.1620523,22.0550089 32.0677167,20.9582605 30.6365311,20.9582605 C29.7835916,20.9493314 28.9870549,21.3843708 28.5322151,22.1075614 L24.3218732,22.1075614 C23.8670335,21.3843708 23.0704968,20.9493314 22.2175572,20.9582605 C20.7863716,20.9582605 19.6920361,22.0550089 19.6920361,23.4893501 C19.6920361,24.9236913 20.7863716,26.0204396 22.2175572,26.0204396 Z" id="形状" fill="#00D929"></path>
                </g>
            </g>
        </g>
    </g>
</svg>