<?xml version="1.0" encoding="UTF-8"?>
<svg width="24px" height="24px" viewBox="0 0 24 24" version="1.1" xmlns="http://www.w3.org/2000/svg" xmlns:xlink="http://www.w3.org/1999/xlink">
    <title>后期效果</title>
    <g id="CIM一张图" stroke="none" stroke-width="1" fill="none" fill-rule="evenodd">
        <g id="渲染环境" transform="translate(-1408.000000, -470.000000)" fill-rule="nonzero">
            <g id="后期效果" transform="translate(1408.000000, 470.000000)">
                <rect id="矩形" fill="#000000" opacity="0" x="0" y="0" width="24" height="24"></rect>
                <path d="M6.54472631,0.866258461 L7.78168594,5.5616224 L11.7268082,6.98310391 L7.79881221,8.45099213 L6.61765111,13.1596151 L5.38013904,8.46480366 L1.43501681,7.04387459 L5.36301274,5.57653884 L6.54472631,0.866258461 Z M14.7752866,2.22807422 L16.3160996,5.34008564 L19.2844713,5.76934762 L16.7425993,7.36209199 L16.5912251,10.830993 L15.050412,7.71953409 L12.0820404,7.28971962 L14.6233599,5.69752774 L14.7752866,2.22807422 Z M7.00050642,13.4082225 L7.69273973,15.3799549 L9.43464851,15.8528613 L7.79991712,16.6185719 L7.45462917,18.6803554 L6.76239584,16.7080705 L5.02048709,16.2340592 L6.65521845,15.4689011 L7.00050642,13.4082225 Z M9.75065604,12.2579992 L12.0754109,9.93324434 C12.5759403,9.43271489 13.3952396,9.43271489 13.8946641,9.93324434 L17.4055522,13.4441324 L13.2609916,17.5881405 L9.75065604,14.0767 C9.25067906,13.5772755 9.25067906,12.7585286 9.75065604,12.2579992 L9.75065604,12.2579992 Z M18.2149072,14.2529349 L14.0708991,18.3974955 L17.6353759,21.9619723 C18.1359053,22.4625017 18.9546522,22.4625017 19.4546291,21.9619723 L21.7788315,19.6372174 C22.279361,19.136688 22.279361,18.3179411 21.7788315,17.8179642 L18.2149072,14.2529349 L18.2149072,14.2529349 Z M10.2296395,13.3430321 L13.1609963,16.2749413 L16.0929055,13.3430321 L13.1609963,10.4116753 L10.2296395,13.3430321 Z" id="形状" fill="#FFFFFF"></path>
            </g>
        </g>
    </g>
</svg>