<?xml version="1.0" encoding="UTF-8"?>
<svg width="152px" height="34px" viewBox="0 0 152 34" version="1.1" xmlns="http://www.w3.org/2000/svg" xmlns:xlink="http://www.w3.org/1999/xlink">
    <title>logo</title>
    <g id="页面-1" stroke="none" stroke-width="1" fill="none" fill-rule="evenodd">
        <g id="基础平台-平台概览" transform="translate(-326.000000, -16.000000)" fill="#FFFFFF">
            <g id="logo" transform="translate(326.000000, 16.000000)">
                <path d="M17.7322413,0.140327344 L17.7322413,5.58455391 L14.2919873,6.10610859 L14.2919873,4.18798359 L3.4432254,5.81967891 L3.45262222,16.5975305 L15.6956698,14.7562336 L15.6936381,14.7420539 L19.5509079,14.1619758 C19.6364952,14.1490852 19.750781,14.1320695 19.8797968,14.1124758 L19.8797968,14.1124758 L19.9024,14.1091242 C19.9864635,14.0964914 20.0766222,14.0830852 20.1693206,14.0689055 L20.1693206,14.0689055 L20.2114794,14.062718 C20.4768762,14.022757 20.7572571,13.9807336 20.9766857,13.9477336 L20.9766857,13.9477336 L21.1961143,13.9147336 C21.2321778,13.9093195 21.2631619,13.9046789 21.2888127,13.9008117 L21.2888127,13.9008117 L21.3589079,13.8902414 C21.3650032,13.8892102 21.3708444,13.8884367 21.3708444,13.8884367 L21.3708444,13.8884367 L21.3708444,10.1653664 L10.5208127,11.7970617 L10.5208127,14.0129602 L7.08055873,14.5502414 L7.08055873,8.78400703 L24.8113524,6.11771016 L24.8113524,13.371007 L24.8631619,13.3632727 L24.8631619,13.342132 C25.246654,13.284382 25.4074159,13.2753586 25.4556698,13.2740695 L25.4556698,13.2740695 L31.9562413,12.2964445 L31.9562413,30.3335227 L14.2257016,33.0000773 L14.2257016,25.7465227 L7.08055873,26.8210852 L7.08055873,21.5230383 L10.5208127,20.9702883 L10.5208127,22.7734289 L21.3708444,21.1417336 L21.3708444,17.4186633 L20.4568127,17.5560773 L19.5509079,17.6924602 L16.2744635,18.1851398 L16.2767492,18.1993195 L0.0159238095,20.6446711 L-7.61904762e-05,2.80688203 L17.7322413,0.140327344 Z M28.5162413,16.3441008 L25.4739556,16.801718 L25.4739556,16.8040383 L25.4104635,16.811257 L24.8113524,16.9012336 L24.8113524,24.1547883 L17.6659556,25.229093 L17.6659556,28.9521633 L28.5162413,27.320468 L28.5162413,16.3441008 Z M3,22 L3,26.4454212 L-3.55271368e-15,27 L-3.55271368e-15,22.5545788 L3,22 Z M32,6 L32,10.431414 L29,11 L29,6.56832826 L32,6 Z" id="形状结合"></path>
                <path d="M51.171875,17.265625 L51.96875,15.40625 L48.78125,15.40625 C48.0729167,15.40625 47.5638021,15.3177083 47.2539062,15.140625 C46.9440104,15.0078125 46.7890625,14.7421875 46.7890625,14.34375 C46.7890625,13.9453125 46.8997396,13.1484375 47.1210938,11.953125 L47.1210938,11.953125 L47.71875,8.5 C47.8958333,7.703125 48.0729167,7.171875 48.25,6.90625 C48.3828125,6.68489583 48.5598958,6.52994792 48.78125,6.44140625 C49.0026042,6.35286458 49.2903646,6.30859375 49.6445312,6.30859375 L49.6445312,6.30859375 L52.8320312,6.30859375 L53.6289062,4.3828125 L49.3789062,4.3828125 C48.7148438,4.3828125 48.2057292,4.42708333 47.8515625,4.515625 C47.4973958,4.6484375 47.2096354,4.78125 46.9882812,4.9140625 C46.6341146,5.13541667 46.3463542,5.46744792 46.125,5.91015625 C45.9036458,6.39713542 45.7265625,6.99479167 45.59375,7.703125 L45.59375,7.703125 L44.7304688,12.6835938 C44.5533854,13.5247396 44.4648438,14.2109375 44.4648438,14.7421875 C44.4648438,15.671875 44.7304688,16.3138021 45.2617188,16.6679688 C45.7929688,17.0664062 46.65625,17.265625 47.8515625,17.265625 L47.8515625,17.265625 L51.171875,17.265625 Z M57.9777778,17.265625 L60.2355903,4.3828125 L57.9113715,4.3828125 L55.653559,17.265625 L57.9777778,17.265625 Z M64.3852431,17.265625 L66.3774306,6.2421875 L69.7641493,6.2421875 L67.7719618,17.265625 L70.0961806,17.265625 L72.0219618,6.2421875 L74.3461806,6.2421875 C74.6118056,6.28645833 74.8110243,6.375 74.9438368,6.5078125 C75.0766493,6.68489583 75.1430556,6.92838542 75.1430556,7.23828125 C75.1430556,7.54817708 75.0323785,8.3671875 74.8110243,9.6953125 L74.8110243,9.6953125 L73.5493056,17.265625 L75.8071181,17.265625 L77.2016493,9.03125 C77.4230035,7.96875 77.5336806,7.171875 77.5336806,6.640625 C77.5336806,5.79947917 77.290191,5.20182292 76.8032118,4.84765625 C76.2719618,4.53776042 75.3201389,4.3828125 73.9477431,4.3828125 L73.9477431,4.3828125 L64.3852431,4.3828125 L62.1274306,17.265625 L64.3852431,17.265625 Z M95.0689592,11.7232323 L95.2653083,10.4437447 L92.4509706,10.4437447 L93.1054677,5.45374298 L95.3962077,5.45374298 L95.5925569,4.17425537 L93.3018169,4.17425537 L93.498166,2.83079338 L91.665574,2.83079338 L91.4692249,4.17425537 L85.70965,4.17425537 L85.9059991,2.83079338 L84.0734071,2.83079338 L83.877058,4.17425537 L81.586318,4.17425537 L81.3899688,5.45374298 L83.6807088,5.45374298 L82.960762,10.4437447 L80.3427734,10.4437447 L80.1464242,11.7232323 L95.0689592,11.7232323 Z M91.1419763,6.28540993 L85.3824014,6.28540993 L85.5133008,5.45374298 L91.2728757,5.45374298 L91.1419763,6.28540993 Z M90.8801774,8.3325901 L85.1206025,8.3325901 L85.251502,7.50092316 L91.0110769,7.50092316 L90.8801774,8.3325901 Z M90.5529289,10.4437447 L84.8588037,10.4437447 L84.9897031,9.54810333 L90.6838283,9.54810333 L90.5529289,10.4437447 Z M84.0994489,13.7786471 C85.0923965,13.038456 85.9186956,12.36712 86.5783462,11.7646389 L86.5783462,11.7646389 L84.1046566,11.7646389 C82.9329089,12.840498 81.4573748,13.934288 79.6780543,15.0460091 L79.6780543,15.0460091 L81.421,15.047 L81.3975036,15.2270455 L86.0565602,15.2270455 L85.8726501,16.7610121 L80.0488293,16.7610121 L79.8036157,18.2252529 L93.2290553,18.2252529 L93.4129655,16.7610121 L87.650448,16.7610121 L87.8343582,15.2270455 L92.2482013,15.2270455 L92.285,15.019 L92.4370846,15.153595 L95.1060654,15.153595 L91.1351427,11.7646389 L88.9218416,11.7646389 L91.015,13.833 L87.9569649,13.8325305 L88.140875,12.577467 L86.4243805,12.577467 L86.2404703,13.8325305 L84.026,13.833 L84.0994489,13.7786471 Z M112.196267,18.328125 L112.993142,11.3554688 L111.26658,11.3554688 L110.602517,16.9335938 L109.14158,16.9335938 L109.938455,10.2929688 L112.926736,10.2929688 L113.657205,4.25 L111.930642,4.25 L111.332986,8.83203125 L110.137674,8.83203125 L110.801736,3.0546875 L109.075174,3.0546875 L108.344705,8.83203125 L107.149392,8.83203125 L107.680642,4.25 L106.020486,4.25 L105.223611,10.2929688 L108.145486,10.2929688 L107.348611,16.9335938 L105.821267,16.9335938 L106.551736,11.3554688 L104.825174,11.3554688 L103.895486,18.328125 L112.196267,18.328125 Z M103.060678,17.2209678 L103.864995,10.0525744 C103.909679,9.54220335 103.909679,9.19422309 103.864995,9.00863361 C103.775626,8.86944151 103.641573,8.77664677 103.462836,8.7302494 C103.284099,8.68385204 103.060678,8.66065335 102.792572,8.66065335 L102.792572,8.66065335 L101.183939,8.66065335 C101.72015,7.45432178 102.166993,6.29438758 102.524467,5.18085074 L102.524467,5.18085074 L104.803364,5.18085074 L105.004443,3.6497376 L99.0390954,3.6497376 L98.8380163,5.18085074 L100.781781,5.18085074 C100.200886,7.12954021 99.1954903,9.37981256 97.7655942,11.9316678 L97.7655942,11.9316678 L98.7709899,11.9316678 L98.1007261,17.2209678 L103.060678,17.2209678 Z M101.519071,15.7594507 L100.044491,15.7594507 L100.781781,10.1221704 L101.92123,10.1221704 C102.055282,10.1221704 102.122309,10.1917665 102.122309,10.3309586 L102.122309,10.3309586 L101.519071,15.7594507 Z M123.849826,17.9296875 L124.646701,12.0859375 L131.22092,12.0859375 L131.420139,10.6914062 L124.84592,10.6914062 L125.709201,4.58203125 L131.420139,4.58203125 L131.619358,3.1875 L118.537326,3.1875 L118.338108,4.58203125 L123.78342,4.58203125 L122.920139,10.6914062 L116.744358,10.6914062 L116.545139,12.0859375 L122.72092,12.0859375 L121.857639,17.9296875 L123.849826,17.9296875 Z M121.990451,9.76171875 C121.37066,8.07942708 120.905816,6.66276042 120.59592,5.51171875 L120.59592,5.51171875 L118.802951,5.51171875 C119.201389,7.06119792 119.599826,8.47786458 119.998264,9.76171875 L119.998264,9.76171875 L121.990451,9.76171875 Z M128.166233,9.828125 C128.830295,8.58854167 129.494358,7.14973958 130.15842,5.51171875 L130.15842,5.51171875 L128.299045,5.51171875 C127.767795,7.01692708 127.059462,8.45572917 126.174045,9.828125 L126.174045,9.828125 L128.166233,9.828125 Z M149.979948,9.9609375 C149.802865,9.6953125 149.29375,8.87630208 148.452604,7.50390625 C147.567187,6.17578125 146.92526,5.20182292 146.526823,4.58203125 L146.526823,4.58203125 L144.534635,4.58203125 C144.888802,5.24609375 145.530729,6.33072917 146.460417,7.8359375 L146.460417,7.8359375 L138.558073,7.8359375 C139.310677,7.08333333 140.085417,6.2421875 140.882292,5.3125 C141.679167,4.42708333 142.365365,3.63020833 142.940885,2.921875 L142.940885,2.921875 L140.483854,2.921875 C139.73125,3.8515625 138.823698,4.9140625 137.761198,6.109375 C136.698698,7.3046875 135.658333,8.38932292 134.640104,9.36328125 L134.640104,9.36328125 L146.39401,9.36328125 L146.792448,8.5 L147.655729,9.9609375 L149.979948,9.9609375 Z M147.058073,18.1953125 L147.788542,12.5507812 C147.877083,12.0195312 147.854948,11.6432292 147.722135,11.421875 C147.545052,11.2447917 147.213021,11.15625 146.726042,11.15625 L146.726042,11.15625 L135.968229,11.15625 L134.905729,18.1953125 L147.058073,18.1953125 Z M145.265104,16.6679688 L137.163542,16.6679688 L137.628385,12.6835938 L145.597135,12.6835938 C145.774219,12.6835938 145.840625,12.7721354 145.796354,12.9492188 L145.796354,12.9492188 L145.265104,16.6679688 Z" id="CIM基础平台" fill-rule="nonzero"></path>
                <path d="M47.640625,31.171875 L48.15625,29.96875 L46.09375,29.96875 C45.6354167,29.96875 45.3059896,29.9114583 45.1054688,29.796875 C44.9049479,29.7109375 44.8046875,29.5390625 44.8046875,29.28125 C44.8046875,29.0234375 44.8763021,28.5078125 45.0195312,27.734375 L45.0195312,27.734375 L45.40625,25.5 C45.5208333,24.984375 45.6354167,24.640625 45.75,24.46875 C45.8359375,24.3255208 45.9505208,24.2252604 46.09375,24.1679688 C46.2369792,24.1106771 46.4231771,24.0820312 46.6523438,24.0820312 L46.6523438,24.0820312 L48.7148438,24.0820312 L49.2304688,22.8359375 L46.4804688,22.8359375 C46.0507812,22.8359375 45.7213542,22.8645833 45.4921875,22.921875 C45.2630208,23.0078125 45.0768229,23.09375 44.9335938,23.1796875 C44.7044271,23.3229167 44.5182292,23.5377604 44.375,23.8242188 C44.2317708,24.1393229 44.1171875,24.5260417 44.03125,24.984375 L44.03125,24.984375 L43.4726562,28.2070312 C43.3580729,28.7513021 43.3007812,29.1953125 43.3007812,29.5390625 C43.3007812,30.140625 43.4726562,30.5559896 43.8164062,30.7851562 C44.1601562,31.0429688 44.71875,31.171875 45.4921875,31.171875 L45.4921875,31.171875 L47.640625,31.171875 Z M51.525,31.171875 L52.9859375,22.8359375 L51.4820312,22.8359375 L50.0210937,31.171875 L51.525,31.171875 Z M55.1515625,31.171875 L56.440625,24.0390625 L58.6320312,24.0390625 L57.3429687,31.171875 L58.846875,31.171875 L60.0929687,24.0390625 L61.596875,24.0390625 C61.76875,24.0677083 61.8976562,24.125 61.9835937,24.2109375 C62.0695312,24.3255208 62.1125,24.4830729 62.1125,24.6835938 C62.1125,24.8841146 62.0408854,25.4140625 61.8976562,26.2734375 L61.8976562,26.2734375 L61.08125,31.171875 L62.5421875,31.171875 L63.4445312,25.84375 C63.5877604,25.15625 63.659375,24.640625 63.659375,24.296875 C63.659375,23.7526042 63.5018229,23.3658854 63.1867187,23.1367188 C62.8429687,22.9361979 62.2270833,22.8359375 61.3390625,22.8359375 L61.3390625,22.8359375 L55.1515625,22.8359375 L53.690625,31.171875 L55.1515625,31.171875 Z M72.4164062,31.171875 C73.1611979,31.171875 73.7197917,31.0429688 74.0921875,30.7851562 C74.4359375,30.5559896 74.6651042,30.1119792 74.7796875,29.453125 L74.7796875,29.453125 L74.865625,28.765625 C74.9515625,28.2786458 74.9945312,27.9635417 74.9945312,27.8203125 C74.9945312,27.5052083 74.9085937,27.2617188 74.7367187,27.0898438 C74.5648437,26.9179688 74.2927083,26.8033854 73.9203125,26.7460938 C74.3213542,26.6888021 74.6364583,26.5598958 74.865625,26.359375 C75.0947917,26.1588542 75.2523437,25.8580729 75.3382812,25.4570312 L75.3382812,25.4570312 L75.4242187,25.0273438 C75.4815104,24.7122396 75.5101562,24.3828125 75.5101562,24.0390625 C75.5101562,23.7239583 75.4528646,23.4804688 75.3382812,23.3085938 C75.1950521,23.1367188 74.9802083,23.0078125 74.69375,22.921875 C74.4072917,22.8645833 73.9632812,22.8359375 73.3617187,22.8359375 L73.3617187,22.8359375 L70.396875,22.8359375 L68.9359375,31.171875 L72.4164062,31.171875 Z M72.7171875,26.2734375 L71.25625,26.2734375 L71.6859375,24.0390625 L73.0179687,24.0390625 C73.5049479,24.0390625 73.7914062,24.0677083 73.8773437,24.125 C73.9632812,24.2109375 74.00625,24.3398438 74.00625,24.5117188 C74.00625,24.5976562 73.9919271,24.7695312 73.9632812,25.0273438 L73.9632812,25.0273438 L73.8773437,25.5 C73.8200521,25.8151042 73.7197917,26.015625 73.5765625,26.1015625 C73.4333333,26.2161458 73.146875,26.2734375 72.7171875,26.2734375 L72.7171875,26.2734375 Z M72.2445312,30.0117188 L70.6117187,30.0117188 L71.084375,27.3476562 L72.7171875,27.3476562 C73.0895833,27.3476562 73.3330729,27.3763021 73.4476562,27.4335938 C73.5335937,27.5195312 73.5765625,27.6341146 73.5765625,27.7773438 C73.5765625,27.8346354 73.5479167,28.0638021 73.490625,28.4648438 L73.490625,28.4648438 L73.4046875,28.9804688 C73.3473958,29.2669271 73.2757812,29.4817708 73.1898437,29.625 C73.1039062,29.7682292 72.9893229,29.8684896 72.8460937,29.9257812 C72.7028646,29.9830729 72.5023437,30.0117188 72.2445312,30.0117188 L72.2445312,30.0117188 Z M80.984375,31.171875 L81.671875,27.1757812 C81.7578125,26.5742188 81.8007812,26.2018229 81.8007812,26.0585938 C81.8007812,25.6861979 81.671875,25.3997396 81.4140625,25.1992188 C81.15625,25.0273438 80.7122396,24.9414062 80.0820312,24.9414062 L80.0820312,24.9414062 L77.2460938,24.9414062 L77.4179688,26.0585938 L79.6523438,26.0585938 C79.9388021,26.0585938 80.1393229,26.0872396 80.2539062,26.1445312 C80.3684896,26.2304688 80.4257812,26.3307292 80.4257812,26.4453125 C80.4257812,26.5885417 80.3971354,26.8606771 80.3398438,27.2617188 L80.3398438,27.2617188 L78.7070312,27.2617188 C78.1054688,27.2617188 77.6757812,27.2903646 77.4179688,27.3476562 C77.1601562,27.4335938 76.9596354,27.5768229 76.8164062,27.7773438 C76.6731771,27.9778646 76.5585938,28.2786458 76.4726562,28.6796875 L76.4726562,28.6796875 L76.3867188,29.0664062 C76.3007812,29.5247396 76.2578125,29.8684896 76.2578125,30.0976562 C76.2578125,30.3554688 76.3151042,30.5559896 76.4296875,30.6992188 C76.5442708,30.8710938 76.7161458,30.9856771 76.9453125,31.0429688 C77.1458333,31.1289062 77.3893229,31.171875 77.6757812,31.171875 L77.6757812,31.171875 L80.984375,31.171875 Z M79.8242188,30.0546875 L78.0625,30.0546875 C77.7760417,30.0546875 77.6328125,29.96875 77.6328125,29.796875 C77.6328125,29.7395833 77.6757812,29.4960938 77.7617188,29.0664062 L77.7617188,29.0664062 L77.8046875,28.8515625 C77.8333333,28.59375 77.9049479,28.4361979 78.0195312,28.3789062 C78.1341146,28.3216146 78.2630208,28.2929688 78.40625,28.2929688 L78.40625,28.2929688 L80.1679688,28.2929688 L79.8242188,30.0546875 Z M85.2554688,31.171875 C85.7710938,31.171875 86.1434896,31.1289062 86.3726563,31.0429688 C86.5731771,30.9856771 86.7307292,30.8567708 86.8453125,30.65625 C86.93125,30.484375 87.0028646,30.2122396 87.0601563,29.8398438 L87.0601563,29.8398438 L87.1890625,29.1953125 C87.2463542,28.765625 87.275,28.4648438 87.275,28.2929688 C87.275,27.9492188 87.1747396,27.7200521 86.9742188,27.6054688 C86.7736979,27.5195312 86.4299479,27.4765625 85.9429688,27.4765625 L85.9429688,27.4765625 L84.6539063,27.4765625 C84.5106771,27.4765625 84.4390625,27.4479167 84.4390625,27.390625 C84.4104167,27.3619792 84.3960938,27.3333333 84.3960938,27.3046875 C84.3960938,27.21875 84.4104167,27.046875 84.4390625,26.7890625 L84.4390625,26.7890625 L84.4820313,26.4453125 C84.5106771,26.2734375 84.5822917,26.1588542 84.696875,26.1015625 C84.7828125,26.0729167 84.8830729,26.0585938 84.9976563,26.0585938 L84.9976563,26.0585938 L87.4039063,26.0585938 L87.8335938,24.9414062 L84.7828125,24.9414062 C84.2958333,24.9414062 83.9520833,25.0273438 83.7515625,25.1992188 C83.5223958,25.3997396 83.3791667,25.7148438 83.321875,26.1445312 L83.321875,26.1445312 L83.15,27.0898438 C83.0927083,27.4335938 83.0640625,27.6914062 83.0640625,27.8632812 C83.0640625,28.1210938 83.15,28.3072917 83.321875,28.421875 C83.4651042,28.5364583 83.7945313,28.59375 84.3101563,28.59375 L84.3101563,28.59375 L85.6421875,28.59375 C85.8427083,28.59375 85.9429688,28.6367188 85.9429688,28.7226562 L85.9429688,28.7226562 L85.8570313,29.3242188 L85.8140625,29.4960938 C85.7854167,29.7539062 85.7424479,29.9114583 85.6851563,29.96875 C85.5992188,30.0260417 85.4559896,30.0546875 85.2554688,30.0546875 L85.2554688,30.0546875 L82.634375,30.0546875 L82.8492188,31.171875 L85.2554688,31.171875 Z M91.2453125,23.9101562 L91.503125,22.4921875 L90.0851562,22.4921875 L89.8273437,23.9101562 L91.2453125,23.9101562 Z M89.95625,31.171875 L91.0304687,24.9414062 L89.6984375,24.9414062 L88.58125,31.171875 L89.95625,31.171875 Z M96.0320312,31.171875 L96.5046875,30.0546875 L94.5710937,30.0546875 C94.1986979,30.0546875 93.9408854,30.0117188 93.7976562,29.9257812 C93.6544271,29.8684896 93.5828125,29.7252604 93.5828125,29.4960938 C93.5828125,29.3528646 93.6257812,29.0377604 93.7117187,28.5507812 L93.7117187,28.5507812 L93.9695312,27.0898438 C94.0554687,26.6601562 94.1700521,26.3736979 94.3132812,26.2304688 C94.4565104,26.1158854 94.7286458,26.0585938 95.1296875,26.0585938 L95.1296875,26.0585938 L96.7625,26.0585938 L97.2351562,24.9414062 L95.1726562,24.9414062 C94.5997396,24.9414062 94.184375,24.984375 93.9265625,25.0703125 C93.6401042,25.15625 93.4395833,25.2708333 93.325,25.4140625 C93.1244792,25.5572917 92.98125,25.7578125 92.8953125,26.015625 C92.7807292,26.3020833 92.6804687,26.6744792 92.5945312,27.1328125 L92.5945312,27.1328125 L92.3796875,28.5507812 C92.2651042,29.0950521 92.2078125,29.4960938 92.2078125,29.7539062 C92.2078125,30.2695312 92.3653646,30.6276042 92.6804687,30.828125 C92.9955729,31.0572917 93.496875,31.171875 94.184375,31.171875 L94.184375,31.171875 L96.0320312,31.171875 Z M103.757812,33.1484375 L104.101562,31.171875 L105.648438,31.171875 C106.106771,31.171875 106.49349,31.1432292 106.808594,31.0859375 C107.095052,31.0286458 107.324219,30.9140625 107.496094,30.7421875 C107.639323,30.6276042 107.768229,30.4557292 107.882812,30.2265625 C107.997396,29.9973958 108.111979,29.5963542 108.226562,29.0234375 L108.226562,29.0234375 L108.441406,27.5625 C108.55599,27.0182292 108.613281,26.6315104 108.613281,26.4023438 C108.613281,25.8580729 108.455729,25.4713542 108.140625,25.2421875 C107.825521,25.0416667 107.324219,24.9414062 106.636719,24.9414062 L106.636719,24.9414062 L103.84375,24.9414062 L102.382812,33.1484375 L103.757812,33.1484375 Z M105.734375,30.0976562 L104.273438,30.0976562 L105.003906,26.0585938 L106.292969,26.0585938 C106.636719,26.0585938 106.880208,26.0872396 107.023438,26.1445312 C107.166667,26.2304688 107.238281,26.3736979 107.238281,26.5742188 C107.238281,26.8033854 107.195312,27.1328125 107.109375,27.5625 L107.109375,27.5625 L106.851562,29.0234375 C106.765625,29.4244792 106.651042,29.6966146 106.507812,29.8398438 C106.450521,29.9544271 106.35026,30.0260417 106.207031,30.0546875 C106.063802,30.0833333 105.90625,30.0976562 105.734375,30.0976562 L105.734375,30.0976562 Z M111.982031,31.171875 L112.454687,30.0546875 L111.853125,30.0546875 C111.538021,30.0546875 111.323177,30.0403646 111.208594,30.0117188 C111.065365,30.0117188 110.965104,29.96875 110.907812,29.8828125 C110.850521,29.8255208 110.821875,29.7395833 110.821875,29.625 C110.821875,29.453125 110.879167,29.0950521 110.99375,28.5507812 L110.99375,28.5507812 L112.067969,22.40625 L110.735937,22.40625 L109.61875,28.5507812 C109.504167,29.2382812 109.446875,29.7109375 109.446875,29.96875 C109.446875,30.4270833 109.590104,30.7421875 109.876562,30.9140625 C110.134375,31.0859375 110.578385,31.171875 111.208594,31.171875 L111.208594,31.171875 L111.982031,31.171875 Z M118.057812,31.171875 L118.745312,27.1757812 C118.83125,26.5742188 118.874219,26.2018229 118.874219,26.0585938 C118.874219,25.6861979 118.745312,25.3997396 118.4875,25.1992188 C118.229687,25.0273438 117.785677,24.9414062 117.155469,24.9414062 L117.155469,24.9414062 L114.319531,24.9414062 L114.491406,26.0585938 L116.725781,26.0585938 C117.01224,26.0585938 117.21276,26.0872396 117.327344,26.1445312 C117.441927,26.2304688 117.499219,26.3307292 117.499219,26.4453125 C117.499219,26.5885417 117.470573,26.8606771 117.413281,27.2617188 L117.413281,27.2617188 L115.780469,27.2617188 C115.178906,27.2617188 114.749219,27.2903646 114.491406,27.3476562 C114.233594,27.4335938 114.033073,27.5768229 113.889844,27.7773438 C113.746615,27.9778646 113.632031,28.2786458 113.546094,28.6796875 L113.546094,28.6796875 L113.460156,29.0664062 C113.374219,29.5247396 113.33125,29.8684896 113.33125,30.0976562 C113.33125,30.3554688 113.388542,30.5559896 113.503125,30.6992188 C113.617708,30.8710938 113.789583,30.9856771 114.01875,31.0429688 C114.219271,31.1289062 114.46276,31.171875 114.749219,31.171875 L114.749219,31.171875 L118.057812,31.171875 Z M116.897656,30.0546875 L115.135937,30.0546875 C114.849479,30.0546875 114.70625,29.96875 114.70625,29.796875 C114.70625,29.7395833 114.749219,29.4960938 114.835156,29.0664062 L114.835156,29.0664062 L114.878125,28.8515625 C114.906771,28.59375 114.978385,28.4361979 115.092969,28.3789062 C115.207552,28.3216146 115.336458,28.2929688 115.479687,28.2929688 L115.479687,28.2929688 L117.241406,28.2929688 L116.897656,30.0546875 Z M122.54375,31.171875 L123.016406,30.0546875 L122.242969,30.0546875 C121.95651,30.0546875 121.741667,30.0403646 121.598438,30.0117188 C121.455208,30.0117188 121.369271,29.96875 121.340625,29.8828125 C121.283333,29.8255208 121.254688,29.7395833 121.254688,29.625 C121.254688,29.453125 121.311979,29.0950521 121.426563,28.5507812 L121.426563,28.5507812 L121.85625,26.0585938 L123.575,26.0585938 L123.789844,24.9414062 L122.071094,24.9414062 L122.371875,23.09375 L121.039844,23.09375 L120.696094,24.9414062 L119.879688,24.9414062 L119.664844,26.0585938 L120.48125,26.0585938 L120.051563,28.5507812 C119.936979,29.2382812 119.879688,29.6822917 119.879688,29.8828125 C119.879688,30.3411458 120.03724,30.6705729 120.352344,30.8710938 C120.638802,31.0716146 121.097135,31.171875 121.727344,31.171875 L121.727344,31.171875 L122.54375,31.171875 Z M125.9125,31.171875 L126.814844,26.0585938 L128.404688,26.0585938 L128.619531,24.9414062 L126.986719,24.9414062 L127.072656,24.5546875 C127.158594,24.0963542 127.258854,23.8098958 127.373438,23.6953125 C127.430729,23.609375 127.53099,23.5520833 127.674219,23.5234375 L127.674219,23.5234375 L129.00625,23.5234375 L129.178125,22.40625 L127.889063,22.40625 C127.430729,22.40625 127.101302,22.4348958 126.900781,22.4921875 C126.671615,22.578125 126.49974,22.6783854 126.385156,22.7929688 C126.241927,22.9361979 126.127344,23.1223958 126.041406,23.3515625 C125.926823,23.5807292 125.81224,23.9817708 125.697656,24.5546875 L125.697656,24.5546875 L125.611719,24.9414062 L124.795313,24.9414062 L124.623438,26.0585938 L125.439844,26.0585938 L124.5375,31.171875 L125.9125,31.171875 Z M132.71875,31.2578125 C133.205729,31.2578125 133.606771,31.2148438 133.921875,31.1289062 C134.208333,31.0716146 134.4375,30.9713542 134.609375,30.828125 C134.752604,30.6848958 134.88151,30.4986979 134.996094,30.2695312 C135.110677,30.0403646 135.210938,29.6536458 135.296875,29.109375 L135.296875,29.109375 L135.597656,27.4765625 C135.683594,26.9895833 135.726562,26.6028646 135.726562,26.3164062 C135.726562,25.8007812 135.583333,25.4283854 135.296875,25.1992188 C134.981771,24.9700521 134.466146,24.8554688 133.75,24.8554688 L133.75,24.8554688 L133.019531,24.8554688 C132.532552,24.8554688 132.145833,24.8841146 131.859375,24.9414062 C131.544271,25.0273438 131.300781,25.1419271 131.128906,25.2851562 C130.928385,25.4570312 130.785156,25.671875 130.699219,25.9296875 C130.584635,26.1875 130.498698,26.5455729 130.441406,27.0039062 L130.441406,27.0039062 L130.140625,28.6367188 C130.054688,29.1809896 130.011719,29.5677083 130.011719,29.796875 C130.011719,30.3411458 130.169271,30.7135417 130.484375,30.9140625 C130.770833,31.1432292 131.272135,31.2578125 131.988281,31.2578125 L131.988281,31.2578125 L132.71875,31.2578125 Z M132.847656,30.140625 L132.332031,30.140625 C131.959635,30.140625 131.716146,30.0976562 131.601562,30.0117188 C131.458333,29.9544271 131.386719,29.8111979 131.386719,29.5820312 C131.386719,29.4101562 131.429688,29.0950521 131.515625,28.6367188 L131.515625,28.6367188 L131.773438,27.0039062 C131.859375,26.5742188 131.973958,26.2877604 132.117188,26.1445312 C132.260417,26.0299479 132.532552,25.9726562 132.933594,25.9726562 L132.933594,25.9726562 L133.40625,25.9726562 C133.75,25.9726562 133.99349,26.0013021 134.136719,26.0585938 C134.279948,26.1445312 134.351562,26.2877604 134.351562,26.4882812 C134.351562,26.7174479 134.308594,27.046875 134.222656,27.4765625 L134.222656,27.4765625 L133.964844,29.109375 C133.878906,29.5104167 133.764323,29.7825521 133.621094,29.9257812 C133.563802,30.0117188 133.477865,30.0690104 133.363281,30.0976562 C133.220052,30.1263021 133.048177,30.140625 132.847656,30.140625 L132.847656,30.140625 Z M137.763281,31.171875 L138.49375,27.046875 C138.522396,26.8177083 138.565365,26.6315104 138.622656,26.4882812 C138.679948,26.3450521 138.780208,26.2304688 138.923438,26.1445312 C139.066667,26.0872396 139.28151,26.0585938 139.567969,26.0585938 L139.567969,26.0585938 L140.599219,26.0585938 L141.071875,24.9414062 L139.525,24.9414062 C138.866146,24.9414062 138.39349,24.9986979 138.107031,25.1132812 C137.820573,25.2565104 137.605729,25.4570312 137.4625,25.7148438 C137.319271,26.0013021 137.204688,26.4166667 137.11875,26.9609375 L137.11875,26.9609375 L136.388281,31.171875 L137.763281,31.171875 Z M143.108594,31.171875 L144.010938,26.0585938 L146.116406,26.0585938 L145.214063,31.171875 L146.589063,31.171875 L147.491406,26.0585938 L148.7375,26.0585938 C149.08125,26.0585938 149.32474,26.0872396 149.467969,26.1445312 C149.582552,26.2304688 149.639844,26.359375 149.639844,26.53125 C149.639844,26.6458333 149.596875,26.9752604 149.510938,27.5195312 L149.510938,27.5195312 L148.866406,31.171875 L150.198438,31.171875 L150.885938,27.390625 C151.000521,26.7890625 151.057813,26.3450521 151.057813,26.0585938 C151.057813,25.6575521 150.928906,25.3710938 150.671094,25.1992188 C150.384635,25.0273438 149.897656,24.9414062 149.210156,24.9414062 L149.210156,24.9414062 L142.850781,24.9414062 L141.733594,31.171875 L143.108594,31.171875 Z" id="CIMBasicplatform" fill-rule="nonzero" opacity="0.797016907"></path>
            </g>
        </g>
    </g>
</svg>