<?xml version="1.0" encoding="UTF-8"?>
<svg width="121px" height="121px" viewBox="0 0 121 121" version="1.1" xmlns="http://www.w3.org/2000/svg" xmlns:xlink="http://www.w3.org/1999/xlink">
    <title>日志管理</title>
    <defs>
        <rect id="path-1" x="0" y="0" width="121" height="121" rx="1"></rect>
    </defs>
    <g id="基础数据-电子地图" stroke="none" stroke-width="1" fill="none" fill-rule="evenodd">
        <g id="基础平台-平台概览" transform="translate(-1138.000000, -3394.000000)">
            <g id="运营中心" transform="translate(0.000000, 3205.000000)">
                <g id="编组-8" transform="translate(370.000000, 87.000000)">
                    <g id="日志管理" transform="translate(768.000000, 102.000000)">
                        <mask id="mask-2" fill="white">
                            <use xlink:href="#path-1"></use>
                        </mask>
                        <g id="蒙版"></g>
                        <g id="编组" mask="url(#mask-2)">
                            <g transform="translate(10.000000, 0.000000)">
                                <polygon id="Stroke-1" fill="#0A83FF" fill-rule="nonzero" points="9.24282147 41.5629214 18.2428215 46.5629214 17.7571785 47.4370786 8.75717853 42.4370786"></polygon>
                                <polygon id="Stroke-2" fill="#0A83FF" fill-rule="nonzero" points="8.24282147 85.5629214 17.2428215 90.5629214 16.7571785 91.4370786 7.75717853 86.4370786"></polygon>
                                <g id="编组" stroke-width="1" fill="none" fill-rule="evenodd">
                                    <path d="M9.67021211,41.2501758 L9.81655469,41.0537946 L9.9066251,40.9393942 L10.245838,40.566853 L10.5626385,40.2885111 C10.7053654,40.1735425 10.8387147,40.080175 10.9674752,40.0054847 L77.9227714,1.27362925 C78.0252325,1.21550523 78.1234865,1.16628287 78.2129579,1.12858163 L78.4557554,1.04599359 L78.5507065,1.02482656 L78.6309427,1.01270715 L78.7433703,1.00173332 L78.8603466,1.00393333 L78.9405742,1.01420698 L79.0234814,1.03285009 L79.1007012,1.05969082 L79.1771177,1.09634352 L86.58,5.407 L86.4468505,5.4688208 L86.2747471,5.56086262 L19.3176239,44.2937727 C19.2009739,44.3614378 19.0849381,44.4379215 18.9677703,44.5236183 L18.7319863,44.7089219 L18.63256,44.7983641 C18.5401104,44.878276 18.4626289,44.9482535 18.3911652,45.0177523 L18.1956009,45.2208678 C18.0596455,45.3683491 17.92797,45.5263231 17.8065877,45.6892243 L17.7693957,45.740396 C17.6739635,45.8719722 17.5875683,45.9987967 17.5087483,46.1242129 L17.3782326,46.3447134 C17.3047931,46.4727464 17.2333623,46.6081172 17.165797,46.748505 L17.0603701,46.9805122 L17.0507642,47.0066008 C16.9955831,47.1292568 16.9378316,47.2794624 16.8843425,47.438648 L16.8167858,47.6516615 C16.7585591,47.8483471 16.713691,48.0454584 16.6785698,48.251741 L16.6631871,48.3400862 C16.6274599,48.5815345 16.6097326,48.7914724 16.6097326,48.9920505 L16.7112462,84.7100152 C16.7119842,85.0975693 16.7009904,85.5005917 16.6787413,85.9221724 L16.6482912,86.4140835 L16.5272117,87.6839463 L16.5021291,87.8856223 L16.4803465,88.0080399 C16.4189534,88.4710945 16.3453764,88.9354711 16.2594273,89.4019784 L16.1086521,90.1746237 L16.027017,90.5183173 L15.7561892,91.6326097 L15.6462259,92.0612273 L15.5411168,92.4299479 L15.3560303,93.0358593 L15.2056017,93.505855 L15.1356479,93.7359989 C15.0221975,94.0763259 14.9023092,94.4187496 14.7761395,94.7629567 L14.5650364,95.3232697 L14.0507468,96.5883477 L13.9365936,96.8520266 L13.7883413,97.1718831 L13.33808,98.1595933 L13.0686606,98.70835 L12.7675271,99.2986917 L9.04662836,106.442512 L8.992,106.557 L1.024,101.919 L1.024,101.904 L1.05426016,101.811739 L1.080606,101.752183 L4.92930376,94.3617888 L5.18381694,93.8510044 C5.22714485,93.7622953 5.27112014,93.6714256 5.31603207,93.5778381 L5.59905754,92.9792415 L5.84242657,92.4457536 C5.96965134,92.1616786 6.09224539,91.8780442 6.21426496,91.5863369 L6.59531847,90.655179 C6.83905405,90.0283469 7.05177204,89.4442682 7.2393137,88.881561 L7.30911292,88.6507728 C7.42848296,88.2831132 7.53866207,87.9270021 7.64020688,87.579632 L7.81103699,86.9721245 L7.91219061,86.5688703 L8.20519174,85.3534602 L8.24862016,85.1556439 C8.34964507,84.6741421 8.43843605,84.1923762 8.51509477,83.7107053 L8.63907438,82.8481517 L8.70594004,82.2408945 L8.80012872,81.2639547 C8.84151387,80.6576683 8.86189959,80.0923913 8.85984521,79.5530973 L8.75938174,43.8370518 C8.75880414,43.7487287 8.76269666,43.657793 8.77099399,43.56292 L8.80581886,43.3063248 L8.84004342,43.1063015 L8.95998602,42.6647791 L9.07867974,42.3377552 L9.12918879,42.2182917 C9.10871236,42.2648191 9.10871236,42.2648191 9.09087398,42.2881967 L9.15212403,42.1603205 C9.15520108,42.1505335 9.15904121,42.138051 9.16416139,42.1214077 L9.17201375,42.1136809 L9.31966887,41.8225637 L9.43618919,41.6123201 L9.53667477,41.4524349 C9.58130448,41.3823283 9.62527776,41.3157507 9.67021211,41.2501758 Z M9.900452,107.113825 L9.877,107.092 L9.88,107.039 L9.87635373,107.053202 C9.89006951,107.000981 9.90835377,106.952629 9.93318191,106.905138 L13.6549298,99.7596856 C13.7639881,99.5491981 13.8662249,99.3488727 13.9632006,99.155333 L14.2900917,98.4844898 L14.9024191,97.1408328 L15.0493487,96.7890387 L15.5152721,95.6402306 C15.6516854,95.2838756 15.7814172,94.9300011 15.9045825,94.5781877 L16.0880673,94.0415067 L16.1056408,93.973887 L16.4112822,93.009709 L16.5472654,92.5510037 L16.7256508,91.8779443 L17.0666303,90.4742652 L17.0977898,90.3183316 C17.2138628,89.7654561 17.3124773,89.2209956 17.3946762,88.6805088 L17.4963279,88.0013426 L17.5320522,87.690367 L17.5989944,86.9516388 L17.6465311,86.4757066 L17.6506447,86.4149475 C17.6915563,85.8168628 17.7122753,85.2494458 17.7112433,84.7076418 L17.6097305,48.9906294 C17.6097326,48.8444434 17.623449,48.6820048 17.6504447,48.4986789 L17.6640687,48.4214128 C17.6834001,48.3078841 17.7058862,48.1995658 17.7321364,48.0946627 L17.7888421,47.8924783 C17.8258186,47.771584 17.8670153,47.6527691 17.9134036,47.5340612 L18.0038172,47.3117914 L18.1137352,47.0858692 L18.2718139,46.7940672 C18.3250733,46.7016189 18.3889006,46.6007722 18.4621011,46.4933972 L18.6121624,46.2816855 C18.6764542,46.1954463 18.7465477,46.1083179 18.8227101,46.0200859 L19.0106938,45.8133182 C19.062165,45.7590438 19.1161307,45.7067663 19.1811358,45.6479091 L19.4170856,45.4388358 C19.5571507,45.3267649 19.6906187,45.2334722 19.8188706,45.1590769 L86.7741668,6.42722149 C86.8524357,6.38226192 86.9326592,6.34267218 87.0189217,6.30605637 L87.2092395,6.23362679 C87.2920678,6.20708455 87.3648399,6.18822984 87.429986,6.1761042 L87.5549713,6.15996974 L87.6447941,6.15635382 L87.7300303,6.16043477 L87.8573757,6.18110308 C87.8891673,6.18868389 87.9306064,6.20277363 87.9721876,6.22169545 L88.1111888,6.2918263 C88.6508174,6.51071473 89.0852541,5.71481867 88.535,5.388 L79.6530021,0.217494183 C79.608883,0.192260188 79.5499741,0.16349566 79.4884177,0.137922717 C79.429899,0.112982803 79.3655772,0.0902142257 79.3004206,0.071995681 L79.1248342,0.030767669 L79.0141626,0.0144528744 L78.91047,0.0053008341 C78.8448393,0.00127830493 78.7779593,0.00127830493 78.7020803,0.00127830493 L78.4471452,0.0278503032 C78.356861,0.0422587324 78.2682348,0.0608518772 78.1806134,0.0846809871 L77.8577313,0.194471815 C77.6967515,0.260945457 77.5639768,0.327461758 77.4256358,0.405966282 L10.4662286,39.1401805 C10.3487995,39.2082974 10.2320888,39.2853139 10.1150977,39.3711756 L9.90719546,39.5327041 L9.58908293,39.8115239 L9.32176656,40.0899357 C9.28763427,40.124722 9.26637556,40.1472782 9.24121433,40.1768348 L9.13075937,40.3084378 L8.85747672,40.6679181 L8.69466161,40.9129863 L8.4719207,41.2895375 L8.43499413,41.3559219 L8.28786999,41.6505833 L8.13085514,42.0141444 L8.04684058,42.2418078 L7.94172699,42.5787074 L7.89955043,42.7366972 L7.7965711,43.2781464 C7.77035865,43.4817603 7.75822968,43.6643446 7.7593945,43.8417413 L7.85985082,79.5564084 C7.86132025,79.9421963 7.85070143,80.3432796 7.82847829,80.7661505 L7.79449723,81.2968786 L7.66315006,82.5890361 L7.62977566,82.8560992 C7.56745045,83.3209745 7.49340232,83.7864559 7.40751968,84.2521776 L7.25068237,85.0402367 L6.86718173,86.6288458 L6.82147202,86.801234 C6.73143062,87.1295923 6.63299335,87.4660808 6.52582192,87.8127021 L6.28799175,88.5734799 C6.15345025,88.9769913 6.00326699,89.397885 5.8358691,89.8421319 L5.61703459,90.4098597 L5.29207522,91.1996715 L5.11460759,91.6173433 L4.69249488,92.5571717 L4.4155279,93.1429854 L4.16136782,93.663363 L3.9165897,94.1442178 L0.173508482,101.332286 L0.116765537,101.462432 L0.0496516612,101.681058 L0.0294523791,101.79228 L0.0256205573,101.920382 L0.0301847658,101.966518 C0.0265372483,101.97573 0.0256205573,101.997923 0.0275678438,102.02787 L0.0409737238,102.135752 L0.0624119419,102.241464 L0.103443387,102.357388 C0.157347811,102.492057 0.257432776,102.626965 0.409626303,102.71781 L9.26570936,107.874166 L9.3436641,107.912606 C9.83334139,108.111086 10.2349639,107.474505 9.900452,107.113825 Z" id="Stroke-3" fill="#0A83FF" fill-rule="nonzero"></path>
                                    <path d="M86.2739288,5.56209978 L19.3180425,44.294297 C17.8000446,45.1720798 16.6054878,47.2446935 16.6101529,48.9928605 L16.7116648,84.709491 C16.723998,89.2126406 15.3262377,94.3927998 12.7675571,99.2969021 L9.04700647,106.443115 C8.84412707,106.832975 8.8054438,107.250912 8.97689368,107.570961 C9.20501286,107.996797 9.69754058,108.086837 10.1315253,107.835371 L86.9357442,63.4066607 C88.4545079,62.5277605 89.6545749,60.4510598 89.6499421,58.7039053 L89.5044507,7.4014711 C89.497936,5.44718473 87.9699807,4.58135721 86.2739288,5.56209978 Z M88.5044563,7.40480463 L88.6499426,58.7066528 C88.6536245,60.0950129 87.6446352,61.8410562 86.4349476,62.5410957 L10.017,106.745 L13.6543424,99.7590836 C16.2842994,94.7183696 17.724463,89.3810617 17.7116609,84.7067005 L17.6101491,48.9901051 C17.6064404,47.6003544 18.6102217,45.8587454 19.8186991,45.1599429 L86.7745854,6.42774576 C87.8080737,5.83013078 88.500515,6.22250791 88.5044563,7.40480463 Z" id="Stroke-5" fill="#0A83FF" fill-rule="nonzero"></path>
                                    <polygon id="Fill-7" fill="#0A83FF" points="29.2870465 48.9452854 78.6541395 20.735266 78.6541395 25.7955379 29.2870465 53.7518097"></polygon>
                                    <polygon id="Fill-9" fill="#0A83FF" points="29.9186163 59.0913087 79.2857093 30.8812893 79.2857093 35.9415612 29.9186163 63.897833"></polygon>
                                    <polygon id="Fill-11" fill="#0A83FF" points="29.9186163 69.3382019 79.2857093 41.1281825 79.2857093 46.1874058 29.9186163 74.1447262"></polygon>
                                    <path d="M58.9522791,68.6805874 L58.9522791,62.46473 L28.7870465,79.8014755 L28.7870465,85.754885 L58.9522791,68.6805874 Z M57.952,64.192 L57.952,68.096 L29.787,84.039 L29.787,80.38 L57.952,64.192 Z" id="Stroke-13" fill="#0A83FF" fill-rule="nonzero"></path>
                                </g>
                            </g>
                        </g>
                    </g>
                </g>
            </g>
        </g>
    </g>
</svg>