<?xml version="1.0" encoding="UTF-8"?>
<svg width="121px" height="121px" viewBox="0 0 121 121" version="1.1" xmlns="http://www.w3.org/2000/svg" xmlns:xlink="http://www.w3.org/1999/xlink">
    <title>安全管理</title>
    <defs>
        <rect id="path-1" x="0" y="0" width="121" height="121" rx="1"></rect>
    </defs>
    <g id="基础数据-电子地图" stroke="none" stroke-width="1" fill="none" fill-rule="evenodd">
        <g id="基础平台-平台概览" transform="translate(-661.000000, -3394.000000)">
            <g id="运营中心" transform="translate(0.000000, 3205.000000)">
                <g id="编组-8" transform="translate(370.000000, 87.000000)">
                    <g id="安全管理" transform="translate(291.000000, 102.000000)">
                        <mask id="mask-2" fill="white">
                            <use xlink:href="#path-1"></use>
                        </mask>
                        <g id="蒙版"></g>
                        <g id="编组" mask="url(#mask-2)">
                            <g transform="translate(24.000000, 10.000000)">
                                <path d="M37.0682173,13.3065591 L67.882266,3 L67.8869327,4.56166925 C68.0129329,46.0271936 68.0129329,46.0271936 67.9849328,46.2538875 C65.8370961,56.977197 59.8870867,68.341661 50.7485723,79.3076933 C43.9375615,87.4652398 37.8195518,92.5051724 37.5663848,92.7158375 L37.1568841,93.0490088 L36.7532168,93.1509066 C6.38016885,100.887123 5.16100025,81.8986446 5.1295002,81.075448 L5,38.6115545 L37.0682173,13.3065591 Z" id="Fill-1" fill="#E5EEF5" fill-rule="evenodd"></path>
                                <path d="M36.9096159,12.8323802 L36.7584858,12.9140462 L4.69026849,38.2190416 C4.56968928,38.3141905 4.49999999,38.459481 4.49999999,38.6130793 L4.62950253,81.0769728 C4.63237739,81.1544161 4.63765801,81.2422998 4.64558014,81.3395776 L4.67750685,81.6585471 C4.69766823,81.8310768 4.72430349,82.0223892 4.75820833,82.2289534 C4.87825672,82.9603447 5.06708649,83.7436976 5.33857358,84.5559335 C6.09266285,86.81202 7.34877887,88.9166301 9.21969946,90.6862116 C14.3728249,95.5602159 23.1400598,97.0274974 36.3016169,93.7796235 L37.2792604,93.5338016 L37.4724383,93.4368562 L38.1778869,92.8561032 L38.8348278,92.2914092 L39.585928,91.6282792 L40.4315122,90.8630033 L41.3104265,90.048114 C42.0561461,89.3485324 42.8343476,88.5978895 43.6394382,87.7977333 L44.1279446,87.3093601 C46.4885765,84.9354895 48.8442182,82.3686797 51.1323806,79.6281479 C60.3450342,68.5731504 66.3152096,57.1360491 68.4751952,46.3520851 L68.4900245,46.1991023 L68.4981278,45.7276006 L68.3822638,2.99850588 C68.3812452,2.65764075 68.0469281,2.41769727 67.7236646,2.52582115 L36.9096159,12.8323802 Z M37.31,13.752 L67.384,3.693 L67.4990236,43.5622118 L67.4932524,46.1237663 L67.4887037,46.1925959 C65.3700343,56.7631678 59.4766505,68.053159 50.3644643,78.987598 C48.0959493,81.7045976 45.7597908,84.2501776 43.4198975,86.6031964 L42.933467,87.0894943 L42.4582922,87.5590788 L41.5281619,88.4626658 C41.2227967,88.7558981 40.9222331,89.0411297 40.6268412,89.318248 L39.7565503,90.1251512 C39.614211,90.2555411 39.4732571,90.3838745 39.3337349,90.5101375 L38.6618318,91.1120813 L38.1783825,91.5370355 L37.4147838,92.1912654 L37.2465682,92.3314973 L36.927,92.591 L36.6308405,92.6661138 C23.4530269,96.022589 14.8556067,94.6404017 9.90685662,89.9597028 C8.16358944,88.3108603 6.99178459,86.3475127 6.2869967,84.2389263 L6.18952842,83.937159 C5.8172539,82.743088 5.65418502,81.7109781 5.62913454,81.0563292 L5.5,38.853 L37.31,13.752 Z" id="Stroke-3" fill="#0A83FF" fill-rule="nonzero"></path>
                                <path d="M68,3.74486674 L61.5595418,0 L31.3936646,10.2883843 L0,35.5448078 L0.126776177,77.930254 C0.137055326,78.1748074 0.25012597,80.0363844 1.19466559,82.3207874 C1.43108603,82.8921738 1.71890221,83.4898441 2.07067755,84.0966565 C2.77422822,85.306853 3.73133125,86.5490471 5.03221472,87.6746784 C5.68208539,88.2369226 6.4198999,88.7705976 7.25365313,89.2551333 L13.6929692,93 C7.01837482,89.1191433 6.58665054,82.1653703 6.56723437,81.673978 L6.44045819,39.2896745 L37.8341227,14.0321082 L68,3.74486674 Z" id="Fill-5" fill="#E5EEF5" fill-rule="evenodd"></path>
                                <path d="M7.00242217,89.6874329 L13.4416455,93.4322458 C14.0179732,93.767344 14.5206297,92.9029303 13.9442929,92.5677542 C11.1099062,90.9197367 9.22115388,88.5952463 8.09647724,85.8749063 C7.69277568,84.8984429 7.41495895,83.9315795 7.24153617,83.0125179 L7.20263406,82.7972364 L7.1405249,82.401211 C7.12316732,82.2774722 7.10906035,82.1623993 7.09791934,82.0571816 L7.07310962,81.7722828 C7.07036278,81.7301236 7.06828627,81.6907255 7.06684452,81.6542371 L6.941,39.528 L38.078,14.477 L68.161385,4.21810544 C68.5672217,4.07970603 68.6220096,3.52815988 68.251331,3.31262523 L61.8108728,-0.432241511 C61.685718,-0.505013987 61.5351646,-0.519966645 61.3981407,-0.47323323 L31.2322635,9.81515104 L31.0802476,9.89880783 L-0.313416977,35.1552313 C-0.431797953,35.2504696 -0.500000005,35.3943685 -0.500000005,35.5463033 L-0.373221587,77.9317495 L-0.365610712,78.075494 L-0.337542921,78.4052187 C-0.30660571,78.702649 -0.256115549,79.0553881 -0.18093876,79.4533809 C0.00488557344,80.4371519 0.301517511,81.4692366 0.732604985,82.5118371 C0.991538415,83.1376335 1.29194928,83.7502987 1.63810756,84.3474217 C2.43519749,85.7185183 3.4500291,86.9668359 4.70504849,88.0527819 C5.40023493,88.6542317 6.16631298,89.2015281 7.00242217,89.6874329 Z M61.505,0.546 L66.799,3.625 L37.6727377,13.5588695 L37.5206972,13.6425387 L6.12703261,38.900105 C6.00865675,38.9953435 5.94000599,39.1392391 5.94046043,39.29117 L6.06723661,81.6754735 L6.07449712,81.8174497 L6.10219988,82.1462174 L6.14898218,82.530222 L6.21664867,82.9640432 C6.22976702,83.040197 6.24383074,83.1182006 6.25887743,83.1979412 C6.44448593,84.1815815 6.74112869,85.2139637 7.17234267,86.2569734 L7.32082263,86.6044927 C7.7655062,87.612156 8.31213568,88.5673728 8.96850425,89.4565658 L9.267,89.847 L7.50501745,88.8229111 C6.72279063,88.36832 6.00752056,87.8573215 5.35935524,87.2965526 C4.19050741,86.2851694 3.24566683,85.1229459 2.5029392,83.8453601 C2.17985673,83.2880421 1.89896154,82.7151777 1.65667839,82.1296221 C1.25314065,81.1536516 0.975323265,80.1870292 0.801685174,79.2677733 L0.762799693,79.0529213 L0.700731838,78.6582483 L0.658054521,78.3150465 L0.632911411,78.029032 C0.630078948,77.9864461 0.627899729,77.9464812 0.626335082,77.9092564 L0.5,35.784 L31.638,10.733 L61.505,0.546 Z" id="Stroke-7" fill="#0A83FF" fill-rule="nonzero"></path>
                                <path d="M41,53.3533268 L59.9697791,42 L60,52.7628053 C59.9552283,53.3904519 59.0900147,65.3122571 41.0895434,82 L41,53.3533268 Z" id="Fill-9" fill="#E5EEF5" fill-rule="evenodd"></path>
                                <path d="M60.7701397,42.5559682 L40.7701397,52.909295 C40.6036962,52.9954572 40.4994166,53.1674676 40.4999904,53.3548896 L40.5895459,82.0015629 C40.5909076,82.4372075 41.109996,82.6628497 41.4294738,82.3666707 C49.3789994,74.9968836 54.6424904,67.9990034 57.7288379,61.5754042 C58.8325538,59.2782461 59.5822475,57.2024526 60.0425848,55.3710808 L60.1120276,55.0882473 L60.230841,54.5651635 L60.3250605,54.0949673 L60.397289,53.6729912 L60.4501298,53.2945673 C60.472137,53.1154654 60.4878499,52.9509453 60.4987327,52.7983812 L61.4973975,43.0509482 C61.5378995,42.6555351 61.1231289,42.3732375 60.7701397,42.5559682 Z M41.5,53.657 L60.408,43.869 L59.5026025,52.7118571 L59.475778,53.0122656 C59.4701732,53.0650354 59.4639654,53.1192265 59.4571007,53.1749443 L59.4075966,53.5284179 C59.397888,53.5906653 59.3874144,53.6546506 59.3761219,53.7204795 L59.2981082,54.1384195 L59.1978492,54.6056713 C59.1604341,54.7702035 59.1188797,54.943799 59.0727539,55.1273022 C58.6287753,56.8935938 57.90199,58.9059572 56.8274802,61.1423288 L56.6018739,61.6049036 C53.6952439,67.4774358 48.9249219,73.8521201 41.8807987,80.5698136 L41.585,80.848 L41.5,53.657 Z" id="Stroke-11" fill="#0A83FF" fill-rule="nonzero"></path>
                                <polygon id="Fill-13" fill="#E5EEF5" fill-rule="evenodd" points="41.1536372 54 36 51.0985984 55.8475338 40 61 42.9002674"></polygon>
                                <path d="M55.6035004,39.5635969 L35.7559665,50.6621953 C35.4152409,50.8527266 35.4145349,51.3427842 35.7547101,51.5342965 L40.9083473,54.4356981 C41.0601997,54.5211882 41.2456083,54.521449 41.3977006,54.4363863 L61.2440634,43.3366537 C61.5847762,43.1460989 61.5854483,42.6560407 61.2452594,42.4645521 L56.0927933,39.5642847 C55.9409563,39.4788174 55.755577,39.4785568 55.6035004,39.5635969 Z M55.847,40.573 L59.977,42.898 L41.153,53.426 L37.022,51.1 L55.847,40.573 Z" id="Stroke-15" fill="#0A83FF" fill-rule="nonzero"></path>
                                <polygon id="Fill-17" fill="#0A83FF" fill-rule="evenodd" points="41 82 36.0892658 79.0899817 36 51 40.9107342 53.9100183"></polygon>
                                <path d="M35.4999998,51.0015889 L35.5892683,79.0915706 C35.5898277,79.26761 35.682921,79.4303845 35.8343676,79.5201292 L40.7451018,82.4301475 C41.0790126,82.6280175 41.5012309,82.3865444 41.4999998,81.9984111 L41.4107317,53.9084294 C41.4101723,53.73239 41.317079,53.5696155 41.1656324,53.4798708 L36.2548982,50.5698525 C35.9209874,50.3719825 35.4987691,50.6134556 35.4999998,51.0015889 Z M36.502,51.879 L40.411,54.195 L40.497,81.12 L36.588,78.804 L36.502,51.879 Z" id="Stroke-19" fill="#0A83FF" fill-rule="nonzero"></path>
                                <polygon id="Fill-21" fill="#E5EEF5" fill-rule="evenodd" points="22.0525882 65 22 45.8111384 40.9351039 30 41 53.6359259"></polygon>
                                <path d="M40.6906494,30.4553304 L21.6906494,45.4183252 C21.5698868,45.5134289 21.4995806,45.6587942 21.5,45.8125087 L21.5525901,65.0013703 C21.5536534,65.3893664 21.9770242,65.6283568 22.3097633,65.4287901 L41.2571751,54.064716 C41.4078191,53.9743644 41.5,53.8115876 41.5,53.6359259 L41.5,30.8481436 C41.5,30.4306682 41.0186291,30.1970378 40.6906494,30.4553304 Z M40.5,31.877 L40.5,53.352 L22.55,64.118 L22.5,46.053 L40.5,31.877 Z" id="Stroke-23" fill="#0A83FF" fill-rule="nonzero"></path>
                                <polygon id="Fill-25" fill="#0A83FF" fill-rule="evenodd" points="21 65 16.0528327 62.0485131 16 43 20.9471673 45.9514869"></polygon>
                                <path d="M15.4999999,43.0013868 L15.5528347,62.0498999 C15.5533217,62.2254824 15.6458718,62.3879424 15.7966587,62.4779021 L20.743826,65.4293889 C21.0776396,65.6285426 21.5010762,65.3873194 21.4999999,64.9986132 L21.4471653,45.9501001 C21.4466783,45.7745176 21.3541282,45.6120576 21.2033413,45.5220979 L16.256174,42.5706111 C15.9223604,42.3714574 15.4989238,42.6126806 15.4999999,43.0013868 Z M16.501,43.881 L20.448,46.236 L20.498,64.118 L16.551,61.763 L16.501,43.881 Z" id="Stroke-27" fill="#0A83FF" fill-rule="nonzero"></path>
                                <polygon id="Fill-29" fill="#E5EEF5" fill-rule="evenodd" points="21.1596792 46 16 43.1507426 35.8391484 28 41 30.8481436"></polygon>
                                <path d="M35.5356809,27.6026243 L15.6965325,42.7533669 C15.4096827,42.972428 15.4423397,43.413964 15.7582963,43.5884403 L20.9179755,46.4376978 C21.0916118,46.5335825 21.30551,46.5177614 21.4631495,46.3973736 L41.3034703,31.2455172 C41.5903621,31.0264207 41.5576395,30.5848028 41.2415892,30.4103826 L36.0807376,27.562239 C35.9071189,27.4664233 35.6932825,27.4822672 35.5356809,27.6026243 Z M35.883,28.595 L40.087,30.915 L21.115,45.404 L16.912,43.083 L35.883,28.595 Z" id="Stroke-31" fill="#0A83FF" fill-rule="nonzero"></path>
                            </g>
                        </g>
                    </g>
                </g>
            </g>
        </g>
    </g>
</svg>