<?xml version="1.0" encoding="UTF-8"?>
<svg width="121px" height="121px" viewBox="0 0 121 121" version="1.1" xmlns="http://www.w3.org/2000/svg" xmlns:xlink="http://www.w3.org/1999/xlink">
    <title>统计分析</title>
    <defs>
        <rect id="path-1" x="0" y="0" width="121" height="121" rx="1"></rect>
    </defs>
    <g id="基础数据-电子地图" stroke="none" stroke-width="1" fill="none" fill-rule="evenodd">
        <g id="基础平台-平台概览" transform="translate(-1377.000000, -3394.000000)">
            <g id="运营中心" transform="translate(0.000000, 3205.000000)">
                <g id="编组-8" transform="translate(370.000000, 87.000000)">
                    <g id="统计分析" transform="translate(1007.000000, 102.000000)">
                        <mask id="mask-2" fill="white">
                            <use xlink:href="#path-1"></use>
                        </mask>
                        <g id="蒙版"></g>
                        <g id="编组" mask="url(#mask-2)">
                            <g transform="translate(8.000000, 9.000000)">
                                <path d="M61.6812979,2.24879416 C61.616168,2.20985425 61.5510381,2.17213122 61.4847241,2.13319132 C61.4101208,2.08938392 61.3272282,2.05774525 61.2514408,2.0163716 C60.8192153,1.77543095 60.3787006,1.55396024 59.9287124,1.35074262 C59.8434515,1.31301959 59.7652957,1.26312784 59.6812189,1.22662168 C59.6113523,1.19741675 59.5355649,1.1779468 59.4668825,1.14995874 C58.9387385,0.930921781 58.30165,0.964994197 57.747454,0.798282734 C57.7249546,0.790981502 57.7060077,0.780029654 57.6835083,0.773945294 C57.6787716,0.772728422 57.6740349,0.772728422 57.6704824,0.77151155 C57.0866819,0.597498854 56.4839346,0.46120919 55.8740823,0.34560635 C55.8018473,0.332220758 55.7355333,0.30910019 55.6644825,0.296931471 C55.5709323,0.279895263 55.4714613,0.276244647 55.3767269,0.261642183 C54.8450304,0.175244271 54.3038604,0.109533183 53.753217,0.0669426629 C53.6644036,0.0596414309 53.581511,0.0413883509 53.4926976,0.0353039909 C53.4630931,0.032870247 53.4299361,0.0365208629 53.3991474,0.0340871189 C52.7194284,-0.00728652898 52.023131,-0.00850340098 51.3161759,0.017050911 C51.2474935,0.019484655 51.1823636,0.012183423 51.1136812,0.015834039 C50.8886871,0.025569015 50.6577722,0.0486895829 50.4304097,0.0669426629 C50.2717297,0.0778945109 50.1142338,0.0864126149 49.9555538,0.102231951 C49.4700403,0.148473087 48.9809742,0.206882943 48.4859872,0.284762751 C48.4705929,0.287196495 48.4551985,0.288413367 48.43862,0.290847111 C48.4362517,0.290847111 48.4338833,0.292063983 48.4326991,0.292063983 C47.8974501,0.37602815 47.3574643,0.480679142 46.8115576,0.60114947 C46.6374832,0.640089374 46.4598563,0.691197998 46.2834136,0.732571646 C45.9459225,0.81410207 45.6107997,0.890765006 45.2697561,0.985681021 C45.2354149,0.995415997 45.2010737,1.00880159 45.1679166,1.01853657 C44.5272756,1.19985049 43.8818978,1.40306812 43.2282308,1.63305692 C43.0991553,1.67808119 42.965343,1.73527417 42.8350833,1.78273218 C42.3093076,1.97499796 41.7799795,2.17943245 41.2459146,2.4033369 C41.1748638,2.4337587 41.1061814,2.45566239 41.0351307,2.48608419 C40.9048709,2.54206031 40.7722428,2.61385575 40.6407989,2.67104874 C40.0747612,2.92172437 39.5028026,3.18821934 38.9284756,3.47540113 C38.7129549,3.58370274 38.4962501,3.6895706 38.2771769,3.8027397 C37.5240388,4.19457248 36.7649799,4.60587522 36,5.06098534 L42.6302203,9 C43.3963843,8.54488987 44.1542591,8.13358714 44.9085814,7.74175435 C45.1276545,7.62858526 45.3431752,7.52150052 45.5610642,7.41441579 C46.1353912,7.127234 46.7073498,6.85952216 47.2757559,6.60884652 C47.4758822,6.52123174 47.6771927,6.4275326 47.8761348,6.34356843 C48.4125681,6.11844711 48.9442646,5.91157887 49.4735928,5.71931309 C49.6014842,5.67185509 49.7317439,5.61709585 49.8596353,5.57207158 C50.5121181,5.34208277 51.15868,5.13886515 51.7993211,4.95755122 C52.1735217,4.85168336 52.5418015,4.7628517 52.9112655,4.67402005 C53.0877082,4.63142953 53.2677035,4.5803209 53.442962,4.54016413 C53.9912371,4.4196938 54.5335912,4.31504281 55.0700245,4.22986177 C55.0877872,4.22742802 55.1031815,4.22621115 55.11976,4.22377741 C55.6135628,4.14711447 56.1014447,4.08748774 56.5857741,4.04124661 C56.7468225,4.02542727 56.9043183,4.01812604 57.0641825,4.00474045 C57.3614115,3.98283675 57.6562722,3.96701742 57.9487645,3.95606557 C58.6533512,3.93051126 59.3496487,3.932945 60.0293676,3.97310178 C60.1501539,3.98040301 60.2662035,3.99622234 60.3846215,4.00595732 C60.9352649,4.04854784 61.4752507,4.11425893 62.0069472,4.20065684 C62.1739165,4.22742802 62.3408858,4.25298234 62.5054867,4.28462101 C63.1153391,4.40144072 63.7180864,4.53651351 64.3007026,4.71052621 C64.3279387,4.71782744 64.3551749,4.72999616 64.3812268,4.73729739 C64.9354228,4.90522573 65.471856,5.10600961 66,5.32504657" id="Fill-1" fill="#06519E" fill-rule="evenodd"></path>
                                <path d="M36.6296723,4.47427095 C16.5957309,15.9651592 0.434464252,43.7734077 0.499803427,66.6495709 C0.56653086,89.732362 17.1523911,99.12043 37.3620269,87.5287685 C57.4024009,76.0335542 73.565538,48.2256998 73.5001965,25.3487475 C73.4334648,2.26446921 56.8463003,-7.12135158 36.6296723,4.47427095 Z M72.5001968,25.3516211 C72.5645095,47.8681424 56.5941457,75.3443402 36.8644773,86.661333 C17.316342,97.873577 1.56430165,88.9574748 1.49980318,66.6466973 C1.43549267,44.1309472 17.4039995,16.6543753 37.1272108,5.34171286 C56.4868609,-5.76237408 72.1202485,2.86316638 72.493378,24.68629 L72.5001968,25.3516211 Z" id="Stroke-3" fill="#0A83FF" fill-rule="nonzero"></path>
                                <path d="M10.0495578,72.1814808 C10.0471813,71.1617503 10.087583,70.1291268 10.1505622,69.0906427 C10.1636334,68.8761477 10.174328,68.6628248 10.1897757,68.4471576 C10.2634495,67.435632 10.3632657,66.4182458 10.4939773,65.3938269 C10.5296259,65.1113499 10.5735925,64.8265286 10.6151826,64.5428795 C10.6829149,64.0646611 10.7542122,63.5864427 10.8338274,63.1058801 C10.8884886,62.7847236 10.9490913,62.462395 11.0085056,62.1400664 C11.0940623,61.6759133 11.1831839,61.2117601 11.2794351,60.7464349 C11.3578621,60.37605 11.4374773,60.0056652 11.5206574,59.6341082 C11.5919547,59.3223286 11.6620636,59.011721 11.738114,58.6987693 C11.8355536,58.2943934 11.9401228,57.8888455 12.0458804,57.4832975 C12.1254956,57.1750342 12.2051109,56.8667709 12.2906676,56.5573354 C12.3572117,56.3123657 12.4320737,56.067396 12.5021827,55.8224263 C12.7956896,54.8003516 13.1082092,53.778277 13.4504359,52.7585466 C13.4777665,52.6788435 13.500344,52.5991405 13.5276746,52.5194374 C13.8627716,51.5290096 14.2263875,50.5420981 14.6054511,49.5563587 C14.7005141,49.3102168 14.7967654,49.064075 14.8942049,48.8179332 C15.2233605,47.9845673 15.5679638,47.1523735 15.9280148,46.3248681 C15.982676,46.1982809 16.0349607,46.0693495 16.0908102,45.9427623 C16.4948278,45.0250049 16.9202347,44.113108 17.3599009,43.2070717 C17.4751648,42.9703067 17.5939935,42.7358859 17.7092574,42.500293 C18.0669318,41.7806212 18.4341126,41.0656378 18.8119879,40.3553428 C18.9284401,40.1373315 19.0401391,39.9181481 19.1589678,39.7013088 C19.6414124,38.8105099 20.1393048,37.9279156 20.6550215,37.0535261 C20.7512727,36.8917757 20.8510888,36.7311975 20.9485284,36.5682751 C21.4036424,35.8075796 21.8706393,35.0527447 22.3495191,34.3061145 C22.4897369,34.0881031 22.6275783,33.8689197 22.7701727,33.6509084 C23.3631281,32.7436999 23.9703429,31.8458683 24.5953819,30.9632741 C24.6892566,30.8296542 24.7866962,30.6995507 24.8817592,30.5682751 C25.5341289,29.6575503 26.2043229,28.7620629 26.8887763,27.8841571 C26.9802744,27.7669467 27.0682077,27.6473921 27.1597058,27.5313538 C28.0200258,26.440125 28.9076763,25.379371 29.8143395,24.3432311 C29.9331682,24.207267 30.0508087,24.0677867 30.1708257,23.9329947 C30.7316972,23.3012307 31.2996985,22.6788435 31.8772061,22.0705216 C31.9045368,22.041219 31.9306791,22.0107443 31.9580097,21.9814417 C32.5628479,21.3461614 33.179569,20.7272905 33.7998549,20.1189685 C34.1991194,19.7286579 34.6019488,19.34538 35.0059665,18.9679625 C35.1129123,18.8695058 35.2174816,18.7663606 35.3244274,18.669076 C35.8496504,18.183825 36.3796265,17.710295 36.915544,17.2473139 C37.0628917,17.1207267 37.2114276,16.9988279 37.3587752,16.8734128 C37.75091,16.5417074 38.1454213,16.2111741 38.5434976,15.8900176 C38.7419415,15.7282672 38.9427621,15.5723774 39.1435826,15.4141434 C39.4965039,15.1363548 39.8494252,14.8620824 40.2059114,14.5936706 C40.4209914,14.4330924 40.6348831,14.2736863 40.8499631,14.1166243 C41.2040727,13.8575894 41.5593706,13.6044149 41.9158568,13.3559289 C42.1285602,13.2070717 42.3424519,13.0582145 42.5551553,12.9128736 C42.9401604,12.6526665 43.3251654,12.4030084 43.7113588,12.1545224 C43.8979199,12.0361399 44.084481,11.9118969 44.2710421,11.7946865 C44.8437965,11.4383669 45.4201158,11.0914241 46,10.7608908 L35.9506548,5 C35.3707706,5.33053331 34.793263,5.67747607 34.2205086,6.03496777 C34.0351358,6.15100606 33.849763,6.27407697 33.6655784,6.39128736 C33.2770085,6.6409455 32.8908152,6.89177574 32.5046218,7.15315491 C32.2919184,7.2973237 32.079215,7.44618089 31.8665116,7.59386599 C31.5100254,7.84352413 31.1547275,8.09669857 30.8006179,8.35573354 C30.5843496,8.51279547 30.3704579,8.6722016 30.1565662,8.83277984 C29.8000801,9.10119164 29.4459705,9.37546396 29.0930491,9.65325259 C28.8922286,9.81148662 28.6914081,9.96854854 28.4929641,10.1291268 C28.0960761,10.4502833 27.7015648,10.7808166 27.30943,11.112522 C27.1620824,11.2379371 27.0123582,11.3598359 26.8661989,11.4864231 C26.3302813,11.9494042 25.8003052,12.4229342 25.2750822,12.9070131 C25.1645715,13.007814 25.0576257,13.1133034 24.947115,13.2152764 C24.5965702,13.5434655 24.2460255,13.8693104 23.9002339,14.2057042 C23.8503258,14.2549326 23.8016061,14.3076773 23.751698,14.3569056 C23.1302238,14.9652276 22.514691,15.5840985 21.9086645,16.2193788 C21.8789573,16.2521977 21.8492501,16.2861887 21.8183547,16.3178355 C21.2444119,16.9238132 20.6799755,17.5426841 20.1226688,18.1709318 C20.0691958,18.2307091 20.0133463,18.2869701 19.9598734,18.3479195 C19.892141,18.4241063 19.8291618,18.5084978 19.7626177,18.5846845 C18.8571429,19.6196523 17.9706806,20.6792342 17.1103606,21.7692909 C17.0854066,21.8021098 17.058076,21.8314124 17.0331219,21.8630592 C16.9653896,21.9486228 16.9047869,22.0400469 16.8370545,22.1256105 C16.1537894,23.0023442 15.485972,23.8954874 14.8336023,24.8038679 C14.7694347,24.895292 14.6981375,24.9820277 14.6315934,25.0746239 C14.6018862,25.1168197 14.5745556,25.1613596 14.5436602,25.2035554 C13.9198094,26.0849775 13.3125946,26.981637 12.7208275,27.8888455 C12.6626015,27.9767533 12.6008105,28.0611448 12.544961,28.1490525 C12.4594044,28.2791561 12.3821657,28.4151201 12.2989856,28.5463958 C11.8212941,29.2918539 11.3554855,30.0443446 10.9003715,30.8038679 C10.8290743,30.9234225 10.7518356,31.0382887 10.6805384,31.1578433 C10.654396,31.2035554 10.629442,31.2504395 10.604488,31.2949795 C10.0887713,32.1681969 9.59206724,33.0507912 9.10843434,33.9404181 C9.07040914,34.0130885 9.0276308,34.0822426 8.98722904,34.1549131 C8.90999037,34.300254 8.83869313,34.4491112 8.76264275,34.594452 C8.38476741,35.304747 8.01758665,36.0185583 7.66110048,36.7382301 C7.58742667,36.8859152 7.50543485,37.0312561 7.43413761,37.1801133 C7.39135927,37.2680211 7.35214579,37.3582731 7.30936745,37.447353 C6.86970117,38.3533893 6.44548263,39.2652862 6.04027668,40.1830436 C6.02720552,40.2111741 6.01413436,40.2393046 6.0010632,40.267435 C5.95828486,40.3647197 5.92025967,40.4643485 5.87866962,40.5616331 C5.51861858,41.3891385 5.17520357,42.2201602 4.846048,43.0535261 C4.79138679,43.1894901 4.72959585,43.32311 4.67731122,43.459074 C4.63334459,43.571596 4.59769597,43.6852901 4.55372934,43.7989842 C4.175854,44.7823794 3.81342639,45.7681188 3.47832939,46.7573745 C3.47119967,46.7773003 3.46288166,46.797226 3.45575193,46.8171518 C3.43555105,46.8792733 3.42010332,46.9402227 3.39871415,47.0023442 C3.05767571,48.0209025 2.74634445,49.0394608 2.4528375,50.0580191 C2.4160006,50.1869506 2.3696574,50.3147099 2.33400878,50.4424692 C2.30073674,50.5620238 2.27221784,50.6804063 2.24013409,50.7987888 C2.1545774,51.1058801 2.07615045,51.4117992 1.9965352,51.7177183 C1.89077764,52.1256105 1.78620836,52.5335026 1.68758052,52.9402227 C1.61153014,53.2520023 1.54142119,53.5614378 1.47131224,53.8708732 C1.42140418,54.0888845 1.36674296,54.3068959 1.31921147,54.5249072 C1.28712772,54.6784528 1.2609854,54.8319984 1.23008993,54.9855441 C1.13265038,55.4508693 1.04352883,55.9150225 0.959160441,56.3791756 C0.898557792,56.7015042 0.837955142,57.0238328 0.784482217,57.3461614 C0.703678684,57.8243798 0.633569737,58.300254 0.565837364,58.7761282 C0.532565322,59.0035163 0.490975268,59.2320766 0.461268087,59.4582926 C0.452950076,59.5168978 0.451761789,59.575503 0.443443779,59.6352803 C0.312732182,60.6585271 0.212916054,61.6759133 0.140430532,62.6850947 C0.123794511,62.901934 0.113099926,63.1152569 0.100028766,63.3297519 C0.0382378295,64.368236 -0.00335222387,65.4008595 0,66.42059 C0.0322963933,77.6376245 4.04633069,85.5282282 10.5201196,89.2391092 L20.5706531,95 C14.0968642,91.289119 10.0816416,83.3985153 10.0495578,72.1814808" id="Fill-5" fill="#E5EEF5" fill-rule="evenodd"></path>
                                <path d="M1.87995589,50.2142706 L1.51265334,51.5917884 L1.24582349,52.6416762 L0.818867238,54.4758375 L0.739914328,54.886914 L0.603342135,55.5644966 L0.342837412,56.96349 L0.255787708,57.4777537 L0.14922698,58.1649487 L-0.0386659802,59.4259818 L-0.0517847228,59.5663693 C-0.138800332,60.2473864 -0.212954514,60.9302426 -0.274764117,61.6166902 L-0.369307797,62.8033032 L-0.399045415,63.2993387 C-0.468697312,64.4699287 -0.503120365,65.4722117 -0.499997298,66.4222336 L-0.495555152,66.947942 C-0.343433698,77.7680002 3.54354209,85.8163411 10.2714657,89.6728963 L20.3219992,95.4337871 C20.9003821,95.7653256 21.3976879,94.8977366 20.8193069,94.5662129 C14.3241096,90.8430602 10.580315,82.9339974 10.5495558,72.1800506 C10.5477305,71.3968213 10.5711427,70.5747003 10.6184235,69.6723084 L10.688498,68.48288 C10.7630807,67.45888 10.8630162,66.4519708 10.9899561,65.4571118 L11.1981026,64.0084771 L11.2839159,63.4529988 L11.4408753,62.5519924 L11.5689952,61.8620264 L11.7026708,61.1739993 L11.9178052,60.1543695 L12.1569538,59.0979346 L12.3799361,58.1891755 L12.8144477,56.5398029 L12.9828837,55.9600002 C13.2313689,55.0947045 13.4787822,54.2808799 13.7326883,53.4986696 L14.0006406,52.6816199 C14.1043791,52.37501 14.2123618,52.0642109 14.32545,51.7465115 L14.6808921,50.7700011 C14.7429722,50.6028954 14.8065441,50.4333868 14.8717153,50.2611363 L15.0721345,49.7358206 C15.1664336,49.4916581 15.2621766,49.2468162 15.3591028,49.0019712 C15.5797032,48.4434488 15.8054998,47.8899579 16.0363791,47.3420235 L16.5482661,46.144589 C16.8373502,45.4879125 17.1447833,44.8175319 17.4736328,44.1252481 L17.9277848,43.18554 L18.1583855,42.720029 C18.3974635,42.2389981 18.6394254,41.7629353 18.8841841,41.2922119 L19.5974449,39.9415959 C19.9225774,39.3412709 20.2509441,38.7516611 20.5835291,38.1713076 L21.2579173,37.0228921 L21.3776392,36.8249147 C21.6827321,36.3149705 21.9907845,35.8117045 22.3017536,35.3153572 L23.1886148,33.9245984 C23.6495646,33.2193556 24.1030524,32.5444536 24.5536371,31.8943226 L25.2867283,30.8615326 C25.7165773,30.26146 26.1557326,29.6658353 26.6039659,29.0747641 L27.5523299,27.8409444 C28.2132465,27.0026385 28.9060661,26.162509 29.6360664,25.3122321 L30.5442524,24.2654891 C30.9827842,23.7715288 31.4077629,23.3035098 31.82498,22.8558507 L32.3236523,22.3224775 C32.8772737,21.7410301 33.471065,21.1417375 34.1499488,20.4759479 C34.401898,20.2296495 34.661851,19.9797453 34.9326349,19.7232941 L35.6608796,19.0389408 C36.0099078,18.7164888 36.3599483,18.4001853 36.7122077,18.088924 L37.6828538,17.254166 L38.3159092,16.7228396 L38.6819816,16.4214737 L39.453033,15.806878 L40.1109111,15.294374 L40.962928,14.6539347 L41.6661134,14.1438428 L42.837242,13.3257018 L43.2736675,13.0348211 L43.9819062,12.5750032 L44.5414419,12.2152622 C45.140701,11.8425187 45.7040301,11.5051145 46.2476011,11.1952797 C46.583657,11.0037282 46.5842522,10.5194889 46.2486682,10.3271119 L36.199323,4.56622112 C36.0456814,4.47814447 35.8569113,4.47791245 35.7030537,4.56561115 C35.2780508,4.80786229 34.8452606,5.06396928 34.4022594,5.33490049 L33.741926,5.74703295 L32.7625879,6.38076068 L32.1539093,6.78696975 L31.581347,7.18315784 L30.8506384,7.70167351 L30.2045737,8.17299202 L29.5996275,8.62749956 L29.0652875,9.03979319 L28.1784441,9.74044029 L27.8158849,10.0366694 L27.2139348,10.5388255 L26.5388579,11.1084709 C26.1822022,11.4165866 25.8260262,11.7311908 25.4700566,12.0524504 L24.8879444,12.5838138 L23.7315224,13.6734168 L23.4005769,14.0009366 C22.9034391,14.4875496 22.4354898,14.9560515 21.9879463,15.4163384 L21.4605797,15.9685547 C21.1791191,16.2656836 20.8970221,16.5688653 20.6123449,16.8799955 L19.5518706,18.0550789 L19.3860372,18.2557664 C18.6319795,19.1176625 17.9138132,19.9705026 17.2270908,20.8215047 L16.6404979,21.5534686 L16.4364357,21.8264373 C15.9842083,22.4065995 15.5348831,22.9991823 15.0903802,23.6015781 L14.2061705,24.8108534 L14.1402386,24.9081725 C13.6758952,25.564147 13.2165248,26.2341505 12.7590298,26.9218889 L12.0617212,27.9766948 L11.8766326,28.2787805 C11.4020348,29.0193986 10.933544,29.77574 10.4714756,30.5468692 L10.2171447,30.9619414 L10.1682837,31.0505909 C9.8728647,31.5506445 9.57573086,32.0675127 9.27520876,32.6034911 L8.55022521,33.911957 L8.31962609,34.3626412 C8.06431379,34.842537 7.81523233,35.3215413 7.57246376,35.7996951 L7.010584,36.907842 L6.85864539,37.2309053 C6.55756569,37.8513448 6.26826149,38.4651662 5.99061547,39.0732235 L5.54762383,40.0567392 L5.41892043,40.3650862 C5.18312486,40.9069981 4.95091622,41.45858 4.72198503,42.0200944 L4.33702791,42.9755228 L4.2106278,43.2796121 L4.08738458,43.618644 C3.95054205,43.9747665 3.81988381,44.3203422 3.69474258,44.6575185 L3.33520262,45.645996 L2.98498118,46.6487033 L2.92595256,46.8395668 C2.6652664,47.6180964 2.41384992,48.4196065 2.16174777,49.2711302 L1.94318596,50.0158844 L1.87995589,50.2142706 Z M35.951,5.576 L45.001,10.764 L44.6097304,10.9996434 L44.0069237,11.3701379 L42.568963,12.3018794 L42.1277892,12.5997094 L41.6291711,12.9462811 L41.0850009,13.3300173 L40.3698012,13.8488243 L39.9067845,14.1930173 L39.5024793,14.5007723 L38.3009105,15.44299 L37.6780057,15.9527175 L36.5897194,16.8680538 C36.2286269,17.1800011 35.8708803,17.4960955 35.5158092,17.8169339 L34.6673142,18.6001111 C34.2358697,19.0031315 33.8345126,19.3858651 33.4503333,19.7614288 C33.0380857,20.1657246 32.656605,20.546031 32.2951776,20.9139418 L31.54495,21.6926259 L31.5115635,21.7294858 C31.0951142,22.1681345 30.6714638,22.6269058 30.2362062,23.1098674 L29.7064347,23.7038182 L29.4378593,24.0141981 C28.6803815,24.8798481 27.9612816,25.7338045 27.2753601,26.5843723 L26.4946459,27.5764865 C26.0317521,28.1702114 25.5779786,28.768538 25.133947,29.3708141 L24.1862568,30.675843 C23.7322993,31.3168548 23.2766577,31.9814503 22.8151962,32.674559 L22.2177275,33.5841708 L21.9289893,34.0356432 C21.6111094,34.531255 21.2963672,35.0336642 20.9846882,35.5428083 L20.2253415,36.7978404 C19.8834501,37.3775069 19.5468376,37.9649394 19.214569,38.5614518 L18.6089081,39.6683531 L18.3709623,40.1197662 C18.1202421,40.5910456 17.8725262,41.0675028 17.6273721,41.549816 L16.9103438,42.9882146 C16.5627819,43.7044474 16.237822,44.3959755 15.9323212,45.0712027 L15.5319487,45.9783032 L15.4689817,46.1266546 C15.1110378,46.9493122 14.7640771,47.786314 14.4291645,48.6342556 L14.1390283,49.3762205 L13.9362149,49.9078154 L13.5588919,50.9236063 C13.4389798,51.2530212 13.324645,51.5741546 13.2150325,51.8897086 L13.0118951,52.4895991 L12.9774699,52.596364 C12.7150311,53.378324 12.4620834,54.1843732 12.2103282,55.036419 L11.8296742,56.3478465 L11.388313,58.0310962 L11.183548,58.8688376 L10.9409678,59.9404073 L10.7902807,60.6428591 L10.6547999,61.319137 L10.3409159,63.0219859 L10.2093699,63.8587682 L10.0108797,65.2307895 L9.99791193,65.3312235 C9.9117927,66.0061585 9.83787806,66.6866365 9.77567625,67.3741361 L9.67066873,68.7310779 L9.65148806,69.0602295 C9.58216541,70.2033121 9.54731466,71.219574 9.54955919,72.1826461 L9.55399203,72.7083484 C9.66427401,80.561531 11.7425403,86.9548371 15.4465364,91.3450771 L15.687,91.624 L10.7687657,88.8053176 C4.27403155,85.0824305 0.53096279,77.1737239 0.499997928,66.4191504 C0.498256807,65.8895026 0.508526116,65.3417765 0.530422068,64.7548959 L0.571938007,63.8425746 L0.638965486,62.7233426 C0.687808847,62.0433748 0.748430979,61.3690261 0.821171502,60.6994729 L0.947071657,59.6303066 L0.95630668,59.5285549 L1.06056923,58.8485186 L1.17374913,58.0766563 L1.32780349,57.1363149 L1.51795796,56.1064598 L1.65184452,55.4172803 L1.74800401,54.9412469 L1.80864108,54.6271748 L2.21684538,52.8806737 L2.82563443,50.5418864 L2.93360011,50.1953775 C3.18343797,49.3283679 3.430047,48.5177101 3.68238019,47.7392652 L3.94910015,46.925823 C4.20140238,46.1811701 4.47609712,45.4171385 4.78355746,44.600853 L5.0400285,43.9266155 L5.13176225,43.6703556 L5.30996139,43.2400318 C5.53370188,42.6735757 5.75995455,42.1184915 5.98972678,41.5728179 L6.45876735,40.4686983 L6.49371605,40.3937394 C6.75906352,39.7929019 7.0342152,39.1904435 7.32072461,38.5823972 L7.90696938,37.3511845 L8.10851837,36.9614279 C8.34247589,36.489119 8.58247611,36.0164629 8.82909632,35.5421538 L9.24960526,34.7411281 L9.46080247,34.3337926 L9.55145099,34.1722288 C9.92680481,33.4818766 10.2970263,32.8199724 10.6661304,32.1809056 L11.1145734,31.4060641 L11.3251247,31.067657 C11.6325324,30.5547176 11.9408766,30.0513689 12.2516942,29.5552391 L12.7513169,28.7662092 L12.9627252,28.4237762 L13.1376806,28.1649497 C13.5906465,27.4705473 14.0431866,26.7968121 14.4972019,26.1415705 L15.0786041,25.3109048 L15.242859,25.0911115 C15.8909435,24.1887483 16.5549293,23.3010209 17.2314338,22.4329621 L17.4527736,22.1403651 L17.5083736,22.0719221 C18.166597,21.2380343 18.858706,20.39906 19.5864301,19.55137 L20.1972175,18.8450053 L20.3528234,18.6584629 L20.4953267,18.5042876 C20.9288182,18.0156207 21.3511638,17.5500521 21.7672258,17.1028788 L22.2793544,16.5549217 C22.6169388,16.2011903 22.9690575,15.8406015 23.3385303,15.469937 L24.251355,14.5616733 L24.6116813,14.2159037 L25.6120343,13.2764225 C25.96394,12.9520898 26.3149819,12.6352509 26.6661341,12.3250987 L27.2959935,11.7767568 L28.2639661,10.9639588 L29.4026448,10.0458727 L29.946877,9.62148671 L30.6366668,9.09791332 L31.0944295,8.7603009 C31.3181815,8.5966264 31.5476004,8.43148213 31.7867658,8.2617788 L32.7168447,7.61347131 L33.3123024,7.2161126 L34.4858044,6.45878157 C34.7801335,6.27507272 35.0695885,6.09800937 35.3547902,5.92735581 L35.951,5.576 Z" id="Stroke-7" fill="#0A83FF" fill-rule="nonzero"></path>
                                <polygon id="Fill-9" fill="#E5EEF5" fill-rule="evenodd" points="66.5129864 56 41 44.0309095 78.8583233 15 103 26.3431093"></polygon>
                                <path d="M78.5540667,14.6032282 L40.6957433,43.6341376 C40.3983046,43.8622227 40.4483027,44.3243761 40.7876394,44.4835715 L66.3006258,56.4526621 C66.4743678,56.5341709 66.6794317,56.5090441 66.8283544,56.3879987 L103.315368,26.7311081 C103.60133,26.4986764 103.546155,26.0472823 103.212627,25.8905724 L79.0709505,14.547463 C78.9017766,14.4679757 78.7023936,14.4894866 78.5540667,14.6032282 Z M78.92,15.581 L102.067,26.457 L66.441,55.414 L41.956,43.927 L78.92,15.581 Z" id="Stroke-11" fill="#0A83FF" fill-rule="nonzero"></path>
                                <path d="M103.142554,26.6109837 L66.6858881,56.0479867 C66.473508,56.2194733 66.437916,56.529602 66.6059246,56.744744 L87.3494775,83.3077411 C87.5491184,83.5633896 87.9355708,83.5642179 88.1363056,83.3094274 C98.8766561,69.6768254 105.540884,52.551343 105.500185,37.9087226 C105.487957,33.8446039 104.956277,30.1374566 103.9341,26.8514833 C103.829208,26.5142914 103.417301,26.3891392 103.142554,26.6109837 Z M103.189,27.858 L103.309444,28.2908553 C104.08551,31.1898915 104.489631,34.4109634 104.500002,37.9116001 L104.497489,38.5485912 C104.350344,52.3812548 98.1908585,68.4263376 88.2833408,81.484425 L87.743,82.187 L67.697,56.517 L103.189,27.858 Z" id="Stroke-13" fill="#0A83FF" fill-rule="nonzero"></path>
                                <path d="M56.6009606,51.3012765 L77.6128284,79.1314081 C77.6720045,79.2097866 77.7529524,79.2690027 77.8455704,79.3016665 L86.8337025,82.4715349 C87.3028429,82.6369879 87.6995016,82.09036 87.3967108,81.6956638 L67.1737043,55.3344098 C67.1254539,55.2715141 67.0629404,55.2209921 66.9913211,55.187012 L57.2143276,50.5482659 C56.7419052,50.3241226 56.2858863,50.883962 56.6009606,51.3012765 Z M58.628,52.325 L66.453,56.038 L85.578,80.968 L78.319,78.408 L58.628,52.325 Z" id="Stroke-15" fill="#0A83FF" fill-rule="nonzero"></path>
                                <path d="M57,98 C57.7083356,97.6390422 58.4213237,97.2594543 59.1401274,96.8437706 C66.0850734,92.8301524 72.5496538,86.7753759 78,79.6365615 L57,52 L57,98 Z" id="Fill-17" fill="#2A6BF2" fill-rule="evenodd"></path>
                                <polygon id="Fill-19" fill="#E5EEF5" fill-rule="evenodd" points="47 92.3838416 57 98 57 51.6450748 47 47"></polygon>
                                <path d="M46.5,47 L46.5,92.3838416 C46.5,92.5645985 46.5975595,92.7312818 46.7551622,92.819794 L56.7551622,98.4359524 C57.0884604,98.6231379 57.5,98.3822644 57.5,98 L57.5,51.6450748 C57.5,51.4504916 57.3871121,51.2735821 57.2106384,51.1916087 L47.2106384,46.5465339 C46.8792226,46.3925888 46.5,46.6345749 46.5,47 Z M47.5,47.783 L56.5,51.964 L56.5,97.146 L47.5,92.091 L47.5,47.783 Z" id="Stroke-21" fill="#0A83FF" fill-rule="nonzero"></path>
                                <path d="M46,11 C45.9596787,11.0235225 45.9193574,11.0423404 45.8778502,11.0658629 C26.0030088,22.4460343 9.93497225,50.0378926 10,72.6970888 C10.0642376,95.3115923 26.1761532,104.448896 46,93.1675191 L46,11 Z" id="Fill-23" fill="#E5EEF5" fill-rule="evenodd"></path>
                                <path d="M45.8262574,10.5308324 L45.6313303,10.6308595 C25.5960857,22.1028708 9.43446635,49.8623262 9.50000206,72.6985237 C9.56531014,95.6898909 26.0853521,105.075863 46.2473001,93.6020794 C46.4035202,93.5131775 46.5,93.3472642 46.5,93.1675191 L46.5,11 C46.5,10.6437823 46.1433052,10.4115136 45.8262574,10.5308324 Z M45.5,11.864 L45.5,92.873 L45.7526999,92.7329588 C26.2521914,103.83033 10.5631173,94.9164775 10.4998033,72.6956685 C10.4367877,50.6697909 25.7716182,23.8877525 44.9475615,12.1965316 L45.5,11.864 Z" id="Stroke-25" fill="#0A83FF" fill-rule="nonzero"></path>
                            </g>
                        </g>
                    </g>
                </g>
            </g>
        </g>
    </g>
</svg>