<?xml version="1.0" encoding="UTF-8"?>
<svg width="121px" height="121px" viewBox="0 0 121 121" version="1.1" xmlns="http://www.w3.org/2000/svg" xmlns:xlink="http://www.w3.org/1999/xlink">
    <title>平台监控</title>
    <defs>
        <rect id="path-1" x="0" y="0" width="121" height="121" rx="1"></rect>
    </defs>
    <g id="基础数据-电子地图" stroke="none" stroke-width="1" fill="none" fill-rule="evenodd">
        <g id="基础平台-平台概览" transform="translate(-900.000000, -3394.000000)">
            <g id="运营中心" transform="translate(0.000000, 3205.000000)">
                <g id="编组-8" transform="translate(370.000000, 87.000000)">
                    <g id="平台监控" transform="translate(530.000000, 102.000000)">
                        <mask id="mask-2" fill="white">
                            <use xlink:href="#path-1"></use>
                        </mask>
                        <g id="蒙版"></g>
                        <g id="编组" mask="url(#mask-2)">
                            <g transform="translate(23.000000, 5.000000)">
                                <polygon id="Fill-1" fill="#FFFFFF" fill-rule="evenodd" points="38.5758 98.7377 38.6188 101.6017 59.5668 89.4807 59.5228 86.6177"></polygon>
                                <path d="M59.2717845,86.1845275 L38.3257845,98.3045275 C38.1689949,98.3952507 38.0735369,98.5636811 38.0761998,98.7448061 L38.1192563,101.608806 C38.1249877,101.990542 38.5391556,102.225278 38.8696066,102.034078 L59.8166066,89.9140777 C59.9734553,89.8233245 60.0689247,89.6548096 60.0662003,89.4736193 L60.022141,86.6096193 C60.0162775,86.227958 59.6021685,85.9933571 59.2717845,86.1845275 Z M59.035,87.476 L59.061,89.195 L39.106,100.741 L39.08,99.023 L59.035,87.476 Z" id="Stroke-2" fill="#0A83FF" fill-rule="nonzero"></path>
                                <polygon id="Fill-4" fill="#E5EEF5" fill-rule="evenodd" points="29.2527 96.0377 38.6187 101.6017 38.5757 98.7377 29.2097 93.1737"></polygon>
                                <path d="M28.7097962,93.1816061 L28.7528563,96.0456061 C28.7554647,96.2193376 28.8480778,96.3792589 28.9974649,96.4679883 L38.3634649,102.030988 C38.6996448,102.230665 39.1246136,101.984558 39.1188038,101.593594 L39.0757437,98.7295939 C39.0731353,98.5558624 38.9805222,98.3959411 38.8311351,98.3072117 L29.4651351,92.7442117 C29.1289552,92.5445353 28.7039864,92.7906417 28.7097962,93.1816061 Z M29.722,94.059 L38.079,99.023 L38.105,100.714 L29.748,95.75 L29.722,94.059 Z" id="Stroke-5" fill="#0A83FF" fill-rule="nonzero"></path>
                                <polygon id="Fill-7" fill="#E5EEF5" fill-rule="evenodd" points="38.5759 98.7374 29.2099 93.1744 50.1559 81.0534 59.5219 86.6174"></polygon>
                                <path d="M49.905469,80.6206364 L28.959469,92.7416364 C28.6288924,92.932934 28.6261846,93.4092446 28.9545649,93.6042883 L38.3205649,99.1672883 C38.4761976,99.2597274 38.6696386,99.2608306 38.8263155,99.1701725 L59.7723155,87.0501725 C60.1028907,86.8588915 60.1056258,86.3825966 59.7772691,86.1875318 L50.4112691,80.6235318 C50.255626,80.53107 50.0621604,80.5299625 49.905469,80.6206364 Z M50.152,81.633 L58.533,86.611 L38.579,98.157 L30.198,93.18 L50.152,81.633 Z" id="Stroke-8" fill="#0A83FF" fill-rule="nonzero"></path>
                                <polygon id="Fill-9" fill="#E5EEF5" fill-rule="evenodd" points="48.1306 75.2047 48.1856 89.9297 43.3466 92.7237 43.2906 77.9987"></polygon>
                                <path d="M47.8806252,74.7716728 L43.0406252,77.5656728 C42.8853219,77.6553251 42.7899216,77.8212801 42.7906,78.0006015 L42.8466036,92.7256015 C42.8480642,93.1096612 43.2640117,93.3487465 43.5966136,93.1567049 L48.4356136,90.3627049 C48.5908844,90.2730527 48.6862662,90.1071258 48.6856,89.9278324 L48.6305965,75.2028324 C48.629162,74.8187774 48.2132401,74.5796633 47.8806252,74.7716728 Z M47.633,76.068 L47.684,89.641 L43.843,91.859 L43.791,78.286 L47.633,76.068 Z" id="Stroke-10" fill="#0A83FF" fill-rule="nonzero"></path>
                                <polygon id="Fill-11" fill="#E5EEF5" fill-rule="evenodd" points="43.3464 92.7232 39.8224 90.6752 39.7664 75.9512 43.2904 77.9992"></polygon>
                                <path d="M39.2663998,75.9531016 L39.3224036,90.6771016 C39.3230785,90.854545 39.4177485,91.0183381 39.5711665,91.1074982 L43.0951665,93.1554982 C43.4292296,93.3496415 43.8478659,93.1076759 43.8464002,92.7212984 L43.7903964,77.9972984 C43.7897215,77.819855 43.6950515,77.6560619 43.5416335,77.5669018 L40.0176335,75.5189018 C39.6835704,75.3247585 39.2649341,75.5667241 39.2663998,75.9531016 Z M40.269,76.821 L42.791,78.287 L42.843,91.852 L40.321,90.386 L40.269,76.821 Z" id="Stroke-12" fill="#0A83FF" fill-rule="nonzero"></path>
                                <polygon id="Fill-13" fill="#FFFFFF" fill-rule="evenodd" points="43.2907 77.9991 39.7667 75.9511 44.6057 73.1571 48.1307 75.2051"></polygon>
                                <path d="M44.3556864,72.7240951 L39.5166864,75.5180951 C39.1839136,75.7102355 39.1832368,76.1903203 39.5154665,76.3833982 L43.0394665,78.4313982 C43.1943432,78.521406 43.3855369,78.5216841 43.5406748,78.4321272 L48.3806748,75.6381272 C48.7135058,75.445993 48.7141746,74.9658315 48.3818802,74.7727708 L44.8568802,72.7247708 C44.7019976,72.6347852 44.5108111,72.6345274 44.3556864,72.7240951 Z M44.605,73.735 L47.133,75.203 L43.291,77.421 L40.764,75.952 L44.605,73.735 Z" id="Stroke-14" fill="#0A83FF" fill-rule="nonzero"></path>
                                <g id="编组" stroke-width="1" fill="none" fill-rule="evenodd" transform="translate(0.000000, 0.101000)">
                                    <path d="M75.2927,5.6359 C76.5887,4.8869 77.6517,5.4859 77.6567,6.9829 L77.7957113,55.9089 C77.7997,57.4069 76.7427,59.2359 75.4467,59.9839 L11.4597,96.9269 C10.1577,97.6789 9.1007,97.0699 9.0967,95.5729 L8.95768861,46.6459 C8.9537,45.1499 10.0037,43.3309 11.3067,42.5789 L75.2927,5.6359 Z" id="Fill-15" fill="#E5EEF5"></path>
                                    <path d="M75.0425111,5.2029964 L11.0566966,42.1458892 C9.59915824,42.9870779 8.4532225,44.9714719 8.45767737,46.6472331 L8.59670202,95.5743206 C8.60173267,97.457043 10.0762221,98.3033654 11.7097723,97.3598709 L75.6967004,60.4169124 C77.1490218,59.5786899 78.3001714,57.5832804 78.2957225,55.9075687 L78.1566972,6.98123 C78.1504166,5.10082174 76.6719565,4.26128762 75.0425111,5.2029964 Z M77.1567028,6.98457 L77.2957229,55.9103206 C77.2992201,57.2273243 76.3391544,58.8915077 75.1967616,59.5508517 L11.2096996,96.4938876 C10.2411811,97.0532776 9.59967351,96.6850673 9.59669822,95.571564 L9.45767694,46.6444794 C9.45417555,45.3275954 10.4088792,43.6743542 11.5566284,43.0119541 L75.5427034,6.06891075 C76.5094737,5.51018318 77.1529988,5.87560478 77.1567028,6.98457 Z" id="Stroke-17" fill="#0A83FF" fill-rule="nonzero"></path>
                                    <path d="M75.8093,5.4079 C75.9423,5.3659 76.0723,5.3359 76.1953,5.3239 C76.2063,5.3229 76.2183,5.3209 76.2303,5.3209 C76.3633,5.3099 76.4903,5.3159 76.6093,5.3399 C76.6163,5.3409 76.6213,5.3429 76.6283,5.3449 C76.7503,5.3699 76.8653,5.4129 76.9693,5.4729 L68.5113,0.5579 C68.5073,0.5549 68.5023,0.5529 68.4983,0.5509 C68.4603,0.5289 68.4203,0.5099 68.3793,0.4929 C68.3393,0.4759 68.2973,0.4609 68.2553,0.4489 C68.2283,0.4409 68.1993,0.4349 68.1703,0.4289 C68.1643,0.4279 68.1583,0.4259 68.1513,0.4249 C68.1413,0.4229 68.1323,0.4199 68.1223,0.4179 C68.0763,0.4099 68.0283,0.4049 67.9803,0.4019 C67.9283,0.398586292 67.8763,0.398586292 67.8243,0.3999 C67.8063,0.4009 67.7883,0.4039 67.7723,0.4059 C67.7603,0.4059 67.7493,0.4079 67.7383,0.4089 C67.7073,0.4119 67.6783,0.4129 67.6483,0.4179 C67.5803,0.4289 67.5113,0.4429 67.4403,0.4619 C67.4123,0.4699 67.3803,0.4839 67.3513,0.4929 C67.3243,0.5019 67.2973,0.5109 67.2703,0.5209 C67.2343,0.5339 67.2003,0.5429 67.1633,0.5569 C67.0563,0.6019 66.9473,0.6569 66.8353,0.7209 L2.8483,37.6639 C2.6963,37.7519 2.5483,37.8569 2.4053,37.9709 C2.3583,38.0089 2.3143,38.0509 2.2683,38.0909 C2.1993,38.1519 2.1263,38.2079 2.0603,38.2739 C2.0303,38.3039 2.0013,38.3379 1.9713,38.3689 C1.9453,38.3959 1.9183,38.4239 1.8933,38.4519 C1.8633,38.4849 1.8313,38.5149 1.8023,38.5489 C1.7373,38.6239 1.6733,38.7009 1.6113,38.7819 C1.5903,38.8089 1.5703,38.8379 1.5493,38.8659 C1.5383,38.8809 1.5273,38.8949 1.5163,38.9099 C1.4963,38.9379 1.4753,38.9649 1.4543,38.9929 C1.4083,39.0599 1.3633,39.1279 1.3193,39.1969 C1.2773,39.2619 1.2363,39.3279 1.1973,39.3959 C1.1943,39.4009 1.1913,39.4069 1.1883,39.4119 C1.1843,39.4179 1.1823,39.4239 1.1783,39.4289 C1.1473,39.4829 1.1173,39.5379 1.0863,39.5939 C1.0513,39.6599 1.0183,39.7269 0.9853,39.7939 C0.9553,39.8549 0.9283,39.9169 0.9013,39.9789 C0.8993,39.9819 0.8983,39.9849 0.8963,39.9879 C0.8953,39.9909 0.8933,39.9949 0.8923,39.9979 C0.8623,40.0679 0.8323,40.1379 0.8053,40.2089 C0.7773,40.2829 0.7503,40.3569 0.7263,40.4309 C0.7133,40.4689 0.7033,40.5059 0.6923,40.5439 C0.6873,40.5599 0.6813,40.5759 0.6763,40.5929 C0.6683,40.6179 0.6603,40.6449 0.6533,40.6709 C0.6273,40.7619 0.6053,40.8519 0.5863,40.9419 C0.5753,40.9969 0.5683,41.0519 0.5583,41.1059 C0.5533,41.1349 0.5473,41.1619 0.5433,41.1909 C0.5393,41.2169 0.5343,41.2429 0.5303,41.2689 C0.5103,41.4259 0.4993,41.5799 0.4993,41.7309 L0.6383,90.6579 C0.6413,91.4039 0.9043,91.9289 1.3293,92.1759 L9.7863,97.0909 C9.3623,96.8439 9.0983,96.3179 9.0963,95.5729 L8.9573,46.6459 C8.9563,46.4699 8.9733,46.2889 9.0003,46.1059 C9.0053,46.0779 9.0113,46.0489 9.0163,46.0209 C9.0443,45.8499 9.0833,45.6789 9.1343,45.5069 C9.1393,45.4909 9.1443,45.4749 9.1493,45.4589 C9.2063,45.2729 9.2743,45.0859 9.3543,44.9029 C9.3553,44.8999 9.3573,44.8969 9.3583,44.8939 C9.4403,44.7069 9.5343,44.5219 9.6363,44.3429 C9.6393,44.3379 9.6423,44.3329 9.6453,44.3279 C9.7463,44.1539 9.8563,43.9859 9.9743,43.8249 C9.9853,43.8099 9.9963,43.7949 10.0063,43.7809 C10.1153,43.6349 10.2313,43.4979 10.3513,43.3669 C10.3763,43.3389 10.4033,43.3109 10.4283,43.2839 C10.5243,43.1839 10.6243,43.0939 10.7263,43.0059 C10.7723,42.9659 10.8163,42.9229 10.8623,42.8869 C11.0063,42.7719 11.1543,42.6669 11.3063,42.5789 L75.2923,5.6359 C75.4413,5.5499 75.5853,5.4869 75.7273,5.4359 C75.7543,5.4259 75.7823,5.4159 75.8093,5.4079" id="Fill-19" fill="#E5EEF5"></path>
                                    <path d="M76.51045,5.83003128 L76.5640033,5.84353111 C76.6080695,5.85569027 76.6435836,5.8685059 76.6749498,5.88296002 L76.7974915,5.94409843 C77.3121405,6.15034892 77.726524,5.43741432 77.2943774,5.09054017 L77.214,5.036 L68.6836397,0.0825977732 L68.5708075,0.0310289432 L68.4841029,-0.00263109209 L68.3232841,-0.0496518369 L68.2203581,-0.0723903378 L68.1133308,-0.0881283084 L68.0120981,-0.0970878575 L67.9151767,-0.10073458 L67.5910722,-0.0790464815 L67.5661005,-0.0752969619 C67.4797895,-0.0613406635 67.395271,-0.0436436343 67.3110453,-0.0211043734 L66.986354,0.0892568713 C66.8451956,0.14826371 66.718654,0.21167931 66.5872305,0.286778429 L2.59829955,37.2308876 C2.43051867,37.3280234 2.26397575,37.4441244 2.09361977,37.5799327 L1.75377756,37.8749555 L1.42188302,38.2244267 C1.3467367,38.3111102 1.27852512,38.3940341 1.21426026,38.477993 L1.0543,38.6929 L0.897721023,38.928067 L0.770934604,39.1406602 C0.775612016,39.1339839 0.781181825,39.1260605 0.787865595,39.1165525 L0.648853396,39.3517421 L0.515698338,39.6165886 L0.462598069,39.7397543 L0.478,39.713 L0.428061655,39.8122047 L0.337951938,40.0311761 L0.228765509,40.3466632 L0.170492121,40.5409133 L0.132054317,40.685581 L0.0877223967,40.8888416 L0.0361141512,41.1928714 C0.0111925285,41.3871747 -0.0007,41.5615984 -0.0007,41.7309 L0.138302018,90.6593205 C0.141885232,91.550433 0.471096132,92.2554413 1.07806049,92.6081947 L9.53506085,97.5231949 C10.0849725,97.84279 10.5678958,97.0703126 10.1099045,96.7077124 L10.0379821,96.6588628 C9.77073889,96.5031811 9.59780451,96.1326592 9.5962982,95.5715577 L9.45729798,46.6444795 C9.4567738,46.5519864 9.46222926,46.4534993 9.47355871,46.346375 L9.50851379,46.1087953 C9.5258886,46.0028989 9.54700798,45.9007241 9.57237405,45.7997989 L9.62653999,45.6080375 C9.66261664,45.490331 9.70213163,45.37628 9.74518641,45.2659275 L9.83264165,45.0520139 L9.93706962,44.837635 C9.95729766,44.7982058 9.9787433,44.7574095 10.0011154,44.7159701 L10.0740465,44.5851479 C10.137655,44.4756345 10.2033938,44.3710582 10.2721274,44.2698812 L10.410668,44.0749858 C10.4700055,43.9955499 10.5356255,43.914281 10.6074984,43.831026 L10.7951803,43.623604 C10.8396395,43.5773707 10.8900153,43.5290836 10.9515619,43.4736426 L11.1704541,43.2806525 C11.3086414,43.1703256 11.4352865,43.0819736 11.5568181,43.0116131 L75.5423034,6.06891075 C75.6544236,6.00419706 75.7685729,5.95234689 75.8963076,5.90647031 L75.9708719,5.88107493 C76.0359598,5.8606147 76.0999509,5.84445035 76.1591373,5.83362965 L76.2544284,5.81994236 L76.2303,5.8209 C76.3601029,5.81187161 76.4399752,5.81581787 76.51045,5.83003128 Z M68.2477819,0.983613143 L68.214,0.959 L75.291,5.075 L75.2099129,5.11303175 C75.1533808,5.14107005 75.0977634,5.17087487 75.0423549,5.2028556 L11.0562966,42.1458892 C10.9441376,42.2108231 10.8326319,42.2841761 10.7200884,42.3663275 L10.5237955,42.5175207 L10.3982106,42.6285972 C10.3106946,42.7040979 10.2365256,42.7708701 10.1677408,42.8372696 L9.97833117,43.0338921 C9.84388584,43.1806015 9.71950987,43.3292591 9.60564235,43.4817789 L9.56993196,43.5308142 C9.48473048,43.6470598 9.40314374,43.7671021 9.32574831,43.8901545 L9.20755354,44.0856521 L9.09479132,44.2909354 L8.99264668,44.4929586 L8.87995835,44.7447861 C8.82789503,44.8600605 8.7726743,45.0037444 8.72120585,45.1568526 L8.65706001,45.3577625 C8.61794354,45.4895592 8.58540283,45.6185793 8.55868197,45.7471929 L8.50808621,46.0180047 C8.47297605,46.254409 8.45621213,46.4558554 8.45730807,46.6487409 L8.59630202,95.5743205 L8.60180573,95.7619566 L8.607,95.827 L1.58053915,91.7436051 C1.31301103,91.588124 1.14055975,91.218818 1.13829596,90.6558893 L0.999297982,41.7294795 C0.999297982,41.6468498 1.00331385,41.5604334 1.01131156,41.4702297 L1.07659034,41.0399581 L1.10311018,40.9244411 L1.19938199,40.5927438 L1.27294313,40.385846 L1.36053835,40.1735953 L1.50897754,39.8645352 L1.62604646,39.6531479 L1.68065866,39.561186 L1.80280136,39.3704174 L2.01358704,39.0788261 L2.23096154,38.8227317 L2.41385339,38.6274534 L2.71966107,38.359715 C2.85086698,38.2551324 2.97753046,38.1668323 3.09881814,38.0966131 L67.0853004,1.15391244 L67.2701792,1.05680192 L67.3798332,1.01146225 L67.582,0.941 L67.6473694,0.926329171 L67.7466273,0.909950037 L67.852035,0.899130177 L67.9627769,0.901592847 L68.1132558,0.928299056 L68.1837297,0.953065459 L68.2477819,0.983613143 Z" id="Stroke-21" fill="#0A83FF" fill-rule="nonzero"></path>
                                    <path d="M54.9219351,21.4166598 L51.3759351,23.6116598 C51.2802179,23.6709094 51.2072954,23.7607256 51.1689698,23.8665719 L37.8039698,60.7775719 C37.7528525,60.918746 37.767882,61.0754183 37.8449056,61.2042999 L39.6109056,64.1592999 L39.6660806,64.235328 C39.9070497,64.5104782 40.3756288,64.4395427 40.5094478,64.0751737 L54.5,25.979 L58.4490787,24.088747 C58.8099965,23.9158873 58.8317066,23.410177 58.4869312,23.2070219 L55.4389312,21.4110219 C55.2789258,21.3167405 55.0798464,21.3189115 54.9219351,21.4166598 Z M55.191,22.425 L57.17,23.592 L53.8851213,25.165853 L53.8179515,25.204697 C53.7330644,25.2630209 53.6676934,25.346564 53.6317522,25.4444263 L39.931,62.746 L38.825,60.895 L52.05,24.369 L55.191,22.425 Z" id="Stroke-23" fill="#0A83FF" fill-rule="nonzero"></path>
                                    <path d="M26.9761488,46.9193658 C26.8067908,46.8784757 26.6283595,46.9286912 26.5051855,47.0519077 L23.6131855,49.9449077 C23.4509109,50.1072384 23.420003,50.3592053 23.5382316,50.5559444 L37.3292316,73.5049444 C37.4196339,73.6553789 37.5822919,73.7474 37.7578,73.7474 L41.4318,73.7474 L41.5155854,73.7405933 C41.8403234,73.6869733 42.0341056,73.3266311 41.876849,73.0195155 L31.218,52.204 L31.2437893,48.3466663 C31.2453059,48.1145117 31.0868237,47.9118531 30.8611488,47.8573658 L26.9761488,46.9193658 Z M27.013,47.957 L30.24,48.736 L30.2178107,52.3201337 L30.2236835,52.3998782 C30.2318243,52.4524746 30.2483378,52.5036066 30.272751,52.5512845 L40.613,72.747 L38.041,72.747 L24.596,50.375 L27.013,47.957 Z" id="Stroke-25" fill="#0A83FF" fill-rule="nonzero"></path>
                                    <polygon id="Fill-27" fill="#0A83FF" points="27.7116 51.3756 30.7436 48.3436 40.0396 63.9026 54.1016 25.6166 58.2326 23.6376 41.4316 73.2476"></polygon>
                                    <path d="M53.8855787,25.1656734 L53.8184225,25.204517 C53.7335524,25.262838 53.668194,25.3463693 53.6322562,25.4442155 L39.931,62.747 L31.1728252,48.0871518 C31.0057901,47.8075799 30.6203303,47.7597629 30.3900466,47.9900466 L27.3580466,51.0220466 C27.1931952,51.186898 27.1641507,51.4438004 27.2880366,51.6412954 L41.0080366,73.5132954 C41.2319719,73.8702862 41.770004,73.8071285 41.9051792,73.4079831 L58.7061792,23.7979831 C58.8481312,23.3788272 58.4156853,22.9954771 58.0165787,23.1866734 L53.8855787,25.1656734 Z M57.379,24.6 L41.296,72.09 L28.347,51.447 L30.643,49.151 L39.6103748,64.1590482 L39.6655436,64.2350866 C39.9064932,64.510277 40.3751092,64.4393701 40.5089438,64.0749845 L54.5,25.979 L57.379,24.6 Z" id="Stroke-29" fill="#0A83FF" fill-rule="nonzero"></path>
                                    <g transform="translate(51.000000, 24.000000)" fill="#0A83FF">
                                        <line x1="0.6393" y1="0.0368" x2="3.1013" y2="1.6168" id="Fill-31"></line>
                                        <path d="M0.218499865,-0.233250452 C0.351072973,-0.439829561 0.610191935,-0.516110544 0.829360221,-0.425762391 L0.909350452,-0.384000135 L3.37135045,1.19599987 C3.60375195,1.34514461 3.67124488,1.65444895 3.52210013,1.88685045 C3.38952703,2.09342956 3.13040806,2.16971054 2.91123978,2.07936239 L2.83124955,2.03760013 L0.369249548,0.457600135 C0.136848051,0.308455388 0.069355119,-0.00084895488 0.218499865,-0.233250452 Z" id="Stroke-33" fill-rule="nonzero"></path>
                                    </g>
                                    <path d="M71.3957,40.255378 L71.3957,34.9490058 L56.5427,43.7409354 L56.5427,49.3346535 L71.3957,40.255378 Z M70.395,36.703 L70.395,39.694 L57.542,47.551 L57.542,44.311 L70.395,36.703 Z" id="Stroke-34" fill="#0A83FF" fill-rule="nonzero"></path>
                                    <polygon id="Fill-36" fill="#0A83FF" points="57.0427 50.964 57.0427 54.166 67.0857 48.026 67.0857 45.019"></polygon>
                                    <polygon id="Fill-38" fill="#0A83FF" points="57.0427 57.1891 57.0427 60.3911 72.4707 51.0961 72.4707 48.0881"></polygon>
                                </g>
                            </g>
                        </g>
                    </g>
                </g>
            </g>
        </g>
    </g>
</svg>