<?xml version="1.0" encoding="UTF-8"?>
<svg width="121px" height="121px" viewBox="0 0 121 121" version="1.1" xmlns="http://www.w3.org/2000/svg" xmlns:xlink="http://www.w3.org/1999/xlink">
    <title>服务管理</title>
    <defs>
        <rect id="path-1" x="0" y="0" width="121" height="121" rx="1"></rect>
    </defs>
    <g id="基础数据-电子地图" stroke="none" stroke-width="1" fill="none" fill-rule="evenodd">
        <g id="基础平台-平台概览" transform="translate(-422.000000, -3394.000000)">
            <g id="运营中心" transform="translate(0.000000, 3205.000000)">
                <g id="编组-8" transform="translate(370.000000, 87.000000)">
                    <g id="服务管理" transform="translate(52.000000, 102.000000)">
                        <mask id="mask-2" fill="white">
                            <use xlink:href="#path-1"></use>
                        </mask>
                        <g id="蒙版"></g>
                        <g id="编组" mask="url(#mask-2)">
                            <g transform="translate(19.000000, 11.000000)">
                                <path d="M58.2068584,80.3109536 C54.9436616,82.1945363 52.3353021,86.7122729 52.3457408,90.4643952 C52.3557748,94.4223347 55.3036129,96.1018647 58.7438622,94.1149768 C62.0078476,92.230495 64.6162982,87.7128356 64.6058596,83.9607364 C64.5958249,80.0025425 61.6489485,78.324281 58.2068584,80.3109536 Z M63.6058594,83.9633952 C63.6153009,87.3568206 61.1980516,91.5433322 58.2437981,93.2489884 C55.4670836,94.8526571 53.3538226,93.6486272 53.3457409,90.4617364 C53.3362995,87.0682962 55.7534432,82.8817495 58.7067577,81.1770371 C61.4249861,79.6081561 63.5056195,80.7253284 63.6023374,83.7582398 L63.6058594,83.9633952 Z" id="Stroke-1" fill="#0A83FF" fill-rule="nonzero"></path>
                                <path d="M0.0460026992,57.9462571 L-9.47945777e-06,82.007944 C-0.00238645713,83.1041534 0.736353808,84.385936 1.68576129,84.9347748 L19.9392458,94.8552136 C21.0590462,95.5014938 22.1247405,94.8945555 22.1289973,93.5905322 L22.1750095,69.529856 C22.177393,68.4366208 21.4358571,67.1546584 20.4828769,66.6048162 L2.22975424,56.6845864 C1.11495158,56.041353 0.050267889,56.6482176 0.0460026992,57.9462571 Z M1.64561892,57.5059487 L19.9942458,67.4772136 C20.6264688,67.8421757 21.1766112,68.7932583 21.1750093,69.5278073 L21.1290009,93.587944 C21.1273858,94.0825739 20.9274313,94.2317178 20.524473,94.0344815 L2.17475424,84.0625864 C1.54643667,83.6991648 0.998389487,82.7482524 0.999990658,82.0099868 L1.04599909,57.948856 C1.04760723,57.4595768 1.24690608,57.3110944 1.64561892,57.5059487 Z" id="Stroke-3" fill="#0A83FF" fill-rule="nonzero"></path>
                                <path d="M58.6492,25.368 C57.9452,24.961 57.3702,25.289 57.3682,26.098 L57.3271948,49.683 C57.3252,50.496 57.8962,51.487 58.6002,51.893 L76.6622,62.208 C77.3702,62.617 77.9462,62.289 77.9482,61.475 L77.9882117,37.89 C77.9912,37.081 77.4192,36.092 76.7112,35.682 L58.6492,25.368 Z" id="Fill-5" fill="#E5EEF5" fill-rule="evenodd"></path>
                                <path d="M56.8682015,26.0967639 L56.8271889,49.6821307 C56.8247622,50.6738375 57.4911308,51.8305836 58.3504098,52.3261338 L76.4142419,62.6421852 C77.4520129,63.2416956 78.4452513,62.6757311 78.4481985,61.4762285 L78.4882259,37.8908482 C78.4918603,36.9031675 77.8241869,35.7487391 76.9617663,35.2493148 L58.89714,24.9338045 C57.8636429,24.3363058 56.871155,24.9020666 56.8682015,26.0967639 Z M58.3989485,25.8008674 L76.46326,36.1161955 C77.0142184,36.435264 77.4905397,37.2588386 77.4882236,37.8881531 L77.4482007,61.4741518 C77.4471492,61.9020538 77.2885743,61.9924125 76.9123082,61.7750498 L58.8481581,51.4588148 C58.3011,51.1433187 57.8256383,50.3179671 57.8271902,49.6838693 L57.8681992,26.0988693 C57.8692455,25.6757078 58.0269532,25.5858076 58.3989485,25.8008674 Z" id="Stroke-7" fill="#0A83FF" fill-rule="nonzero"></path>
                                <path d="M82.8181,34.8441 C82.8161,34.8291 82.8131,34.8151 82.8101,34.8001 C82.8081,34.7851 82.8051,34.7701 82.8021,34.7551 C82.7971,34.7261 82.7941,34.6971 82.7881,34.6671 C82.7771,34.6191 82.7651,34.5701 82.7521,34.5211 C82.7481,34.5061 82.7431,34.4911 82.7381,34.4761 C82.7351,34.4681 82.7331,34.4591 82.7301,34.4491 L82.7131,34.3911 C82.6991,34.3511 82.6841,34.3111 82.6691,34.2711 C82.6541,34.2321 82.6381,34.1941 82.6221,34.1561 L82.6191,34.1491 C82.6181,34.1461 82.6171,34.1441 82.6161,34.1421 C82.6011,34.1101 82.5871,34.0771 82.5711,34.0451 C82.5531,34.0081 82.5351,33.9721 82.5161,33.9361 C82.5001,33.9051 82.4821,33.8741 82.4641,33.8441 C82.4631,33.8411 82.4621,33.8391 82.4611,33.8361 C82.4591,33.8331 82.4581,33.8311 82.4561,33.8281 C82.4341,33.7921 82.4131,33.7561 82.3891,33.7191 C82.3661,33.6821 82.3401,33.6451 82.3151,33.6091 C82.3041,33.5931 82.2931,33.5781 82.2811,33.5621 C82.2751,33.5541 82.2691,33.5461 82.2631,33.5381 C82.2531,33.5231 82.2421,33.5081 82.2301,33.4931 C82.1971,33.4491 82.1621,33.4071 82.1261,33.3661 C82.1101,33.3481 82.0921,33.3311 82.0771,33.3141 C82.0621,33.2981 82.0481,33.2831 82.0341,33.2681 C82.0171,33.2511 82.0031,33.2331 81.9861,33.2171 C81.9491,33.1811 81.9101,33.1501 81.8721,33.1171 C81.8471,33.0951 81.8231,33.0721 81.7971,33.0521 C81.7191,32.9901 81.6391,32.9321 81.5561,32.8851 L63.4961,22.5701 C63.4351,22.5351 63.3761,22.5061 63.3171,22.4811 C63.2971,22.4731 63.2791,22.4691 63.2591,22.4621 C63.2451,22.4561 63.2301,22.4511 63.2151,22.4471 C63.2001,22.4411 63.1831,22.4341 63.1681,22.4291 C63.1301,22.4191 63.0911,22.4111 63.0551,22.4061 C63.0391,22.4031 63.0221,22.4031 63.0061,22.4011 C63.0001,22.4001 62.9941,22.3991 62.9871,22.3991 C62.9781,22.3981 62.9681,22.3971 62.9601,22.3961 C62.9311,22.3954431 62.9031,22.3954431 62.8761,22.3971 C62.8491,22.3991 62.8231,22.4021 62.7971,22.4061 C62.7931,22.4071 62.7881,22.4081 62.7821,22.4091 C62.7781,22.4101 62.7751,22.4111 62.7711,22.4121 C62.7561,22.4151 62.7411,22.4181 62.7261,22.4231 C62.7031,22.4291 62.6801,22.4371 62.6581,22.4471 C62.6361,22.4561 62.6151,22.4661 62.5941,22.4781 C62.5911,22.4791 62.5891,22.4811 62.5871,22.4821 L57.7411,25.2801 C57.7971,25.2471 57.8591,25.2241 57.9251,25.2101 C57.9281,25.2091 57.9321,25.2081 57.9361,25.2071 C58.0011,25.1951 58.0691,25.1911 58.1411,25.1971 C58.1471,25.1971 58.1541,25.1981 58.1601,25.1981 C58.2271,25.2051 58.2971,25.2211 58.3701,25.2441 C58.3841,25.2491 58.3991,25.2541 58.4141,25.2601 C58.4901,25.2871 58.5691,25.3211 58.6491,25.3681 L76.7111,35.6821 C76.7941,35.7301 76.8741,35.7871 76.9521,35.8491 C76.9771,35.8701 77.0021,35.8931 77.0261,35.9151 C77.0811,35.9631 77.1351,36.0121 77.1881,36.0661 C77.2021,36.0811 77.2161,36.0961 77.2301,36.1111 C77.2961,36.1821 77.3591,36.2571 77.4181,36.3361 C77.4231,36.3441 77.4291,36.3521 77.4351,36.3601 C77.4991,36.4481 77.5591,36.5391 77.6141,36.6341 C77.6161,36.6361 77.6171,36.6391 77.6191,36.6411 C77.6741,36.7391 77.7251,36.8381 77.7691,36.9401 C77.7701,36.9421 77.7721,36.9441 77.7731,36.9471 C77.8161,37.0461 77.8531,37.1471 77.8841,37.2481 C77.8861,37.2571 77.8891,37.2651 77.8921,37.2741 C77.9201,37.3671 77.9411,37.4601 77.9571,37.5521 C77.9601,37.5681 77.9631,37.5831 77.9641,37.5981 C77.9791,37.6981 77.9891,37.7951 77.9881,37.8901 L77.9481,61.4751 C77.9471,61.8791 77.8041,62.1641 77.5741,62.2971 L82.4211,59.4991 C82.6501,59.3661 82.7931,59.0811 82.7941,58.6771 L82.8351,35.0931 C82.8351,35.0111 82.8291,34.9281 82.8181,34.8441" id="Fill-9" fill="#E5EEF5" fill-rule="evenodd"></path>
                                <path d="M78.0551252,36.396392 L77.9482535,36.2235895 L77.8420992,36.0711005 C77.7806159,35.9868636 77.7271074,35.9193256 77.6747763,35.8583901 L77.5536276,35.7249409 L77.4567601,35.6301229 L77.273696,35.4662476 L77.1652046,35.3831376 C77.0951645,35.3318526 77.0288774,35.2882837 76.9614125,35.2492679 L59.121,25.061 L62.8472294,22.9093213 L62.8998563,22.8967324 L62.9959716,22.9029396 L63.1314047,22.9453383 C63.164423,22.9594409 63.2053347,22.9797249 63.2472653,23.0037834 L81.3081212,33.3192733 C81.3425708,33.3387836 81.3792521,33.3629492 81.4204672,33.3932571 L81.6469409,33.5861476 L81.7523953,33.6982819 L81.8470749,33.8154501 L81.9942367,34.0306328 L82.0906196,34.2018066 L82.2024272,34.4505895 L82.2436618,34.5632273 L82.2689825,34.6499313 L82.3026401,34.7868024 L82.326165,34.9335427 L82.3351,35.0931 L82.2941008,58.6762308 L82.2892881,58.7818648 C82.2740938,58.9436496 82.2249159,59.0348298 82.1699867,59.066732 L78.448,61.215 L78.4880993,37.890948 L78.4855247,37.7758872 L78.4755819,37.6545736 L78.4485361,37.4599557 L78.4148848,37.2947798 L78.3721935,37.1396348 C78.3408665,37.0340141 78.3110492,36.9461805 78.2798663,36.8653197 L78.212,36.706 L78.1733244,36.6217316 C78.1406656,36.5537937 78.1004276,36.4771126 78.0551252,36.396392 Z M63.1238842,21.9108539 L63.0221174,21.8999611 L62.92,21.895 L62.7644511,21.905934 L62.6999005,21.915903 L62.6096653,21.9368235 L62.5456599,21.9554107 L62.47181,21.9831 L62.4069406,22.011723 L62.319,22.059 L57.4872538,24.8493308 L57.4158343,24.8983531 C56.9827801,25.2445837 57.3987352,25.9576668 57.913283,25.7511429 L58.0085492,25.7047663 L58.0595317,25.6935354 L58.15337,25.6997997 L58.2284047,25.7243383 C58.2783721,25.742361 58.3163602,25.7580156 58.3493106,25.774191 L76.46316,36.1162955 L76.577217,36.1917405 L76.6882377,36.2836771 L76.8493385,36.4359286 L76.9438254,36.5421308 L77.0351,36.6601 L77.147625,36.8278265 L77.193,36.904 L77.273742,37.0587601 L77.318,37.155 L77.3433042,37.2154059 L77.4177584,37.4322139 L77.4341344,37.4926869 L77.4666884,37.644385 L77.4641,37.5981 L77.4853233,37.8059436 L77.4881277,37.8848371 L77.4481007,61.474252 L77.4432948,61.5798412 C77.4311544,61.7091706 77.3972754,61.793181 77.355961,61.837947 L77.323,61.864 L77.2519825,61.9126616 C76.8143001,62.256453 77.2298207,62.9756425 77.7462659,62.7681748 L77.8240721,62.7301288 L82.6710721,59.9321288 C83.0782222,59.6956638 83.2927194,59.2354924 83.2940985,58.6783376 L83.3350992,35.0939692 C83.3350992,34.9904768 83.3278693,34.8861028 83.3138672,34.7791781 L83.2818902,34.5885425 L83.2375599,34.4013976 L83.1929143,34.2504648 L83.1215005,34.0553692 L83.0183136,33.8214932 L82.9405308,33.6693006 L82.891,33.587 L82.8790301,33.5610845 L82.7723155,33.3914179 L82.6422836,33.2088018 L82.5471616,33.0888976 L82.3542996,32.878395 L82.1378866,32.6849883 L82.1019554,32.655788 C82.0012138,32.5756305 81.9041083,32.5075659 81.802474,32.450014 L63.7440788,22.1359267 C63.6680985,22.0923303 63.591275,22.0542413 63.5121745,22.0207241 L63.3262139,21.9547584 L63.2471012,21.9343385 L63.1238842,21.9108539 Z" id="Stroke-11" fill="#0A83FF" fill-rule="nonzero"></path>
                                <path d="M53.8884,30.9271 C53.2654,30.5671 52.7564,30.8571 52.7544,31.5731 L52.7183941,52.4391 C52.7164,53.1591 53.2224,54.0351 53.8454,54.3951 L69.8254,63.5211 C70.4514,63.8831 70.9604,63.5931 70.9624,62.8721 L70.9984059,42.0061 C71.0004,41.2901 70.4944,40.4141 69.8674,40.0521 L53.8884,30.9271 Z" id="Fill-13" fill="#E5EEF5" fill-rule="evenodd"></path>
                                <path d="M52.254402,31.5717034 L52.2183871,52.4382372 C52.2159075,53.3362165 52.8167136,54.3781495 53.595238,54.8280192 L69.5774417,63.9552851 C70.5332373,64.508006 71.4593295,63.9796945 71.4623981,62.873487 L71.4984129,42.0069628 C71.5008999,41.1113196 70.8986268,40.0701305 70.1174007,39.6190877 L54.1363495,30.4929099 C53.1837792,29.9424605 52.2574789,30.4701641 52.254402,31.5717034 Z M53.638238,31.3600192 L69.6194505,40.4862901 C70.0890924,40.7574455 70.4999036,41.4676419 70.4984119,42.0047075 L70.4624007,62.8712372 C70.4614715,63.2061337 70.3698858,63.2583809 70.0757001,63.0882607 L54.0933583,53.9609149 C53.6267737,53.691292 53.2168966,52.9804728 53.2183893,52.4399628 L53.2543993,31.5739628 C53.2553212,31.2440079 53.3470452,31.1917536 53.638238,31.3600192 Z" id="Stroke-15" fill="#0A83FF" fill-rule="nonzero"></path>
                                <path d="M57.8738,39.0755 C57.5618,38.8955 57.3078,39.0405 57.3068,39.3985 L57.288797,49.8315 C57.2878,50.1925 57.5408,50.6305 57.8528,50.8095 L65.8418,55.3725 C66.1548,55.5535 66.4098,55.4085 66.4108,55.0485 L66.428803,44.6155 C66.4298,44.2575 66.1768,43.8195 65.8628,43.6385 L57.8738,39.0755 Z" id="Fill-17" fill="#0865C5" fill-rule="evenodd"></path>
                                <path d="M75.2712,39.3109 C75.2702,39.2979 75.2672,39.2849 75.2652,39.2719 C75.2632,39.2589 75.2602,39.2459 75.2582,39.2319 C75.2532,39.2069 75.2502,39.1809 75.2452,39.1549 C75.2362,39.1119 75.2252,39.0689 75.2132,39.0249 C75.2092,39.0119 75.2052,38.9989 75.2012,38.9859 C75.1992,38.9779 75.1962,38.9699 75.1942,38.9619 C75.1882,38.9449 75.1832,38.9279 75.1782,38.9109 C75.1662,38.8749 75.1532,38.8389 75.1392,38.8039 C75.1262,38.7689 75.1132,38.7359 75.0982,38.7019 C75.0972,38.6999 75.0962,38.6979 75.0952,38.6959 L75.0922,38.6899 C75.0802,38.6609 75.0672,38.6319 75.0532,38.6039 C75.0382,38.5719 75.0212,38.5399 75.0042,38.5079 C74.9902,38.4799 74.9742,38.4529 74.9592,38.4259 C74.9582,38.4239 74.9572,38.4209 74.9552,38.4189 C74.9542,38.4169 74.9532,38.4149 74.9512,38.4119 C74.9322,38.3799 74.9132,38.3479 74.8922,38.3159 C74.8722,38.2829 74.8492,38.2499 74.8272,38.2179 C74.8172,38.2039 74.8062,38.1909 74.7962,38.1769 C74.7922,38.1699 74.7862,38.1629 74.7812,38.1559 C74.7712,38.1429 74.7612,38.1289 74.7512,38.1159 C74.7212,38.0779 74.6912,38.0399 74.6592,38.0039 C74.6452,37.9869 74.6292,37.9729 74.6162,37.9569 C74.6032,37.9429 74.5902,37.9299 74.5782,37.9159 C74.5632,37.9019 74.5492,37.8859 74.5352,37.8719 C74.5022,37.8399 74.4682,37.8119 74.4352,37.7829 C74.4132,37.7639 74.3912,37.7429 74.3692,37.7259 C74.2992,37.6699 74.2292,37.6199 74.1562,37.5779 L58.1762,28.4519 C58.1232,28.4209 58.0702,28.3939 58.0182,28.3729 C58.0012,28.3659 57.9852,28.3619 57.9672,28.3549 C57.9552,28.3509 57.9412,28.3459 57.9282,28.3419 C57.9152,28.3379 57.9002,28.3319 57.8852,28.3279 C57.8522,28.3179 57.8192,28.3109 57.7872,28.3059 C57.7722,28.3039 57.7572,28.3029 57.7432,28.3019 C57.7372,28.3009 57.7322,28.3009 57.7262,28.2999 C57.7182,28.2999 57.7092,28.2979 57.7022,28.2979 C57.6762,28.29715 57.6522,28.29715 57.6272,28.2979 C57.6042,28.2999 57.5812,28.3029 57.5592,28.3069 C57.5542,28.3069 57.5492,28.3089 57.5442,28.3099 C57.5422,28.3109 57.5392,28.3109 57.5362,28.3119 C57.5222,28.3149 57.5082,28.3169 57.4952,28.3209 C57.4742,28.3269 57.4552,28.3339 57.4352,28.3419 C57.4162,28.3509 57.3972,28.3599 57.3782,28.3699 L57.3722,28.3729 L53.0842,30.8489 C53.1342,30.8199 53.1892,30.7999 53.2482,30.7869 C53.2502,30.7869 53.2532,30.7859 53.2562,30.7849 C53.3142,30.7739 53.3752,30.7709 53.4392,30.7759 C53.4442,30.7759 53.4502,30.7769 53.4562,30.7769 C53.5152,30.7829 53.5772,30.7969 53.6412,30.8179 C53.6542,30.8219 53.6672,30.8259 53.6802,30.8309 C53.7482,30.8549 53.8172,30.8859 53.8882,30.9269 L69.8682,40.0529 C69.9412,40.0949 70.0122,40.1449 70.0822,40.2009 C70.1042,40.2189 70.1252,40.2389 70.1472,40.2589 C70.1962,40.3009 70.2442,40.3439 70.2912,40.3919 C70.3032,40.4049 70.3152,40.4179 70.3282,40.4319 C70.3852,40.4949 70.4412,40.5609 70.4942,40.6309 C70.4992,40.6379 70.5032,40.6449 70.5082,40.6519 C70.5662,40.7299 70.6192,40.8109 70.6672,40.8939 C70.6682,40.8969 70.6692,40.8989 70.6712,40.9009 C70.7202,40.9869 70.7652,41.0759 70.8052,41.1649 C70.8062,41.1669 70.8072,41.1689 70.8072,41.1709 C70.8462,41.2589 70.8782,41.3489 70.9072,41.4379 C70.9092,41.4459 70.9112,41.4529 70.9142,41.4599 C70.9382,41.5429 70.9572,41.6249 70.9702,41.7069 C70.9722,41.7209 70.9752,41.7339 70.9772,41.7479 C70.9912,41.8359 70.9992,41.9219 70.9992,42.0059 L70.9622,62.8729 C70.9612,63.2299 70.8352,63.4819 70.6322,63.6009 L74.9192,61.1249 C75.1232,61.0069 75.2502,60.7549 75.2502,60.3969 L75.2862,39.5309 C75.2862,39.4589 75.2812,39.3849 75.2712,39.3109" id="Fill-19" fill="#E5EEF5" fill-rule="evenodd"></path>
                                <path d="M57.6222244,28.8058986 L57.657,28.797 L57.7282418,28.8032076 L57.8278251,28.835239 L57.8734502,28.8560183 L73.9082417,38.0120851 L74.0028613,38.0747689 L74.183,38.227 L74.2812573,38.3310452 L74.373,38.441 L74.5482842,38.7152703 L74.6156807,38.8478108 L74.649,38.921 L74.63336,38.8491151 L74.6704874,38.9779933 L74.7161287,39.1071678 L74.7353105,39.1719429 L74.775,39.373 L74.7849184,39.4795465 C74.7858097,39.497537 74.7862,39.5143247 74.7862,39.5309 L74.7502007,60.3960374 L74.7469328,60.4802601 C74.7363762,60.6078927 74.7019494,60.6729438 74.6688491,60.6920901 L71.463,62.543 L71.4991992,42.0067866 L71.4920318,41.8404889 L71.4651747,41.6361893 L71.4347639,41.4771125 L71.3922713,41.3166322 L71.3263252,41.1218387 L71.2643197,40.9683128 L71.1886307,40.8080967 L71.1000321,40.6435875 L71.0087533,40.4955989 L70.9010667,40.3402809 L70.8014062,40.2143368 L70.6586017,40.0527599 L70.5669344,39.9631063 L70.3988189,39.8139214 L70.3038833,39.7412159 C70.241353,39.6955854 70.1799756,39.6554288 70.1175471,39.619511 L54.42,30.654 L57.6222244,28.8058986 Z M57.8643884,27.811894 L57.7022,27.7979 L57.5838852,27.7997797 L57.4697573,27.814965 L57.3481571,27.8430105 L57.2495047,27.8776617 L57.1472997,27.9263355 L52.833341,30.4163844 C52.2833972,30.7353518 52.7141969,31.5374567 53.2568675,31.3196337 L53.3560586,31.2727327 L53.386,31.267 L53.380224,31.2715807 L53.4435807,31.2777307 L53.5007105,31.2975728 C53.5560479,31.3173097 53.5967013,31.3359487 53.6381628,31.3598912 L69.6202417,40.4870851 L69.6916742,40.532694 L69.7702881,40.5918684 L69.9013656,40.7097132 L69.9403367,40.7488589 L70.0316604,40.8524795 L70.1013333,40.9425191 L70.1724617,41.0439908 L70.2367679,41.1484253 C70.2779298,41.2206687 70.315198,41.2945872 70.3498981,41.3730756 L70.3769196,41.4378848 L70.4546275,41.6568596 L70.4822253,41.8186107 L70.4974198,41.950197 C70.4986243,41.9696626 70.4992,41.9881187 70.4992,42.0059 L70.4622008,62.8720134 C70.4616864,63.055553 70.4196329,63.1459312 70.3793403,63.169551 L70.3077295,63.2184673 C69.8734553,63.5641012 70.2892803,64.2787302 70.8067161,64.0694785 L70.8850597,64.032249 L75.1692681,61.5578734 C75.5504781,61.3373697 75.7502,60.9100172 75.7502,60.3969 L75.7861993,39.5317626 L75.7813035,39.3879189 L75.7362032,39.0604763 L75.6578828,38.7698168 L75.5815285,38.561378 C75.57351,38.5414972 75.5648315,38.5208711 75.5556589,38.5000799 L75.5982,38.7019 L75.5394136,38.4662932 L75.4871274,38.3527224 L75.3861361,38.1641012 L75.239221,37.9346356 L75.1512,37.8159 L75.0140324,37.6506028 L74.8572994,37.4885677 L74.6749238,37.3302575 C74.5878462,37.2605045 74.4984758,37.1979768 74.4055471,37.144511 L58.4241583,28.0177149 L58.3161202,27.959227 L58.182121,27.9002506 L58.0140313,27.8447825 L57.9196783,27.8216812 C57.9017703,27.8181329 57.8831505,27.8148256 57.8643884,27.811894 Z" id="Stroke-21" fill="#0A83FF" fill-rule="nonzero"></path>
                                <path d="M29.708,63.693 L29.7261697,63.7193682 L29.8040835,63.8586977 L29.926648,64.1143073 L29.9820888,64.2503288 L30.083782,64.555285 L30.1252206,64.7274852 L30.1646106,64.9537813 L30.1816084,65.1173446 L30.1872991,65.2800558 L30.1452986,87.251299 C30.1440695,87.7638017 29.9664191,88.1947545 29.6288241,88.4511774 L29.5103911,88.5300601 L27.3913911,89.7540601 L26.8912089,88.8881399 L29.0092764,87.6646799 C29.0706692,87.6290408 29.1238014,87.5313449 29.1401407,87.3605103 L29.1453009,87.2491442 L29.1873,65.2791 L29.1840202,65.1863336 L29.1693894,65.0609997 L29.1330184,64.8696629 L29.0695548,64.6643661 L29.004,64.499 L28.998961,64.4904749 L28.9041564,64.2974408 L28.8083604,64.1339331 L28.6653663,63.9325165 L28.6240364,63.8802449 L28.4587466,63.6996534 L28.3093208,63.5684174 C28.2627702,63.5316366 28.2196095,63.5001423 28.1824471,63.4753615 L28.1315283,63.4434041 L11.3984686,54.3490318 L11.3164082,54.3147952 L11.1993988,54.2776474 L11.1101456,54.2689683 L11.0380363,54.2869924 L9.32111727,55.2772182 L8.82148273,54.4109818 L10.5886446,53.3934538 L10.6609836,53.3603265 L10.7428185,53.3297609 L10.9182714,53.2869142 L11.0386765,53.2733707 L11.1323407,53.2705495 L11.3372813,53.2872185 L11.4133736,53.3014187 L11.563638,53.341617 L11.7186991,53.3969523 L11.8380106,53.4506317 L28.6200142,62.5709224 C28.6885561,62.6104348 28.7563048,62.6548472 28.8263329,62.7057378 L28.9681761,62.8163898 L29.120848,62.9496956 L29.3270679,63.1646433 L29.3953221,63.2435771 L29.5613958,63.4626272 L29.6963971,63.6692924 L29.708,63.693 Z" id="Stroke-23" fill="#0A83FF" fill-rule="nonzero"></path>
                                <polygon id="Stroke-25" fill="#0A83FF" fill-rule="nonzero" points="26.5406159 64.6301606 27.0227841 65.5062394 21.4937841 68.5492394 21.0116159 67.6731606"></polygon>
                                <path d="M51.69216,0.199401231 C55.228775,-0.278382355 58.5075404,0.107308848 61.3788326,1.32880353 C61.8032464,1.50935612 61.7776879,2.11934147 61.3396578,2.2637575 C60.6367564,2.49550012 59.9121456,2.76761098 59.161262,3.08067289 L58.5931019,3.32315675 L58.4954176,3.35431916 C58.0425736,3.44899037 57.6150556,3.54859085 57.2001369,3.65725433 L56.7889467,3.76909193 L56.5172533,2.80670807 C56.9427456,2.68658609 57.3758813,2.57761382 57.8296521,2.47548627 L58.241,2.386 L58.7778441,2.15709606 C58.9711528,2.07650991 59.1628803,1.99851734 59.3531031,1.92311036 L59.725,1.779 L59.4021197,1.67822727 C57.2331905,1.03165563 54.8480389,0.844172279 52.3047464,1.13104712 L51.82604,1.19039877 L51.69216,0.199401231 Z" id="Stroke-27" fill="#0A83FF" fill-rule="nonzero"></path>
                                <path d="M58.2901659,2.37535225 C57.6631117,2.50753616 57.0836192,2.64753433 56.5182117,2.80619459 C56.1250897,2.91650947 56.0227823,3.42602588 56.3428491,3.67954421 L56.6339653,3.91734062 C56.7852702,4.04292372 56.9961343,4.06816468 57.172805,3.9818411 C57.6778963,3.735047 58.1447061,3.51806194 58.5928033,3.32307401 C59.1450943,3.08274658 58.8795277,2.25111396 58.2901659,2.37535225 Z" id="Stroke-29" fill="#0A83FF" fill-rule="nonzero"></path>
                                <path d="M61.0263422,1.3144425 C60.1127888,1.61563584 59.1704687,1.9793917 58.1928981,2.40604325 C57.6414256,2.64672828 57.9067026,3.47721376 58.495584,3.35364241 C59.8558445,3.06820424 61.1674013,2.90814488 62.4230432,2.87512723 C62.9354688,2.86165277 63.0981634,2.17767665 62.6466859,1.93492241 C62.239746,1.71611549 61.8162058,1.51404779 61.3774689,1.32871024 C61.2660085,1.28162553 61.1412553,1.27655629 61.0263422,1.3144425 Z" id="Stroke-31" fill="#0A83FF" fill-rule="nonzero"></path>
                                <path d="M62.3967568,1.87529996 C61.0791978,1.91011856 59.7079119,2.07746714 58.290216,2.37495759 L58.1922388,2.40633158 C57.7085883,2.61824554 57.2220583,2.84427924 56.7326451,3.0844261 C56.4061199,3.24464654 56.3544774,3.68879827 56.6355303,3.91966313 C56.7618214,4.02340228 56.8464589,4.03783141 56.984206,4.04006128 L57.1203317,4.03377373 L57.3049524,4.01160829 L57.8266984,3.92733798 L59.0016393,3.72470523 L59.1794347,3.69982668 L59.239,3.693 L59.2093637,3.68615428 C66.7133597,5.37100181 70.3444729,12.7521174 70.4726605,25.4689519 L70.4756686,26.155487 L70.4676048,26.7361381 L70.4481621,27.4321142 C70.4420527,27.6207414 70.5426726,27.7967369 70.7083234,27.8871656 L71.5253234,28.3331656 C71.8378989,28.5038005 72.2235876,28.3022527 72.2619851,27.9482113 C72.4556793,26.1622668 72.5528177,24.452128 72.5478977,22.8137985 C72.5191989,12.7305908 68.918503,5.29883888 62.6462298,1.93467748 C62.5696318,1.89359381 62.483647,1.87318796 62.3967568,1.87529996 Z M61.8815086,2.89705087 L62.291,2.88 L62.1735702,2.81592252 C68.0876274,5.98795323 71.5201683,13.0726374 71.547902,22.8167231 L71.5438623,23.506894 C71.5371132,23.9700213 71.5222718,24.4391892 71.499456,24.9144812 L71.471,25.413 L71.4659425,24.9736694 C71.2581273,12.9701072 67.881839,5.5121947 60.9267685,3.13208644 L60.563,3.013 L60.7784039,2.98745017 C61.1504737,2.94699157 61.5182313,2.91684554 61.8815086,2.89705087 Z" id="Stroke-33" fill="#0A83FF" fill-rule="nonzero"></path>
                                <polygon id="Stroke-35" fill="#0A83FF" fill-rule="nonzero" points="71.1879766 27.0095344 72.0049766 27.4555344 71.5258234 28.3332656 70.7088234 27.8872656"></polygon>
                                <path d="M57.3082803,3.26143315 C56.8017856,3.14777263 56.4789911,3.78578061 56.8706029,4.12650904 C61.1217816,7.82531908 63.5378289,14.0334455 63.6582383,22.0326791 L63.6627287,22.6552075 L63.658044,23.0155627 L63.6409291,23.7209393 C63.6366804,23.9078791 63.7370957,24.0815669 63.9012204,24.171164 L70.7082204,27.887164 C71.0351684,28.0656477 71.4354797,27.8367842 71.4475379,27.4644858 L71.4673397,26.7550508 L71.4741051,26.3501465 L71.4758531,25.9713328 C71.4411085,13.6054119 66.0950737,5.23324341 57.3082803,3.26143315 Z M58.958,4.779 L59.2401321,4.88300059 C66.1346601,7.51281203 70.3172744,14.8808376 70.4715985,25.4821244 L70.4756045,26.1555186 L70.469,26.617 L64.648,23.439 L64.6613644,22.8236447 L64.6627984,22.543031 C64.6419636,15.0702656 62.6892278,9.01804247 59.1163877,4.95511262 L58.958,4.779 Z" id="Stroke-37" fill="#0A83FF" fill-rule="nonzero"></path>
                                <polygon id="Stroke-39" fill="#0A83FF" fill-rule="nonzero" points="64.3795525 23.2932212 71.1875525 27.0092212 70.7084475 27.8869788 63.9004475 24.1709788"></polygon>
                                <path d="M51.6925598,0.199201258 L51.8264402,1.19019874 C48.2997538,1.66664244 44.5448735,3.02102025 40.6934897,5.24471867 C32.0485471,10.2356036 23.9660719,18.9824027 18.1260221,29.4236529 L17.7850889,30.0397829 L16.9079111,29.5596171 C22.8554052,18.6946013 31.2094291,9.56535727 40.1934915,4.37869221 C43.9644719,2.20141683 47.6611134,0.8291366 51.1679692,0.276022807 L51.6925598,0.199201258 Z" id="Stroke-41" fill="#0A83FF" fill-rule="nonzero"></path>
                                <polygon id="Stroke-43" fill="#0A83FF" fill-rule="nonzero" points="56.5177225 2.80678854 56.7892775 3.76921146 56.5638866 3.83665836 56.0729573 3.99276179 55.7780427 3.03723821 56.4385343 2.82953356"></polygon>
                                <path d="M56.5165987,2.80693664 L56.2388026,2.89064638 L55.7784427,3.03723821 C55.2690169,3.19446837 55.3265379,3.93333122 55.8541594,4.00982651 L56.4264387,4.09559939 L56.633715,4.1328562 C56.7141684,4.14845744 56.7967937,4.14397008 56.874419,4.12035641 L56.9501121,4.09040294 L57.1716329,3.98261754 C57.4983668,3.8236659 57.551823,3.3803177 57.2722347,3.14825938 L57.0261469,2.94589073 C57.0041919,2.9282763 56.9828978,2.91137942 56.96147,2.89457329 C56.8357094,2.79593752 56.6703728,2.76336732 56.5165987,2.80693664 Z" id="Stroke-45" fill="#0A83FF" fill-rule="nonzero"></path>
                                <path d="M16.9074077,29.5601233 L17.7845923,30.0402767 C12.849854,39.0554727 9.92832945,48.69208 9.59128003,57.3868743 L9.57085614,58.0371935 L8.57114386,58.0132065 C8.78271147,49.1956456 11.6357321,39.4115895 16.5445644,30.2307898 L16.9074077,29.5601233 Z" id="Stroke-49" fill="#0A83FF" fill-rule="nonzero"></path>
                                <polygon id="Stroke-51" fill="#0A83FF" fill-rule="nonzero" points="9.31075468 57.5862224 17.6777547 62.1532224 17.1986453 63.0309776 8.83164532 58.4639776"></polygon>
                                <path d="M57.0025592,2.80061185 L57.1500851,2.77649977 L57.2602354,2.76781944 C57.27661,2.76781944 57.2922754,2.76781944 57.3076558,2.76871103 L57.3999098,2.77898371 C57.7113535,2.82937757 57.9898559,3.14091636 57.786999,3.53078719 C57.725837,3.64833459 57.653538,3.71019756 57.538881,3.78479885 L57.47363,3.82510832 L57.3036463,3.91841451 C57.2707259,3.93549324 57.2354429,3.95337516 57.197696,3.97211927 L56.9408342,4.09540216 L56.83,3.858 L56.3764093,3.95807894 L56.2197736,3.98831254 L56.0974714,4.0067309 L56.0010313,4.01542261 C53.7177103,4.73260671 51.39094,5.76716599 49.043187,7.12242023 C31.9773572,16.9746962 18.1232678,40.7716682 17.9025312,60.4676948 L17.9011278,61.2542943 L17.9127889,61.8556561 L17.9378052,62.572535 L16.9385948,62.612265 L16.9076537,61.6667812 L16.8996832,61.0658213 C16.8426989,40.8978384 30.9951808,16.3870361 48.5432307,6.2563696 C50.9531042,4.86525593 53.3467939,3.80094207 55.6988121,3.06218793 C55.7590364,3.04291615 55.8061687,3.03272302 55.8617468,3.02567351 L56.0271888,3.00668568 C56.0419318,3.00423682 56.0581406,3.00136507 56.0760878,2.99801908 L57.0025592,2.80061185 Z" id="Stroke-53" fill="#0A83FF" fill-rule="nonzero"></path>
                                <path d="M27.1228,66.0921 C27.1208,66.0751 27.1168,66.0591 27.1138,66.0431 L27.1048,65.9911 C27.0998,65.9591 27.0958,65.9261 27.0888,65.8931 C27.0768,65.8381 27.0628,65.7831 27.0478,65.7281 C27.0428,65.7111 27.0378,65.6941 27.0318,65.6771 C27.0288,65.6671 27.0258,65.6571 27.0228,65.6471 C27.0168,65.6251 27.0108,65.6031 27.0028,65.5811 C26.9878,65.5361 26.9718,65.4901 26.9538,65.4451 C26.9368,65.4021 26.9198,65.3591 26.9008,65.3161 C26.8998,65.3131 26.8988,65.3101 26.8968,65.3071 C26.8958,65.3051 26.8948,65.3031 26.8938,65.3001 C26.8778,65.2631 26.8608,65.2271 26.8448,65.1911 C26.8238,65.1491 26.8038,65.1081 26.7818,65.0681 C26.7638,65.0321 26.7438,64.9981 26.7238,64.9641 C26.7228,64.9611 26.7208,64.9581 26.7188,64.9551 C26.7178,64.9521 26.7158,64.9491 26.7138,64.9461 C26.6898,64.9051 26.6648,64.8641 26.6398,64.8241 C26.6118,64.7811 26.5848,64.7391 26.5558,64.6981 C26.5428,64.6811 26.5298,64.6641 26.5178,64.6461 C26.5108,64.6371 26.5038,64.6281 26.4968,64.6191 C26.4838,64.6021 26.4728,64.5851 26.4598,64.5681 C26.4218,64.5191 26.3828,64.4711 26.3418,64.4251 C26.3238,64.4051 26.3048,64.3861 26.2858,64.3651 C26.2698,64.3481 26.2538,64.3311 26.2378,64.3141 C26.2198,64.2951 26.2018,64.2751 26.1838,64.2571 C26.1428,64.2161 26.0988,64.1811 26.0558,64.1441 C26.0268,64.1191 26.0008,64.0931 25.9718,64.0701 C25.8838,64.0001 25.7928,63.9351 25.6998,63.8821 L7.4578,53.9671 C7.3908,53.9281 7.3228,53.8951 7.2578,53.8681 C7.2348,53.8591 7.2138,53.8531 7.1918,53.8451 C7.1758,53.8401 7.1588,53.8341 7.1428,53.8281 C7.1248,53.8221 7.1058,53.8141 7.0888,53.8091 C7.0448,53.7981 7.0028,53.7891 6.9618,53.7821 C6.9428,53.7791 6.9248,53.7791 6.9058,53.7771 C6.8988,53.7761 6.8928,53.7751 6.8848,53.7751 C6.8748,53.7741 6.8638,53.7721 6.8538,53.7721 C6.8208,53.7701 6.7898,53.7701 6.7588,53.7731 C6.7288,53.7741 6.6998,53.7781 6.6718,53.7821 C6.6648,53.7841 6.6588,53.7851 6.6528,53.7871 L6.6418,53.7901 C6.6238,53.7931 6.6068,53.7971 6.5908,53.8011 C6.5638,53.8091 6.5388,53.8181 6.5138,53.8281 C6.4888,53.8391 6.4648,53.8511 6.4408,53.8641 C6.4378,53.8651 6.4358,53.8671 6.4338,53.8681 L0.9668,57.0251 C1.0298,56.9881 1.1008,56.9621 1.1748,56.9461 C1.1788,56.9451 1.1828,56.9441 1.1858,56.9431 C1.2598,56.9281 1.3368,56.9251 1.4178,56.9311 C1.4258,56.9311 1.4328,56.9321 1.4388,56.9331 C1.5158,56.9411 1.5948,56.9581 1.6758,56.9851 C1.6918,56.9891 1.7088,56.9951 1.7258,57.0021 C1.8118,57.0331 1.8998,57.0711 1.9918,57.1241 L20.2328,67.0381 C20.3258,67.0921 20.4168,67.1561 20.5048,67.2261 C20.5338,67.2491 20.5608,67.2761 20.5888,67.3001 C20.6508,67.3541 20.7128,67.4091 20.7708,67.4701 C20.7868,67.4871 20.8038,67.5041 20.8188,67.5221 C20.8928,67.6021 20.9638,67.6861 21.0298,67.7761 C21.0368,67.7841 21.0438,67.7931 21.0498,67.8021 C21.1228,67.9011 21.1898,68.0041 21.2528,68.1111 C21.2538,68.1141 21.2558,68.1161 21.2568,68.1191 C21.3198,68.2291 21.3778,68.3421 21.4278,68.4561 C21.4288,68.4591 21.4298,68.4611 21.4318,68.4641 C21.4798,68.5761 21.5208,68.6901 21.5568,68.8041 C21.5598,68.8141 21.5628,68.8231 21.5648,68.8331 C21.5968,68.9381 21.6208,69.0431 21.6388,69.1471 C21.6418,69.1641 21.6448,69.1821 21.6468,69.1991 C21.6638,69.3111 21.6748,69.4221 21.6748,69.5291 L21.6288,93.5891 C21.6278,94.0461 21.4668,94.3661 21.2068,94.5171 L26.6738,91.3611 C26.9338,91.2101 27.0938,90.8891 27.0958,90.4331 L27.1418,66.3721 C27.1418,66.2801 27.1348,66.1871 27.1228,66.0921" id="Fill-55" fill="#E5EEF5" fill-rule="evenodd"></path>
                                <path d="M26.5076365,65.6787257 L26.5681172,65.8691832 L26.6030447,66.0164942 L26.6262247,66.1505206 L26.6401161,66.3039451 L26.5958009,90.4321441 L26.5909241,90.5447962 C26.5727677,90.7556515 26.5059795,90.8803581 26.4226921,90.9287288 L22.128,93.407 L22.1747991,69.5300559 C22.1747997,69.444156 22.169586,69.3565649 22.1596121,69.2649051 L22.1311918,69.0602073 L22.0927985,68.8717972 L22.0357131,68.6604261 C21.9906754,68.5176337 21.9438964,68.389696 21.8913725,68.2671404 C21.8295994,68.1274926 21.7643691,67.9992718 21.6906786,67.8706059 C21.6383779,67.7808178 21.5868011,67.6985521 21.5335819,67.620261 L21.4278066,67.4727818 L21.3122412,67.3260892 L21.1349,67.1274177 C21.0916149,67.0818874 21.0511705,67.0427205 21.0010923,66.9973466 L20.8154974,66.8343512 L20.705592,66.7507102 C20.6321399,66.6973683 20.5582932,66.6489203 20.4838678,66.6057055 L2.398,56.775 L6.7073903,54.2894559 L6.72399949,54.283297 L6.77545742,54.2728225 L6.891,54.277 L6.95119834,54.2905957 L7.07560033,54.3337214 L7.13862393,54.3627682 L25.4610272,64.3214035 C25.4966318,64.341772 25.5390739,64.3698706 25.5863201,64.4045617 L25.836122,64.6166949 L25.9701529,64.7595824 L26.0322693,64.8337112 L26.1934794,65.0549692 L26.3630786,65.3458545 L26.4502468,65.5325979 L26.5076365,65.6787257 Z M6.98711707,53.2819304 L6.79660592,53.2707802 L6.68655178,53.276543 L6.60108932,53.2871253 L6.46953219,53.3160287 L6.37588261,53.3458053 C6.36180539,53.3509084 6.34675083,53.3566453 6.32810466,53.3638617 L6.185481,53.4330289 L6.162,53.448 L0.713589073,56.5939571 C0.166873338,56.9150441 0.598323457,57.7131593 1.14171552,57.4945505 L1.24553646,57.4446481 L1.34391388,57.4174416 L1.32938134,57.4234933 L1.33420011,57.4265087 L1.35660051,57.426297 C1.40460761,57.4319208 1.43987063,57.4380011 1.47159733,57.4459471 L1.5354251,57.464439 C1.59552234,57.486455 1.64172528,57.5056221 1.68296265,57.5258125 L19.9940357,67.4774081 C20.0305566,67.4987673 20.074187,67.5277249 20.1211253,67.5620844 L20.2241691,67.6448589 L20.3701989,67.7762015 L20.4346894,67.8421922 L20.5102301,67.9268382 L20.6337749,68.0794501 C20.7085009,68.181736 20.7657422,68.2694781 20.8247744,68.3708019 C20.879823,68.4669462 20.9294359,68.5644686 20.9745857,68.6664736 L21.0284441,68.8028384 L21.0800087,68.9546657 L21.0745097,68.9311581 C21.0988842,69.016671 21.1157622,69.0825994 21.1288566,69.1433433 L21.1502247,69.2575206 C21.1673674,69.3723334 21.1748,69.4563786 21.1748,69.5291 L21.1288009,93.5881441 C21.1282753,93.828325 21.0734739,93.9797866 20.9961084,94.054004 L20.9556921,94.0847288 C20.3799496,94.4191024 20.8801639,95.2829943 21.4567778,94.9501255 L26.9237778,91.7941255 C27.3620291,91.5396046 27.5931269,91.0436576 27.5957952,90.435293 L27.6417991,66.3730559 L27.6359832,66.2042234 L27.6101843,65.9749885 L27.5779171,65.7893479 L27.5301819,65.5965413 L27.4726967,65.4102285 L27.4180383,65.2594047 L27.3583702,65.1134338 L27.2712358,64.9258265 L27.1372595,64.6786622 L26.9640078,64.4093676 L26.8569789,64.2643749 L26.7845217,64.1735443 L26.5373534,63.9035466 L26.4612342,63.8326791 L26.2824974,63.6783512 C26.1683745,63.587571 26.0587659,63.5111771 25.9473663,63.4476913 L7.69657283,53.5277965 C7.6491514,53.5000276 7.59445273,53.4716158 7.53708368,53.4448884 L7.39402271,53.3857278 L7.22988316,53.3294172 L7.1003665,53.2993574 L6.98711707,53.2819304 Z" id="Stroke-57" fill="#0A83FF" fill-rule="nonzero"></path>
                                <path d="M25.6423,91.9564 C25.6423,91.9564 31.8043,94.8634 38.1643,94.5174 C44.5253,94.1714 53.0843,88.7814 53.0843,88.7814 L55.1983,89.3214 C55.1983,89.3214 45.2803,96.6504 38.1643,96.1114 C31.0503,95.5724 24.0173,92.8944 24.0173,92.8944 L25.6423,91.9564 Z" id="Fill-59" fill="#FFFFFF" fill-rule="evenodd"></path>
                                <path d="M52.817858,88.3583059 L52.422065,88.5998126 L51.9004538,88.9075779 L51.3110799,89.2448278 C50.1258625,89.9130822 48.8411348,90.5814693 47.5038571,91.2049307 C45.6336592,92.0768484 43.8147397,92.7881385 42.1080592,93.2822565 C40.6612015,93.7011506 39.3289729,93.9533097 38.1371432,94.018138 C35.2882443,94.1731253 32.2598722,93.6844103 29.2785797,92.7730457 C28.3659236,92.4940518 27.5259864,92.1952086 26.7786457,91.8966967 L26.2108698,91.6624112 L25.8556331,91.5041954 C25.7073946,91.4342621 25.5342933,91.4414244 25.3923388,91.5233649 L23.7673388,92.4613649 C23.4024771,92.6719743 23.4456662,93.2117565 23.8393742,93.3616712 L24.2377883,93.5074424 L24.7541955,93.6884383 L25.341142,93.8863825 C26.5226192,94.2775297 27.8269196,94.668506 29.2170043,95.0334337 C32.2652605,95.8336679 35.2847099,96.3946578 38.1265252,96.609971 C39.6726098,96.7270789 41.3988213,96.4970754 43.2750696,95.9657477 C45.3946119,95.3655225 47.6428619,94.4005621 49.9406749,93.1714572 C51.3488904,92.4181998 52.6901985,91.6116417 53.9207281,90.804915 L54.4162728,90.4758576 L54.8670688,90.1685466 L55.4954511,89.7235209 C55.834424,89.4730337 55.7304154,88.9412689 55.3220466,88.8369552 L53.2080466,88.2969552 C53.0750758,88.2629891 52.9339892,88.2851727 52.817858,88.3583059 Z M53.167,89.318 L54.02,89.536 L53.8575226,89.6465214 C53.7031193,89.7504082 53.5413105,89.8579152 53.3724558,89.9686152 C52.1654251,90.7599361 50.8491762,91.5514256 49.4690101,92.2896793 C47.2296926,93.4874948 45.0448103,94.4252574 43.002598,95.0035838 C41.2312129,95.5052157 39.6184075,95.7201088 38.2020642,95.6128282 C35.4272918,95.4025945 32.4650646,94.8522361 29.4709223,94.066208 C28.1022029,93.7068891 26.8178322,93.3218869 25.6554321,92.9370555 L25.205,92.785 L25.67,92.517 L26.2102215,92.7456054 C26.2741017,92.7716908 26.3399437,92.7982872 26.4077097,92.8253551 C27.1798733,93.1337821 28.0458159,93.4418778 28.9862397,93.7293601 C32.0706655,94.672252 35.2099385,95.1788641 38.1914611,95.0166617 C39.4663486,94.9473155 40.8712876,94.681394 42.3861583,94.2428089 C44.1473884,93.7328977 46.0127907,93.0034304 47.9264077,92.11127 C49.2886388,91.476175 50.5958151,90.7961088 51.8022172,90.1159099 L52.1110474,89.940484 L52.678663,89.6107134 L53.167,89.318 Z" id="Stroke-61" fill="#0A83FF" fill-rule="nonzero"></path>
                                <path d="M55.198,89.3211 L55.198,95.2491 C55.198,95.2491 45.712,100.3161 38.92,99.8851 C32.128,99.4541 21.207,94.5171 21.207,94.5171 L24.017,92.8951 C24.017,92.8951 33.288,96.5581 39.607,96.1191 C45.927,95.6801 55.198,89.3211 55.198,89.3211" id="Fill-63" fill="#FFFFFF" fill-rule="evenodd"></path>
                                <path d="M54.9151831,88.9087717 L54.6227371,89.1047732 C52.9600212,90.205394 50.8382335,91.4730481 48.5341382,92.6321176 C45.0873907,94.3659956 42.0002975,95.4516519 39.5723525,95.6203019 C38.1797273,95.7170518 36.5602846,95.6134511 34.7608412,95.3346664 C32.9577057,95.0553098 31.033091,94.6101582 29.060952,94.0447281 C28.0737997,93.7617026 27.1228895,93.4624394 26.2289356,93.1599895 L25.2936353,92.8351994 L24.5592833,92.5670142 L24.2007306,92.4300806 C24.0588575,92.3740261 23.8991563,92.3858035 23.7670409,92.4620637 L20.9570409,94.0840637 C20.6043311,94.2876563 20.629941,94.8049492 21.0010356,94.972708 L21.5337791,95.2075912 L22.3652767,95.5634219 L22.9859538,95.8225812 C24.523254,96.4583095 26.1652367,97.0939851 27.8451575,97.6875188 C29.4809878,98.2654749 31.0678213,98.7727807 32.5748939,99.1897693 C34.9850049,99.8566176 37.1131654,100.271449 38.8883352,100.384096 C40.3555306,100.4772 41.9989686,100.328304 43.7888843,99.9687002 C45.8179181,99.5610559 47.9730925,98.8966021 50.1758097,98.0465799 C51.5094016,97.5319506 52.779119,96.9807776 53.9434724,96.4294383 L54.5231314,96.150518 L55.2382487,95.7921464 L55.4335764,95.6901258 C55.5963512,95.6031787 55.698,95.4336411 55.698,95.2491 L55.698,89.3211 C55.698,88.9187572 55.2469777,88.681193 54.9151831,88.9087717 Z M54.698,90.249 L54.698,94.945 L54.0830887,95.252541 L53.5155107,95.5256415 C52.3723153,96.0669621 51.1249115,96.6084489 49.8157892,97.1136355 C47.6621717,97.9447103 45.5593651,98.5930188 43.5919145,98.9882906 C41.8816656,99.3318892 40.3228715,99.4731163 38.9516648,99.3861037 C37.2556488,99.2784796 35.1908303,98.8759947 32.8415623,98.2259809 C31.3585505,97.8156496 29.7934506,97.3152921 28.1782873,96.7446378 C26.8485354,96.2748224 25.541974,95.7779982 24.2932548,95.2757993 L23.0547873,94.7682844 L22.314,94.455 L24.06,93.447 L24.4419389,93.5902154 L25.2383794,93.8763563 C26.3360392,94.2615079 27.5316075,94.6465406 28.785347,95.0059991 C30.7949626,95.5821741 32.7591441,96.0364772 34.6077395,96.3228769 C36.4752714,96.6122103 38.1663326,96.7203927 39.641653,96.6178977 C42.2320887,96.4379608 45.4281146,95.3139955 48.9835285,93.5254532 C50.9669666,92.5276895 52.8143467,91.4527844 54.3621432,90.466297 L54.698,90.249 Z" id="Stroke-65" fill="#0A83FF" fill-rule="nonzero"></path>
                                <path d="M60.7673,82.0008 C63.8773,80.2058 66.4073,81.6458 66.416336,85.2188 C66.4273,88.7928 63.9133,93.1438 60.8043,94.9388 C57.6963,96.7338 55.1663,95.2938 55.1562703,91.7198 C55.1463,88.1468 57.6593,83.7948 60.7673,82.0008" id="Fill-67" fill="#0A83FF" fill-rule="evenodd"></path>
                            </g>
                        </g>
                    </g>
                </g>
            </g>
        </g>
    </g>
</svg>