<?xml version="1.0" encoding="UTF-8"?>
<svg width="24px" height="24px" viewBox="0 0 24 24" version="1.1" xmlns="http://www.w3.org/2000/svg" xmlns:xlink="http://www.w3.org/1999/xlink">
    <title>漫游</title>
    <g id="CIM一张图" stroke="none" stroke-width="1" fill="none" fill-rule="evenodd">
        <g id="数据演示-按键交互" transform="translate(-1532.000000, -186.000000)" fill-rule="nonzero">
            <g id="漫游" transform="translate(1532.000000, 186.000000)">
                <rect id="矩形" fill="#000000" opacity="0" x="0" y="0" width="24" height="24"></rect>
                <path d="M12.0234375,11.6765625 C12.0234375,8.94375 9.84609375,6.72890625 7.16015625,6.72890625 C4.47421875,6.72890625 2.296875,8.94375 2.296875,11.6765625 C2.296875,12.24375 2.39296875,12.8085938 2.58046875,13.3429688 C3.009375,14.5664062 4.434375,16.6335937 6.8484375,19.546875 C6.86484375,19.565625 6.88359375,19.584375 6.90234375,19.6007813 C7.07578125,19.74375 7.33125,19.7203125 7.471875,19.546875 C9.88359375,16.6382812 11.3039063,14.5710938 11.7351563,13.3523438 C11.9203125,12.8320313 12.0234375,12.2671875 12.0234375,11.6765625 Z M7.16015625,13.3265625 C6.26484375,13.3265625 5.53828125,12.5882813 5.53828125,11.6765625 C5.53828125,10.7648438 6.26484375,10.0289063 7.16015625,10.0289063 C8.05546875,10.0289063 8.78203125,10.7671875 8.78203125,11.6765625 C8.7796875,12.5882813 8.05546875,13.3265625 7.16015625,13.3265625 Z M15.6023438,11.6976562 C15.6140625,11.7117187 15.6257813,11.7234375 15.6375,11.7328125 C15.7523438,11.8289062 15.9257812,11.8125 16.021875,11.6976562 C17.64375,9.740625 18.6,8.35078125 18.890625,7.53046875 C19.0148437,7.17890625 19.0828125,6.79921875 19.0828125,6.40078125 C19.0828125,4.56328125 17.6179688,3.07265625 15.8109375,3.07265625 C14.0039062,3.07265625 12.5390625,4.5609375 12.5390625,6.40078125 C12.5390625,6.7828125 12.6023438,7.1625 12.7289063,7.52109375 C13.0195312,8.34375 13.9757813,9.7359375 15.6023438,11.6976562 Z M15.8109375,5.28984375 C16.4132813,5.28984375 16.9007813,5.78671875 16.9007813,6.3984375 C16.9007813,7.0125 16.4132813,7.509375 15.8109375,7.509375 C15.2085937,7.509375 14.7210937,7.0125 14.7210937,6.3984375 C14.7210937,5.784375 15.2085937,5.28984375 15.8109375,5.28984375 Z M20.3179687,15.3609375 C18.8484375,14.8007813 17.0601562,14.94375 16.4132812,12.9632813 L15.3164062,12.9632813 C15.3164062,12.9632813 14.7632812,14.8875 19.8164062,16.3640625 C22.6289062,17.3390625 18.3375,21.5015625 10.2585937,18.5601563 L9.31171875,19.6945313 C9.31171875,19.6945313 14.1328125,21.9609375 18.6539062,20.325 C23.175,18.6890625 21.825,15.9351563 20.3179687,15.3609375 L20.3179687,15.3609375 Z" id="形状" fill="#FFFFFF"></path>
            </g>
        </g>
    </g>
</svg>