<?xml version="1.0" encoding="UTF-8"?>
<svg width="48px" height="48px" viewBox="0 0 48 48" version="1.1" xmlns="http://www.w3.org/2000/svg" xmlns:xlink="http://www.w3.org/1999/xlink">
    <title>城市现状</title>
    <g id="基础数据-电子地图" stroke="none" stroke-width="1" fill="none" fill-rule="evenodd">
        <g id="基础平台-平台概览" transform="translate(-434.000000, -2372.000000)" fill-rule="nonzero">
            <g id="城市现状" transform="translate(434.000000, 2372.000000)">
                <rect id="矩形" opacity="0" x="0" y="0" width="48" height="48"></rect>
                <path d="M22.5,39.5 L22.5,35.006 L25.5,35.006 L25.5,39.5 L32.5,39.5 L32.5,8.49999998 L15.5,8.49999998 L15.5,39.5 L22.5,39.5 Z M12.5,16.5 L12.5,5.49999998 L35.5,5.49999998 L35.5,16.5 L47.5,16.5 L47.5,42.5 L0.500000016,42.5 L0.500000016,16.5 L12.5,16.5 Z M12.5,19.5 L3.50000002,19.5 L3.50000002,39.5 L12.5,39.5 L12.5,19.5 Z M35.5,19.5 L35.5,39.5 L44.5,39.5 L44.5,19.5 L35.5,19.5 Z M19,11 L22,11 L22,14 L19,14 L19,11 L19,11 Z M26,11 L29,11 L29,14 L26,14 L26,11 L26,11 Z M19,18 L22,18 L22,21 L19,21 L19,18 Z M26,18 L29,18 L29,21 L26,21 L26,18 Z M19,25 L22,25 L22,28 L19,28 L19,25 Z M26,25 L29,25 L29,28 L26,28 L26,25 Z" id="形状" fill="#1A63E6"></path>
            </g>
        </g>
    </g>
</svg>