<?xml version="1.0" encoding="UTF-8"?>
<svg width="48px" height="48px" viewBox="0 0 48 48" version="1.1" xmlns="http://www.w3.org/2000/svg" xmlns:xlink="http://www.w3.org/1999/xlink">
    <title>基础地理信息</title>
    <g id="基础数据-电子地图" stroke="none" stroke-width="1" fill="none" fill-rule="evenodd">
        <g id="基础平台-平台概览" transform="translate(-634.000000, -2372.000000)" fill-rule="nonzero">
            <g id="基础地理信息" transform="translate(634.000000, 2372.000000)">
                <rect id="矩形" fill="#000000" opacity="0" x="0" y="0" width="48" height="48"></rect>
                <path d="M22.1296875,3.0796875 L24.234375,4.790625 C23.5875,5.4140625 23.1609375,6.2625 23.0953125,7.209375 C23.034375,8.0578125 22.96875,8.915625 22.89375,9.684375 C22.8703125,9.69375 22.8421875,9.6984375 22.8234375,9.7078125 C21.9796875,9.95625 20.5640625,10.36875 19.66875,11.71875 L19.6546875,11.7421875 L19.640625,11.765625 C18.871875,12.965625 18.815625,14.4234375 19.4953125,15.665625 C20.25,17.04375 21.834375,17.971875 23.746875,18.196875 C23.7,18.28125 23.653125,18.3703125 23.60625,18.4546875 C23.5875,18.4921875 23.5640625,18.5296875 23.5453125,18.5671875 C23.278125,18.4875 22.9875,18.440625 22.6640625,18.440625 C22.4765625,18.440625 22.29375,18.459375 22.1109375,18.4921875 C21.9234375,18.45 21.6796875,18.3890625 21.4921875,18.346875 C20.7703125,18.16875 20.0203125,17.98125 19.2703125,17.98125 C19.1484375,17.98125 19.0265625,17.9859375 18.909375,17.9953125 C17.7609375,18.0890625 16.771875,18.7078125 16.1671875,19.70625 C15.3421875,19.8 14.578125,20.240625 14.08125,20.915625 C13.828125,21.2625 13.29375,22.1765625 13.584375,23.4046875 C13.5984375,23.615625 13.621875,23.85 13.65,24.13125 C13.7015625,24.6703125 13.7671875,25.3640625 13.81875,26.19375 C13.33125,25.959375 12.7875,25.78125 12.24375,25.771875 C12.2015625,25.771875 12.16875,25.7671875 12.1453125,25.7671875 C12.0703125,25.640625 11.8875,25.265625 11.75625,24.3796875 C11.6015625,23.3296875 11.5921875,22.040625 11.5921875,20.8078125 C11.5921875,19.93125 11.3203125,18.290625 9.5109375,17.184375 C8.71875,16.7015625 7.809375,16.44375 6.871875,16.44375 C5.9625,16.44375 5.0765625,16.6828125 4.284375,17.1328125 L4.1671875,17.0859375 C4.3125,16.6640625 4.4765625,16.246875 4.65,15.834375 C5.709375,13.3359375 7.2234375,11.0859375 9.15,9.159375 C11.0765625,7.2328125 13.3265625,5.7140625 15.825,4.659375 C17.840625,3.796875 19.9546875,3.271875 22.1296875,3.0796875 M43.809375,19.1625 L44.5453125,19.621875 C44.85,21.0515625 45,22.5140625 45,24 C45,25.0359375 44.925,26.0578125 44.7796875,27.0703125 L42.225,29.3625 C42.15,29.2453125 42.0703125,29.128125 41.990625,29.015625 C41.2828125,28.0359375 40.5796875,27.215625 39.9,26.5828125 C39.5765625,26.2828125 39.3421875,25.9921875 39.196875,25.715625 C39.046875,25.4296875 39.0328125,25.2328125 39.0421875,25.0921875 C39.0609375,24.740625 39.24375,24.2953125 39.5765625,23.7984375 C40.1296875,22.978125 41.0390625,22.078125 42.28125,21.121875 L44.04375,19.771875 L43.809375,19.1625 M21.0890625,32.11875 C21.2859375,32.2453125 21.5015625,32.3671875 21.73125,32.475 C22.1015625,32.6484375 22.7484375,33.2578125 23.2171875,33.6984375 C23.9015625,34.340625 24.6421875,35.034375 25.5234375,35.4890625 C25.9734375,36.5390625 26.6625,37.1015625 27.328125,37.3921875 C26.709375,38.2078125 26.2828125,39.1078125 25.940625,40.0921875 L25.9453125,39.73125 L24.6609375,38.8125 C24.6515625,38.8078125 23.7234375,38.1375 22.7296875,37.2328125 C21.3375,35.9671875 20.9109375,35.25 20.7984375,35.025 C20.8125,34.321875 20.896875,33.759375 20.9671875,33.3 C21.028125,32.9625 21.0890625,32.559375 21.0890625,32.11875 M24,0 C10.74375,0 0,10.74375 0,24 C0,37.25625 10.74375,48 24,48 C37.25625,48 48,37.25625 48,24 C48,10.74375 37.25625,0 24,0 Z M24.665625,15.24375 C22.875,15.24375 21.58125,14.2921875 22.1671875,13.378125 C22.9125,12.2578125 25.5796875,12.88125 25.81875,10.63125 C25.9265625,9.590625 26.0203125,8.41875 26.090625,7.4203125 C26.1140625,7.059375 26.4046875,6.778125 26.765625,6.7546875 C28.509375,6.628125 28.6875,4.5515625 27.05625,3.225 C28.8140625,3.478125 30.5296875,3.95625 32.175,4.6546875 C34.6734375,5.7140625 36.9234375,7.228125 38.85,9.1546875 C40.603125,10.9078125 42.009375,12.91875 43.05,15.1453125 C42.7828125,14.9765625 42.50625,14.9015625 42.234375,14.9015625 C40.9125,14.9015625 39.69375,16.7015625 40.453125,18.7453125 C34.21875,23.5265625 35.8171875,26.8734375 37.8515625,28.7765625 C38.4515625,29.3390625 39.0421875,30.0609375 39.5578125,30.778125 C40.0546875,31.4625 40.3640625,32.2546875 40.5421875,33.084375 C40.6078125,33.384375 40.8421875,33.534375 41.184375,33.534375 C41.7,33.534375 42.45,33.1921875 43.2046875,32.5171875 C42.1546875,34.884375 40.6921875,37.0125 38.85,38.8546875 C36.91875,40.7859375 34.6734375,42.3 32.175,43.3546875 C31.03125,43.8375 29.859375,44.2171875 28.659375,44.484375 C28.5890625,44.4703125 28.509375,44.465625 28.425,44.465625 C28.2609375,44.465625 28.0734375,44.4890625 27.8625,44.5453125 C28.5890625,41.475 28.9359375,39.7453125 30.4359375,38.4421875 C32.4984375,36.6515625 30.890625,34.6734375 29.3109375,34.6734375 C29.221875,34.6734375 29.128125,34.678125 29.0390625,34.6921875 C28.96875,34.7015625 28.9078125,34.70625 28.8515625,34.70625 C27.8109375,34.70625 28.5,33.0703125 27.3984375,32.9765625 C26.2359375,32.878125 24.7125,30.5671875 23.0203125,29.765625 C22.134375,29.34375 21.2625,28.209375 19.884375,28.1484375 L19.8046875,28.1484375 C18.9328125,28.1484375 17.8171875,28.66875 17.2546875,28.66875 C17.0296875,28.66875 16.8890625,28.584375 16.8890625,28.3546875 C16.8890625,25.678125 16.6125,23.775 16.5703125,23.0203125 C16.5515625,22.7625 16.4765625,22.6875 16.51875,22.6875 C16.575,22.6875 16.85625,22.8375 17.821875,22.8609375 L17.840625,22.8609375 C18.7125,22.8609375 18.2953125,21.05625 19.1578125,20.9859375 C19.1953125,20.98125 19.2328125,20.98125 19.2703125,20.98125 C20.0390625,20.98125 21.496875,21.534375 22.2609375,21.534375 C22.4203125,21.534375 22.546875,21.5109375 22.63125,21.4546875 C22.640625,21.45 22.65,21.4453125 22.6640625,21.4453125 C23.0765625,21.4453125 24.6984375,25.490625 25.6078125,25.490625 C25.9828125,25.490625 26.2359375,24.8015625 26.2359375,22.865625 C26.2359375,22.0640625 25.8140625,20.6671875 26.2359375,19.8984375 C27.88125,16.8890625 29.41875,14.428125 29.2875,14.08125 C29.2453125,13.9734375 28.7578125,13.875 28.115625,13.875 C27.5671875,13.875 26.9109375,13.9453125 26.3203125,14.1375 C25.8796875,14.2828125 26.4515625,14.9671875 25.8421875,15.1125 C25.4390625,15.2015625 25.040625,15.24375 24.665625,15.24375 L24.665625,15.24375 Z M4.359375,20.1703125 C4.8140625,20.1703125 5.26875,20.0578125 5.6296875,19.8140625 C6.0046875,19.565625 6.440625,19.434375 6.871875,19.434375 C7.2421875,19.434375 7.6125,19.5328125 7.940625,19.734375 C8.3203125,19.96875 8.5875,20.278125 8.5875,20.803125 C8.5875,24.628125 8.71875,28.7109375 12.1921875,28.771875 C12.2953125,28.771875 14.1234375,29.4703125 14.9953125,31.7390625 C15.0984375,32.0015625 15.3,32.0859375 15.5671875,32.0859375 C16.10625,32.0859375 16.9265625,31.7390625 17.7984375,31.7390625 C18.45,31.7390625 17.7984375,32.8453125 17.7984375,35.23125 C17.803125,37.59375 22.921875,41.2546875 22.921875,41.2546875 C22.89375,42.7546875 22.9640625,43.996875 23.0765625,44.9765625 C20.5640625,44.86875 18.13125,44.3203125 15.825,43.3453125 C13.3265625,42.2859375 11.0765625,40.771875 9.15,38.8453125 C7.21875,36.9140625 5.7046875,34.66875 4.65,32.1703125 C3.553125,29.5875 3,26.8359375 3,24 C3,22.640625 3.1265625,21.3 3.3796875,19.9921875 C3.6890625,20.109375 4.0265625,20.1703125 4.359375,20.1703125 Z" id="形状" fill="#1A63E6"></path>
            </g>
        </g>
    </g>
</svg>