<?xml version="1.0" encoding="UTF-8"?>
<svg width="48px" height="48px" viewBox="0 0 48 48" version="1.1" xmlns="http://www.w3.org/2000/svg" xmlns:xlink="http://www.w3.org/1999/xlink">
    <title>资源调查与登记</title>
    <g id="基础数据-电子地图" stroke="none" stroke-width="1" fill="none" fill-rule="evenodd">
        <g id="基础平台-平台概览" transform="translate(-1437.000000, -2372.000000)" fill-rule="nonzero">
            <g id="资源调查与登记" transform="translate(1437.000000, 2372.000000)">
                <rect id="矩形" fill="#000000" opacity="0" x="0" y="0" width="48" height="48"></rect>
                <path d="M30.8240625,45.4720313 L5.240625,45.4720313 C4.34825366,45.4720313 3.62484375,44.7486213 3.62484375,43.85625 L3.62484375,5.1253125 C3.62484375,4.23294116 4.34825366,3.50953125 5.240625,3.50953125 L42.5203125,3.50953125 C43.4126838,3.50953125 44.1360937,4.23294116 44.1360937,5.1253125 L44.1360937,14.6878125 C44.1360937,15.5801838 43.4126838,16.3035937 42.5203125,16.3035937 C41.6279412,16.3035937 40.9045312,15.5801838 40.9045312,14.6878125 L40.9045312,6.74109375 L6.85640625,6.74109375 L6.85640625,42.2404688 L30.8240625,42.2404688 C31.7164338,42.2404688 32.4398438,42.9638787 32.4398438,43.85625 C32.4398438,44.7486213 31.7164338,45.4720313 30.8240625,45.4720313 Z" id="路径" fill="#0C5AE5"></path>
                <path d="M35.1801562,15.5259375 L11.2471875,15.5259375 C10.7092646,15.5354852 10.2080666,15.2539718 9.93631115,14.789643 C9.66455571,14.3253142 9.66455571,13.7504671 9.93631115,13.2861383 C10.2080666,12.8218095 10.7092646,12.540296 11.2471875,12.5498437 L35.1801562,12.5498437 C35.7180792,12.540296 36.2192771,12.8218095 36.4910326,13.2861383 C36.762788,13.7504671 36.762788,14.3253142 36.4910326,14.789643 C36.2192771,15.2539718 35.7180792,15.5354852 35.1801562,15.5259375 L35.1801562,15.5259375 Z M23.2767188,24.515625 L11.19,24.515625 C10.6726302,24.5249896 10.1905025,24.254336 9.92907653,23.8077763 C9.66765051,23.3612166 9.66765051,22.8083147 9.92907653,22.3617549 C10.1905025,21.9151952 10.6726302,21.6445416 11.19,21.6539062 L23.2767188,21.6539062 C24.0568662,21.6680273 24.6819133,22.3044904 24.6819133,23.0847656 C24.6819133,23.8650409 24.0568662,24.501504 23.2767188,24.515625 Z M17.2917187,33.5203125 L11.1651562,33.5203125 C10.3597698,33.5203125 9.706875,32.8674177 9.706875,32.0620312 C9.706875,31.2566448 10.3597698,30.60375 11.1651563,30.60375 L17.2917187,30.60375 C18.0971052,30.60375 18.75,31.2566448 18.75,32.0620312 C18.75,32.8674177 18.0971052,33.5203125 17.2917187,33.5203125 Z" id="形状" fill="#1A63E6"></path>
                <path d="M25.9814062,40.2107813 C25.5342697,40.2107813 25.1071817,40.0252141 24.8016621,39.6987345 C24.4961426,39.3722549 24.3394774,38.9338233 24.3689062,38.4876563 L24.75,32.7745313 C24.77577,32.3840162 24.9423207,32.0161057 25.21875,31.7390625 L37.40625,19.5515625 C37.7096529,19.2483521 38.1210596,19.078125 38.55,19.078125 C38.9786053,19.0783566 39.3896103,19.2486253 39.6928125,19.5515625 L45.0239062,24.8845313 C45.326925,25.1874729 45.4971657,25.5983963 45.4971657,26.026875 C45.4971657,26.4553537 45.326925,26.8662771 45.0239062,27.1692188 L32.8364062,39.3567188 C32.5595808,39.6331877 32.1917987,39.7997557 31.8014062,39.8254688 L26.0882812,40.2070313 C26.053125,40.209375 26.015625,40.2107813 25.9814062,40.2107813 L25.9814062,40.2107813 Z M27.9342187,33.5948438 L27.71625,36.8596875 L30.9815625,36.6417188 L41.5964063,26.026875 L38.5495313,22.98 L27.9342187,33.5948438 Z" id="形状" fill="#0C5AE5"></path>
            </g>
        </g>
    </g>
</svg>