<?xml version="1.0" encoding="UTF-8"?>
<svg width="48px" height="48px" viewBox="0 0 48 48" version="1.1" xmlns="http://www.w3.org/2000/svg" xmlns:xlink="http://www.w3.org/1999/xlink">
    <title>时空基础数据</title>
    <g id="基础数据-电子地图" stroke="none" stroke-width="1" fill="none" fill-rule="evenodd">
        <g id="基础平台-平台概览" transform="translate(-1239.000000, -2372.000000)" fill="#1A63E6" fill-rule="nonzero">
            <g id="时空基础数据" transform="translate(1239.000000, 2371.000000)">
                <path d="M23.7528409,48.4357955 C21.0272727,48.4357955 18.3835227,47.9142045 15.8931818,46.8914773 C13.4795455,45.8994318 11.3113636,44.4727273 9.45,42.6573864 C5.60454545,38.9090909 3.4875,33.8926136 3.4875,28.5386364 L4.52045455,28.5386364 C4.52045455,38.9397727 13.1471591,47.4028409 23.7528409,47.4028409 C34.3022727,47.4028409 42.8829545,38.9397727 42.8829545,28.5386364 L43.9159091,28.5386364 C43.9159091,33.8977273 41.8193182,38.9142045 38.0096591,42.6573864 C36.1585227,44.4727273 34.0056818,45.8994318 31.6022727,46.8914773 C29.1119318,47.9142045 26.4732955,48.4357955 23.7528409,48.4357955 Z" id="路径"></path>
                <path d="M43.3943182,29.1727273 L4.00397727,29.1727273 C3.71761364,29.1727273 3.4875,28.9426136 3.4875,28.65625 C3.4875,28.3698864 3.71761364,28.1397727 4.00397727,28.1397727 L43.3994318,28.1397727 C43.6857955,28.1397727 43.9159091,28.3698864 43.9159091,28.65625 C43.9159091,28.9426136 43.6806818,29.1727273 43.3943182,29.1727273 Z" id="路径"></path>
                <path d="M18.9,47.5153409 C18.7517045,47.5153409 18.6034091,47.4488636 18.5011364,47.3210227 C17.0948864,45.5414773 15.9852273,43.45 15.2028409,41.1079545 C14.5789773,39.2414773 14.1545455,37.20625 13.95,35.0636364 C13.5971591,31.4227273 13.9857955,28.7585227 14.0011364,28.6460227 C14.0420455,28.3698864 14.2977273,28.1806818 14.5738636,28.2215909 C14.85,28.2625 15.0392045,28.5181818 14.9982955,28.7943182 C14.9931818,28.8301136 14.6096591,31.4789773 14.9522727,34.9920455 C15.2693182,38.2238636 16.2767045,42.8721591 19.29375,46.6920455 C19.4676136,46.9119318 19.4318182,47.2289773 19.2119318,47.4028409 C19.1198864,47.4795455 19.0125,47.5153409 18.9,47.5153409 L18.9,47.5153409 Z M28.7028409,47.5153409 C28.5954545,47.5153409 28.4829545,47.4795455 28.3909091,47.4079545 C28.1710227,47.2340909 28.1352273,46.9170455 28.3090909,46.6971591 C31.3261364,42.8772727 32.3335227,38.2238636 32.6505682,34.9971591 C32.9931818,31.4738636 32.6096591,28.825 32.6045455,28.7994318 C32.5636364,28.5232955 32.7528409,28.2676136 33.0289773,28.2267045 C33.3051136,28.1857955 33.5607955,28.375 33.6017045,28.6511364 C33.6170455,28.7636364 34.0056818,31.4278409 33.6528409,35.06875 C33.4482955,37.2113636 33.0238636,39.2414773 32.4,41.1130682 C31.6125,43.4602273 30.5028409,45.5517045 29.1017045,47.3261364 C28.9994318,47.4488636 28.8511364,47.5153409 28.7028409,47.5153409 Z M24.0289773,48.4255682 C23.7477273,48.4255682 23.5227273,48.1954545 23.5227273,47.9193182 C23.5431818,40.7704545 23.5585227,29.9857955 23.5125,29.2494318 C23.5073864,29.21875 23.5073864,29.1931818 23.5073864,29.1625 C23.5073864,28.88125 23.7323864,28.65625 24.0136364,28.65625 C24.1465909,28.65625 24.2795455,28.7073864 24.3715909,28.8045455 C24.5198864,28.9528409 24.525,29.0909091 24.5301136,29.3721591 C24.5352273,29.5102273 24.5352273,29.7147727 24.5403409,29.9806818 C24.5454545,30.4715909 24.5505682,31.1926136 24.5505682,32.1181818 C24.5556818,33.6778409 24.5556818,35.8460227 24.5556818,38.5664773 C24.5505682,43.1943182 24.5403409,47.8732955 24.5403409,47.9193182 C24.5352273,48.2005682 24.3102273,48.4255682 24.0289773,48.4255682 L24.0289773,48.4255682 Z M23.5227273,29.2852273 C23.5636364,29.4795455 23.7528409,29.6738636 24.0136364,29.6738636 C23.7732955,29.66875 23.5738636,29.5051136 23.5227273,29.2852273 Z" id="形状"></path>
                <path d="M39.2931818,40.5965909 C39.2267045,40.5965909 39.1602273,40.58125 39.09375,40.5556818 C30.5284091,36.9505682 22.6125,37.1448864 17.4784091,37.9375 C11.9198864,38.7965909 8.36590909,40.525 8.33011364,40.5403409 C8.07443182,40.6681818 7.76761364,40.5607955 7.63977273,40.3051136 C7.51704545,40.0494318 7.61931818,39.7426136 7.875,39.6147727 C8.02329545,39.5431818 11.6079545,37.8045455 17.3198864,36.9198864 C20.6693182,36.3982955 24.0545455,36.2857955 27.3784091,36.5823864 C31.5357955,36.9556818 35.6113636,37.9681818 39.4875,39.6045455 C39.7482955,39.7170455 39.8710227,40.01875 39.7636364,40.2795455 C39.6818182,40.4789773 39.4926136,40.5965909 39.2931818,40.5965909 Z" id="路径"></path>
                <path d="M15.3738636,28.7227273 L8.30170455,28.7227273 L8.30170455,1.94261364 L15.3738636,1.94261364 L15.3738636,28.7227273 L15.3738636,28.7227273 Z M9.30909091,27.7102273 L14.3613636,27.7102273 L14.3613636,2.95511364 L9.30909091,2.95511364 L9.30909091,27.7102273 L9.30909091,27.7102273 Z" id="形状"></path>
                <path d="M10.3215909,4.975 L13.3539773,4.975 L13.3539773,5.9875 L10.3215909,5.9875 L10.3215909,4.975 Z M10.3215909,8.00738636 L13.3539773,8.00738636 L13.3539773,9.01988636 L10.3215909,9.01988636 L10.3215909,8.00738636 Z" id="形状"></path>
                <path d="M10.8227273,24.5994318 C10.8227273,24.9611632 11.0157087,25.2954169 11.3289773,25.4762826 C11.6422459,25.6571483 12.0282087,25.6571483 12.3414773,25.4762826 C12.6547459,25.2954169 12.8477273,24.9611632 12.8477273,24.5994318 C12.8477273,24.0402435 12.3944156,23.5869318 11.8352273,23.5869318 C11.276039,23.5869318 10.8227273,24.0402435 10.8227273,24.5994318 L10.8227273,24.5994318 Z" id="路径"></path>
                <path d="M24.4585227,28.7227273 L17.38125,28.7227273 L17.38125,1.94261364 L24.4534091,1.94261364 L24.4534091,28.7227273 L24.4585227,28.7227273 Z M18.39375,27.7102273 L23.4460227,27.7102273 L23.4460227,2.95511364 L18.39375,2.95511364 L18.39375,27.7102273 Z" id="形状"></path>
                <path d="M19.40625,4.975 L22.4386364,4.975 L22.4386364,5.9875 L19.40625,5.9875 L19.40625,4.975 Z M19.40625,8.00738636 L22.4386364,8.00738636 L22.4386364,9.01988636 L19.40625,9.01988636 L19.40625,8.00738636 Z" id="形状"></path>
                <path d="M19.9073864,24.5994318 C19.9073864,25.1586201 20.3606981,25.6119318 20.9198864,25.6119318 C21.4790747,25.6119318 21.9323864,25.1586201 21.9323864,24.5994318 C21.9323864,24.0402435 21.4790747,23.5869318 20.9198864,23.5869318 C20.3606981,23.5869318 19.9073864,24.0402435 19.9073864,24.5994318 Z" id="路径"></path>
                <path d="M34.1897727,29.0806818 L24.3204545,4.1875 L30.8965909,1.57954545 L40.7659091,26.4727273 L34.1897727,29.0806818 Z M25.6295455,4.75511364 L34.7522727,27.7715909 L39.4465909,25.9102273 L30.3289773,2.89375 L25.6295455,4.75511364 Z" id="形状"></path>
                <path d="M27.315358,6.26353409 L30.1343011,5.14579545 L30.5074943,6.08701136 L27.6886023,7.20475 L27.315358,6.26353409 Z M28.4349886,9.080125 L31.2538807,7.96238636 L31.627125,8.90360227 L28.8081818,10.0213409 L28.4349886,9.080125 Z" id="形状"></path>
                <path d="M5.02045455,28.0386364 L2.9875,28.0386364 L2.9875,28.5386364 C2.9875,34.0287992 5.15997074,39.1739799 9.10099875,43.015434 C11.0103131,44.8775401 13.2331249,46.3387353 15.7031026,47.353938 C18.2576679,48.4030408 20.9662771,48.9357955 23.7528409,48.9357955 C26.5337177,48.9357955 29.2372482,48.4032619 31.7922176,47.3539931 C34.2497942,46.3395901 36.4580612,44.8792845 38.3597441,43.0143744 C42.2643385,39.1779142 44.4159091,34.0333921 44.4159091,28.5386364 L44.4159091,28.0386364 L42.3829545,28.0386364 L42.3829545,28.5386364 C42.3829545,38.6626308 34.0270978,46.9028409 23.7528409,46.9028409 C13.4216994,46.9028409 5.02045455,38.6619722 5.02045455,28.5386364 L5.02045455,28.0386364 Z M43.408,29.038 L43.3959559,29.4311731 C43.1768565,34.3199895 41.1597227,38.8613258 37.6592311,42.3007349 C35.849429,44.0755405 33.7492902,45.464342 31.4115022,46.4293013 C28.9780052,47.4286832 26.403532,47.9357955 23.7528409,47.9357955 C21.0963692,47.9357955 18.5168235,47.4284262 16.0831267,46.4289614 C13.7317348,45.4624994 11.6168843,44.0722741 9.79910048,42.2994355 L9.48196583,41.9832834 C6.14339277,38.5792193 4.22212245,34.1654976 4.0076428,29.4301209 L3.994,29.038 L4.027,29.038 L4.03241218,29.2175624 C4.39810479,39.5842272 13.1051542,47.9028409 23.7528409,47.9028409 L24.0975771,47.8999003 C34.5333094,47.721748 43.0112438,39.4710172 43.3710598,29.2175283 L43.375,29.038 L43.408,29.038 Z" id="路径"></path>
                <path d="M43.3994318,27.6397727 L4.00397727,27.6397727 C3.44147126,27.6397727 2.9875,28.093744 2.9875,28.65625 C2.9875,29.218756 3.44147126,29.6727273 4.00397727,29.6727273 L43.3943182,29.6727273 C43.9562936,29.6727273 44.4159091,29.2193228 44.4159091,28.65625 C44.4159091,28.093744 43.9619378,27.6397727 43.3994318,27.6397727 Z M4.00397727,28.6397727 L43.3994318,28.6397727 C43.4096531,28.6397727 43.4159091,28.6460287 43.4159091,28.65625 C43.4159091,28.6639696 43.4070314,28.6727273 43.3943182,28.6727273 L4.00397727,28.6727273 C3.99375601,28.6727273 3.9875,28.6664713 3.9875,28.65625 C3.9875,28.6460287 3.99375601,28.6397727 4.00397727,28.6397727 Z" id="路径"></path>
                <path d="M24.0136364,28.15625 C24.2839352,28.15625 24.5476693,28.263392 24.7251443,28.4509921 C24.9485079,28.6743557 25.0089816,28.8529383 25.0254331,29.2106692 L25.0403138,29.9754738 L25.0502525,31.719534 L25.0550426,34.9069439 L25.0402583,47.9284076 C25.0301972,48.4817687 24.5832942,48.9255682 24.0289773,48.9255682 C23.4725597,48.9255682 23.0227273,48.47259 23.0227293,47.9178876 L23.0420558,37.3949398 L23.0290004,30.0269689 L23.019303,29.3316313 L23.0108408,29.2639777 L23.0073864,29.1625 C23.0073864,28.6051076 23.456244,28.15625 24.0136364,28.15625 Z M14.647138,27.7269892 L14.7621272,27.7508466 C15.2481257,27.881418 15.5684797,28.357407 15.4932702,28.8650289 L15.4578104,29.1467767 L15.4169123,29.5552953 L15.4024934,29.7222941 C15.2745621,31.2611932 15.2645961,33.0433358 15.449884,34.9432292 C15.8683187,39.208564 17.1752726,43.2031448 19.6859578,46.3819277 C20.0309704,46.8182671 19.9587072,47.4497846 19.532024,47.7869515 C19.3513647,47.937501 19.1312656,48.0153409 18.9,48.0153409 C18.5959939,48.0153409 18.3055173,47.8768894 18.1088393,47.6310276 C16.6665977,45.8059364 15.529337,43.6633478 14.7286293,41.2664581 C14.0899626,39.3556928 13.6595286,37.2822611 13.4523315,35.1118655 C13.2527724,33.0526472 13.2642791,31.1511805 13.4038179,29.5157809 L13.4478344,29.0549499 L13.4959698,28.6494119 C13.4996817,28.6216594 13.5031842,28.5963475 13.5065346,28.5727484 C13.5821082,28.0626267 14.0272367,27.7004632 14.5301878,27.716476 L14.647138,27.7269892 Z M32.9557029,27.7321028 C33.4657053,27.6565469 33.9418644,27.9768762 34.072448,28.4628729 L34.0963063,28.577862 L34.1321142,28.8561495 L34.1773942,29.2816567 C34.1847444,29.3584638 34.1919682,29.4382117 34.199023,29.5208946 C34.3385618,31.1562942 34.3500685,33.0577608 34.150578,35.1162667 C33.9436543,37.283792 33.5139731,39.3522877 32.8740309,41.2721112 C32.0682204,43.6738451 30.931105,45.81616 29.4858152,47.6462286 C29.2903651,47.8807687 29.0023805,48.0153409 28.7028409,48.0153409 C28.4819647,48.0153409 28.2620301,47.9411461 28.0807913,47.8001623 C27.6441337,47.4548982 27.5718705,46.8233808 27.9167168,46.3872518 C30.4266353,43.2094397 31.7339845,39.2124008 32.1529156,34.9487662 C32.1820937,34.6487106 32.2062036,34.3482338 32.2257682,34.0501322 L32.2589922,33.4579242 C32.2727289,33.1642322 32.2822691,32.8747794 32.2881356,32.5923623 L32.2951255,32.0377375 L32.2932488,31.5068455 L32.2834352,31.0046577 L32.2666144,30.5361453 L32.2437162,30.1062794 C32.239445,30.0381318 32.2349594,29.9718016 32.2302786,29.9073924 L32.2000075,29.5448174 L32.1659833,29.2333171 L32.1291357,28.9778627 C32.1228108,28.9402336 32.1164071,28.9051469 32.1099437,28.8727061 C32.0285758,28.3234728 32.4063411,27.8134898 32.9557029,27.7321028 Z M24.0086146,29.1484178 L24.0136364,29.15625 L24.0191074,29.4399789 L24.036097,31.387993 L24.0420026,34.2328926 L24.0390732,40.3001834 L24.0227273,47.9193182 L24.0289773,47.9255682 L24.0370956,47.9229327 L24.0551391,39.0409371 L24.0493437,31.3425479 L24.0330057,29.4856154 L24.0241099,29.1784741 L24.0158029,29.1559406 C24.0137986,29.1535239 24.0114297,29.1512698 24.0086146,29.1484178 Z M33.0985816,28.7162703 L33.0948358,28.7013738 L33.1144388,28.8253923 L33.1393607,29.0301048 L33.1812441,29.4539959 L33.2353728,30.1693992 L33.2573662,30.5623988 C33.3254302,31.9641936 33.3007402,33.4771061 33.1481719,35.046052 C32.7282224,39.3200544 31.4470506,43.3478029 28.9900365,46.6316956 L28.6978794,47.0132784 C28.7059263,47.0153409 28.7123468,47.0123406 28.7092921,47.0162776 C30.0731359,45.2890739 31.1559681,43.2490282 31.9256584,40.9549543 C32.540982,39.1089833 32.9552527,37.114674 33.1551724,35.0205209 C33.3484599,33.0260179 33.3373146,31.1842608 33.2026433,29.6059096 L33.1820086,29.377613 L33.1390295,28.9735491 L33.1056453,28.7209513 L33.0985816,28.7162703 Z M14.4638114,28.9684355 L14.4208323,29.3724993 C14.4138312,29.4456848 14.406939,29.5217861 14.4001976,29.600796 C14.2655263,31.1791472 14.254381,33.0209042 14.447737,35.0161197 C14.64792,37.1130361 15.0629013,39.1120315 15.6770789,40.9495301 C16.3830857,43.0629359 17.3599261,44.9635477 18.5811805,46.6040075 L18.8968668,47.01402 L18.9038025,47.0070935 C16.2546997,43.6509916 14.8901975,39.4805198 14.4546337,35.0405779 C14.2630203,33.0758261 14.2733164,31.2346846 14.4059311,29.6394482 L14.4506269,29.1590759 L14.503334,28.7175485 L14.4638114,28.9684355 Z" id="形状"></path>
                <path d="M17.242951,36.4258409 C15.4480273,36.7038369 13.7499066,37.0814636 12.1614418,37.5340174 C11.7689841,37.6458286 11.3985064,37.7570308 11.0493487,37.8669218 L10.3792645,38.0847473 C10.1652483,38.1566344 9.96051218,38.2277305 9.76486049,38.2978278 L9.20496332,38.5049148 L8.69839973,38.7047599 C8.61835175,38.7373946 8.54047711,38.7696755 8.46475138,38.8015767 L8.03598824,38.9882182 C7.90153244,39.0487743 7.7754767,39.1076032 7.65762547,39.1644969 C7.15179054,39.4173605 6.94801913,40.0194124 7.1890112,40.5214792 C7.4253933,40.9943784 7.96546847,41.2079199 8.44443941,41.0345014 L9.01640855,40.7809232 L9.42721929,40.6100138 C9.50062742,40.5803036 9.57650674,40.5500033 9.65485928,40.5191464 C10.5519519,40.1658522 11.5848008,39.8128327 12.7412337,39.4829418 C14.2523421,39.0518739 15.8616001,38.6933205 17.5547793,38.4316332 C24.38789,37.3767207 31.6725944,37.9746341 38.899783,41.0165254 C39.0383813,41.0700934 39.1636422,41.0965909 39.2931818,41.0965909 C39.6992305,41.0965909 40.0687777,40.8530908 40.2262207,40.4693236 C40.4374935,39.9562336 40.1963726,39.3657966 39.6855456,39.1454398 C35.998653,37.5889526 32.1275847,36.5864442 28.1665694,36.1579718 L27.4228479,36.0843651 C24.0550815,35.7838567 20.6290858,35.8985344 17.242951,36.4258409 Z M27.3336935,37.0803829 C31.4505199,37.4500364 35.4747204,38.4532257 39.2930369,40.0651799 C39.2996333,40.068042 39.3047939,40.0806788 39.3012973,40.0891706 L39.2902789,40.0951394 L39.2732395,40.089009 C31.8753564,36.9750088 24.4065854,36.3619876 17.4021216,37.443354 C15.6665609,37.7115916 14.0168657,38.0791547 12.4669112,38.521304 C11.2783348,38.8603644 10.2148798,39.2238448 9.28842992,39.5887005 L8.82904723,39.7745732 L8.42939646,39.9457216 L8.13315399,40.0807684 C8.10084113,40.0959602 8.09283811,40.0932104 8.08698632,40.0815068 C8.08514902,40.0775289 8.08873976,40.0669198 8.0986068,40.0619863 L8.31292059,39.9615875 L8.57703574,39.8444942 L8.89858116,39.708976 L9.28518576,39.5533025 C10.2006871,39.1921887 11.2544534,38.8322108 12.4354389,38.4957479 C13.9851517,38.0542346 15.6430181,37.6855596 17.3964135,37.4139953 C20.4485549,36.9387001 23.5330722,36.8067503 26.574543,37.0199233 L27.3336935,37.0803829 Z" id="路径"></path>
                <path d="M15.8738636,1.44261364 L15.8738636,29.2227273 L7.80170455,29.2227273 L7.80170455,1.44261364 L15.8738636,1.44261364 Z M14.873,2.442 L8.801,2.442 L8.801,28.222 L14.873,28.222 L14.873,2.442 Z M14.8613636,2.45511364 L14.8613636,28.2102273 L8.80909091,28.2102273 L8.80909091,2.45511364 L14.8613636,2.45511364 Z M13.861,3.455 L9.809,3.455 L9.809,27.21 L13.861,27.21 L13.861,3.455 Z" id="形状"></path>
                <path d="M13.8539773,7.50738636 L13.8539773,9.51988636 L9.82159091,9.51988636 L9.82159091,7.50738636 L13.8539773,7.50738636 Z M13.8539773,4.475 L13.8539773,6.4875 L9.82159091,6.4875 L9.82159091,4.475 L13.8539773,4.475 Z" id="形状"></path>
                <path d="M11.8352273,23.0869318 C10.9998966,23.0869318 10.3227273,23.7641011 10.3227273,24.5994318 C10.3227273,25.139796 10.6110081,25.6391132 11.0789773,25.9092953 C11.5469464,26.1794774 12.1235082,26.1794774 12.5914773,25.9092953 C13.0594464,25.6391132 13.3477273,25.139796 13.3477273,24.5994318 C13.3477273,23.7641011 12.670558,23.0869318 11.8352273,23.0869318 Z M11.8352273,24.0869318 C12.1182732,24.0869318 12.3477273,24.3163859 12.3477273,24.5994318 C12.3477273,24.7825305 12.2500453,24.9517206 12.0914773,25.0432699 C11.9329092,25.1348192 11.7375453,25.1348192 11.5789773,25.0432699 C11.4204092,24.9517206 11.3227273,24.7825305 11.3227273,24.5994318 C11.3227273,24.3163859 11.5521813,24.0869318 11.8352273,24.0869318 Z" id="路径"></path>
                <path d="M24.9534091,1.44261364 L24.9534091,29.2227273 L16.88125,29.2227273 L16.88125,1.44261364 L24.9534091,1.44261364 Z M23.953,2.442 L17.881,2.442 L17.881,28.222 L23.953,28.222 L23.953,2.442 Z M23.9460227,2.45511364 L23.9460227,28.2102273 L17.89375,28.2102273 L17.89375,2.45511364 L23.9460227,2.45511364 Z M22.946,3.455 L18.893,3.455 L18.893,27.21 L22.946,27.21 L22.946,3.455 Z" id="形状"></path>
                <path d="M22.9386364,7.50738636 L22.9386364,9.51988636 L18.90625,9.51988636 L18.90625,7.50738636 L22.9386364,7.50738636 Z M22.9386364,4.475 L22.9386364,6.4875 L18.90625,6.4875 L18.90625,4.475 L22.9386364,4.475 Z" id="形状"></path>
                <path d="M20.9198864,23.0869318 C20.0845557,23.0869318 19.4073864,23.7641011 19.4073864,24.5994318 C19.4073864,25.4347625 20.0845557,26.1119318 20.9198864,26.1119318 C21.755217,26.1119318 22.4323864,25.4347625 22.4323864,24.5994318 C22.4323864,23.7641011 21.755217,23.0869318 20.9198864,23.0869318 Z M20.9198864,24.0869318 C21.2029323,24.0869318 21.4323864,24.3163859 21.4323864,24.5994318 C21.4323864,24.8824778 21.2029323,25.1119318 20.9198864,25.1119318 C20.6368404,25.1119318 20.4073864,24.8824778 20.4073864,24.5994318 C20.4073864,24.3163859 20.6368404,24.0869318 20.9198864,24.0869318 Z" id="路径"></path>
                <path d="M23.6713911,3.90702114 L31.1770969,0.930419333 L41.4149725,26.7532061 L33.9092668,29.7298079 L23.6713911,3.90702114 Z M30.615,2.228 L24.969,4.468 L34.47,28.431 L40.116,26.191 L30.615,2.228 Z M24.9804474,4.47441801 L30.6096958,2.24477013 L40.095531,26.1907849 L34.4717122,28.4207087 L24.9804474,4.47441801 Z M30.048,3.542 L26.278,5.035 L35.032,27.121 L38.797,25.629 L30.048,3.542 Z" id="形状"></path>
                <path d="M27.7859016,8.79962691 L31.5343608,7.31329909 L32.276235,9.1840946 L28.5276787,10.6704339 L27.7859016,8.79962691 Z M26.666248,5.98304176 L30.4148042,4.49670242 L31.1565813,6.36750945 L27.4081222,7.85383727 L26.666248,5.98304176 Z" id="形状"></path>
                <path d="M35.4157812,25.3336782 C35.5490843,25.6699517 35.8516612,25.909565 36.2095342,25.9622579 C36.5674072,26.0149508 36.9262068,25.8727181 37.1507767,25.5891375 C37.3753466,25.3055568 37.4315693,24.9237109 37.2982662,24.5874373 C37.1649631,24.2511638 36.8623862,24.0115505 36.5045132,23.9588576 C36.1466402,23.9061647 35.7878406,24.0483974 35.5632707,24.331978 C35.3387008,24.6155587 35.2824781,24.9974046 35.4157812,25.3336782 L35.4157812,25.3336782 Z" id="路径" stroke="#1A63E6"></path>
            </g>
        </g>
    </g>
</svg>