<?xml version="1.0" encoding="UTF-8"?>
<svg width="48px" height="48px" viewBox="0 0 48 48" version="1.1" xmlns="http://www.w3.org/2000/svg" xmlns:xlink="http://www.w3.org/1999/xlink">
    <title>服务管理</title>
    <g id="基础数据-电子地图" stroke="none" stroke-width="1" fill="none" fill-rule="evenodd">
        <g id="基础平台-平台概览" transform="translate(-1334.000000, -2501.000000)" fill-rule="nonzero">
            <g id="服务管理" transform="translate(1334.000000, 2501.000000)">
                <rect id="矩形" fill="#000000" opacity="0" x="0" y="0" width="48" height="48"></rect>
                <path d="M33.317647,22.5882353 L34.7294118,23.1529411 L36.1411765,20.6117647 L35.0117647,19.482353 C35.5764705,18.3529412 35.8588235,16.9411765 35.8588235,15.5294117 C35.8588235,14.117647 35.5764705,12.7058823 35.0117647,11.5764706 L36.1411765,10.4470588 L34.7294118,7.90588231 L33.317647,8.47058824 C31.6235294,6.21176473 29.0823529,4.79999998 26.2588235,4.51764702 L25.6941176,2.82352937 L22.8705882,2.82352937 L22.5882353,4.23529412 C19.7647058,4.79999998 17.2235294,6.21176473 15.5294117,8.47058824 L14.117647,7.90588231 L12.7058824,10.4470588 L13.8352941,11.5764706 C13.2705882,12.7058824 12.9882353,14.117647 12.9882353,15.5294117 C12.9882353,16.9411764 13.2705882,18.3529412 13.8352941,19.482353 L12.7058824,20.6117647 L14.117647,23.1529411 L15.5294117,22.5882353 C17.2235294,24.8470588 19.7647058,26.2588235 22.5882353,26.5411764 L22.8705882,27.9529412 L25.6941176,27.9529412 L25.9764706,26.5411764 C29.0823529,26.2588235 31.6235294,24.8470588 33.317647,22.5882353 L33.317647,22.5882353 Z M19.7647058,2.25882351 L20.0470588,0 L28.517647,0 L28.8,2.25882351 C30.4941177,2.82352937 32.1882353,3.67058819 33.317647,4.79999998 L35.2941176,3.95294116 L40.0941176,11.2941176 L38.4,12.7058824 C38.6823529,13.5529412 38.6823529,14.4 38.6823529,15.2470588 C38.6823529,16.0941177 38.6823529,16.9411765 38.4,17.7882353 L40.0941176,19.2 L35.8588235,26.5411764 L33.882353,25.6941176 C32.4705883,26.8235294 31.0588235,27.6705882 29.3647059,28.2352941 L28.517647,31.0588235 L20.0470588,31.0588235 L19.7647058,28.8 C18.0705882,28.2352942 16.3764706,27.3882353 15.2470588,26.2588235 L13.2705882,27.1058824 L8.75294114,19.7647058 L10.4470588,18.3529412 C10.1647058,17.5058823 10.1647058,16.6588235 10.1647059,15.8117647 C10.164706,14.9647059 10.1647059,14.117647 10.4470588,13.2705882 L8.75294114,11.2941176 L12.9882353,3.95294116 L14.9647059,4.79999998 C16.6588235,3.67058819 18.0705882,2.82352937 19.7647058,2.25882351 Z M31.0588235,41.2235294 L31.0588235,48 L28.2352941,48 L28.2352941,39.2470588 C37.5529411,37.2705882 44.6117647,29.6470588 45.1764706,20.0470588 L48,20.0470588 C47.4352941,29.9294117 40.3764706,38.4 31.0588235,41.2235294 Z M16.9411765,41.2235294 C7.62352942,38.4 0.564705861,29.9294117 0,19.7647058 L2.82352937,19.7647058 C3.38823523,29.3647059 10.4470588,37.2705882 19.7647058,38.9647059 L19.7647058,48 L16.9411765,48 L16.9411765,41.2235294 Z M24.2823529,21.1764706 C21.1764706,21.1764706 18.6352941,18.6352941 18.6352941,15.5294117 C18.6352941,12.4235293 21.1764706,9.88235292 24.2823529,9.88235292 C27.3882353,9.88235292 29.9294117,12.4235294 29.9294117,15.5294117 C29.9294117,18.6352941 27.6705882,21.1764706 24.2823529,21.1764706 Z M24.2823529,18.3529412 C25.9764706,18.3529412 27.1058824,17.2235294 27.1058824,15.5294117 C27.1058824,13.8352941 25.9764706,12.7058824 24.2823529,12.7058824 C22.5882353,12.7058824 21.4588235,13.8352941 21.4588235,15.5294117 C21.4588235,17.2235293 22.8705882,18.3529412 24.2823529,18.3529412 Z" id="形状" fill="#1A63E6"></path>
            </g>
        </g>
    </g>
</svg>