<?xml version="1.0" encoding="UTF-8"?>
<svg width="48px" height="50px" viewBox="0 0 48 50" version="1.1" xmlns="http://www.w3.org/2000/svg" xmlns:xlink="http://www.w3.org/1999/xlink">
    <title>建设信息</title>
    <g id="基础数据-电子地图" stroke="none" stroke-width="1" fill="none" fill-rule="evenodd">
        <g id="基础平台-平台概览" transform="translate(-1034.000000, -2370.000000)" fill-rule="nonzero">
            <g id="建设信息" transform="translate(1034.000000, 2370.000000)">
                <rect id="矩形" fill="#000000" opacity="0" x="0" y="1" width="48" height="48"></rect>
                <path d="M28.1535153,19.7449803 L19.831893,19.7449803 C19.4195604,19.7449803 19.0821973,19.4048228 19.0821973,18.9890748 L19.0821973,6.40324803 C19.0821973,5.9875 19.4195604,5.64734252 19.831893,5.64734252 L28.1160305,5.64734252 C28.5283631,5.64734252 28.8657262,5.9875 28.8657262,6.40324803 L28.8657262,18.9890748 C28.903211,19.4048228 28.5658479,19.7449803 28.1535153,19.7449803 Z M20.5815887,18.2331693 L27.4038196,18.2331693 L27.4038196,7.12135827 L20.5815887,7.12135827 L20.5815887,18.2331693 L20.5815887,18.2331693 Z M25.6045499,7.12135827 L22.3808584,7.12135827 C21.9685258,7.12135827 21.6311627,6.78120079 21.6311627,6.36545276 L21.6311627,1.94340551 C21.6311627,1.52765748 21.9685258,1.1875 22.3808584,1.1875 L25.6045499,1.1875 C26.0168825,1.1875 26.3542456,1.52765748 26.3542456,1.94340551 L26.3542456,6.40324803 C26.3542456,6.81899606 26.0168825,7.12135827 25.6045499,7.12135827 Z M23.1305541,5.64734252 L24.8548542,5.64734252 L24.8548542,2.69931102 L23.1305541,2.69931102 L23.1305541,5.64734252 L23.1305541,5.64734252 Z M30.9648741,23.6000984 L17.0205342,23.6000984 C16.6082016,23.6000984 16.2708385,23.2599409 16.2708385,22.8441929 L16.2708385,18.9890748 C16.2708385,18.5733268 16.6082016,18.2331693 17.0205342,18.2331693 L30.9648741,18.2331693 C31.3772067,18.2331693 31.7145698,18.5733268 31.7145698,18.9890748 L31.7145698,22.8441929 C31.7145698,23.2599409 31.3772067,23.6000984 30.9648741,23.6000984 Z M17.7702299,22.0882874 L30.2526632,22.0882874 L30.2526632,19.707185 L17.7702299,19.707185 L17.7702299,22.0882874 Z M23.9552194,49.1875 C23.5803715,49.1875 23.2804932,48.9229331 23.2430085,48.5827756 L21.8560714,41.2882874 L21.8560714,22.8441929 C21.8560714,22.4284449 22.1934345,22.0882874 22.6057671,22.0882874 L25.4546108,22.0882874 C25.8669434,22.0882874 26.2043065,22.4284449 26.2043065,22.8441929 L26.2043065,41.2882874 L24.7423998,48.5827756 C24.5924607,48.9229331 24.2925824,49.1875 23.9552194,49.1875 Z M23.317978,41.099311 L23.9552194,44.5764764 L24.6674303,41.099311 L24.6674303,23.6000984 L23.317978,23.6000984 L23.317978,41.099311 Z M6.74970316,49.1875 C6.6372488,49.1875 6.52479445,49.1497047 6.41234009,49.1119094 C6.11246181,48.9607283 5.96252268,48.5827756 6.03749225,48.2426181 L7.91173148,41.5150591 C7.94921627,41.4394685 7.94921627,41.4016732 7.98670105,41.3260827 L17.582806,22.5040354 C17.6952603,22.2394685 17.9576538,22.0882874 18.2575321,22.0882874 L21.4437388,22.0882874 C21.7061323,22.0882874 21.931041,22.2394685 22.0809801,22.4662402 C22.2309193,22.6930118 22.2309193,22.9575787 22.1184649,23.1843504 L11.8476339,43.291437 C11.8101491,43.3670276 11.7726643,43.4048228 11.7351795,43.4804134 L7.31197493,48.9229331 C7.16203579,49.0741142 6.93712708,49.1875 6.74970316,49.1875 L6.74970316,49.1875 Z M9.33615331,41.9686024 L8.43651847,45.1812008 L10.5356664,42.5733268 L20.2067409,23.6000984 L18.6698647,23.6000984 L9.33615331,41.9686024 L9.33615331,41.9686024 Z M41.2357051,49.1875 C41.0107964,49.1875 40.8233725,49.0741142 40.6734334,48.9229331 L36.2502288,43.4804134 C36.212744,43.4426181 36.1752592,43.4048228 36.1752592,43.3292323 L25.9044282,23.1843504 C25.7919738,22.9575787 25.7919738,22.6552165 25.941913,22.4662402 C26.0918521,22.2394685 26.3167608,22.0882874 26.5791543,22.0882874 L29.765361,22.0882874 C30.0277545,22.0882874 30.290148,22.2394685 30.4400871,22.5040354 L40.036192,41.3260827 C40.0736768,41.363878 40.0736768,41.4016732 40.0736768,41.4772638 L41.9854008,48.2426181 C42.0978552,48.5827756 41.9104313,48.9607283 41.610553,49.1119094 C41.4980986,49.1497047 41.3856443,49.1875 41.2357051,49.1875 Z M37.4497419,42.5733268 L39.5488898,45.1812008 L38.649255,41.9686024 L29.2780588,23.6000984 L27.7411826,23.6000984 L37.4497419,42.5733268 Z M23.9927042,14.907185 C22.7557063,14.907185 21.7811018,13.9245079 21.7811018,12.6772638 C21.7811018,11.4300197 22.7557063,10.4473425 23.9927042,10.4473425 C25.229702,10.4473425 26.2043065,11.4300197 26.2043065,12.6772638 C26.2043065,13.9245079 25.229702,14.907185 23.9927042,14.907185 Z M23.9927042,11.203248 C23.1680389,11.203248 22.5307975,11.883563 22.5307975,12.6772638 C22.5307975,13.5087598 23.2055237,14.1512795 23.9927042,14.1512795 C24.8173694,14.1512795 25.4546108,13.4709646 25.4546108,12.6772638 C25.4546108,11.883563 24.8173694,11.203248 23.9927042,11.203248 L23.9927042,11.203248 Z" id="形状" fill="#1A63E6"></path>
                <path d="M25.6045499,0.9875 C26.0903419,0.9875 26.492819,1.35832407 26.5478372,1.83232438 L26.5542456,1.94341877 L26.553,5.447 L28.1160305,5.44734252 C28.6018224,5.44734252 29.0042996,5.81816659 29.0593178,6.29216611 L29.0657262,6.40326031 L29.064,18.033 L30.9648741,18.0331693 C31.4506661,18.0331693 31.8531432,18.4039934 31.9081614,18.8779831 L31.9145698,18.9890748 L31.9145698,22.8441929 C31.9145698,23.2476106 31.66215,23.5992381 31.2943288,23.7384132 L40.1781955,41.1852458 C40.244701,41.2523022 40.2659057,41.3055591 40.2678688,41.3710549 L40.2661404,41.4228783 L42.1752929,48.1798407 C42.3043776,48.5703024 42.1316025,49.0099562 41.7754027,49.2433108 L41.6737985,49.3016461 L41.5709051,49.3347615 C41.4449176,49.3728645 41.3576327,49.3875 41.2357051,49.3875 C41.0081548,49.3875 40.8026577,49.3002886 40.6122219,49.1370025 L40.5182267,49.0490715 L36.1088074,43.6218347 L36.0599914,43.5691347 C36.0176957,43.5195038 35.9936367,43.4776909 35.9916156,43.4469737 L35.9970813,43.4200763 L26.403,24.556 L26.400407,41.3275884 L24.9254093,48.6634449 C24.737593,49.0895319 24.3649805,49.3875 23.9552194,49.3875 C23.5234701,49.3875 23.1591731,49.1055052 23.0652792,48.7259336 L21.6560714,41.2882882 L21.677,24.486 L12.0072214,43.4176333 L11.8903862,43.6065518 L7.45397836,49.0637699 C7.26366482,49.2556599 6.98907501,49.3875 6.74970316,49.3875 C6.67585836,49.3875 6.61451069,49.3794817 6.53638624,49.3593336 L6.34909454,49.3016461 L6.32230616,49.2904981 C5.97754259,49.1166884 5.78393568,48.7152382 5.82529015,48.3103043 L5.84482914,48.1889438 L7.73255262,41.4262056 L7.78982611,41.2752226 L16.7212644,23.7512966 C16.3817357,23.6371703 16.1265137,23.3345781 16.0788646,22.9684263 L16.0708385,22.8441929 L16.0708385,18.9890748 C16.0708385,18.5007973 16.4386162,18.0950962 16.9100144,18.0396301 L17.0205178,18.0331693 L18.882,18.033 L18.8821973,6.40324803 C18.8821973,5.91497049 19.2499751,5.50926945 19.7213559,5.45380337 L19.831855,5.44734252 L21.431,5.447 L21.4311627,1.94340551 C21.4311627,1.45512797 21.7989404,1.04942693 22.2703518,0.993960847 L22.3808584,0.9875 L25.6045499,0.9875 Z M27.618,23.799 L26.442,23.799 L36.3752592,43.3292323 C36.3752592,43.3271524 36.3728462,43.3224041 36.3777028,43.3259892 L36.4054354,43.354275 L40.8154368,48.7820962 C40.9494585,48.917228 41.0888479,48.9875 41.2357051,48.9875 C41.2747008,48.9875 41.3083628,48.9851116 41.3443161,48.97902 L41.4666753,48.9483204 L41.528,48.928 L41.591657,48.8895964 C41.7223752,48.7935395 41.8070298,48.6363654 41.8159162,48.4752436 L41.8119182,48.3785542 L41.7929373,48.2970036 L39.8736768,41.4772638 C39.8736768,41.4485719 39.8750005,41.4456812 39.8703591,41.4373664 L30.876,23.8 L29.604,23.8 L38.8418461,41.9146704 L40.0043625,46.0660194 L37.2716973,42.6644318 L27.618,23.799 Z M18.343,23.8 L17.145,23.8 L8.15679861,41.4344488 L8.12426753,41.5265566 L8.10439459,41.5687333 L6.23280487,48.2856644 C6.18239689,48.5143792 6.26658927,48.7580411 6.41048105,48.8784956 L6.47558565,48.9221728 L6.55482112,48.9480919 L6.66809349,48.9788487 C6.69866703,48.9850164 6.72396345,48.9875 6.74970316,48.9875 C6.8490876,48.9875 6.98176444,48.9333408 7.08543114,48.8573634 L7.15676828,48.7967947 L11.5560007,43.3915599 L11.5969062,43.3183657 L11.6695228,43.2004621 L21.603,23.8 L20.328,23.8 L10.691465,42.6987333 L7.98104582,46.0660194 L8.24392734,45.1272688 L9.15785195,41.8780009 L18.343,23.8 Z M23.117,23.8 L22.055,23.8 L22.0525514,41.2509297 L23.441805,48.5608685 C23.4683436,48.8016941 23.6846718,48.9875 23.9552194,48.9875 C24.1599688,48.9875 24.3702715,48.8397932 24.4972437,48.6346476 L24.5462993,48.5434746 L26.0043065,41.2882909 L26.0259504,23.8630952 L25.993,23.8 L24.867,23.8 L24.8633625,41.1394429 L23.9443111,45.6264476 L23.117978,41.099311 L23.117,23.8 Z M19.88,23.8 L18.792,23.8 L9.52874444,42.0225343 L8.891,44.298 L10.3574793,42.4825008 L19.88,23.8 Z M29.155,23.8 L28.068,23.8 L37.6055405,42.4479203 L39.095,44.298 L38.4711007,42.0594927 L29.155,23.8 Z M24.467,23.8 L23.517,23.8 L23.5147017,41.0632585 L23.966,43.531 L24.4674303,41.099311 L24.467,23.8 Z M19.567,19.906 L17.97,19.907 L17.97,21.888 L18.2575321,21.8882874 L18.2575321,22.2882874 C18.0613567,22.2882874 17.8980014,22.3701581 17.8027205,22.5165309 L17.349,23.4 L21.656,23.4 L21.6560714,22.8441929 C21.6560714,22.6883305 21.6937583,22.5376267 21.7599346,22.4085107 C21.6890567,22.3488774 21.6104501,22.3110685 21.5277157,22.2958911 L21.4437388,22.2882874 L21.4437388,21.8882874 L22.6057671,21.8882874 L22.6057671,22.2882874 C22.4885244,22.2882874 22.376759,22.3261184 22.2877933,22.3903981 L22.2758869,22.4010966 C22.4139366,22.6378053 22.4343139,22.9116888 22.3426673,23.1671745 L22.2965481,23.27538 L22.232,23.4 L25.79,23.4 L25.7252493,23.2732038 C25.5940276,23.0085865 25.5883657,22.6831051 25.7177426,22.4437111 L25.7814851,22.3468128 L25.8725282,22.2275691 L26.0233254,22.0499275 L26.2062115,22.2612161 C26.3082413,22.3941009 26.3738042,22.5509859 26.3959481,22.7176575 L26.4043064,22.844274 L26.403,23.4 L30.672,23.4 L30.2660877,22.6026468 C30.1845697,22.4588086 30.0592313,22.3569286 29.9282499,22.3136175 L29.8492893,22.2947919 L29.7511114,22.2877791 L29.765361,21.8882874 L30.052,21.888 L30.052,19.907 L28.416,19.906 L28.4059308,19.910463 C28.3515452,19.9256785 28.2957308,19.9359477 28.2390696,19.9411032 L28.1535153,19.9449803 L19.831893,19.9449803 C19.7745649,19.9449803 19.7177925,19.9397895 19.6573648,19.9280347 L19.567,19.906 Z M18.882,18.432 L17.0205342,18.4331693 C16.74918,18.4331693 16.5210098,18.6358692 16.4780893,18.8992344 L16.4708385,18.9890748 L16.4708385,22.8441929 C16.4708385,23.058154 16.5924521,23.2449633 16.7661003,23.3378469 L16.8435039,23.371709 L16.906,23.387 L17.3987431,22.4257994 C17.419927,22.375961 17.4452683,22.3290923 17.474317,22.2854072 L17.5206142,22.222294 L17.57,22.168 L17.5702299,19.5072052 L19.037,19.507 L19.00941,19.4657899 C18.9686957,19.3949067 18.9368925,19.318606 18.9152679,19.2385935 L18.8906234,19.1160043 L18.8821974,18.989127 L18.882,18.432 Z M30.4526632,19.5072048 L30.452,22.192 L30.4779159,22.217483 L30.5163121,22.2626554 L30.5525757,22.3103707 L30.6182548,22.4131714 L31.11,23.379 L31.1262003,23.3755094 C31.2952631,23.3225803 31.4291896,23.1890066 31.4855864,23.0214074 L31.5071277,22.9349881 L31.5145698,22.8441929 L31.5145698,18.9890748 C31.5145698,18.713982 31.3135351,18.4837728 31.0535195,18.4404819 L30.964858,18.4331693 L29.064,18.432 L29.0649182,18.9711152 C29.0754633,19.0880726 29.0628354,19.2019066 29.0300343,19.3082402 L28.99062,19.4119117 L28.939,19.507 L30.4526632,19.5072048 Z M24.6548542,5.84738822 L24.654,2.899 L23.33,2.899 L23.3305541,5.84738821 L21.83,5.846 L21.8311627,6.36545276 C21.8311627,6.64054559 22.0321974,6.87075479 22.2922013,6.9140457 L22.3808584,6.92135827 L22.3808584,7.32135827 L20.781,7.321 L20.7815887,18.4331919 L19.281,18.432 L19.2821973,18.9890748 C19.2821973,19.1814831 19.3815328,19.3569002 19.5284642,19.4542538 L19.6056567,19.4961426 L19.638,19.507 L28.346,19.507 L28.3648349,19.5016791 C28.5354255,19.4281249 28.6494069,19.2744699 28.6658326,19.0861218 L28.665,18.432 L27.2038196,18.4331925 L27.203,7.321 L25.6045499,7.32135827 L25.6045499,6.92135827 C25.8855646,6.92135827 26.1060063,6.7407995 26.1472846,6.48953562 L26.1542456,6.40331298 L26.154,5.846 L24.6548542,5.84738822 Z M26.553,5.846 L26.5542456,6.40324803 C26.5542456,6.55237996 26.5197968,6.69124142 26.4582765,6.81352721 L26.4071756,6.9020351 L26.393,6.921 L27.6038196,6.92135827 L27.603,18.033 L28.665,18.032 L28.6657262,6.40324803 C28.6657262,6.15872106 28.5068839,5.94965772 28.2889567,5.87581345 L28.2046593,5.85465509 L28.1159916,5.84734252 L26.553,5.846 Z M21.431,5.846 L19.831893,5.84734252 C19.5605388,5.84734252 19.3323687,6.05004243 19.2894482,6.31341004 L19.2821973,6.40325137 L19.281,18.033 L20.381,18.033 L20.3815887,6.92135827 L21.611,6.921 L21.579349,6.87698695 C21.5230802,6.78810725 21.4809869,6.68934903 21.4563153,6.58400209 L21.4375711,6.47658077 L21.4311627,6.36549805 L21.431,5.846 Z M23.9927042,10.2473425 C25.34053,10.2473425 26.4043065,11.3199304 26.4043065,12.6772638 C26.4043065,14.0345972 25.34053,15.107185 23.9927042,15.107185 C22.6448783,15.107185 21.5811018,14.0345972 21.5811018,12.6772638 C21.5811018,11.3199304 22.6448783,10.2473425 23.9927042,10.2473425 Z M23.9927042,10.6473425 C22.8665342,10.6473425 21.9811018,11.540109 21.9811018,12.6772638 C21.9811018,13.8144186 22.8665342,14.707185 23.9927042,14.707185 C25.1188741,14.707185 26.0043065,13.8144186 26.0043065,12.6772638 C26.0043065,11.540109 25.1188741,10.6473425 23.9927042,10.6473425 Z M23.9927042,11.003248 C24.9161808,11.003248 25.6546108,11.76109 25.6546108,12.6772638 C25.6546108,13.5934376 24.9161808,14.3512795 23.9927042,14.3512795 C23.0824349,14.3512795 22.3307975,13.6067121 22.3307975,12.6772638 C22.3307975,11.76109 23.0692275,11.003248 23.9927042,11.003248 Z M23.9927042,11.403248 C23.2924977,11.403248 22.7307975,11.9797143 22.7307975,12.6772638 C22.7307975,13.3849476 23.302507,13.9512795 23.9927042,13.9512795 C24.6929106,13.9512795 25.2546108,13.3748133 25.2546108,12.6772638 C25.2546108,11.9797143 24.6929106,11.403248 23.9927042,11.403248 Z M25.6045499,1.3875 L22.3808584,1.3875 C22.1095042,1.3875 21.881334,1.59019991 21.8384136,1.8535715 L21.8311627,1.9434143 L21.83,5.447 L22.93,5.447 L22.9305541,2.49931102 L25.0548542,2.49931102 L25.054,5.447 L26.154,5.446 L26.1542456,1.94340551 C26.1542456,1.69887855 25.9954033,1.4898152 25.777496,1.41597094 L25.693207,1.39481257 L25.6045499,1.3875 Z" id="形状" fill="#1A63E6"></path>
            </g>
        </g>
    </g>
</svg>