<?xml version="1.0" encoding="UTF-8"?>
<svg width="48px" height="48px" viewBox="0 0 48 48" version="1.1" xmlns="http://www.w3.org/2000/svg" xmlns:xlink="http://www.w3.org/1999/xlink">
    <title>公共专题数据</title>
    <g id="基础数据-电子地图" stroke="none" stroke-width="1" fill="none" fill-rule="evenodd">
        <g id="基础平台-平台概览" transform="translate(-933.000000, -2501.000000)" fill-rule="nonzero">
            <g id="公共专题数据" transform="translate(933.000000, 2501.000000)">
                <rect id="矩形" fill="#000000" opacity="0" x="0" y="0" width="48" height="48"></rect>
                <path d="M0,0 L16.0003636,4.36363636 L31.9996364,0 L48,4.36363636 L48,48 L31.9996364,43.6363636 L16.0003636,48 L0,43.6363636 L0,0 Z M4.36363636,40.3036364 L16.0003636,43.4770909 L31.9996364,39.1134546 L43.6363636,42.2869091 L43.6363636,7.69636364 L31.9996364,4.52290908 L16.0003636,8.88654544 L4.36363636,5.71309092 L4.36363636,40.3036364 Z M14.1818182,13.0909091 L18.5454546,13.0909091 L18.5454546,39.2727273 L14.1818182,39.2727273 L14.1818182,13.0909091 Z M29.4545454,15.2727273 L33.8181818,15.2727273 L33.8181818,32.7272727 L29.4545454,32.7272727 L29.4545454,15.2727273 Z" id="形状" fill="#1A63E6"></path>
            </g>
        </g>
    </g>
</svg>