<?xml version="1.0" encoding="UTF-8"?>
<svg width="48px" height="48px" viewBox="0 0 48 48" version="1.1" xmlns="http://www.w3.org/2000/svg" xmlns:xlink="http://www.w3.org/1999/xlink">
    <title>工程建设项目数据</title>
    <g id="基础数据-电子地图" stroke="none" stroke-width="1" fill="none" fill-rule="evenodd">
        <g id="基础平台-平台概览" transform="translate(-731.000000, -2501.000000)" fill-rule="nonzero">
            <g id="工程建设项目数据" transform="translate(731.000000, 2501.000000)">
                <rect id="矩形" fill="#000000" opacity="0" x="0" y="0" width="48" height="48"></rect>
                <path d="M31,32 C31.2652165,32 31.5195704,32.1053568 31.7071068,32.2928932 C31.8946432,32.4804296 32,32.7347835 32,33 L32,47 C32,47.2652165 31.8946432,47.5195704 31.7071068,47.7071068 C31.5195704,47.8946432 31.2652165,48 31,48 L29,48 C28.7347835,48 28.4804296,47.8946432 28.2928932,47.7071068 C28.1053568,47.5195704 28,47.2652165 28,47 L28,33 C28,32.7347835 28.1053568,32.4804296 28.2928932,32.2928932 C28.4804296,32.1053568 28.7347835,32 29,32 L31,32 L31,32 Z M39,38 C39.5522847,38 40,38.4477153 40,39 L40,47 C40,47.5522848 39.5522847,48 39,48 L37,48 C36.4477152,48 36,47.5522848 36,47 L36,39 C36,38.4477153 36.4477152,38 37,38 L39,38 L39,38 Z M47,32 C47.2652165,32 47.5195704,32.1053569 47.7071068,32.2928932 C47.8946432,32.4804296 48,32.7347835 48,33 L48,47 C48,47.5522848 47.5522848,48 47,48 L45,48 C44.4477153,48 44,47.5522848 44,47 L44,33 C44,32.7347835 44.1053569,32.4804296 44.2928932,32.2928932 C44.4804296,32.1053569 44.7347835,32 45,32 L47,32 L47,32 Z M21.116,3.99999987 C22.8384297,3.99958522 24.3677123,5.10182897 24.912,6.73599998 L26.666,11.9999999 L46,11.9999999 C47.1045695,11.9999999 48,12.8954305 48,13.9999999 L48,23.9999999 L44,23.9999999 L44,15.9999999 L23.782,15.9999999 L21.116,7.99999987 L4,7.99999987 L4,39.9999999 L24,39.9999999 L24,43.9999999 L2,43.9999999 C0.895430507,43.9999999 0,43.1045695 0,41.9999999 L0,5.99999987 C0,4.89543049 0.895430507,3.99999987 2,3.99999987 L21.116,3.99999987 Z" id="形状" fill="#1A63E6"></path>
            </g>
        </g>
    </g>
</svg>