<?xml version="1.0" encoding="UTF-8"?>
<svg width="48px" height="48px" viewBox="0 0 48 48" version="1.1" xmlns="http://www.w3.org/2000/svg" xmlns:xlink="http://www.w3.org/1999/xlink">
    <title>规划管控数据</title>
    <g id="基础数据-电子地图" stroke="none" stroke-width="1" fill="none" fill-rule="evenodd">
        <g id="基础平台-平台概览" transform="translate(-531.000000, -2501.000000)" fill-rule="nonzero">
            <g id="规划管控数据" transform="translate(531.000000, 2501.000000)">
                <rect id="矩形" fill="#000000" opacity="0" x="0" y="0" width="48" height="48"></rect>
                <path d="M3.39914344,30.6717486 L3.40024664,43.7705636 C3.40125394,44.4385107 3.94098403,44.9781928 4.60893117,44.9792001 L43.322955,44.9770896 C43.6425144,44.9781449 43.951425,44.8488245 44.1768241,44.6233294 C44.4023192,44.3978823 44.5316875,44.0890197 44.5305913,43.7694603 L44.5284257,30.6717006 C44.5284257,30.3361681 44.393781,30.0347884 44.1746656,29.815673 C43.9556461,29.5966056 43.6532111,29.4609055 43.3197892,29.4609055 L4.60888322,29.4619128 C4.28826858,29.4619128 3.98050927,29.5901299 3.75395887,29.8166803 C3.52740848,30.0432307 3.40019873,30.3499348 3.39914344,30.6716527 L3.39914344,30.6716526 L3.39914344,30.6717486 Z M41.9693608,42.4158181 L39.5301186,42.4168734 L39.5301186,39.2991792 C39.5301186,38.9657572 39.3944665,38.6633223 39.1753511,38.4442548 C38.9562356,38.2251874 38.6538007,38.0894394 38.3204747,38.0894394 C37.6525755,38.0904947 37.1128455,38.6301768 37.1117422,39.2981239 L37.1117422,42.4158181 L34.9968561,42.4168734 L34.9968561,39.2991313 C34.9968561,38.9657573 34.8611081,38.6633223 34.6419927,38.4442549 C34.4229732,38.2251874 34.1205383,38.0894394 33.7871163,38.0893915 C33.1192171,38.0904468 32.5794871,38.6301768 32.5773285,39.2992272 L32.5773285,42.4169214 L30.4635937,42.4168735 L30.4634977,36.3132997 C30.4635937,35.9798778 30.3278457,35.6774428 30.1087302,35.4583754 C29.8896148,35.2393079 29.5872758,35.1035599 29.2537579,35.1035599 C28.5858587,35.1046152 28.0452173,35.6453526 28.044066,36.3133477 L28.0440661,42.4168254 L25.9302353,42.4168254 L25.9302353,39.2991312 C25.9302353,38.9657093 25.7945833,38.6632263 25.5754678,38.4441588 C25.3563524,38.2250913 25.0539174,38.0893913 24.7204955,38.0893913 C24.0525963,38.0904466 23.5118589,38.631232 23.5108036,39.2991311 L23.5108036,42.4168733 L21.3946224,42.4168733 L21.3946224,39.2970206 C21.3946224,38.9635987 21.2578672,38.6601084 21.039855,38.4420483 C20.8218428,38.2240361 20.5194078,38.0883361 20.1859859,38.0883361 C19.5170314,38.0883361 18.9761981,38.6290735 18.9762461,39.2980759 L18.9762461,42.4179286 L16.8602567,42.4179286 L16.861312,36.3132037 C16.861312,35.9797817 16.7267153,35.67845 16.5076478,35.4593346 C16.2885803,35.2403151 15.9871527,35.1055744 15.6537307,35.1055744 C14.9847763,35.1056704 14.4440389,35.6464077 14.4450462,36.314211 L14.4439909,42.4189839 L12.3268983,42.4200392 L12.3268983,39.3001865 C12.3268983,38.9667646 12.1923016,38.6653849 11.9732341,38.4463174 C11.7541186,38.227202 11.452739,38.0926052 11.119317,38.0926052 C10.4503146,38.0926052 9.90957727,38.6332946 9.90957727,39.302345 L9.90852197,42.4211904 L5.96473186,42.4221977 L5.96473186,32.0295639 L41.9672502,32.0231842 L41.9693608,42.4158181 Z M44.3650485,8.49273792 L37.7870284,3.26792836 C37.1611487,2.77074544 36.250726,2.87464298 35.7528715,3.500043 L26.1072832,15.6172515 C25.9701922,15.7894547 25.8741134,15.9906783 25.8264817,16.2054767 L24.0822402,24.0621179 C23.845137,25.1304496 24.8326434,26.0658154 25.8864889,25.7711032 L33.9432504,23.5178309 C34.237435,23.4356626 34.4981862,23.2623561 34.6879455,23.0229984 L44.5989859,10.5271825 C45.095881,9.90072731 44.991216,8.9901127 44.3650485,8.49273792 L44.3650485,8.49273792 Z M32.8608164,20.973444 L27.2559605,22.5558911 L28.4315474,17.0410222 L37.0490008,6.13734291 L41.7289957,9.79174519 L32.8608164,20.973444 Z M5.95048556,26.7515105 C5.95048556,27.1505519 5.66133759,27.4740446 5.30460347,27.4740446 L4.01293523,27.4740446 C3.65620111,27.4740446 3.36705314,27.1505519 3.36705314,26.7515105 L3.36705314,3.72184458 C3.36705314,3.32280314 3.65620111,2.99931047 4.01293523,2.99931047 L5.30455552,2.99931047 C5.66128964,2.99931047 5.95043761,3.32280314 5.95043761,3.72184458 L5.95043761,26.7515105 L5.95048556,26.7515105 Z M22.4149867,26.970482 C22.4149867,27.2631795 22.1517412,27.5004747 21.8270013,27.5004747 L3.96707831,27.5004747 C3.64233848,27.5004747 3.37909298,27.2631795 3.37909298,26.970482 L3.37909298,25.446987 C3.37909298,25.1542414 3.64233848,24.9169943 3.96707831,24.9169943 L21.8270013,24.9169943 C22.1517891,24.9169943 22.4149867,25.1542414 22.4149867,25.446987 L22.4149867,26.970482 Z M14.5396861,17.3735807 C14.7348178,17.5721661 14.7069007,17.916045 14.4773763,18.141636 L6.58034653,25.9019105 C6.3507742,26.1275016 6.00651159,26.1493747 5.81133192,25.9508373 L4.70726447,24.8272951 C4.51213275,24.6287097 4.54004986,24.2848789 4.76957423,24.0592878 L12.6665561,16.2989173 C12.8961284,16.0733263 13.240391,16.0514051 13.4355707,16.2499905 L14.5396861,17.3735807 Z" id="形状" fill="#1A63E6"></path>
            </g>
        </g>
    </g>
</svg>