<?xml version="1.0" encoding="UTF-8"?>
<svg width="48px" height="48px" viewBox="0 0 48 48" version="1.1" xmlns="http://www.w3.org/2000/svg" xmlns:xlink="http://www.w3.org/1999/xlink">
    <title>规划信息</title>
    <g id="基础数据-电子地图" stroke="none" stroke-width="1" fill="none" fill-rule="evenodd">
        <g id="基础平台-平台概览" transform="translate(-823.000000, -2372.000000)" fill-rule="nonzero">
            <g id="规划信息" transform="translate(823.000000, 2372.000000)">
                <rect id="矩形" fill="#000000" opacity="0" x="0" y="0" width="48" height="48"></rect>
                <g id="编组-5" transform="translate(2.000000, 2.000000)" fill="#1A63E6">
                    <path d="M10.0708235,7.32082355 L11.9007059,9.15070588 L7.32470584,13.7267059 L5.49482351,11.8968236 L10.0708235,7.32082355 Z M10.9805882,13.7215295 L12.8104705,15.5514118 L10.9805882,17.3812941 L9.15070588,15.5514118 L10.9805882,13.7215295 Z M28.3670588,29.2664706 L30.1982353,31.096353 L27.4521176,33.8424706 L25.6222353,32.0125883 L28.3670588,29.2664706 Z M33.8567058,31.1105883 L35.6865882,32.9417647 L31.1105882,37.5164706 L29.2807059,35.6865882 L33.8567058,31.1105883 Z" id="形状"></path>
                    <path d="M31.136,21.068 L43.0035294,32.9352942 L32.9352941,43.0035294 L21.055,31.123 L22.889,29.295 L32.9352941,39.3411765 L39.3411765,32.9352942 L29.303,22.897 L31.136,21.068 Z M10.0682353,-4.33849035e-13 L21.961,11.893 L20.13,13.724 L10.0682353,3.66235298 L3.66235292,10.0682353 L13.724,20.13 L11.893,21.961 L3.55271368e-15,10.0682353 L10.0682353,-4.33849035e-13 Z" id="形状结合"></path>
                    <path d="M31.9970588,1.07844549 C32.6903711,1.07844549 33.3546985,1.35660324 33.8411764,1.85058826 L41.1658823,9.17529416 C41.6598674,9.66177208 41.9380251,10.3260995 41.9380251,11.0194118 C41.9380251,11.7127241 41.6598674,12.3770515 41.1658823,12.8635295 L11.5694118,42.4211765 L3.66235292,41.6576471 C2.44697894,41.5299134 1.48655716,40.5694917 1.35882353,39.3541177 L0.595294097,31.4341177 L30.1529411,1.85058826 C30.6394191,1.35660324 31.3037465,1.07844549 31.9970588,1.07844549 Z M27.4602941,8.23044549 L3.28705878,32.4047059 L3.93411763,39.0952941 L10.6117647,39.7164706 L34.7732941,15.5434455 L27.4602941,8.23044549 Z M32.0294118,3.66235298 L29.2902941,6.40044549 L36.6022941,13.7124455 L39.3152941,11 L32.0294118,3.66235298 Z" id="形状结合"></path>
                </g>
            </g>
        </g>
    </g>
</svg>