<?xml version="1.0" encoding="UTF-8"?>
<svg width="48px" height="48px" viewBox="0 0 48 48" version="1.1" xmlns="http://www.w3.org/2000/svg" xmlns:xlink="http://www.w3.org/1999/xlink">
    <title>数据服务</title>
    <g id="基础数据-电子地图" stroke="none" stroke-width="1" fill="none" fill-rule="evenodd">
        <g id="基础平台-平台概览" transform="translate(-1131.000000, -2501.000000)" fill-rule="nonzero">
            <g id="数据服务" transform="translate(1131.000000, 2501.000000)">
                <rect id="矩形" fill="#000000" opacity="0" x="0" y="0" width="48" height="48"></rect>
                <path d="M24,0 C11.7531375,0 2.15810583,5.24776814 2.15810583,11.9487644 L2.15810583,36.0450252 C2.15810583,42.7460215 11.7531375,47.9937896 24,47.9937896 C36.2468625,47.9937896 45.8418942,42.7460215 45.8418942,36.0450252 L45.8418942,11.9487644 C45.8356838,5.24776814 36.2468625,0 24,0 Z M5.88433172,23.8230043 C5.88433172,22.8603959 6.30663731,21.8977875 7.1388278,20.9538103 C7.40587397,20.6557122 7.54871264,20.2893 7.59218527,19.9228878 C11.5668262,22.3821969 17.3921594,23.9099496 24,23.9099496 C30.5457368,23.9099496 36.3338077,22.4070384 40.3022383,19.991202 C40.3767628,20.2955104 40.5133911,20.5811877 40.7369647,20.8296028 C41.64989,21.8170527 42.1094579,22.8231337 42.1094579,23.8292146 C42.1094579,27.7169103 34.6694269,32.0517532 23.9937896,32.0517532 C13.3181524,32.0517532 5.88433172,27.7107 5.88433172,23.8230043 Z M24,3.72622589 C34.6756372,3.72622589 42.1156683,8.06106867 42.1156683,11.9487644 C42.1156683,15.8364601 34.6756372,20.1775133 24,20.1775133 C13.3243628,20.1775133 5.88433172,15.8426705 5.88433172,11.9487644 C5.88433172,8.05485834 13.3243628,3.72622589 24,3.72622589 Z M24,44.2737741 C13.3243628,44.2737741 5.88433172,39.9389313 5.88433172,36.0450252 C5.88433172,35.0824169 6.30663731,34.1198085 7.1388278,33.1758313 C7.48660889,32.7783672 7.63565794,32.2753267 7.59839564,31.7909173 C11.5730366,34.244016 17.3983698,35.7717687 24,35.7717687 C30.5208953,35.7717687 36.2841247,34.2812783 40.2525553,31.884073 C40.2773968,32.3001682 40.4326562,32.7162634 40.7369647,33.0454134 C41.64989,34.0328633 42.1094579,35.0389442 42.1094579,36.0450252 C42.1094579,39.9389313 34.6756373,44.2737741 24,44.2737741 L24,44.2737741 Z" id="形状" fill="#1A63E6"></path>
            </g>
        </g>
    </g>
</svg>