<?xml version="1.0" encoding="UTF-8"?>
<svg width="54px" height="54px" viewBox="0 0 54 54" version="1.1" xmlns="http://www.w3.org/2000/svg" xmlns:xlink="http://www.w3.org/1999/xlink">
    <title>目标</title>
    <g id="应用" stroke="none" stroke-width="1" fill="none" fill-rule="evenodd">
        <g id="体检平台" transform="translate(-399.000000, -1445.000000)" fill-rule="nonzero">
            <g id="目标" transform="translate(399.000000, 1445.000000)">
                <rect id="矩形" fill="#000000" opacity="0" x="0" y="0" width="54" height="54"></rect>
                <path d="M29.7263672,22.4015625 C28.9300781,21.9375 28.0072266,21.6685547 27.0158203,21.6685547 C24.046875,21.6685547 21.6421875,24.0732422 21.6421875,27.0421875 C21.6421875,30.0111328 24.046875,32.4158203 27.0158203,32.4158203 C29.9847656,32.4158203 32.3894531,30.0111328 32.3894531,27.0421875 C32.3894531,26.1931641 32.1890625,25.3863281 31.8410156,24.6691406 L43.8011719,12.7089844 L45.4412109,14.090625 L51.6269531,8.25820312 L47.0232422,7.7625 L46.4273438,3.36445312 L40.2363281,9.196875 L41.6021484,10.5152344 L29.7263672,22.4015625 Z" id="路径" fill="#3468F7"></path>
                <path d="M42.2666016,16.1367188 C44.4761719,19.2111328 45.7787109,22.9816406 45.7787109,27.0474609 C45.7787109,37.3939453 37.3623047,45.8103516 27.0158203,45.8103516 C16.6693359,45.8103516 8.24765625,37.3939453 8.24765625,27.0474609 C8.24765625,16.7009766 16.6693359,8.27929688 27.0158203,8.27929688 C31.0605469,8.27929688 34.8046875,9.57128906 37.8738281,11.7544922 L40.0939453,9.534375 C36.4447266,6.80273438 31.9148437,5.17851563 27.0158203,5.17851563 C14.9607422,5.17851563 5.146875,14.9871094 5.146875,27.0421875 C5.146875,39.0972656 14.9554688,48.9058594 27.0158203,48.9058594 C39.0761719,48.9058594 48.8794922,39.0972656 48.8794922,27.0421875 C48.8794922,22.1167969 47.2447266,17.5710938 44.4867188,13.9113281 L42.2666016,16.1367188 Z" id="路径" fill="#3468F7"></path>
                <path d="M27.0158203,16.4056641 C28.8087891,16.4056641 30.5015625,16.8539063 31.9833984,17.6449219 L34.25625,15.3720703 C32.1521484,14.0642578 29.6736328,13.3048828 27.0158203,13.3048828 C19.4378906,13.3048828 13.2732422,19.4695313 13.2732422,27.0474609 C13.2732422,34.6253906 19.4378906,40.7900391 27.0158203,40.7900391 C34.59375,40.7900391 40.7583984,34.6253906 40.7583984,27.0474609 C40.7583984,24.3685547 39.9832031,21.8689453 38.6542969,19.7542969 L36.3867187,22.021875 C37.1935547,23.5195312 37.6523437,25.2333984 37.6523437,27.0474609 C37.6523437,32.9115234 32.8798828,37.6839844 27.0158203,37.6839844 C21.1517578,37.6839844 16.3792969,32.9115234 16.3792969,27.0474609 C16.3740234,21.178125 21.1464844,16.4056641 27.0158203,16.4056641 Z" id="路径" fill="#3468F7"></path>
            </g>
        </g>
    </g>
</svg>