<?xml version="1.0" encoding="UTF-8"?>
<svg width="54px" height="54px" viewBox="0 0 54 54" version="1.1" xmlns="http://www.w3.org/2000/svg" xmlns:xlink="http://www.w3.org/1999/xlink">
    <title>任务</title>
    <g id="应用" stroke="none" stroke-width="1" fill="none" fill-rule="evenodd">
        <g id="体检平台" transform="translate(-999.000000, -1445.000000)" fill-rule="nonzero">
            <g id="任务" transform="translate(999.000000, 1445.000000)">
                <rect id="矩形" fill="#000000" opacity="0" x="0" y="0" width="54" height="54"></rect>
                <path d="M24.6269531,35.9121094 L24.6164063,35.9121094 C24.1523438,35.9068359 23.709375,35.7169922 23.3929688,35.3794922 L14.428125,25.7923828 C13.7900391,25.1121094 13.8269531,24.0416016 14.5072266,23.4087891 C15.1875,22.7707031 16.2580078,22.8076172 16.8908203,23.4878906 L24.6427734,31.7724609 L36.3814453,19.5539062 C37.0248047,18.8841797 38.0953125,18.8630859 38.7650391,19.5064453 C39.4347656,20.1498047 39.4558594,21.2203125 38.8125,21.8900391 L25.8398438,35.3900391 C25.5287109,35.7275391 25.0857422,35.9121094 24.6269531,35.9121094 Z" id="路径" fill="#3688FF"></path>
                <path d="M43.2263672,48.5683594 L10.0353516,48.5683594 C7.09277344,48.5683594 4.69335938,46.2955078 4.69335938,43.5058594 L4.69335938,13.1308594 C4.69335938,10.3412109 7.09277344,8.06835938 10.0353516,8.06835938 L15.6621094,8.06835938 C16.5955078,8.06835938 17.3496094,8.82246094 17.3496094,9.75585938 C17.3496094,10.6892578 16.5955078,11.4433594 15.6621094,11.4433594 L10.0353516,11.4433594 C8.94902344,11.4433594 8.06835938,12.2027344 8.06835938,13.1308594 L8.06835938,43.5058594 C8.06835938,44.4339844 8.94902344,45.1933594 10.0353516,45.1933594 L43.2210937,45.1933594 C44.3074219,45.1933594 45.1880859,44.4339844 45.1880859,43.5058594 L45.1880859,13.1308594 C45.1880859,12.2027344 44.3074219,11.4433594 43.2210937,11.4433594 L37.5996094,11.4433594 C36.6662109,11.4433594 35.9121094,10.6892578 35.9121094,9.75585938 C35.9121094,8.82246094 36.6662109,8.06835938 37.5996094,8.06835938 L43.2263672,8.06835938 C46.1742188,8.06835938 48.5683594,10.3412109 48.5683594,13.1308594 L48.5683594,43.5058594 C48.5683594,46.2955078 46.1689453,48.5683594 43.2263672,48.5683594 Z" id="路径" fill="#3688FF"></path>
                <path d="M34.2246094,14.8183594 L19.0371094,14.8183594 C16.2474609,14.8183594 13.9746094,12.5455078 13.9746094,9.75585938 C13.9746094,6.96621094 16.2474609,4.69335938 19.0371094,4.69335938 L34.2246094,4.69335938 C37.0142578,4.69335938 39.2871094,6.96621094 39.2871094,9.75585938 C39.2871094,12.5455078 37.0142578,14.8183594 34.2246094,14.8183594 Z M19.0371094,8.06835938 C18.1089844,8.06835938 17.3496094,8.82773438 17.3496094,9.75585938 C17.3496094,10.6839844 18.1089844,11.4433594 19.0371094,11.4433594 L34.2246094,11.4433594 C35.1527344,11.4433594 35.9121094,10.6839844 35.9121094,9.75585938 C35.9121094,8.82773438 35.1527344,8.06835938 34.2246094,8.06835938 L19.0371094,8.06835938 Z" id="形状" fill="#3688FF"></path>
            </g>
        </g>
    </g>
</svg>